<?xml version="1.0" encoding="utf-8" standalone="no"?>
<!DOCTYPE svg PUBLIC "-//W3C//DTD SVG 1.1//EN"
  "http://www.w3.org/Graphics/SVG/1.1/DTD/svg11.dtd">
<svg xmlns:xlink="http://www.w3.org/1999/xlink" width="516.6pt" height="335.952pt" viewBox="0 0 516.6 335.952" xmlns="http://www.w3.org/2000/svg" version="1.1">
 <metadata>
  <rdf:RDF xmlns:dc="http://purl.org/dc/elements/1.1/" xmlns:cc="http://creativecommons.org/ns#" xmlns:rdf="http://www.w3.org/1999/02/22-rdf-syntax-ns#">
   <cc:Work>
    <dc:type rdf:resource="http://purl.org/dc/dcmitype/StillImage"/>
    <dc:date>2026-07-06T06:30:44.812032</dc:date>
    <dc:format>image/svg+xml</dc:format>
    <dc:creator>
     <cc:Agent>
      <dc:title>Matplotlib v3.10.9, https://matplotlib.org/</dc:title>
     </cc:Agent>
    </dc:creator>
   </cc:Work>
  </rdf:RDF>
 </metadata>
 <defs>
  <style type="text/css">*{stroke-linejoin: round; stroke-linecap: butt}</style>
 </defs>
 <g id="figure_1">
  <g id="patch_1">
   <path d="M 0 335.952 
L 516.6 335.952 
L 516.6 0 
L 0 0 
z
" style="fill: #ffffff"/>
  </g>
  <g id="axes_1">
   <g id="patch_2">
    <path d="M 57.42 156.72168 
L 107.64 156.72168 
Q 125.217 156.72168 125.217 145.46736 
L 125.217 129.38976 
Q 125.217 118.13544 107.64 118.13544 
L 57.42 118.13544 
Q 39.843 118.13544 39.843 129.38976 
L 39.843 145.46736 
Q 39.843 156.72168 57.42 156.72168 
z
" clip-path="url(#p73f3271701)" style="fill: #f7f9fa; stroke: #9fb3c8; stroke-width: 1.4; stroke-linejoin: miter"/>
   </g>
   <g id="patch_3">
    <path d="M 150.327 156.72168 
L 200.547 156.72168 
Q 218.124 156.72168 218.124 145.46736 
L 218.124 129.38976 
Q 218.124 118.13544 200.547 118.13544 
L 150.327 118.13544 
Q 132.75 118.13544 132.75 129.38976 
L 132.75 145.46736 
Q 132.75 156.72168 150.327 156.72168 
z
" clip-path="url(#p73f3271701)" style="fill: #f7f9fa; stroke: #9fb3c8; stroke-width: 1.4; stroke-linejoin: miter"/>
   </g>
   <g id="patch_4">
    <path d="M 243.234 156.72168 
L 293.454 156.72168 
Q 311.031 156.72168 311.031 145.46736 
L 311.031 129.38976 
Q 311.031 118.13544 293.454 118.13544 
L 243.234 118.13544 
Q 225.657 118.13544 225.657 129.38976 
L 225.657 145.46736 
Q 225.657 156.72168 243.234 156.72168 
z
" clip-path="url(#p73f3271701)" style="fill: #f7f9fa; stroke: #9fb3c8; stroke-width: 1.4; stroke-linejoin: miter"/>
   </g>
   <g id="patch_5">
    <path d="M 336.141 156.72168 
L 386.361 156.72168 
Q 403.938 156.72168 403.938 145.46736 
L 403.938 129.38976 
Q 403.938 118.13544 386.361 118.13544 
L 336.141 118.13544 
Q 318.564 118.13544 318.564 129.38976 
L 318.564 145.46736 
Q 318.564 156.72168 336.141 156.72168 
z
" clip-path="url(#p73f3271701)" style="fill: #f7f9fa; stroke: #9fb3c8; stroke-width: 1.4; stroke-linejoin: miter"/>
   </g>
   <g id="patch_6">
    <path d="M 429.048 156.72168 
L 479.268 156.72168 
Q 496.845 156.72168 496.845 145.46736 
L 496.845 129.38976 
Q 496.845 118.13544 479.268 118.13544 
L 429.048 118.13544 
Q 411.471 118.13544 411.471 129.38976 
L 411.471 145.46736 
Q 411.471 156.72168 429.048 156.72168 
z
" clip-path="url(#p73f3271701)" style="fill: #f7f9fa; stroke: #9fb3c8; stroke-width: 1.4; stroke-linejoin: miter"/>
   </g>
   <g id="patch_7">
    <path d="M 167.904 262.83384 
L 348.696 262.83384 
Q 366.273 262.83384 366.273 251.57952 
L 366.273 235.50192 
Q 366.273 224.2476 348.696 224.2476 
L 167.904 224.2476 
Q 150.327 224.2476 150.327 235.50192 
L 150.327 251.57952 
Q 150.327 262.83384 167.904 262.83384 
z
" clip-path="url(#p73f3271701)" style="fill: #eaf4fb; stroke: #1f77b4; stroke-width: 1.4; stroke-linejoin: miter"/>
   </g>
   <g id="patch_8">
    <path d="M 123.684101 137.42856 
Q 128.9827 137.42856 132.883756 137.42856 
" clip-path="url(#p73f3271701)" style="fill: none; stroke: #52616b; stroke-width: 1.25; stroke-linecap: round"/>
    <path d="M 127.683756 134.82856 
L 132.883756 137.42856 
L 127.683756 140.02856 
z
" clip-path="url(#p73f3271701)" style="fill: #52616b; stroke: #52616b; stroke-width: 1.25; stroke-linecap: round"/>
   </g>
   <g id="patch_9">
    <path d="M 216.591101 137.42856 
Q 221.8897 137.42856 225.790756 137.42856 
" clip-path="url(#p73f3271701)" style="fill: none; stroke: #52616b; stroke-width: 1.25; stroke-linecap: round"/>
    <path d="M 220.590756 134.82856 
L 225.790756 137.42856 
L 220.590756 140.02856 
z
" clip-path="url(#p73f3271701)" style="fill: #52616b; stroke: #52616b; stroke-width: 1.25; stroke-linecap: round"/>
   </g>
   <g id="patch_10">
    <path d="M 309.498101 137.42856 
Q 314.7967 137.42856 318.697756 137.42856 
" clip-path="url(#p73f3271701)" style="fill: none; stroke: #52616b; stroke-width: 1.25; stroke-linecap: round"/>
    <path d="M 313.497756 134.82856 
L 318.697756 137.42856 
L 313.497756 140.02856 
z
" clip-path="url(#p73f3271701)" style="fill: #52616b; stroke: #52616b; stroke-width: 1.25; stroke-linecap: round"/>
   </g>
   <g id="patch_11">
    <path d="M 402.405101 137.42856 
Q 407.7037 137.42856 411.604756 137.42856 
" clip-path="url(#p73f3271701)" style="fill: none; stroke: #52616b; stroke-width: 1.25; stroke-linecap: round"/>
    <path d="M 406.404756 134.82856 
L 411.604756 137.42856 
L 406.404756 140.02856 
z
" clip-path="url(#p73f3271701)" style="fill: #52616b; stroke: #52616b; stroke-width: 1.25; stroke-linecap: round"/>
   </g>
   <g id="patch_12">
    <path d="M 88.025495 154.311218 
Q 170.415169 190.484714 251.525206 226.096381 
" clip-path="url(#p73f3271701)" style="fill: none; stroke: #1f77b4; stroke-width: 1.25; stroke-linecap: round"/>
    <path d="M 247.809141 221.625267 
L 251.525206 226.096381 
L 245.718676 226.386564 
z
" clip-path="url(#p73f3271701)" style="fill: #1f77b4; stroke: #1f77b4; stroke-width: 1.25; stroke-linecap: round"/>
   </g>
   <g id="patch_13">
    <path d="M 179.829488 155.989239 
Q 216.869974 190.486013 252.887756 224.030315 
" clip-path="url(#p73f3271701)" style="fill: none; stroke: #1f77b4; stroke-width: 1.25; stroke-linecap: round"/>
    <path d="M 250.854446 218.583697 
L 252.887756 224.030315 
L 247.310475 222.388992 
z
" clip-path="url(#p73f3271701)" style="fill: #1f77b4; stroke: #1f77b4; stroke-width: 1.25; stroke-linecap: round"/>
   </g>
   <g id="patch_14">
    <path d="M 267.569734 157.847426 
Q 263.322143 190.483539 259.254921 221.733798 
" clip-path="url(#p73f3271701)" style="fill: none; stroke: #1f77b4; stroke-width: 1.25; stroke-linecap: round"/>
    <path d="M 262.504296 216.912848 
L 259.254921 221.733798 
L 257.347786 216.241728 
z
" clip-path="url(#p73f3271701)" style="fill: #1f77b4; stroke: #1f77b4; stroke-width: 1.25; stroke-linecap: round"/>
   </g>
   <g id="patch_15">
    <path d="M 356.447165 155.499374 
Q 309.774246 190.48558 264.219574 224.633544 
" clip-path="url(#p73f3271701)" style="fill: none; stroke: #1f77b4; stroke-width: 1.25; stroke-linecap: round"/>
    <path d="M 269.939838 223.594994 
L 264.219574 224.633544 
L 266.820892 219.434203 
z
" clip-path="url(#p73f3271701)" style="fill: #1f77b4; stroke: #1f77b4; stroke-width: 1.25; stroke-linecap: round"/>
   </g>
   <g id="patch_16">
    <path d="M 448.578366 154.096902 
Q 356.230819 190.483923 265.18352 226.358617 
" clip-path="url(#p73f3271701)" style="fill: none; stroke: #1f77b4; stroke-width: 1.25; stroke-linecap: round"/>
    <path d="M 270.974644 226.871335 
L 265.18352 226.358617 
L 269.068368 222.033348 
z
" clip-path="url(#p73f3271701)" style="fill: #1f77b4; stroke: #1f77b4; stroke-width: 1.25; stroke-linecap: round"/>
   </g>
   <g id="text_1">
    <!-- Incremental Repository Growth -->
    <g style="fill: #1f2933" transform="translate(116.8125 30.61182) scale(0.16 -0.16)">
     <defs>
      <path id="DejaVuSans-Bold-49" d="M 588 4666 
L 1791 4666 
L 1791 0 
L 588 0 
L 588 4666 
z
" transform="scale(0.015625)"/>
      <path id="DejaVuSans-Bold-6e" d="M 4056 2131 
L 4056 0 
L 2931 0 
L 2931 347 
L 2931 1631 
Q 2931 2084 2911 2256 
Q 2891 2428 2841 2509 
Q 2775 2619 2662 2680 
Q 2550 2741 2406 2741 
Q 2056 2741 1856 2470 
Q 1656 2200 1656 1722 
L 1656 0 
L 538 0 
L 538 3500 
L 1656 3500 
L 1656 2988 
Q 1909 3294 2193 3439 
Q 2478 3584 2822 3584 
Q 3428 3584 3742 3212 
Q 4056 2841 4056 2131 
z
" transform="scale(0.015625)"/>
      <path id="DejaVuSans-Bold-63" d="M 3366 3391 
L 3366 2478 
Q 3138 2634 2908 2709 
Q 2678 2784 2431 2784 
Q 1963 2784 1702 2511 
Q 1441 2238 1441 1747 
Q 1441 1256 1702 982 
Q 1963 709 2431 709 
Q 2694 709 2930 787 
Q 3166 866 3366 1019 
L 3366 103 
Q 3103 6 2833 -42 
Q 2563 -91 2291 -91 
Q 1344 -91 809 395 
Q 275 881 275 1747 
Q 275 2613 809 3098 
Q 1344 3584 2291 3584 
Q 2566 3584 2833 3536 
Q 3100 3488 3366 3391 
z
" transform="scale(0.015625)"/>
      <path id="DejaVuSans-Bold-72" d="M 3138 2547 
Q 2991 2616 2845 2648 
Q 2700 2681 2553 2681 
Q 2122 2681 1889 2404 
Q 1656 2128 1656 1613 
L 1656 0 
L 538 0 
L 538 3500 
L 1656 3500 
L 1656 2925 
Q 1872 3269 2151 3426 
Q 2431 3584 2822 3584 
Q 2878 3584 2943 3579 
Q 3009 3575 3134 3559 
L 3138 2547 
z
" transform="scale(0.015625)"/>
      <path id="DejaVuSans-Bold-65" d="M 4031 1759 
L 4031 1441 
L 1416 1441 
Q 1456 1047 1700 850 
Q 1944 653 2381 653 
Q 2734 653 3104 758 
Q 3475 863 3866 1075 
L 3866 213 
Q 3469 63 3072 -14 
Q 2675 -91 2278 -91 
Q 1328 -91 801 392 
Q 275 875 275 1747 
Q 275 2603 792 3093 
Q 1309 3584 2216 3584 
Q 3041 3584 3536 3087 
Q 4031 2591 4031 1759 
z
M 2881 2131 
Q 2881 2450 2695 2645 
Q 2509 2841 2209 2841 
Q 1884 2841 1681 2658 
Q 1478 2475 1428 2131 
L 2881 2131 
z
" transform="scale(0.015625)"/>
      <path id="DejaVuSans-Bold-6d" d="M 3781 2919 
Q 3994 3244 4286 3414 
Q 4578 3584 4928 3584 
Q 5531 3584 5847 3212 
Q 6163 2841 6163 2131 
L 6163 0 
L 5038 0 
L 5038 1825 
Q 5041 1866 5042 1909 
Q 5044 1953 5044 2034 
Q 5044 2406 4934 2573 
Q 4825 2741 4581 2741 
Q 4263 2741 4089 2478 
Q 3916 2216 3909 1719 
L 3909 0 
L 2784 0 
L 2784 1825 
Q 2784 2406 2684 2573 
Q 2584 2741 2328 2741 
Q 2006 2741 1831 2477 
Q 1656 2213 1656 1722 
L 1656 0 
L 531 0 
L 531 3500 
L 1656 3500 
L 1656 2988 
Q 1863 3284 2130 3434 
Q 2397 3584 2719 3584 
Q 3081 3584 3359 3409 
Q 3638 3234 3781 2919 
z
" transform="scale(0.015625)"/>
      <path id="DejaVuSans-Bold-74" d="M 1759 4494 
L 1759 3500 
L 2913 3500 
L 2913 2700 
L 1759 2700 
L 1759 1216 
Q 1759 972 1856 886 
Q 1953 800 2241 800 
L 2816 800 
L 2816 0 
L 1856 0 
Q 1194 0 917 276 
Q 641 553 641 1216 
L 641 2700 
L 84 2700 
L 84 3500 
L 641 3500 
L 641 4494 
L 1759 4494 
z
" transform="scale(0.015625)"/>
      <path id="DejaVuSans-Bold-61" d="M 2106 1575 
Q 1756 1575 1579 1456 
Q 1403 1338 1403 1106 
Q 1403 894 1545 773 
Q 1688 653 1941 653 
Q 2256 653 2472 879 
Q 2688 1106 2688 1447 
L 2688 1575 
L 2106 1575 
z
M 3816 1997 
L 3816 0 
L 2688 0 
L 2688 519 
Q 2463 200 2181 54 
Q 1900 -91 1497 -91 
Q 953 -91 614 226 
Q 275 544 275 1050 
Q 275 1666 698 1953 
Q 1122 2241 2028 2241 
L 2688 2241 
L 2688 2328 
Q 2688 2594 2478 2717 
Q 2269 2841 1825 2841 
Q 1466 2841 1156 2769 
Q 847 2697 581 2553 
L 581 3406 
Q 941 3494 1303 3539 
Q 1666 3584 2028 3584 
Q 2975 3584 3395 3211 
Q 3816 2838 3816 1997 
z
" transform="scale(0.015625)"/>
      <path id="DejaVuSans-Bold-6c" d="M 538 4863 
L 1656 4863 
L 1656 0 
L 538 0 
L 538 4863 
z
" transform="scale(0.015625)"/>
      <path id="DejaVuSans-Bold-20" transform="scale(0.015625)"/>
      <path id="DejaVuSans-Bold-52" d="M 2297 2597 
Q 2675 2597 2839 2737 
Q 3003 2878 3003 3200 
Q 3003 3519 2839 3656 
Q 2675 3794 2297 3794 
L 1791 3794 
L 1791 2597 
L 2297 2597 
z
M 1791 1766 
L 1791 0 
L 588 0 
L 588 4666 
L 2425 4666 
Q 3347 4666 3776 4356 
Q 4206 4047 4206 3378 
Q 4206 2916 3982 2619 
Q 3759 2322 3309 2181 
Q 3556 2125 3751 1926 
Q 3947 1728 4147 1325 
L 4800 0 
L 3519 0 
L 2950 1159 
Q 2778 1509 2601 1637 
Q 2425 1766 2131 1766 
L 1791 1766 
z
" transform="scale(0.015625)"/>
      <path id="DejaVuSans-Bold-70" d="M 1656 506 
L 1656 -1331 
L 538 -1331 
L 538 3500 
L 1656 3500 
L 1656 2988 
Q 1888 3294 2169 3439 
Q 2450 3584 2816 3584 
Q 3463 3584 3878 3070 
Q 4294 2556 4294 1747 
Q 4294 938 3878 423 
Q 3463 -91 2816 -91 
Q 2450 -91 2169 54 
Q 1888 200 1656 506 
z
M 2400 2772 
Q 2041 2772 1848 2508 
Q 1656 2244 1656 1747 
Q 1656 1250 1848 986 
Q 2041 722 2400 722 
Q 2759 722 2948 984 
Q 3138 1247 3138 1747 
Q 3138 2247 2948 2509 
Q 2759 2772 2400 2772 
z
" transform="scale(0.015625)"/>
      <path id="DejaVuSans-Bold-6f" d="M 2203 2784 
Q 1831 2784 1636 2517 
Q 1441 2250 1441 1747 
Q 1441 1244 1636 976 
Q 1831 709 2203 709 
Q 2569 709 2762 976 
Q 2956 1244 2956 1747 
Q 2956 2250 2762 2517 
Q 2569 2784 2203 2784 
z
M 2203 3584 
Q 3106 3584 3614 3096 
Q 4122 2609 4122 1747 
Q 4122 884 3614 396 
Q 3106 -91 2203 -91 
Q 1297 -91 786 396 
Q 275 884 275 1747 
Q 275 2609 786 3096 
Q 1297 3584 2203 3584 
z
" transform="scale(0.015625)"/>
      <path id="DejaVuSans-Bold-73" d="M 3272 3391 
L 3272 2541 
Q 2913 2691 2578 2766 
Q 2244 2841 1947 2841 
Q 1628 2841 1473 2761 
Q 1319 2681 1319 2516 
Q 1319 2381 1436 2309 
Q 1553 2238 1856 2203 
L 2053 2175 
Q 2913 2066 3209 1816 
Q 3506 1566 3506 1031 
Q 3506 472 3093 190 
Q 2681 -91 1863 -91 
Q 1516 -91 1145 -36 
Q 775 19 384 128 
L 384 978 
Q 719 816 1070 734 
Q 1422 653 1784 653 
Q 2113 653 2278 743 
Q 2444 834 2444 1013 
Q 2444 1163 2330 1236 
Q 2216 1309 1875 1350 
L 1678 1375 
Q 931 1469 631 1722 
Q 331 1975 331 2491 
Q 331 3047 712 3315 
Q 1094 3584 1881 3584 
Q 2191 3584 2531 3537 
Q 2872 3491 3272 3391 
z
" transform="scale(0.015625)"/>
      <path id="DejaVuSans-Bold-69" d="M 538 3500 
L 1656 3500 
L 1656 0 
L 538 0 
L 538 3500 
z
M 538 4863 
L 1656 4863 
L 1656 3950 
L 538 3950 
L 538 4863 
z
" transform="scale(0.015625)"/>
      <path id="DejaVuSans-Bold-79" d="M 78 3500 
L 1197 3500 
L 2138 1125 
L 2938 3500 
L 4056 3500 
L 2584 -331 
Q 2363 -916 2067 -1148 
Q 1772 -1381 1288 -1381 
L 641 -1381 
L 641 -647 
L 991 -647 
Q 1275 -647 1404 -556 
Q 1534 -466 1606 -231 
L 1638 -134 
L 78 3500 
z
" transform="scale(0.015625)"/>
      <path id="DejaVuSans-Bold-47" d="M 4781 347 
Q 4331 128 3847 18 
Q 3363 -91 2847 -91 
Q 1681 -91 1000 561 
Q 319 1213 319 2328 
Q 319 3456 1012 4103 
Q 1706 4750 2913 4750 
Q 3378 4750 3804 4662 
Q 4231 4575 4609 4403 
L 4609 3438 
Q 4219 3659 3833 3768 
Q 3447 3878 3059 3878 
Q 2341 3878 1952 3476 
Q 1563 3075 1563 2328 
Q 1563 1588 1938 1184 
Q 2313 781 3003 781 
Q 3191 781 3352 804 
Q 3513 828 3641 878 
L 3641 1784 
L 2906 1784 
L 2906 2591 
L 4781 2591 
L 4781 347 
z
" transform="scale(0.015625)"/>
      <path id="DejaVuSans-Bold-77" d="M 225 3500 
L 1313 3500 
L 1900 1088 
L 2491 3500 
L 3425 3500 
L 4013 1113 
L 4603 3500 
L 5691 3500 
L 4769 0 
L 3547 0 
L 2956 2406 
L 2369 0 
L 1147 0 
L 225 3500 
z
" transform="scale(0.015625)"/>
      <path id="DejaVuSans-Bold-68" d="M 4056 2131 
L 4056 0 
L 2931 0 
L 2931 347 
L 2931 1625 
Q 2931 2084 2911 2256 
Q 2891 2428 2841 2509 
Q 2775 2619 2662 2680 
Q 2550 2741 2406 2741 
Q 2056 2741 1856 2470 
Q 1656 2200 1656 1722 
L 1656 0 
L 538 0 
L 538 4863 
L 1656 4863 
L 1656 2988 
Q 1909 3294 2193 3439 
Q 2478 3584 2822 3584 
Q 3428 3584 3742 3212 
Q 4056 2841 4056 2131 
z
" transform="scale(0.015625)"/>
     </defs>
     <use xlink:href="#DejaVuSans-Bold-49"/>
     <use xlink:href="#DejaVuSans-Bold-6e" transform="translate(37.207031 0)"/>
     <use xlink:href="#DejaVuSans-Bold-63" transform="translate(108.398438 0)"/>
     <use xlink:href="#DejaVuSans-Bold-72" transform="translate(167.675781 0)"/>
     <use xlink:href="#DejaVuSans-Bold-65" transform="translate(216.992188 0)"/>
     <use xlink:href="#DejaVuSans-Bold-6d" transform="translate(284.814453 0)"/>
     <use xlink:href="#DejaVuSans-Bold-65" transform="translate(389.013672 0)"/>
     <use xlink:href="#DejaVuSans-Bold-6e" transform="translate(456.835938 0)"/>
     <use xlink:href="#DejaVuSans-Bold-74" transform="translate(528.027344 0)"/>
     <use xlink:href="#DejaVuSans-Bold-61" transform="translate(575.830078 0)"/>
     <use xlink:href="#DejaVuSans-Bold-6c" transform="translate(643.310547 0)"/>
     <use xlink:href="#DejaVuSans-Bold-20" transform="translate(677.587891 0)"/>
     <use xlink:href="#DejaVuSans-Bold-52" transform="translate(712.402344 0)"/>
     <use xlink:href="#DejaVuSans-Bold-65" transform="translate(789.404297 0)"/>
     <use xlink:href="#DejaVuSans-Bold-70" transform="translate(857.226562 0)"/>
     <use xlink:href="#DejaVuSans-Bold-6f" transform="translate(928.808594 0)"/>
     <use xlink:href="#DejaVuSans-Bold-73" transform="translate(997.509766 0)"/>
     <use xlink:href="#DejaVuSans-Bold-69" transform="translate(1057.03125 0)"/>
     <use xlink:href="#DejaVuSans-Bold-74" transform="translate(1091.308594 0)"/>
     <use xlink:href="#DejaVuSans-Bold-6f" transform="translate(1139.111328 0)"/>
     <use xlink:href="#DejaVuSans-Bold-72" transform="translate(1207.8125 0)"/>
     <use xlink:href="#DejaVuSans-Bold-79" transform="translate(1257.128906 0)"/>
     <use xlink:href="#DejaVuSans-Bold-20" transform="translate(1322.314453 0)"/>
     <use xlink:href="#DejaVuSans-Bold-47" transform="translate(1357.128906 0)"/>
     <use xlink:href="#DejaVuSans-Bold-72" transform="translate(1439.208984 0)"/>
     <use xlink:href="#DejaVuSans-Bold-6f" transform="translate(1488.525391 0)"/>
     <use xlink:href="#DejaVuSans-Bold-77" transform="translate(1557.226562 0)"/>
     <use xlink:href="#DejaVuSans-Bold-74" transform="translate(1649.609375 0)"/>
     <use xlink:href="#DejaVuSans-Bold-68" transform="translate(1697.412109 0)"/>
    </g>
   </g>
   <g id="text_2">
    <!-- Previously verified segments remain stable while new ranges are appended -->
    <g style="fill: #52616b" transform="translate(87.541172 41.370514) scale(0.09 -0.09)">
     <defs>
      <path id="DejaVuSans-50" d="M 1259 4147 
L 1259 2394 
L 2053 2394 
Q 2494 2394 2734 2622 
Q 2975 2850 2975 3272 
Q 2975 3691 2734 3919 
Q 2494 4147 2053 4147 
L 1259 4147 
z
M 628 4666 
L 2053 4666 
Q 2838 4666 3239 4311 
Q 3641 3956 3641 3272 
Q 3641 2581 3239 2228 
Q 2838 1875 2053 1875 
L 1259 1875 
L 1259 0 
L 628 0 
L 628 4666 
z
" transform="scale(0.015625)"/>
      <path id="DejaVuSans-72" d="M 2631 2963 
Q 2534 3019 2420 3045 
Q 2306 3072 2169 3072 
Q 1681 3072 1420 2755 
Q 1159 2438 1159 1844 
L 1159 0 
L 581 0 
L 581 3500 
L 1159 3500 
L 1159 2956 
Q 1341 3275 1631 3429 
Q 1922 3584 2338 3584 
Q 2397 3584 2469 3576 
Q 2541 3569 2628 3553 
L 2631 2963 
z
" transform="scale(0.015625)"/>
      <path id="DejaVuSans-65" d="M 3597 1894 
L 3597 1613 
L 953 1613 
Q 991 1019 1311 708 
Q 1631 397 2203 397 
Q 2534 397 2845 478 
Q 3156 559 3463 722 
L 3463 178 
Q 3153 47 2828 -22 
Q 2503 -91 2169 -91 
Q 1331 -91 842 396 
Q 353 884 353 1716 
Q 353 2575 817 3079 
Q 1281 3584 2069 3584 
Q 2775 3584 3186 3129 
Q 3597 2675 3597 1894 
z
M 3022 2063 
Q 3016 2534 2758 2815 
Q 2500 3097 2075 3097 
Q 1594 3097 1305 2825 
Q 1016 2553 972 2059 
L 3022 2063 
z
" transform="scale(0.015625)"/>
      <path id="DejaVuSans-76" d="M 191 3500 
L 800 3500 
L 1894 563 
L 2988 3500 
L 3597 3500 
L 2284 0 
L 1503 0 
L 191 3500 
z
" transform="scale(0.015625)"/>
      <path id="DejaVuSans-69" d="M 603 3500 
L 1178 3500 
L 1178 0 
L 603 0 
L 603 3500 
z
M 603 4863 
L 1178 4863 
L 1178 4134 
L 603 4134 
L 603 4863 
z
" transform="scale(0.015625)"/>
      <path id="DejaVuSans-6f" d="M 1959 3097 
Q 1497 3097 1228 2736 
Q 959 2375 959 1747 
Q 959 1119 1226 758 
Q 1494 397 1959 397 
Q 2419 397 2687 759 
Q 2956 1122 2956 1747 
Q 2956 2369 2687 2733 
Q 2419 3097 1959 3097 
z
M 1959 3584 
Q 2709 3584 3137 3096 
Q 3566 2609 3566 1747 
Q 3566 888 3137 398 
Q 2709 -91 1959 -91 
Q 1206 -91 779 398 
Q 353 888 353 1747 
Q 353 2609 779 3096 
Q 1206 3584 1959 3584 
z
" transform="scale(0.015625)"/>
      <path id="DejaVuSans-75" d="M 544 1381 
L 544 3500 
L 1119 3500 
L 1119 1403 
Q 1119 906 1312 657 
Q 1506 409 1894 409 
Q 2359 409 2629 706 
Q 2900 1003 2900 1516 
L 2900 3500 
L 3475 3500 
L 3475 0 
L 2900 0 
L 2900 538 
Q 2691 219 2414 64 
Q 2138 -91 1772 -91 
Q 1169 -91 856 284 
Q 544 659 544 1381 
z
M 1991 3584 
L 1991 3584 
z
" transform="scale(0.015625)"/>
      <path id="DejaVuSans-73" d="M 2834 3397 
L 2834 2853 
Q 2591 2978 2328 3040 
Q 2066 3103 1784 3103 
Q 1356 3103 1142 2972 
Q 928 2841 928 2578 
Q 928 2378 1081 2264 
Q 1234 2150 1697 2047 
L 1894 2003 
Q 2506 1872 2764 1633 
Q 3022 1394 3022 966 
Q 3022 478 2636 193 
Q 2250 -91 1575 -91 
Q 1294 -91 989 -36 
Q 684 19 347 128 
L 347 722 
Q 666 556 975 473 
Q 1284 391 1588 391 
Q 1994 391 2212 530 
Q 2431 669 2431 922 
Q 2431 1156 2273 1281 
Q 2116 1406 1581 1522 
L 1381 1569 
Q 847 1681 609 1914 
Q 372 2147 372 2553 
Q 372 3047 722 3315 
Q 1072 3584 1716 3584 
Q 2034 3584 2315 3537 
Q 2597 3491 2834 3397 
z
" transform="scale(0.015625)"/>
      <path id="DejaVuSans-6c" d="M 603 4863 
L 1178 4863 
L 1178 0 
L 603 0 
L 603 4863 
z
" transform="scale(0.015625)"/>
      <path id="DejaVuSans-79" d="M 2059 -325 
Q 1816 -950 1584 -1140 
Q 1353 -1331 966 -1331 
L 506 -1331 
L 506 -850 
L 844 -850 
Q 1081 -850 1212 -737 
Q 1344 -625 1503 -206 
L 1606 56 
L 191 3500 
L 800 3500 
L 1894 763 
L 2988 3500 
L 3597 3500 
L 2059 -325 
z
" transform="scale(0.015625)"/>
      <path id="DejaVuSans-20" transform="scale(0.015625)"/>
      <path id="DejaVuSans-66" d="M 2375 4863 
L 2375 4384 
L 1825 4384 
Q 1516 4384 1395 4259 
Q 1275 4134 1275 3809 
L 1275 3500 
L 2222 3500 
L 2222 3053 
L 1275 3053 
L 1275 0 
L 697 0 
L 697 3053 
L 147 3053 
L 147 3500 
L 697 3500 
L 697 3744 
Q 697 4328 969 4595 
Q 1241 4863 1831 4863 
L 2375 4863 
z
" transform="scale(0.015625)"/>
      <path id="DejaVuSans-64" d="M 2906 2969 
L 2906 4863 
L 3481 4863 
L 3481 0 
L 2906 0 
L 2906 525 
Q 2725 213 2448 61 
Q 2172 -91 1784 -91 
Q 1150 -91 751 415 
Q 353 922 353 1747 
Q 353 2572 751 3078 
Q 1150 3584 1784 3584 
Q 2172 3584 2448 3432 
Q 2725 3281 2906 2969 
z
M 947 1747 
Q 947 1113 1208 752 
Q 1469 391 1925 391 
Q 2381 391 2643 752 
Q 2906 1113 2906 1747 
Q 2906 2381 2643 2742 
Q 2381 3103 1925 3103 
Q 1469 3103 1208 2742 
Q 947 2381 947 1747 
z
" transform="scale(0.015625)"/>
      <path id="DejaVuSans-67" d="M 2906 1791 
Q 2906 2416 2648 2759 
Q 2391 3103 1925 3103 
Q 1463 3103 1205 2759 
Q 947 2416 947 1791 
Q 947 1169 1205 825 
Q 1463 481 1925 481 
Q 2391 481 2648 825 
Q 2906 1169 2906 1791 
z
M 3481 434 
Q 3481 -459 3084 -895 
Q 2688 -1331 1869 -1331 
Q 1566 -1331 1297 -1286 
Q 1028 -1241 775 -1147 
L 775 -588 
Q 1028 -725 1275 -790 
Q 1522 -856 1778 -856 
Q 2344 -856 2625 -561 
Q 2906 -266 2906 331 
L 2906 616 
Q 2728 306 2450 153 
Q 2172 0 1784 0 
Q 1141 0 747 490 
Q 353 981 353 1791 
Q 353 2603 747 3093 
Q 1141 3584 1784 3584 
Q 2172 3584 2450 3431 
Q 2728 3278 2906 2969 
L 2906 3500 
L 3481 3500 
L 3481 434 
z
" transform="scale(0.015625)"/>
      <path id="DejaVuSans-6d" d="M 3328 2828 
Q 3544 3216 3844 3400 
Q 4144 3584 4550 3584 
Q 5097 3584 5394 3201 
Q 5691 2819 5691 2113 
L 5691 0 
L 5113 0 
L 5113 2094 
Q 5113 2597 4934 2840 
Q 4756 3084 4391 3084 
Q 3944 3084 3684 2787 
Q 3425 2491 3425 1978 
L 3425 0 
L 2847 0 
L 2847 2094 
Q 2847 2600 2669 2842 
Q 2491 3084 2119 3084 
Q 1678 3084 1418 2786 
Q 1159 2488 1159 1978 
L 1159 0 
L 581 0 
L 581 3500 
L 1159 3500 
L 1159 2956 
Q 1356 3278 1631 3431 
Q 1906 3584 2284 3584 
Q 2666 3584 2933 3390 
Q 3200 3197 3328 2828 
z
" transform="scale(0.015625)"/>
      <path id="DejaVuSans-6e" d="M 3513 2113 
L 3513 0 
L 2938 0 
L 2938 2094 
Q 2938 2591 2744 2837 
Q 2550 3084 2163 3084 
Q 1697 3084 1428 2787 
Q 1159 2491 1159 1978 
L 1159 0 
L 581 0 
L 581 3500 
L 1159 3500 
L 1159 2956 
Q 1366 3272 1645 3428 
Q 1925 3584 2291 3584 
Q 2894 3584 3203 3211 
Q 3513 2838 3513 2113 
z
" transform="scale(0.015625)"/>
      <path id="DejaVuSans-74" d="M 1172 4494 
L 1172 3500 
L 2356 3500 
L 2356 3053 
L 1172 3053 
L 1172 1153 
Q 1172 725 1289 603 
Q 1406 481 1766 481 
L 2356 481 
L 2356 0 
L 1766 0 
Q 1100 0 847 248 
Q 594 497 594 1153 
L 594 3053 
L 172 3053 
L 172 3500 
L 594 3500 
L 594 4494 
L 1172 4494 
z
" transform="scale(0.015625)"/>
      <path id="DejaVuSans-61" d="M 2194 1759 
Q 1497 1759 1228 1600 
Q 959 1441 959 1056 
Q 959 750 1161 570 
Q 1363 391 1709 391 
Q 2188 391 2477 730 
Q 2766 1069 2766 1631 
L 2766 1759 
L 2194 1759 
z
M 3341 1997 
L 3341 0 
L 2766 0 
L 2766 531 
Q 2569 213 2275 61 
Q 1981 -91 1556 -91 
Q 1019 -91 701 211 
Q 384 513 384 1019 
Q 384 1609 779 1909 
Q 1175 2209 1959 2209 
L 2766 2209 
L 2766 2266 
Q 2766 2663 2505 2880 
Q 2244 3097 1772 3097 
Q 1472 3097 1187 3025 
Q 903 2953 641 2809 
L 641 3341 
Q 956 3463 1253 3523 
Q 1550 3584 1831 3584 
Q 2591 3584 2966 3190 
Q 3341 2797 3341 1997 
z
" transform="scale(0.015625)"/>
      <path id="DejaVuSans-62" d="M 3116 1747 
Q 3116 2381 2855 2742 
Q 2594 3103 2138 3103 
Q 1681 3103 1420 2742 
Q 1159 2381 1159 1747 
Q 1159 1113 1420 752 
Q 1681 391 2138 391 
Q 2594 391 2855 752 
Q 3116 1113 3116 1747 
z
M 1159 2969 
Q 1341 3281 1617 3432 
Q 1894 3584 2278 3584 
Q 2916 3584 3314 3078 
Q 3713 2572 3713 1747 
Q 3713 922 3314 415 
Q 2916 -91 2278 -91 
Q 1894 -91 1617 61 
Q 1341 213 1159 525 
L 1159 0 
L 581 0 
L 581 4863 
L 1159 4863 
L 1159 2969 
z
" transform="scale(0.015625)"/>
      <path id="DejaVuSans-77" d="M 269 3500 
L 844 3500 
L 1563 769 
L 2278 3500 
L 2956 3500 
L 3675 769 
L 4391 3500 
L 4966 3500 
L 4050 0 
L 3372 0 
L 2619 2869 
L 1863 0 
L 1184 0 
L 269 3500 
z
" transform="scale(0.015625)"/>
      <path id="DejaVuSans-68" d="M 3513 2113 
L 3513 0 
L 2938 0 
L 2938 2094 
Q 2938 2591 2744 2837 
Q 2550 3084 2163 3084 
Q 1697 3084 1428 2787 
Q 1159 2491 1159 1978 
L 1159 0 
L 581 0 
L 581 4863 
L 1159 4863 
L 1159 2956 
Q 1366 3272 1645 3428 
Q 1925 3584 2291 3584 
Q 2894 3584 3203 3211 
Q 3513 2838 3513 2113 
z
" transform="scale(0.015625)"/>
      <path id="DejaVuSans-70" d="M 1159 525 
L 1159 -1331 
L 581 -1331 
L 581 3500 
L 1159 3500 
L 1159 2969 
Q 1341 3281 1617 3432 
Q 1894 3584 2278 3584 
Q 2916 3584 3314 3078 
Q 3713 2572 3713 1747 
Q 3713 922 3314 415 
Q 2916 -91 2278 -91 
Q 1894 -91 1617 61 
Q 1341 213 1159 525 
z
M 3116 1747 
Q 3116 2381 2855 2742 
Q 2594 3103 2138 3103 
Q 1681 3103 1420 2742 
Q 1159 2381 1159 1747 
Q 1159 1113 1420 752 
Q 1681 391 2138 391 
Q 2594 391 2855 752 
Q 3116 1113 3116 1747 
z
" transform="scale(0.015625)"/>
     </defs>
     <use xlink:href="#DejaVuSans-50"/>
     <use xlink:href="#DejaVuSans-72" transform="translate(58.552734 0)"/>
     <use xlink:href="#DejaVuSans-65" transform="translate(97.416016 0)"/>
     <use xlink:href="#DejaVuSans-76" transform="translate(158.939453 0)"/>
     <use xlink:href="#DejaVuSans-69" transform="translate(218.119141 0)"/>
     <use xlink:href="#DejaVuSans-6f" transform="translate(245.902344 0)"/>
     <use xlink:href="#DejaVuSans-75" transform="translate(307.083984 0)"/>
     <use xlink:href="#DejaVuSans-73" transform="translate(370.462891 0)"/>
     <use xlink:href="#DejaVuSans-6c" transform="translate(422.5625 0)"/>
     <use xlink:href="#DejaVuSans-79" transform="translate(450.345703 0)"/>
     <use xlink:href="#DejaVuSans-20" transform="translate(509.525391 0)"/>
     <use xlink:href="#DejaVuSans-76" transform="translate(541.3125 0)"/>
     <use xlink:href="#DejaVuSans-65" transform="translate(600.492188 0)"/>
     <use xlink:href="#DejaVuSans-72" transform="translate(662.015625 0)"/>
     <use xlink:href="#DejaVuSans-69" transform="translate(703.128906 0)"/>
     <use xlink:href="#DejaVuSans-66" transform="translate(730.912109 0)"/>
     <use xlink:href="#DejaVuSans-69" transform="translate(766.117188 0)"/>
     <use xlink:href="#DejaVuSans-65" transform="translate(793.900391 0)"/>
     <use xlink:href="#DejaVuSans-64" transform="translate(855.423828 0)"/>
     <use xlink:href="#DejaVuSans-20" transform="translate(918.900391 0)"/>
     <use xlink:href="#DejaVuSans-73" transform="translate(950.6875 0)"/>
     <use xlink:href="#DejaVuSans-65" transform="translate(1002.787109 0)"/>
     <use xlink:href="#DejaVuSans-67" transform="translate(1064.310547 0)"/>
     <use xlink:href="#DejaVuSans-6d" transform="translate(1127.787109 0)"/>
     <use xlink:href="#DejaVuSans-65" transform="translate(1225.199219 0)"/>
     <use xlink:href="#DejaVuSans-6e" transform="translate(1286.722656 0)"/>
     <use xlink:href="#DejaVuSans-74" transform="translate(1350.101562 0)"/>
     <use xlink:href="#DejaVuSans-73" transform="translate(1389.310547 0)"/>
     <use xlink:href="#DejaVuSans-20" transform="translate(1441.410156 0)"/>
     <use xlink:href="#DejaVuSans-72" transform="translate(1473.197266 0)"/>
     <use xlink:href="#DejaVuSans-65" transform="translate(1512.060547 0)"/>
     <use xlink:href="#DejaVuSans-6d" transform="translate(1573.583984 0)"/>
     <use xlink:href="#DejaVuSans-61" transform="translate(1670.996094 0)"/>
     <use xlink:href="#DejaVuSans-69" transform="translate(1732.275391 0)"/>
     <use xlink:href="#DejaVuSans-6e" transform="translate(1760.058594 0)"/>
     <use xlink:href="#DejaVuSans-20" transform="translate(1823.4375 0)"/>
     <use xlink:href="#DejaVuSans-73" transform="translate(1855.224609 0)"/>
     <use xlink:href="#DejaVuSans-74" transform="translate(1907.324219 0)"/>
     <use xlink:href="#DejaVuSans-61" transform="translate(1946.533203 0)"/>
     <use xlink:href="#DejaVuSans-62" transform="translate(2007.8125 0)"/>
     <use xlink:href="#DejaVuSans-6c" transform="translate(2071.289062 0)"/>
     <use xlink:href="#DejaVuSans-65" transform="translate(2099.072266 0)"/>
     <use xlink:href="#DejaVuSans-20" transform="translate(2160.595703 0)"/>
     <use xlink:href="#DejaVuSans-77" transform="translate(2192.382812 0)"/>
     <use xlink:href="#DejaVuSans-68" transform="translate(2274.169922 0)"/>
     <use xlink:href="#DejaVuSans-69" transform="translate(2337.548828 0)"/>
     <use xlink:href="#DejaVuSans-6c" transform="translate(2365.332031 0)"/>
     <use xlink:href="#DejaVuSans-65" transform="translate(2393.115234 0)"/>
     <use xlink:href="#DejaVuSans-20" transform="translate(2454.638672 0)"/>
     <use xlink:href="#DejaVuSans-6e" transform="translate(2486.425781 0)"/>
     <use xlink:href="#DejaVuSans-65" transform="translate(2549.804688 0)"/>
     <use xlink:href="#DejaVuSans-77" transform="translate(2611.328125 0)"/>
     <use xlink:href="#DejaVuSans-20" transform="translate(2693.115234 0)"/>
     <use xlink:href="#DejaVuSans-72" transform="translate(2724.902344 0)"/>
     <use xlink:href="#DejaVuSans-61" transform="translate(2766.015625 0)"/>
     <use xlink:href="#DejaVuSans-6e" transform="translate(2827.294922 0)"/>
     <use xlink:href="#DejaVuSans-67" transform="translate(2890.673828 0)"/>
     <use xlink:href="#DejaVuSans-65" transform="translate(2954.150391 0)"/>
     <use xlink:href="#DejaVuSans-73" transform="translate(3015.673828 0)"/>
     <use xlink:href="#DejaVuSans-20" transform="translate(3067.773438 0)"/>
     <use xlink:href="#DejaVuSans-61" transform="translate(3099.560547 0)"/>
     <use xlink:href="#DejaVuSans-72" transform="translate(3160.839844 0)"/>
     <use xlink:href="#DejaVuSans-65" transform="translate(3199.703125 0)"/>
     <use xlink:href="#DejaVuSans-20" transform="translate(3261.226562 0)"/>
     <use xlink:href="#DejaVuSans-61" transform="translate(3293.013672 0)"/>
     <use xlink:href="#DejaVuSans-70" transform="translate(3354.292969 0)"/>
     <use xlink:href="#DejaVuSans-70" transform="translate(3417.769531 0)"/>
     <use xlink:href="#DejaVuSans-65" transform="translate(3481.246094 0)"/>
     <use xlink:href="#DejaVuSans-6e" transform="translate(3542.769531 0)"/>
     <use xlink:href="#DejaVuSans-64" transform="translate(3606.148438 0)"/>
     <use xlink:href="#DejaVuSans-65" transform="translate(3669.625 0)"/>
     <use xlink:href="#DejaVuSans-64" transform="translate(3731.148438 0)"/>
    </g>
   </g>
   <g id="text_3">
    <!-- 1-10B -->
    <g style="fill: #1f2933" transform="translate(70.7075 139.63606) scale(0.08 -0.08)">
     <defs>
      <path id="DejaVuSans-31" d="M 794 531 
L 1825 531 
L 1825 4091 
L 703 3866 
L 703 4441 
L 1819 4666 
L 2450 4666 
L 2450 531 
L 3481 531 
L 3481 0 
L 794 0 
L 794 531 
z
" transform="scale(0.015625)"/>
      <path id="DejaVuSans-2d" d="M 313 2009 
L 1997 2009 
L 1997 1497 
L 313 1497 
L 313 2009 
z
" transform="scale(0.015625)"/>
      <path id="DejaVuSans-30" d="M 2034 4250 
Q 1547 4250 1301 3770 
Q 1056 3291 1056 2328 
Q 1056 1369 1301 889 
Q 1547 409 2034 409 
Q 2525 409 2770 889 
Q 3016 1369 3016 2328 
Q 3016 3291 2770 3770 
Q 2525 4250 2034 4250 
z
M 2034 4750 
Q 2819 4750 3233 4129 
Q 3647 3509 3647 2328 
Q 3647 1150 3233 529 
Q 2819 -91 2034 -91 
Q 1250 -91 836 529 
Q 422 1150 422 2328 
Q 422 3509 836 4129 
Q 1250 4750 2034 4750 
z
" transform="scale(0.015625)"/>
      <path id="DejaVuSans-42" d="M 1259 2228 
L 1259 519 
L 2272 519 
Q 2781 519 3026 730 
Q 3272 941 3272 1375 
Q 3272 1813 3026 2020 
Q 2781 2228 2272 2228 
L 1259 2228 
z
M 1259 4147 
L 1259 2741 
L 2194 2741 
Q 2656 2741 2882 2914 
Q 3109 3088 3109 3444 
Q 3109 3797 2882 3972 
Q 2656 4147 2194 4147 
L 1259 4147 
z
M 628 4666 
L 2241 4666 
Q 2963 4666 3353 4366 
Q 3744 4066 3744 3513 
Q 3744 3084 3544 2831 
Q 3344 2578 2956 2516 
Q 3422 2416 3680 2098 
Q 3938 1781 3938 1306 
Q 3938 681 3513 340 
Q 3088 0 2303 0 
L 628 0 
L 628 4666 
z
" transform="scale(0.015625)"/>
     </defs>
     <use xlink:href="#DejaVuSans-31"/>
     <use xlink:href="#DejaVuSans-2d" transform="translate(63.623047 0)"/>
     <use xlink:href="#DejaVuSans-31" transform="translate(99.707031 0)"/>
     <use xlink:href="#DejaVuSans-30" transform="translate(163.330078 0)"/>
     <use xlink:href="#DejaVuSans-42" transform="translate(226.953125 0)"/>
    </g>
   </g>
   <g id="text_4">
    <!-- 10-20B -->
    <g style="fill: #1f2933" transform="translate(161.0695 139.63606) scale(0.08 -0.08)">
     <defs>
      <path id="DejaVuSans-32" d="M 1228 531 
L 3431 531 
L 3431 0 
L 469 0 
L 469 531 
Q 828 903 1448 1529 
Q 2069 2156 2228 2338 
Q 2531 2678 2651 2914 
Q 2772 3150 2772 3378 
Q 2772 3750 2511 3984 
Q 2250 4219 1831 4219 
Q 1534 4219 1204 4116 
Q 875 4013 500 3803 
L 500 4441 
Q 881 4594 1212 4672 
Q 1544 4750 1819 4750 
Q 2544 4750 2975 4387 
Q 3406 4025 3406 3419 
Q 3406 3131 3298 2873 
Q 3191 2616 2906 2266 
Q 2828 2175 2409 1742 
Q 1991 1309 1228 531 
z
" transform="scale(0.015625)"/>
     </defs>
     <use xlink:href="#DejaVuSans-31"/>
     <use xlink:href="#DejaVuSans-30" transform="translate(63.623047 0)"/>
     <use xlink:href="#DejaVuSans-2d" transform="translate(127.246094 0)"/>
     <use xlink:href="#DejaVuSans-32" transform="translate(163.330078 0)"/>
     <use xlink:href="#DejaVuSans-30" transform="translate(226.953125 0)"/>
     <use xlink:href="#DejaVuSans-42" transform="translate(290.576172 0)"/>
    </g>
   </g>
   <g id="text_5">
    <!-- ... -->
    <g style="fill: #1f2933" transform="translate(264.53025 139.63606) scale(0.08 -0.08)">
     <defs>
      <path id="DejaVuSans-2e" d="M 684 794 
L 1344 794 
L 1344 0 
L 684 0 
L 684 794 
z
" transform="scale(0.015625)"/>
     </defs>
     <use xlink:href="#DejaVuSans-2e"/>
     <use xlink:href="#DejaVuSans-2e" transform="translate(31.787109 0)"/>
     <use xlink:href="#DejaVuSans-2e" transform="translate(63.574219 0)"/>
    </g>
   </g>
   <g id="text_6">
    <!-- 980-990B -->
    <g style="fill: #1f2933" transform="translate(341.7935 139.63606) scale(0.08 -0.08)">
     <defs>
      <path id="DejaVuSans-39" d="M 703 97 
L 703 672 
Q 941 559 1184 500 
Q 1428 441 1663 441 
Q 2288 441 2617 861 
Q 2947 1281 2994 2138 
Q 2813 1869 2534 1725 
Q 2256 1581 1919 1581 
Q 1219 1581 811 2004 
Q 403 2428 403 3163 
Q 403 3881 828 4315 
Q 1253 4750 1959 4750 
Q 2769 4750 3195 4129 
Q 3622 3509 3622 2328 
Q 3622 1225 3098 567 
Q 2575 -91 1691 -91 
Q 1453 -91 1209 -44 
Q 966 3 703 97 
z
M 1959 2075 
Q 2384 2075 2632 2365 
Q 2881 2656 2881 3163 
Q 2881 3666 2632 3958 
Q 2384 4250 1959 4250 
Q 1534 4250 1286 3958 
Q 1038 3666 1038 3163 
Q 1038 2656 1286 2365 
Q 1534 2075 1959 2075 
z
" transform="scale(0.015625)"/>
      <path id="DejaVuSans-38" d="M 2034 2216 
Q 1584 2216 1326 1975 
Q 1069 1734 1069 1313 
Q 1069 891 1326 650 
Q 1584 409 2034 409 
Q 2484 409 2743 651 
Q 3003 894 3003 1313 
Q 3003 1734 2745 1975 
Q 2488 2216 2034 2216 
z
M 1403 2484 
Q 997 2584 770 2862 
Q 544 3141 544 3541 
Q 544 4100 942 4425 
Q 1341 4750 2034 4750 
Q 2731 4750 3128 4425 
Q 3525 4100 3525 3541 
Q 3525 3141 3298 2862 
Q 3072 2584 2669 2484 
Q 3125 2378 3379 2068 
Q 3634 1759 3634 1313 
Q 3634 634 3220 271 
Q 2806 -91 2034 -91 
Q 1263 -91 848 271 
Q 434 634 434 1313 
Q 434 1759 690 2068 
Q 947 2378 1403 2484 
z
M 1172 3481 
Q 1172 3119 1398 2916 
Q 1625 2713 2034 2713 
Q 2441 2713 2670 2916 
Q 2900 3119 2900 3481 
Q 2900 3844 2670 4047 
Q 2441 4250 2034 4250 
Q 1625 4250 1398 4047 
Q 1172 3844 1172 3481 
z
" transform="scale(0.015625)"/>
     </defs>
     <use xlink:href="#DejaVuSans-39"/>
     <use xlink:href="#DejaVuSans-38" transform="translate(63.623047 0)"/>
     <use xlink:href="#DejaVuSans-30" transform="translate(127.246094 0)"/>
     <use xlink:href="#DejaVuSans-2d" transform="translate(190.869141 0)"/>
     <use xlink:href="#DejaVuSans-39" transform="translate(226.953125 0)"/>
     <use xlink:href="#DejaVuSans-39" transform="translate(290.576172 0)"/>
     <use xlink:href="#DejaVuSans-30" transform="translate(354.199219 0)"/>
     <use xlink:href="#DejaVuSans-42" transform="translate(417.822266 0)"/>
    </g>
   </g>
   <g id="text_7">
    <!-- 990B-1T -->
    <g style="fill: #1f2933" transform="translate(437.347375 139.63606) scale(0.08 -0.08)">
     <defs>
      <path id="DejaVuSans-54" d="M -19 4666 
L 3928 4666 
L 3928 4134 
L 2272 4134 
L 2272 0 
L 1638 0 
L 1638 4134 
L -19 4134 
L -19 4666 
z
" transform="scale(0.015625)"/>
     </defs>
     <use xlink:href="#DejaVuSans-39"/>
     <use xlink:href="#DejaVuSans-39" transform="translate(63.623047 0)"/>
     <use xlink:href="#DejaVuSans-30" transform="translate(127.246094 0)"/>
     <use xlink:href="#DejaVuSans-42" transform="translate(190.869141 0)"/>
     <use xlink:href="#DejaVuSans-2d" transform="translate(259.472656 0)"/>
     <use xlink:href="#DejaVuSans-31" transform="translate(295.556641 0)"/>
     <use xlink:href="#DejaVuSans-54" transform="translate(359.179688 0)"/>
    </g>
   </g>
   <g id="text_8">
    <!-- Unified Persistent Repository -->
    <g style="fill: #1f2933" transform="translate(193.39875 246.024157) scale(0.09 -0.09)">
     <defs>
      <path id="DejaVuSans-55" d="M 556 4666 
L 1191 4666 
L 1191 1831 
Q 1191 1081 1462 751 
Q 1734 422 2344 422 
Q 2950 422 3222 751 
Q 3494 1081 3494 1831 
L 3494 4666 
L 4128 4666 
L 4128 1753 
Q 4128 841 3676 375 
Q 3225 -91 2344 -91 
Q 1459 -91 1007 375 
Q 556 841 556 1753 
L 556 4666 
z
" transform="scale(0.015625)"/>
      <path id="DejaVuSans-52" d="M 2841 2188 
Q 3044 2119 3236 1894 
Q 3428 1669 3622 1275 
L 4263 0 
L 3584 0 
L 2988 1197 
Q 2756 1666 2539 1819 
Q 2322 1972 1947 1972 
L 1259 1972 
L 1259 0 
L 628 0 
L 628 4666 
L 2053 4666 
Q 2853 4666 3247 4331 
Q 3641 3997 3641 3322 
Q 3641 2881 3436 2590 
Q 3231 2300 2841 2188 
z
M 1259 4147 
L 1259 2491 
L 2053 2491 
Q 2509 2491 2742 2702 
Q 2975 2913 2975 3322 
Q 2975 3731 2742 3939 
Q 2509 4147 2053 4147 
L 1259 4147 
z
" transform="scale(0.015625)"/>
     </defs>
     <use xlink:href="#DejaVuSans-55"/>
     <use xlink:href="#DejaVuSans-6e" transform="translate(73.193359 0)"/>
     <use xlink:href="#DejaVuSans-69" transform="translate(136.572266 0)"/>
     <use xlink:href="#DejaVuSans-66" transform="translate(164.355469 0)"/>
     <use xlink:href="#DejaVuSans-69" transform="translate(199.560547 0)"/>
     <use xlink:href="#DejaVuSans-65" transform="translate(227.34375 0)"/>
     <use xlink:href="#DejaVuSans-64" transform="translate(288.867188 0)"/>
     <use xlink:href="#DejaVuSans-20" transform="translate(352.34375 0)"/>
     <use xlink:href="#DejaVuSans-50" transform="translate(384.130859 0)"/>
     <use xlink:href="#DejaVuSans-65" transform="translate(440.808594 0)"/>
     <use xlink:href="#DejaVuSans-72" transform="translate(502.332031 0)"/>
     <use xlink:href="#DejaVuSans-73" transform="translate(543.445312 0)"/>
     <use xlink:href="#DejaVuSans-69" transform="translate(595.544922 0)"/>
     <use xlink:href="#DejaVuSans-73" transform="translate(623.328125 0)"/>
     <use xlink:href="#DejaVuSans-74" transform="translate(675.427734 0)"/>
     <use xlink:href="#DejaVuSans-65" transform="translate(714.636719 0)"/>
     <use xlink:href="#DejaVuSans-6e" transform="translate(776.160156 0)"/>
     <use xlink:href="#DejaVuSans-74" transform="translate(839.539062 0)"/>
     <use xlink:href="#DejaVuSans-20" transform="translate(878.748047 0)"/>
     <use xlink:href="#DejaVuSans-52" transform="translate(910.535156 0)"/>
     <use xlink:href="#DejaVuSans-65" transform="translate(975.517578 0)"/>
     <use xlink:href="#DejaVuSans-70" transform="translate(1037.041016 0)"/>
     <use xlink:href="#DejaVuSans-6f" transform="translate(1100.517578 0)"/>
     <use xlink:href="#DejaVuSans-73" transform="translate(1161.699219 0)"/>
     <use xlink:href="#DejaVuSans-69" transform="translate(1213.798828 0)"/>
     <use xlink:href="#DejaVuSans-74" transform="translate(1241.582031 0)"/>
     <use xlink:href="#DejaVuSans-6f" transform="translate(1280.791016 0)"/>
     <use xlink:href="#DejaVuSans-72" transform="translate(1341.972656 0)"/>
     <use xlink:href="#DejaVuSans-79" transform="translate(1383.085938 0)"/>
    </g>
   </g>
  </g>
 </g>
 <defs>
  <clipPath id="p73f3271701">
   <rect x="7.2" y="7.2" width="502.2" height="321.552"/>
  </clipPath>
 </defs>
</svg>
