<?xml version="1.0" encoding="utf-8" standalone="no"?>
<!DOCTYPE svg PUBLIC "-//W3C//DTD SVG 1.1//EN"
  "http://www.w3.org/Graphics/SVG/1.1/DTD/svg11.dtd">
<svg xmlns:xlink="http://www.w3.org/1999/xlink" width="516.6pt" height="335.952pt" viewBox="0 0 516.6 335.952" xmlns="http://www.w3.org/2000/svg" version="1.1">
 <metadata>
  <rdf:RDF xmlns:dc="http://purl.org/dc/elements/1.1/" xmlns:cc="http://creativecommons.org/ns#" xmlns:rdf="http://www.w3.org/1999/02/22-rdf-syntax-ns#">
   <cc:Work>
    <dc:type rdf:resource="http://purl.org/dc/dcmitype/StillImage"/>
    <dc:date>2026-07-18T03:28:32.043860</dc:date>
    <dc:format>image/svg+xml</dc:format>
    <dc:creator>
     <cc:Agent>
      <dc:title>Matplotlib v3.10.9, https://matplotlib.org/</dc:title>
     </cc:Agent>
    </dc:creator>
   </cc:Work>
  </rdf:RDF>
 </metadata>
 <defs>
  <style type="text/css">*{stroke-linejoin: round; stroke-linecap: butt}</style>
 </defs>
 <g id="figure_1">
  <g id="patch_1">
   <path d="M 0 335.952 
L 516.6 335.952 
L 516.6 0 
L 0 0 
z
" style="fill: #ffffff"/>
  </g>
  <g id="axes_1">
   <g id="patch_2">
    <path d="M 198.036 95.6268 
L 318.564 95.6268 
Q 336.141 95.6268 336.141 84.37248 
L 336.141 71.5104 
Q 336.141 60.25608 318.564 60.25608 
L 198.036 60.25608 
Q 180.459 60.25608 180.459 71.5104 
L 180.459 84.37248 
Q 180.459 95.6268 198.036 95.6268 
z
" clip-path="url(#p507472c384)" style="fill: #f7f9fa; stroke: #9fb3c8; stroke-width: 1.4; stroke-linejoin: miter"/>
   </g>
   <g id="patch_3">
    <path d="M 177.948 147.07512 
L 338.652 147.07512 
Q 356.229 147.07512 356.229 135.8208 
L 356.229 122.95872 
Q 356.229 111.7044 338.652 111.7044 
L 177.948 111.7044 
Q 160.371 111.7044 160.371 122.95872 
L 160.371 135.8208 
Q 160.371 147.07512 177.948 147.07512 
z
" clip-path="url(#p507472c384)" style="fill: #eaf4fb; stroke: #1f77b4; stroke-width: 1.4; stroke-linejoin: miter"/>
   </g>
   <g id="patch_4">
    <path d="M 57.42 217.81656 
L 147.816 217.81656 
Q 165.393 217.81656 165.393 206.56224 
L 165.393 187.26912 
Q 165.393 176.0148 147.816 176.0148 
L 57.42 176.0148 
Q 39.843 176.0148 39.843 187.26912 
L 39.843 206.56224 
Q 39.843 217.81656 57.42 217.81656 
z
" clip-path="url(#p507472c384)" style="fill: #f8fbfd; stroke: #1f77b4; stroke-width: 1.4; stroke-linejoin: miter"/>
   </g>
   <g id="patch_5">
    <path d="M 213.102 217.81656 
L 303.498 217.81656 
Q 321.075 217.81656 321.075 206.56224 
L 321.075 187.26912 
Q 321.075 176.0148 303.498 176.0148 
L 213.102 176.0148 
Q 195.525 176.0148 195.525 187.26912 
L 195.525 206.56224 
Q 195.525 217.81656 213.102 217.81656 
z
" clip-path="url(#p507472c384)" style="fill: #f8fbfd; stroke: #1f77b4; stroke-width: 1.4; stroke-linejoin: miter"/>
   </g>
   <g id="patch_6">
    <path d="M 368.784 217.81656 
L 459.18 217.81656 
Q 476.757 217.81656 476.757 206.56224 
L 476.757 187.26912 
Q 476.757 176.0148 459.18 176.0148 
L 368.784 176.0148 
Q 351.207 176.0148 351.207 187.26912 
L 351.207 206.56224 
Q 351.207 217.81656 368.784 217.81656 
z
" clip-path="url(#p507472c384)" style="fill: #f8fbfd; stroke: #1f77b4; stroke-width: 1.4; stroke-linejoin: miter"/>
   </g>
   <g id="patch_7">
    <path d="M 157.86 291.77352 
L 358.74 291.77352 
Q 376.317 291.77352 376.317 280.5192 
L 376.317 267.65712 
Q 376.317 256.4028 358.74 256.4028 
L 157.86 256.4028 
Q 140.283 256.4028 140.283 267.65712 
L 140.283 280.5192 
Q 140.283 291.77352 157.86 291.77352 
z
" clip-path="url(#p507472c384)" style="fill: #eaf4fb; stroke: #1f77b4; stroke-width: 1.4; stroke-linejoin: miter"/>
   </g>
   <g id="patch_8">
    <path d="M 258.3 96.804359 
Q 258.3 103.663702 258.3 109.125503 
" clip-path="url(#p507472c384)" style="fill: none; stroke: #1f77b4; stroke-width: 1.25; stroke-linecap: round"/>
    <path d="M 260.9 103.925503 
L 258.3 109.125503 
L 255.7 103.925503 
z
" clip-path="url(#p507472c384)" style="fill: #1f77b4; stroke: #1f77b4; stroke-width: 1.25; stroke-linecap: round"/>
   </g>
   <g id="patch_9">
    <path d="M 252.479979 143.694349 
Q 180.459974 161.544719 109.796467 179.058876 
" clip-path="url(#p507472c384)" style="fill: none; stroke: #1f77b4; stroke-width: 1.25; stroke-linecap: round"/>
    <path d="M 115.46924 180.331533 
L 109.796467 179.058876 
L 114.218256 175.284252 
z
" clip-path="url(#p507472c384)" style="fill: #1f77b4; stroke: #1f77b4; stroke-width: 1.25; stroke-linecap: round"/>
   </g>
   <g id="patch_10">
    <path d="M 258.3 148.247968 
Q 258.3 161.541408 258.3 173.437305 
" clip-path="url(#p507472c384)" style="fill: none; stroke: #1f77b4; stroke-width: 1.25; stroke-linecap: round"/>
    <path d="M 260.9 168.237305 
L 258.3 173.437305 
L 255.7 168.237305 
z
" clip-path="url(#p507472c384)" style="fill: #1f77b4; stroke: #1f77b4; stroke-width: 1.25; stroke-linecap: round"/>
   </g>
   <g id="patch_11">
    <path d="M 264.120021 143.694349 
Q 336.140026 161.544719 406.803533 179.058876 
" clip-path="url(#p507472c384)" style="fill: none; stroke: #1f77b4; stroke-width: 1.25; stroke-linecap: round"/>
    <path d="M 402.381744 175.284252 
L 406.803533 179.058876 
L 401.13076 180.331533 
z
" clip-path="url(#p507472c384)" style="fill: #1f77b4; stroke: #1f77b4; stroke-width: 1.25; stroke-linecap: round"/>
   </g>
   <g id="patch_12">
    <path d="M 108.352502 214.769922 
Q 180.459366 237.109793 251.231286 259.036078 
" clip-path="url(#p507472c384)" style="fill: none; stroke: #1f77b4; stroke-width: 1.25; stroke-linecap: round"/>
    <path d="M 247.03365 255.01366 
L 251.231286 259.036078 
L 245.49477 259.980736 
z
" clip-path="url(#p507472c384)" style="fill: #1f77b4; stroke: #1f77b4; stroke-width: 1.25; stroke-linecap: round"/>
   </g>
   <g id="patch_13">
    <path d="M 258.3 218.995885 
Q 258.3 237.11203 258.3 253.830633 
" clip-path="url(#p507472c384)" style="fill: none; stroke: #1f77b4; stroke-width: 1.25; stroke-linecap: round"/>
    <path d="M 260.9 248.630633 
L 258.3 253.830633 
L 255.7 248.630633 
z
" clip-path="url(#p507472c384)" style="fill: #1f77b4; stroke: #1f77b4; stroke-width: 1.25; stroke-linecap: round"/>
   </g>
   <g id="patch_14">
    <path d="M 408.247498 214.769922 
Q 336.140634 237.109793 265.368714 259.036078 
" clip-path="url(#p507472c384)" style="fill: none; stroke: #1f77b4; stroke-width: 1.25; stroke-linecap: round"/>
    <path d="M 271.10523 259.980736 
L 265.368714 259.036078 
L 269.56635 255.01366 
z
" clip-path="url(#p507472c384)" style="fill: #1f77b4; stroke: #1f77b4; stroke-width: 1.25; stroke-linecap: round"/>
   </g>
   <g id="text_1">
    <!-- PrimeNet Software Architecture -->
    <g style="fill: #1f2933" transform="translate(113.55 30.61182) scale(0.16 -0.16)">
     <defs>
      <path id="DejaVuSans-Bold-50" d="M 588 4666 
L 2584 4666 
Q 3475 4666 3951 4270 
Q 4428 3875 4428 3144 
Q 4428 2409 3951 2014 
Q 3475 1619 2584 1619 
L 1791 1619 
L 1791 0 
L 588 0 
L 588 4666 
z
M 1791 3794 
L 1791 2491 
L 2456 2491 
Q 2806 2491 2997 2661 
Q 3188 2831 3188 3144 
Q 3188 3456 2997 3625 
Q 2806 3794 2456 3794 
L 1791 3794 
z
" transform="scale(0.015625)"/>
      <path id="DejaVuSans-Bold-72" d="M 3138 2547 
Q 2991 2616 2845 2648 
Q 2700 2681 2553 2681 
Q 2122 2681 1889 2404 
Q 1656 2128 1656 1613 
L 1656 0 
L 538 0 
L 538 3500 
L 1656 3500 
L 1656 2925 
Q 1872 3269 2151 3426 
Q 2431 3584 2822 3584 
Q 2878 3584 2943 3579 
Q 3009 3575 3134 3559 
L 3138 2547 
z
" transform="scale(0.015625)"/>
      <path id="DejaVuSans-Bold-69" d="M 538 3500 
L 1656 3500 
L 1656 0 
L 538 0 
L 538 3500 
z
M 538 4863 
L 1656 4863 
L 1656 3950 
L 538 3950 
L 538 4863 
z
" transform="scale(0.015625)"/>
      <path id="DejaVuSans-Bold-6d" d="M 3781 2919 
Q 3994 3244 4286 3414 
Q 4578 3584 4928 3584 
Q 5531 3584 5847 3212 
Q 6163 2841 6163 2131 
L 6163 0 
L 5038 0 
L 5038 1825 
Q 5041 1866 5042 1909 
Q 5044 1953 5044 2034 
Q 5044 2406 4934 2573 
Q 4825 2741 4581 2741 
Q 4263 2741 4089 2478 
Q 3916 2216 3909 1719 
L 3909 0 
L 2784 0 
L 2784 1825 
Q 2784 2406 2684 2573 
Q 2584 2741 2328 2741 
Q 2006 2741 1831 2477 
Q 1656 2213 1656 1722 
L 1656 0 
L 531 0 
L 531 3500 
L 1656 3500 
L 1656 2988 
Q 1863 3284 2130 3434 
Q 2397 3584 2719 3584 
Q 3081 3584 3359 3409 
Q 3638 3234 3781 2919 
z
" transform="scale(0.015625)"/>
      <path id="DejaVuSans-Bold-65" d="M 4031 1759 
L 4031 1441 
L 1416 1441 
Q 1456 1047 1700 850 
Q 1944 653 2381 653 
Q 2734 653 3104 758 
Q 3475 863 3866 1075 
L 3866 213 
Q 3469 63 3072 -14 
Q 2675 -91 2278 -91 
Q 1328 -91 801 392 
Q 275 875 275 1747 
Q 275 2603 792 3093 
Q 1309 3584 2216 3584 
Q 3041 3584 3536 3087 
Q 4031 2591 4031 1759 
z
M 2881 2131 
Q 2881 2450 2695 2645 
Q 2509 2841 2209 2841 
Q 1884 2841 1681 2658 
Q 1478 2475 1428 2131 
L 2881 2131 
z
" transform="scale(0.015625)"/>
      <path id="DejaVuSans-Bold-4e" d="M 588 4666 
L 1931 4666 
L 3628 1466 
L 3628 4666 
L 4769 4666 
L 4769 0 
L 3425 0 
L 1728 3200 
L 1728 0 
L 588 0 
L 588 4666 
z
" transform="scale(0.015625)"/>
      <path id="DejaVuSans-Bold-74" d="M 1759 4494 
L 1759 3500 
L 2913 3500 
L 2913 2700 
L 1759 2700 
L 1759 1216 
Q 1759 972 1856 886 
Q 1953 800 2241 800 
L 2816 800 
L 2816 0 
L 1856 0 
Q 1194 0 917 276 
Q 641 553 641 1216 
L 641 2700 
L 84 2700 
L 84 3500 
L 641 3500 
L 641 4494 
L 1759 4494 
z
" transform="scale(0.015625)"/>
      <path id="DejaVuSans-Bold-20" transform="scale(0.015625)"/>
      <path id="DejaVuSans-Bold-53" d="M 3834 4519 
L 3834 3531 
Q 3450 3703 3084 3790 
Q 2719 3878 2394 3878 
Q 1963 3878 1756 3759 
Q 1550 3641 1550 3391 
Q 1550 3203 1689 3098 
Q 1828 2994 2194 2919 
L 2706 2816 
Q 3484 2659 3812 2340 
Q 4141 2022 4141 1434 
Q 4141 663 3683 286 
Q 3225 -91 2284 -91 
Q 1841 -91 1394 -6 
Q 947 78 500 244 
L 500 1259 
Q 947 1022 1364 901 
Q 1781 781 2169 781 
Q 2563 781 2772 912 
Q 2981 1044 2981 1288 
Q 2981 1506 2839 1625 
Q 2697 1744 2272 1838 
L 1806 1941 
Q 1106 2091 782 2419 
Q 459 2747 459 3303 
Q 459 4000 909 4375 
Q 1359 4750 2203 4750 
Q 2588 4750 2994 4692 
Q 3400 4634 3834 4519 
z
" transform="scale(0.015625)"/>
      <path id="DejaVuSans-Bold-6f" d="M 2203 2784 
Q 1831 2784 1636 2517 
Q 1441 2250 1441 1747 
Q 1441 1244 1636 976 
Q 1831 709 2203 709 
Q 2569 709 2762 976 
Q 2956 1244 2956 1747 
Q 2956 2250 2762 2517 
Q 2569 2784 2203 2784 
z
M 2203 3584 
Q 3106 3584 3614 3096 
Q 4122 2609 4122 1747 
Q 4122 884 3614 396 
Q 3106 -91 2203 -91 
Q 1297 -91 786 396 
Q 275 884 275 1747 
Q 275 2609 786 3096 
Q 1297 3584 2203 3584 
z
" transform="scale(0.015625)"/>
      <path id="DejaVuSans-Bold-66" d="M 2841 4863 
L 2841 4128 
L 2222 4128 
Q 1984 4128 1890 4042 
Q 1797 3956 1797 3744 
L 1797 3500 
L 2753 3500 
L 2753 2700 
L 1797 2700 
L 1797 0 
L 678 0 
L 678 2700 
L 122 2700 
L 122 3500 
L 678 3500 
L 678 3744 
Q 678 4316 997 4589 
Q 1316 4863 1984 4863 
L 2841 4863 
z
" transform="scale(0.015625)"/>
      <path id="DejaVuSans-Bold-77" d="M 225 3500 
L 1313 3500 
L 1900 1088 
L 2491 3500 
L 3425 3500 
L 4013 1113 
L 4603 3500 
L 5691 3500 
L 4769 0 
L 3547 0 
L 2956 2406 
L 2369 0 
L 1147 0 
L 225 3500 
z
" transform="scale(0.015625)"/>
      <path id="DejaVuSans-Bold-61" d="M 2106 1575 
Q 1756 1575 1579 1456 
Q 1403 1338 1403 1106 
Q 1403 894 1545 773 
Q 1688 653 1941 653 
Q 2256 653 2472 879 
Q 2688 1106 2688 1447 
L 2688 1575 
L 2106 1575 
z
M 3816 1997 
L 3816 0 
L 2688 0 
L 2688 519 
Q 2463 200 2181 54 
Q 1900 -91 1497 -91 
Q 953 -91 614 226 
Q 275 544 275 1050 
Q 275 1666 698 1953 
Q 1122 2241 2028 2241 
L 2688 2241 
L 2688 2328 
Q 2688 2594 2478 2717 
Q 2269 2841 1825 2841 
Q 1466 2841 1156 2769 
Q 847 2697 581 2553 
L 581 3406 
Q 941 3494 1303 3539 
Q 1666 3584 2028 3584 
Q 2975 3584 3395 3211 
Q 3816 2838 3816 1997 
z
" transform="scale(0.015625)"/>
      <path id="DejaVuSans-Bold-41" d="M 3419 850 
L 1538 850 
L 1241 0 
L 31 0 
L 1759 4666 
L 3194 4666 
L 4922 0 
L 3713 0 
L 3419 850 
z
M 1838 1716 
L 3116 1716 
L 2478 3572 
L 1838 1716 
z
" transform="scale(0.015625)"/>
      <path id="DejaVuSans-Bold-63" d="M 3366 3391 
L 3366 2478 
Q 3138 2634 2908 2709 
Q 2678 2784 2431 2784 
Q 1963 2784 1702 2511 
Q 1441 2238 1441 1747 
Q 1441 1256 1702 982 
Q 1963 709 2431 709 
Q 2694 709 2930 787 
Q 3166 866 3366 1019 
L 3366 103 
Q 3103 6 2833 -42 
Q 2563 -91 2291 -91 
Q 1344 -91 809 395 
Q 275 881 275 1747 
Q 275 2613 809 3098 
Q 1344 3584 2291 3584 
Q 2566 3584 2833 3536 
Q 3100 3488 3366 3391 
z
" transform="scale(0.015625)"/>
      <path id="DejaVuSans-Bold-68" d="M 4056 2131 
L 4056 0 
L 2931 0 
L 2931 347 
L 2931 1625 
Q 2931 2084 2911 2256 
Q 2891 2428 2841 2509 
Q 2775 2619 2662 2680 
Q 2550 2741 2406 2741 
Q 2056 2741 1856 2470 
Q 1656 2200 1656 1722 
L 1656 0 
L 538 0 
L 538 4863 
L 1656 4863 
L 1656 2988 
Q 1909 3294 2193 3439 
Q 2478 3584 2822 3584 
Q 3428 3584 3742 3212 
Q 4056 2841 4056 2131 
z
" transform="scale(0.015625)"/>
      <path id="DejaVuSans-Bold-75" d="M 500 1363 
L 500 3500 
L 1625 3500 
L 1625 3150 
Q 1625 2866 1622 2436 
Q 1619 2006 1619 1863 
Q 1619 1441 1641 1255 
Q 1663 1069 1716 984 
Q 1784 875 1895 815 
Q 2006 756 2150 756 
Q 2500 756 2700 1025 
Q 2900 1294 2900 1772 
L 2900 3500 
L 4019 3500 
L 4019 0 
L 2900 0 
L 2900 506 
Q 2647 200 2364 54 
Q 2081 -91 1741 -91 
Q 1134 -91 817 281 
Q 500 653 500 1363 
z
" transform="scale(0.015625)"/>
     </defs>
     <use xlink:href="#DejaVuSans-Bold-50"/>
     <use xlink:href="#DejaVuSans-Bold-72" transform="translate(73.291016 0)"/>
     <use xlink:href="#DejaVuSans-Bold-69" transform="translate(122.607422 0)"/>
     <use xlink:href="#DejaVuSans-Bold-6d" transform="translate(156.884766 0)"/>
     <use xlink:href="#DejaVuSans-Bold-65" transform="translate(261.083984 0)"/>
     <use xlink:href="#DejaVuSans-Bold-4e" transform="translate(328.90625 0)"/>
     <use xlink:href="#DejaVuSans-Bold-65" transform="translate(412.597656 0)"/>
     <use xlink:href="#DejaVuSans-Bold-74" transform="translate(480.419922 0)"/>
     <use xlink:href="#DejaVuSans-Bold-20" transform="translate(528.222656 0)"/>
     <use xlink:href="#DejaVuSans-Bold-53" transform="translate(563.037109 0)"/>
     <use xlink:href="#DejaVuSans-Bold-6f" transform="translate(635.058594 0)"/>
     <use xlink:href="#DejaVuSans-Bold-66" transform="translate(703.759766 0)"/>
     <use xlink:href="#DejaVuSans-Bold-74" transform="translate(747.265625 0)"/>
     <use xlink:href="#DejaVuSans-Bold-77" transform="translate(795.068359 0)"/>
     <use xlink:href="#DejaVuSans-Bold-61" transform="translate(887.451172 0)"/>
     <use xlink:href="#DejaVuSans-Bold-72" transform="translate(954.931641 0)"/>
     <use xlink:href="#DejaVuSans-Bold-65" transform="translate(1004.248047 0)"/>
     <use xlink:href="#DejaVuSans-Bold-20" transform="translate(1072.070312 0)"/>
     <use xlink:href="#DejaVuSans-Bold-41" transform="translate(1106.884766 0)"/>
     <use xlink:href="#DejaVuSans-Bold-72" transform="translate(1184.277344 0)"/>
     <use xlink:href="#DejaVuSans-Bold-63" transform="translate(1233.59375 0)"/>
     <use xlink:href="#DejaVuSans-Bold-68" transform="translate(1292.871094 0)"/>
     <use xlink:href="#DejaVuSans-Bold-69" transform="translate(1364.0625 0)"/>
     <use xlink:href="#DejaVuSans-Bold-74" transform="translate(1398.339844 0)"/>
     <use xlink:href="#DejaVuSans-Bold-65" transform="translate(1446.142578 0)"/>
     <use xlink:href="#DejaVuSans-Bold-63" transform="translate(1513.964844 0)"/>
     <use xlink:href="#DejaVuSans-Bold-74" transform="translate(1573.242188 0)"/>
     <use xlink:href="#DejaVuSans-Bold-75" transform="translate(1621.044922 0)"/>
     <use xlink:href="#DejaVuSans-Bold-72" transform="translate(1692.236328 0)"/>
     <use xlink:href="#DejaVuSans-Bold-65" transform="translate(1741.552734 0)"/>
    </g>
   </g>
   <g id="text_2">
    <!-- Subsystems with separated responsibilities -->
    <g style="fill: #52616b" transform="translate(160.907344 41.370514) scale(0.09 -0.09)">
     <defs>
      <path id="DejaVuSans-53" d="M 3425 4513 
L 3425 3897 
Q 3066 4069 2747 4153 
Q 2428 4238 2131 4238 
Q 1616 4238 1336 4038 
Q 1056 3838 1056 3469 
Q 1056 3159 1242 3001 
Q 1428 2844 1947 2747 
L 2328 2669 
Q 3034 2534 3370 2195 
Q 3706 1856 3706 1288 
Q 3706 609 3251 259 
Q 2797 -91 1919 -91 
Q 1588 -91 1214 -16 
Q 841 59 441 206 
L 441 856 
Q 825 641 1194 531 
Q 1563 422 1919 422 
Q 2459 422 2753 634 
Q 3047 847 3047 1241 
Q 3047 1584 2836 1778 
Q 2625 1972 2144 2069 
L 1759 2144 
Q 1053 2284 737 2584 
Q 422 2884 422 3419 
Q 422 4038 858 4394 
Q 1294 4750 2059 4750 
Q 2388 4750 2728 4690 
Q 3069 4631 3425 4513 
z
" transform="scale(0.015625)"/>
      <path id="DejaVuSans-75" d="M 544 1381 
L 544 3500 
L 1119 3500 
L 1119 1403 
Q 1119 906 1312 657 
Q 1506 409 1894 409 
Q 2359 409 2629 706 
Q 2900 1003 2900 1516 
L 2900 3500 
L 3475 3500 
L 3475 0 
L 2900 0 
L 2900 538 
Q 2691 219 2414 64 
Q 2138 -91 1772 -91 
Q 1169 -91 856 284 
Q 544 659 544 1381 
z
M 1991 3584 
L 1991 3584 
z
" transform="scale(0.015625)"/>
      <path id="DejaVuSans-62" d="M 3116 1747 
Q 3116 2381 2855 2742 
Q 2594 3103 2138 3103 
Q 1681 3103 1420 2742 
Q 1159 2381 1159 1747 
Q 1159 1113 1420 752 
Q 1681 391 2138 391 
Q 2594 391 2855 752 
Q 3116 1113 3116 1747 
z
M 1159 2969 
Q 1341 3281 1617 3432 
Q 1894 3584 2278 3584 
Q 2916 3584 3314 3078 
Q 3713 2572 3713 1747 
Q 3713 922 3314 415 
Q 2916 -91 2278 -91 
Q 1894 -91 1617 61 
Q 1341 213 1159 525 
L 1159 0 
L 581 0 
L 581 4863 
L 1159 4863 
L 1159 2969 
z
" transform="scale(0.015625)"/>
      <path id="DejaVuSans-73" d="M 2834 3397 
L 2834 2853 
Q 2591 2978 2328 3040 
Q 2066 3103 1784 3103 
Q 1356 3103 1142 2972 
Q 928 2841 928 2578 
Q 928 2378 1081 2264 
Q 1234 2150 1697 2047 
L 1894 2003 
Q 2506 1872 2764 1633 
Q 3022 1394 3022 966 
Q 3022 478 2636 193 
Q 2250 -91 1575 -91 
Q 1294 -91 989 -36 
Q 684 19 347 128 
L 347 722 
Q 666 556 975 473 
Q 1284 391 1588 391 
Q 1994 391 2212 530 
Q 2431 669 2431 922 
Q 2431 1156 2273 1281 
Q 2116 1406 1581 1522 
L 1381 1569 
Q 847 1681 609 1914 
Q 372 2147 372 2553 
Q 372 3047 722 3315 
Q 1072 3584 1716 3584 
Q 2034 3584 2315 3537 
Q 2597 3491 2834 3397 
z
" transform="scale(0.015625)"/>
      <path id="DejaVuSans-79" d="M 2059 -325 
Q 1816 -950 1584 -1140 
Q 1353 -1331 966 -1331 
L 506 -1331 
L 506 -850 
L 844 -850 
Q 1081 -850 1212 -737 
Q 1344 -625 1503 -206 
L 1606 56 
L 191 3500 
L 800 3500 
L 1894 763 
L 2988 3500 
L 3597 3500 
L 2059 -325 
z
" transform="scale(0.015625)"/>
      <path id="DejaVuSans-74" d="M 1172 4494 
L 1172 3500 
L 2356 3500 
L 2356 3053 
L 1172 3053 
L 1172 1153 
Q 1172 725 1289 603 
Q 1406 481 1766 481 
L 2356 481 
L 2356 0 
L 1766 0 
Q 1100 0 847 248 
Q 594 497 594 1153 
L 594 3053 
L 172 3053 
L 172 3500 
L 594 3500 
L 594 4494 
L 1172 4494 
z
" transform="scale(0.015625)"/>
      <path id="DejaVuSans-65" d="M 3597 1894 
L 3597 1613 
L 953 1613 
Q 991 1019 1311 708 
Q 1631 397 2203 397 
Q 2534 397 2845 478 
Q 3156 559 3463 722 
L 3463 178 
Q 3153 47 2828 -22 
Q 2503 -91 2169 -91 
Q 1331 -91 842 396 
Q 353 884 353 1716 
Q 353 2575 817 3079 
Q 1281 3584 2069 3584 
Q 2775 3584 3186 3129 
Q 3597 2675 3597 1894 
z
M 3022 2063 
Q 3016 2534 2758 2815 
Q 2500 3097 2075 3097 
Q 1594 3097 1305 2825 
Q 1016 2553 972 2059 
L 3022 2063 
z
" transform="scale(0.015625)"/>
      <path id="DejaVuSans-6d" d="M 3328 2828 
Q 3544 3216 3844 3400 
Q 4144 3584 4550 3584 
Q 5097 3584 5394 3201 
Q 5691 2819 5691 2113 
L 5691 0 
L 5113 0 
L 5113 2094 
Q 5113 2597 4934 2840 
Q 4756 3084 4391 3084 
Q 3944 3084 3684 2787 
Q 3425 2491 3425 1978 
L 3425 0 
L 2847 0 
L 2847 2094 
Q 2847 2600 2669 2842 
Q 2491 3084 2119 3084 
Q 1678 3084 1418 2786 
Q 1159 2488 1159 1978 
L 1159 0 
L 581 0 
L 581 3500 
L 1159 3500 
L 1159 2956 
Q 1356 3278 1631 3431 
Q 1906 3584 2284 3584 
Q 2666 3584 2933 3390 
Q 3200 3197 3328 2828 
z
" transform="scale(0.015625)"/>
      <path id="DejaVuSans-20" transform="scale(0.015625)"/>
      <path id="DejaVuSans-77" d="M 269 3500 
L 844 3500 
L 1563 769 
L 2278 3500 
L 2956 3500 
L 3675 769 
L 4391 3500 
L 4966 3500 
L 4050 0 
L 3372 0 
L 2619 2869 
L 1863 0 
L 1184 0 
L 269 3500 
z
" transform="scale(0.015625)"/>
      <path id="DejaVuSans-69" d="M 603 3500 
L 1178 3500 
L 1178 0 
L 603 0 
L 603 3500 
z
M 603 4863 
L 1178 4863 
L 1178 4134 
L 603 4134 
L 603 4863 
z
" transform="scale(0.015625)"/>
      <path id="DejaVuSans-68" d="M 3513 2113 
L 3513 0 
L 2938 0 
L 2938 2094 
Q 2938 2591 2744 2837 
Q 2550 3084 2163 3084 
Q 1697 3084 1428 2787 
Q 1159 2491 1159 1978 
L 1159 0 
L 581 0 
L 581 4863 
L 1159 4863 
L 1159 2956 
Q 1366 3272 1645 3428 
Q 1925 3584 2291 3584 
Q 2894 3584 3203 3211 
Q 3513 2838 3513 2113 
z
" transform="scale(0.015625)"/>
      <path id="DejaVuSans-70" d="M 1159 525 
L 1159 -1331 
L 581 -1331 
L 581 3500 
L 1159 3500 
L 1159 2969 
Q 1341 3281 1617 3432 
Q 1894 3584 2278 3584 
Q 2916 3584 3314 3078 
Q 3713 2572 3713 1747 
Q 3713 922 3314 415 
Q 2916 -91 2278 -91 
Q 1894 -91 1617 61 
Q 1341 213 1159 525 
z
M 3116 1747 
Q 3116 2381 2855 2742 
Q 2594 3103 2138 3103 
Q 1681 3103 1420 2742 
Q 1159 2381 1159 1747 
Q 1159 1113 1420 752 
Q 1681 391 2138 391 
Q 2594 391 2855 752 
Q 3116 1113 3116 1747 
z
" transform="scale(0.015625)"/>
      <path id="DejaVuSans-61" d="M 2194 1759 
Q 1497 1759 1228 1600 
Q 959 1441 959 1056 
Q 959 750 1161 570 
Q 1363 391 1709 391 
Q 2188 391 2477 730 
Q 2766 1069 2766 1631 
L 2766 1759 
L 2194 1759 
z
M 3341 1997 
L 3341 0 
L 2766 0 
L 2766 531 
Q 2569 213 2275 61 
Q 1981 -91 1556 -91 
Q 1019 -91 701 211 
Q 384 513 384 1019 
Q 384 1609 779 1909 
Q 1175 2209 1959 2209 
L 2766 2209 
L 2766 2266 
Q 2766 2663 2505 2880 
Q 2244 3097 1772 3097 
Q 1472 3097 1187 3025 
Q 903 2953 641 2809 
L 641 3341 
Q 956 3463 1253 3523 
Q 1550 3584 1831 3584 
Q 2591 3584 2966 3190 
Q 3341 2797 3341 1997 
z
" transform="scale(0.015625)"/>
      <path id="DejaVuSans-72" d="M 2631 2963 
Q 2534 3019 2420 3045 
Q 2306 3072 2169 3072 
Q 1681 3072 1420 2755 
Q 1159 2438 1159 1844 
L 1159 0 
L 581 0 
L 581 3500 
L 1159 3500 
L 1159 2956 
Q 1341 3275 1631 3429 
Q 1922 3584 2338 3584 
Q 2397 3584 2469 3576 
Q 2541 3569 2628 3553 
L 2631 2963 
z
" transform="scale(0.015625)"/>
      <path id="DejaVuSans-64" d="M 2906 2969 
L 2906 4863 
L 3481 4863 
L 3481 0 
L 2906 0 
L 2906 525 
Q 2725 213 2448 61 
Q 2172 -91 1784 -91 
Q 1150 -91 751 415 
Q 353 922 353 1747 
Q 353 2572 751 3078 
Q 1150 3584 1784 3584 
Q 2172 3584 2448 3432 
Q 2725 3281 2906 2969 
z
M 947 1747 
Q 947 1113 1208 752 
Q 1469 391 1925 391 
Q 2381 391 2643 752 
Q 2906 1113 2906 1747 
Q 2906 2381 2643 2742 
Q 2381 3103 1925 3103 
Q 1469 3103 1208 2742 
Q 947 2381 947 1747 
z
" transform="scale(0.015625)"/>
      <path id="DejaVuSans-6f" d="M 1959 3097 
Q 1497 3097 1228 2736 
Q 959 2375 959 1747 
Q 959 1119 1226 758 
Q 1494 397 1959 397 
Q 2419 397 2687 759 
Q 2956 1122 2956 1747 
Q 2956 2369 2687 2733 
Q 2419 3097 1959 3097 
z
M 1959 3584 
Q 2709 3584 3137 3096 
Q 3566 2609 3566 1747 
Q 3566 888 3137 398 
Q 2709 -91 1959 -91 
Q 1206 -91 779 398 
Q 353 888 353 1747 
Q 353 2609 779 3096 
Q 1206 3584 1959 3584 
z
" transform="scale(0.015625)"/>
      <path id="DejaVuSans-6e" d="M 3513 2113 
L 3513 0 
L 2938 0 
L 2938 2094 
Q 2938 2591 2744 2837 
Q 2550 3084 2163 3084 
Q 1697 3084 1428 2787 
Q 1159 2491 1159 1978 
L 1159 0 
L 581 0 
L 581 3500 
L 1159 3500 
L 1159 2956 
Q 1366 3272 1645 3428 
Q 1925 3584 2291 3584 
Q 2894 3584 3203 3211 
Q 3513 2838 3513 2113 
z
" transform="scale(0.015625)"/>
      <path id="DejaVuSans-6c" d="M 603 4863 
L 1178 4863 
L 1178 0 
L 603 0 
L 603 4863 
z
" transform="scale(0.015625)"/>
     </defs>
     <use xlink:href="#DejaVuSans-53"/>
     <use xlink:href="#DejaVuSans-75" transform="translate(63.476562 0)"/>
     <use xlink:href="#DejaVuSans-62" transform="translate(126.855469 0)"/>
     <use xlink:href="#DejaVuSans-73" transform="translate(190.332031 0)"/>
     <use xlink:href="#DejaVuSans-79" transform="translate(242.431641 0)"/>
     <use xlink:href="#DejaVuSans-73" transform="translate(301.611328 0)"/>
     <use xlink:href="#DejaVuSans-74" transform="translate(353.710938 0)"/>
     <use xlink:href="#DejaVuSans-65" transform="translate(392.919922 0)"/>
     <use xlink:href="#DejaVuSans-6d" transform="translate(454.443359 0)"/>
     <use xlink:href="#DejaVuSans-73" transform="translate(551.855469 0)"/>
     <use xlink:href="#DejaVuSans-20" transform="translate(603.955078 0)"/>
     <use xlink:href="#DejaVuSans-77" transform="translate(635.742188 0)"/>
     <use xlink:href="#DejaVuSans-69" transform="translate(717.529297 0)"/>
     <use xlink:href="#DejaVuSans-74" transform="translate(745.3125 0)"/>
     <use xlink:href="#DejaVuSans-68" transform="translate(784.521484 0)"/>
     <use xlink:href="#DejaVuSans-20" transform="translate(847.900391 0)"/>
     <use xlink:href="#DejaVuSans-73" transform="translate(879.6875 0)"/>
     <use xlink:href="#DejaVuSans-65" transform="translate(931.787109 0)"/>
     <use xlink:href="#DejaVuSans-70" transform="translate(993.310547 0)"/>
     <use xlink:href="#DejaVuSans-61" transform="translate(1056.787109 0)"/>
     <use xlink:href="#DejaVuSans-72" transform="translate(1118.066406 0)"/>
     <use xlink:href="#DejaVuSans-61" transform="translate(1159.179688 0)"/>
     <use xlink:href="#DejaVuSans-74" transform="translate(1220.458984 0)"/>
     <use xlink:href="#DejaVuSans-65" transform="translate(1259.667969 0)"/>
     <use xlink:href="#DejaVuSans-64" transform="translate(1321.191406 0)"/>
     <use xlink:href="#DejaVuSans-20" transform="translate(1384.667969 0)"/>
     <use xlink:href="#DejaVuSans-72" transform="translate(1416.455078 0)"/>
     <use xlink:href="#DejaVuSans-65" transform="translate(1455.318359 0)"/>
     <use xlink:href="#DejaVuSans-73" transform="translate(1516.841797 0)"/>
     <use xlink:href="#DejaVuSans-70" transform="translate(1568.941406 0)"/>
     <use xlink:href="#DejaVuSans-6f" transform="translate(1632.417969 0)"/>
     <use xlink:href="#DejaVuSans-6e" transform="translate(1693.599609 0)"/>
     <use xlink:href="#DejaVuSans-73" transform="translate(1756.978516 0)"/>
     <use xlink:href="#DejaVuSans-69" transform="translate(1809.078125 0)"/>
     <use xlink:href="#DejaVuSans-62" transform="translate(1836.861328 0)"/>
     <use xlink:href="#DejaVuSans-69" transform="translate(1900.337891 0)"/>
     <use xlink:href="#DejaVuSans-6c" transform="translate(1928.121094 0)"/>
     <use xlink:href="#DejaVuSans-69" transform="translate(1955.904297 0)"/>
     <use xlink:href="#DejaVuSans-74" transform="translate(1983.6875 0)"/>
     <use xlink:href="#DejaVuSans-69" transform="translate(2022.896484 0)"/>
     <use xlink:href="#DejaVuSans-65" transform="translate(2050.679688 0)"/>
     <use xlink:href="#DejaVuSans-73" transform="translate(2112.203125 0)"/>
    </g>
   </g>
   <g id="text_3">
    <!-- User Applications -->
    <g style="fill: #1f2933" transform="translate(223.478125 80.14894) scale(0.08 -0.08)">
     <defs>
      <path id="DejaVuSans-55" d="M 556 4666 
L 1191 4666 
L 1191 1831 
Q 1191 1081 1462 751 
Q 1734 422 2344 422 
Q 2950 422 3222 751 
Q 3494 1081 3494 1831 
L 3494 4666 
L 4128 4666 
L 4128 1753 
Q 4128 841 3676 375 
Q 3225 -91 2344 -91 
Q 1459 -91 1007 375 
Q 556 841 556 1753 
L 556 4666 
z
" transform="scale(0.015625)"/>
      <path id="DejaVuSans-41" d="M 2188 4044 
L 1331 1722 
L 3047 1722 
L 2188 4044 
z
M 1831 4666 
L 2547 4666 
L 4325 0 
L 3669 0 
L 3244 1197 
L 1141 1197 
L 716 0 
L 50 0 
L 1831 4666 
z
" transform="scale(0.015625)"/>
      <path id="DejaVuSans-63" d="M 3122 3366 
L 3122 2828 
Q 2878 2963 2633 3030 
Q 2388 3097 2138 3097 
Q 1578 3097 1268 2742 
Q 959 2388 959 1747 
Q 959 1106 1268 751 
Q 1578 397 2138 397 
Q 2388 397 2633 464 
Q 2878 531 3122 666 
L 3122 134 
Q 2881 22 2623 -34 
Q 2366 -91 2075 -91 
Q 1284 -91 818 406 
Q 353 903 353 1747 
Q 353 2603 823 3093 
Q 1294 3584 2113 3584 
Q 2378 3584 2631 3529 
Q 2884 3475 3122 3366 
z
" transform="scale(0.015625)"/>
     </defs>
     <use xlink:href="#DejaVuSans-55"/>
     <use xlink:href="#DejaVuSans-73" transform="translate(73.193359 0)"/>
     <use xlink:href="#DejaVuSans-65" transform="translate(125.292969 0)"/>
     <use xlink:href="#DejaVuSans-72" transform="translate(186.816406 0)"/>
     <use xlink:href="#DejaVuSans-20" transform="translate(227.929688 0)"/>
     <use xlink:href="#DejaVuSans-41" transform="translate(259.716797 0)"/>
     <use xlink:href="#DejaVuSans-70" transform="translate(328.125 0)"/>
     <use xlink:href="#DejaVuSans-70" transform="translate(391.601562 0)"/>
     <use xlink:href="#DejaVuSans-6c" transform="translate(455.078125 0)"/>
     <use xlink:href="#DejaVuSans-69" transform="translate(482.861328 0)"/>
     <use xlink:href="#DejaVuSans-63" transform="translate(510.644531 0)"/>
     <use xlink:href="#DejaVuSans-61" transform="translate(565.625 0)"/>
     <use xlink:href="#DejaVuSans-74" transform="translate(626.904297 0)"/>
     <use xlink:href="#DejaVuSans-69" transform="translate(666.113281 0)"/>
     <use xlink:href="#DejaVuSans-6f" transform="translate(693.896484 0)"/>
     <use xlink:href="#DejaVuSans-6e" transform="translate(755.078125 0)"/>
     <use xlink:href="#DejaVuSans-73" transform="translate(818.457031 0)"/>
    </g>
   </g>
   <g id="text_4">
    <!-- Observatory Framework -->
    <g style="fill: #1f2933" transform="translate(210.161875 131.59726) scale(0.08 -0.08)">
     <defs>
      <path id="DejaVuSans-4f" d="M 2522 4238 
Q 1834 4238 1429 3725 
Q 1025 3213 1025 2328 
Q 1025 1447 1429 934 
Q 1834 422 2522 422 
Q 3209 422 3611 934 
Q 4013 1447 4013 2328 
Q 4013 3213 3611 3725 
Q 3209 4238 2522 4238 
z
M 2522 4750 
Q 3503 4750 4090 4092 
Q 4678 3434 4678 2328 
Q 4678 1225 4090 567 
Q 3503 -91 2522 -91 
Q 1538 -91 948 565 
Q 359 1222 359 2328 
Q 359 3434 948 4092 
Q 1538 4750 2522 4750 
z
" transform="scale(0.015625)"/>
      <path id="DejaVuSans-76" d="M 191 3500 
L 800 3500 
L 1894 563 
L 2988 3500 
L 3597 3500 
L 2284 0 
L 1503 0 
L 191 3500 
z
" transform="scale(0.015625)"/>
      <path id="DejaVuSans-46" d="M 628 4666 
L 3309 4666 
L 3309 4134 
L 1259 4134 
L 1259 2759 
L 3109 2759 
L 3109 2228 
L 1259 2228 
L 1259 0 
L 628 0 
L 628 4666 
z
" transform="scale(0.015625)"/>
      <path id="DejaVuSans-6b" d="M 581 4863 
L 1159 4863 
L 1159 1991 
L 2875 3500 
L 3609 3500 
L 1753 1863 
L 3688 0 
L 2938 0 
L 1159 1709 
L 1159 0 
L 581 0 
L 581 4863 
z
" transform="scale(0.015625)"/>
     </defs>
     <use xlink:href="#DejaVuSans-4f"/>
     <use xlink:href="#DejaVuSans-62" transform="translate(78.710938 0)"/>
     <use xlink:href="#DejaVuSans-73" transform="translate(142.1875 0)"/>
     <use xlink:href="#DejaVuSans-65" transform="translate(194.287109 0)"/>
     <use xlink:href="#DejaVuSans-72" transform="translate(255.810547 0)"/>
     <use xlink:href="#DejaVuSans-76" transform="translate(296.923828 0)"/>
     <use xlink:href="#DejaVuSans-61" transform="translate(356.103516 0)"/>
     <use xlink:href="#DejaVuSans-74" transform="translate(417.382812 0)"/>
     <use xlink:href="#DejaVuSans-6f" transform="translate(456.591797 0)"/>
     <use xlink:href="#DejaVuSans-72" transform="translate(517.773438 0)"/>
     <use xlink:href="#DejaVuSans-79" transform="translate(558.886719 0)"/>
     <use xlink:href="#DejaVuSans-20" transform="translate(618.066406 0)"/>
     <use xlink:href="#DejaVuSans-46" transform="translate(649.853516 0)"/>
     <use xlink:href="#DejaVuSans-72" transform="translate(700.123047 0)"/>
     <use xlink:href="#DejaVuSans-61" transform="translate(741.236328 0)"/>
     <use xlink:href="#DejaVuSans-6d" transform="translate(802.515625 0)"/>
     <use xlink:href="#DejaVuSans-65" transform="translate(899.927734 0)"/>
     <use xlink:href="#DejaVuSans-77" transform="translate(961.451172 0)"/>
     <use xlink:href="#DejaVuSans-6f" transform="translate(1043.238281 0)"/>
     <use xlink:href="#DejaVuSans-72" transform="translate(1104.419922 0)"/>
     <use xlink:href="#DejaVuSans-6b" transform="translate(1145.533203 0)"/>
    </g>
   </g>
   <g id="text_5">
    <!-- Repository -->
    <g style="fill: #1f2933" transform="translate(81.348 194.644055) scale(0.08 -0.08)">
     <defs>
      <path id="DejaVuSans-52" d="M 2841 2188 
Q 3044 2119 3236 1894 
Q 3428 1669 3622 1275 
L 4263 0 
L 3584 0 
L 2988 1197 
Q 2756 1666 2539 1819 
Q 2322 1972 1947 1972 
L 1259 1972 
L 1259 0 
L 628 0 
L 628 4666 
L 2053 4666 
Q 2853 4666 3247 4331 
Q 3641 3997 3641 3322 
Q 3641 2881 3436 2590 
Q 3231 2300 2841 2188 
z
M 1259 4147 
L 1259 2491 
L 2053 2491 
Q 2509 2491 2742 2702 
Q 2975 2913 2975 3322 
Q 2975 3731 2742 3939 
Q 2509 4147 2053 4147 
L 1259 4147 
z
" transform="scale(0.015625)"/>
     </defs>
     <use xlink:href="#DejaVuSans-52"/>
     <use xlink:href="#DejaVuSans-65" transform="translate(64.982422 0)"/>
     <use xlink:href="#DejaVuSans-70" transform="translate(126.505859 0)"/>
     <use xlink:href="#DejaVuSans-6f" transform="translate(189.982422 0)"/>
     <use xlink:href="#DejaVuSans-73" transform="translate(251.164062 0)"/>
     <use xlink:href="#DejaVuSans-69" transform="translate(303.263672 0)"/>
     <use xlink:href="#DejaVuSans-74" transform="translate(331.046875 0)"/>
     <use xlink:href="#DejaVuSans-6f" transform="translate(370.255859 0)"/>
     <use xlink:href="#DejaVuSans-72" transform="translate(431.4375 0)"/>
     <use xlink:href="#DejaVuSans-79" transform="translate(472.550781 0)"/>
    </g>
    <!-- Services -->
    <g style="fill: #1f2933" transform="translate(85.749875 203.602305) scale(0.08 -0.08)">
     <use xlink:href="#DejaVuSans-53"/>
     <use xlink:href="#DejaVuSans-65" transform="translate(63.476562 0)"/>
     <use xlink:href="#DejaVuSans-72" transform="translate(125 0)"/>
     <use xlink:href="#DejaVuSans-76" transform="translate(166.113281 0)"/>
     <use xlink:href="#DejaVuSans-69" transform="translate(225.292969 0)"/>
     <use xlink:href="#DejaVuSans-63" transform="translate(253.076172 0)"/>
     <use xlink:href="#DejaVuSans-65" transform="translate(308.056641 0)"/>
     <use xlink:href="#DejaVuSans-73" transform="translate(369.580078 0)"/>
    </g>
   </g>
   <g id="text_6">
    <!-- Metadata -->
    <g style="fill: #1f2933" transform="translate(239.358125 194.644055) scale(0.08 -0.08)">
     <defs>
      <path id="DejaVuSans-4d" d="M 628 4666 
L 1569 4666 
L 2759 1491 
L 3956 4666 
L 4897 4666 
L 4897 0 
L 4281 0 
L 4281 4097 
L 3078 897 
L 2444 897 
L 1241 4097 
L 1241 0 
L 628 0 
L 628 4666 
z
" transform="scale(0.015625)"/>
     </defs>
     <use xlink:href="#DejaVuSans-4d"/>
     <use xlink:href="#DejaVuSans-65" transform="translate(86.279297 0)"/>
     <use xlink:href="#DejaVuSans-74" transform="translate(147.802734 0)"/>
     <use xlink:href="#DejaVuSans-61" transform="translate(187.011719 0)"/>
     <use xlink:href="#DejaVuSans-64" transform="translate(248.291016 0)"/>
     <use xlink:href="#DejaVuSans-61" transform="translate(311.767578 0)"/>
     <use xlink:href="#DejaVuSans-74" transform="translate(373.046875 0)"/>
     <use xlink:href="#DejaVuSans-61" transform="translate(412.255859 0)"/>
    </g>
    <!-- Services -->
    <g style="fill: #1f2933" transform="translate(241.431875 203.602305) scale(0.08 -0.08)">
     <use xlink:href="#DejaVuSans-53"/>
     <use xlink:href="#DejaVuSans-65" transform="translate(63.476562 0)"/>
     <use xlink:href="#DejaVuSans-72" transform="translate(125 0)"/>
     <use xlink:href="#DejaVuSans-76" transform="translate(166.113281 0)"/>
     <use xlink:href="#DejaVuSans-69" transform="translate(225.292969 0)"/>
     <use xlink:href="#DejaVuSans-63" transform="translate(253.076172 0)"/>
     <use xlink:href="#DejaVuSans-65" transform="translate(308.056641 0)"/>
     <use xlink:href="#DejaVuSans-73" transform="translate(369.580078 0)"/>
    </g>
   </g>
   <g id="text_7">
    <!-- Product -->
    <g style="fill: #1f2933" transform="translate(398.796375 194.644055) scale(0.08 -0.08)">
     <defs>
      <path id="DejaVuSans-50" d="M 1259 4147 
L 1259 2394 
L 2053 2394 
Q 2494 2394 2734 2622 
Q 2975 2850 2975 3272 
Q 2975 3691 2734 3919 
Q 2494 4147 2053 4147 
L 1259 4147 
z
M 628 4666 
L 2053 4666 
Q 2838 4666 3239 4311 
Q 3641 3956 3641 3272 
Q 3641 2581 3239 2228 
Q 2838 1875 2053 1875 
L 1259 1875 
L 1259 0 
L 628 0 
L 628 4666 
z
" transform="scale(0.015625)"/>
     </defs>
     <use xlink:href="#DejaVuSans-50"/>
     <use xlink:href="#DejaVuSans-72" transform="translate(58.552734 0)"/>
     <use xlink:href="#DejaVuSans-6f" transform="translate(97.416016 0)"/>
     <use xlink:href="#DejaVuSans-64" transform="translate(158.597656 0)"/>
     <use xlink:href="#DejaVuSans-75" transform="translate(222.074219 0)"/>
     <use xlink:href="#DejaVuSans-63" transform="translate(285.453125 0)"/>
     <use xlink:href="#DejaVuSans-74" transform="translate(340.433594 0)"/>
    </g>
    <!-- Services -->
    <g style="fill: #1f2933" transform="translate(397.113875 203.602305) scale(0.08 -0.08)">
     <use xlink:href="#DejaVuSans-53"/>
     <use xlink:href="#DejaVuSans-65" transform="translate(63.476562 0)"/>
     <use xlink:href="#DejaVuSans-72" transform="translate(125 0)"/>
     <use xlink:href="#DejaVuSans-76" transform="translate(166.113281 0)"/>
     <use xlink:href="#DejaVuSans-69" transform="translate(225.292969 0)"/>
     <use xlink:href="#DejaVuSans-63" transform="translate(253.076172 0)"/>
     <use xlink:href="#DejaVuSans-65" transform="translate(308.056641 0)"/>
     <use xlink:href="#DejaVuSans-73" transform="translate(369.580078 0)"/>
    </g>
   </g>
   <g id="text_8">
    <!-- Persistent Computational Repository -->
    <g style="fill: #1f2933" transform="translate(185.24875 276.29566) scale(0.08 -0.08)">
     <defs>
      <path id="DejaVuSans-43" d="M 4122 4306 
L 4122 3641 
Q 3803 3938 3442 4084 
Q 3081 4231 2675 4231 
Q 1875 4231 1450 3742 
Q 1025 3253 1025 2328 
Q 1025 1406 1450 917 
Q 1875 428 2675 428 
Q 3081 428 3442 575 
Q 3803 722 4122 1019 
L 4122 359 
Q 3791 134 3420 21 
Q 3050 -91 2638 -91 
Q 1578 -91 968 557 
Q 359 1206 359 2328 
Q 359 3453 968 4101 
Q 1578 4750 2638 4750 
Q 3056 4750 3426 4639 
Q 3797 4528 4122 4306 
z
" transform="scale(0.015625)"/>
     </defs>
     <use xlink:href="#DejaVuSans-50"/>
     <use xlink:href="#DejaVuSans-65" transform="translate(56.677734 0)"/>
     <use xlink:href="#DejaVuSans-72" transform="translate(118.201172 0)"/>
     <use xlink:href="#DejaVuSans-73" transform="translate(159.314453 0)"/>
     <use xlink:href="#DejaVuSans-69" transform="translate(211.414062 0)"/>
     <use xlink:href="#DejaVuSans-73" transform="translate(239.197266 0)"/>
     <use xlink:href="#DejaVuSans-74" transform="translate(291.296875 0)"/>
     <use xlink:href="#DejaVuSans-65" transform="translate(330.505859 0)"/>
     <use xlink:href="#DejaVuSans-6e" transform="translate(392.029297 0)"/>
     <use xlink:href="#DejaVuSans-74" transform="translate(455.408203 0)"/>
     <use xlink:href="#DejaVuSans-20" transform="translate(494.617188 0)"/>
     <use xlink:href="#DejaVuSans-43" transform="translate(526.404297 0)"/>
     <use xlink:href="#DejaVuSans-6f" transform="translate(596.228516 0)"/>
     <use xlink:href="#DejaVuSans-6d" transform="translate(657.410156 0)"/>
     <use xlink:href="#DejaVuSans-70" transform="translate(754.822266 0)"/>
     <use xlink:href="#DejaVuSans-75" transform="translate(818.298828 0)"/>
     <use xlink:href="#DejaVuSans-74" transform="translate(881.677734 0)"/>
     <use xlink:href="#DejaVuSans-61" transform="translate(920.886719 0)"/>
     <use xlink:href="#DejaVuSans-74" transform="translate(982.166016 0)"/>
     <use xlink:href="#DejaVuSans-69" transform="translate(1021.375 0)"/>
     <use xlink:href="#DejaVuSans-6f" transform="translate(1049.158203 0)"/>
     <use xlink:href="#DejaVuSans-6e" transform="translate(1110.339844 0)"/>
     <use xlink:href="#DejaVuSans-61" transform="translate(1173.71875 0)"/>
     <use xlink:href="#DejaVuSans-6c" transform="translate(1234.998047 0)"/>
     <use xlink:href="#DejaVuSans-20" transform="translate(1262.78125 0)"/>
     <use xlink:href="#DejaVuSans-52" transform="translate(1294.568359 0)"/>
     <use xlink:href="#DejaVuSans-65" transform="translate(1359.550781 0)"/>
     <use xlink:href="#DejaVuSans-70" transform="translate(1421.074219 0)"/>
     <use xlink:href="#DejaVuSans-6f" transform="translate(1484.550781 0)"/>
     <use xlink:href="#DejaVuSans-73" transform="translate(1545.732422 0)"/>
     <use xlink:href="#DejaVuSans-69" transform="translate(1597.832031 0)"/>
     <use xlink:href="#DejaVuSans-74" transform="translate(1625.615234 0)"/>
     <use xlink:href="#DejaVuSans-6f" transform="translate(1664.824219 0)"/>
     <use xlink:href="#DejaVuSans-72" transform="translate(1726.005859 0)"/>
     <use xlink:href="#DejaVuSans-79" transform="translate(1767.119141 0)"/>
    </g>
   </g>
  </g>
 </g>
 <defs>
  <clipPath id="p507472c384">
   <rect x="7.2" y="7.2" width="502.2" height="321.552"/>
  </clipPath>
 </defs>
</svg>
