<?xml version="1.0" encoding="utf-8" standalone="no"?>
<!DOCTYPE svg PUBLIC "-//W3C//DTD SVG 1.1//EN"
  "http://www.w3.org/Graphics/SVG/1.1/DTD/svg11.dtd">
<svg xmlns:xlink="http://www.w3.org/1999/xlink" width="662.997656pt" height="418.6368pt" viewBox="0 0 662.997656 418.6368" xmlns="http://www.w3.org/2000/svg" version="1.1">
 <metadata>
  <rdf:RDF xmlns:dc="http://purl.org/dc/elements/1.1/" xmlns:cc="http://creativecommons.org/ns#" xmlns:rdf="http://www.w3.org/1999/02/22-rdf-syntax-ns#">
   <cc:Work>
    <dc:type rdf:resource="http://purl.org/dc/dcmitype/StillImage"/>
    <dc:date>2026-07-18T13:32:29.232548</dc:date>
    <dc:format>image/svg+xml</dc:format>
    <dc:creator>
     <cc:Agent>
      <dc:title>Matplotlib v3.10.9, https://matplotlib.org/</dc:title>
     </cc:Agent>
    </dc:creator>
   </cc:Work>
  </rdf:RDF>
 </metadata>
 <defs>
  <style type="text/css">*{stroke-linejoin: round; stroke-linecap: butt}</style>
 </defs>
 <g id="figure_1">
  <g id="patch_1">
   <path d="M 0 418.6368 
L 662.997656 418.6368 
L 662.997656 0 
L 0 0 
z
" style="fill: #ffffff"/>
  </g>
  <g id="axes_1">
   <g id="patch_2">
    <path d="M 88.498828 370.512 
L 590.698828 370.512 
L 590.698828 48.96 
L 88.498828 48.96 
z
" style="fill: #ffffff"/>
   </g>
   <g id="matplotlib.axis_1">
    <g id="xtick_1">
     <g id="line2d_1">
      <defs>
       <path id="m1b6f2b55b9" d="M 0 0 
L 0 3.5 
" style="stroke: #52616b; stroke-width: 0.8"/>
      </defs>
      <g>
       <use xlink:href="#m1b6f2b55b9" x="170.799163" y="370.512" style="fill: #52616b; stroke: #52616b; stroke-width: 0.8"/>
      </g>
     </g>
     <g id="text_1">
      <!-- 50 -->
      <g style="fill: #52616b" transform="translate(165.709163 383.59075) scale(0.08 -0.08)">
       <defs>
        <path id="DejaVuSans-35" d="M 691 4666 
L 3169 4666 
L 3169 4134 
L 1269 4134 
L 1269 2991 
Q 1406 3038 1543 3061 
Q 1681 3084 1819 3084 
Q 2600 3084 3056 2656 
Q 3513 2228 3513 1497 
Q 3513 744 3044 326 
Q 2575 -91 1722 -91 
Q 1428 -91 1123 -41 
Q 819 9 494 109 
L 494 744 
Q 775 591 1075 516 
Q 1375 441 1709 441 
Q 2250 441 2565 725 
Q 2881 1009 2881 1497 
Q 2881 1984 2565 2268 
Q 2250 2553 1709 2553 
Q 1456 2553 1204 2497 
Q 953 2441 691 2322 
L 691 4666 
z
" transform="scale(0.015625)"/>
        <path id="DejaVuSans-30" d="M 2034 4250 
Q 1547 4250 1301 3770 
Q 1056 3291 1056 2328 
Q 1056 1369 1301 889 
Q 1547 409 2034 409 
Q 2525 409 2770 889 
Q 3016 1369 3016 2328 
Q 3016 3291 2770 3770 
Q 2525 4250 2034 4250 
z
M 2034 4750 
Q 2819 4750 3233 4129 
Q 3647 3509 3647 2328 
Q 3647 1150 3233 529 
Q 2819 -91 2034 -91 
Q 1250 -91 836 529 
Q 422 1150 422 2328 
Q 422 3509 836 4129 
Q 1250 4750 2034 4750 
z
" transform="scale(0.015625)"/>
       </defs>
       <use xlink:href="#DejaVuSans-35"/>
       <use xlink:href="#DejaVuSans-30" transform="translate(63.623047 0)"/>
      </g>
     </g>
    </g>
    <g id="xtick_2">
     <g id="line2d_2">
      <g>
       <use xlink:href="#m1b6f2b55b9" x="254.779096" y="370.512" style="fill: #52616b; stroke: #52616b; stroke-width: 0.8"/>
      </g>
     </g>
     <g id="text_2">
      <!-- 100 -->
      <g style="fill: #52616b" transform="translate(247.144096 383.59075) scale(0.08 -0.08)">
       <defs>
        <path id="DejaVuSans-31" d="M 794 531 
L 1825 531 
L 1825 4091 
L 703 3866 
L 703 4441 
L 1819 4666 
L 2450 4666 
L 2450 531 
L 3481 531 
L 3481 0 
L 794 0 
L 794 531 
z
" transform="scale(0.015625)"/>
       </defs>
       <use xlink:href="#DejaVuSans-31"/>
       <use xlink:href="#DejaVuSans-30" transform="translate(63.623047 0)"/>
       <use xlink:href="#DejaVuSans-30" transform="translate(127.246094 0)"/>
      </g>
     </g>
    </g>
    <g id="xtick_3">
     <g id="line2d_3">
      <g>
       <use xlink:href="#m1b6f2b55b9" x="338.759029" y="370.512" style="fill: #52616b; stroke: #52616b; stroke-width: 0.8"/>
      </g>
     </g>
     <g id="text_3">
      <!-- 150 -->
      <g style="fill: #52616b" transform="translate(331.124029 383.59075) scale(0.08 -0.08)">
       <use xlink:href="#DejaVuSans-31"/>
       <use xlink:href="#DejaVuSans-35" transform="translate(63.623047 0)"/>
       <use xlink:href="#DejaVuSans-30" transform="translate(127.246094 0)"/>
      </g>
     </g>
    </g>
    <g id="xtick_4">
     <g id="line2d_4">
      <g>
       <use xlink:href="#m1b6f2b55b9" x="422.738962" y="370.512" style="fill: #52616b; stroke: #52616b; stroke-width: 0.8"/>
      </g>
     </g>
     <g id="text_4">
      <!-- 200 -->
      <g style="fill: #52616b" transform="translate(415.103962 383.59075) scale(0.08 -0.08)">
       <defs>
        <path id="DejaVuSans-32" d="M 1228 531 
L 3431 531 
L 3431 0 
L 469 0 
L 469 531 
Q 828 903 1448 1529 
Q 2069 2156 2228 2338 
Q 2531 2678 2651 2914 
Q 2772 3150 2772 3378 
Q 2772 3750 2511 3984 
Q 2250 4219 1831 4219 
Q 1534 4219 1204 4116 
Q 875 4013 500 3803 
L 500 4441 
Q 881 4594 1212 4672 
Q 1544 4750 1819 4750 
Q 2544 4750 2975 4387 
Q 3406 4025 3406 3419 
Q 3406 3131 3298 2873 
Q 3191 2616 2906 2266 
Q 2828 2175 2409 1742 
Q 1991 1309 1228 531 
z
" transform="scale(0.015625)"/>
       </defs>
       <use xlink:href="#DejaVuSans-32"/>
       <use xlink:href="#DejaVuSans-30" transform="translate(63.623047 0)"/>
       <use xlink:href="#DejaVuSans-30" transform="translate(127.246094 0)"/>
      </g>
     </g>
    </g>
    <g id="xtick_5">
     <g id="line2d_5">
      <g>
       <use xlink:href="#m1b6f2b55b9" x="506.718895" y="370.512" style="fill: #52616b; stroke: #52616b; stroke-width: 0.8"/>
      </g>
     </g>
     <g id="text_5">
      <!-- 250 -->
      <g style="fill: #52616b" transform="translate(499.083895 383.59075) scale(0.08 -0.08)">
       <use xlink:href="#DejaVuSans-32"/>
       <use xlink:href="#DejaVuSans-35" transform="translate(63.623047 0)"/>
       <use xlink:href="#DejaVuSans-30" transform="translate(127.246094 0)"/>
      </g>
     </g>
    </g>
    <g id="xtick_6">
     <g id="line2d_6">
      <g>
       <use xlink:href="#m1b6f2b55b9" x="590.698828" y="370.512" style="fill: #52616b; stroke: #52616b; stroke-width: 0.8"/>
      </g>
     </g>
     <g id="text_6">
      <!-- 300 -->
      <g style="fill: #52616b" transform="translate(583.063828 383.59075) scale(0.08 -0.08)">
       <defs>
        <path id="DejaVuSans-33" d="M 2597 2516 
Q 3050 2419 3304 2112 
Q 3559 1806 3559 1356 
Q 3559 666 3084 287 
Q 2609 -91 1734 -91 
Q 1441 -91 1130 -33 
Q 819 25 488 141 
L 488 750 
Q 750 597 1062 519 
Q 1375 441 1716 441 
Q 2309 441 2620 675 
Q 2931 909 2931 1356 
Q 2931 1769 2642 2001 
Q 2353 2234 1838 2234 
L 1294 2234 
L 1294 2753 
L 1863 2753 
Q 2328 2753 2575 2939 
Q 2822 3125 2822 3475 
Q 2822 3834 2567 4026 
Q 2313 4219 1838 4219 
Q 1578 4219 1281 4162 
Q 984 4106 628 3988 
L 628 4550 
Q 988 4650 1302 4700 
Q 1616 4750 1894 4750 
Q 2613 4750 3031 4423 
Q 3450 4097 3450 3541 
Q 3450 3153 3228 2886 
Q 3006 2619 2597 2516 
z
" transform="scale(0.015625)"/>
       </defs>
       <use xlink:href="#DejaVuSans-33"/>
       <use xlink:href="#DejaVuSans-30" transform="translate(63.623047 0)"/>
       <use xlink:href="#DejaVuSans-30" transform="translate(127.246094 0)"/>
      </g>
     </g>
    </g>
    <g id="text_7">
     <!-- Canonical partition -->
     <g style="fill: #1f2933" transform="translate(296.981016 396.093094) scale(0.09 -0.09)">
      <defs>
       <path id="DejaVuSans-43" d="M 4122 4306 
L 4122 3641 
Q 3803 3938 3442 4084 
Q 3081 4231 2675 4231 
Q 1875 4231 1450 3742 
Q 1025 3253 1025 2328 
Q 1025 1406 1450 917 
Q 1875 428 2675 428 
Q 3081 428 3442 575 
Q 3803 722 4122 1019 
L 4122 359 
Q 3791 134 3420 21 
Q 3050 -91 2638 -91 
Q 1578 -91 968 557 
Q 359 1206 359 2328 
Q 359 3453 968 4101 
Q 1578 4750 2638 4750 
Q 3056 4750 3426 4639 
Q 3797 4528 4122 4306 
z
" transform="scale(0.015625)"/>
       <path id="DejaVuSans-61" d="M 2194 1759 
Q 1497 1759 1228 1600 
Q 959 1441 959 1056 
Q 959 750 1161 570 
Q 1363 391 1709 391 
Q 2188 391 2477 730 
Q 2766 1069 2766 1631 
L 2766 1759 
L 2194 1759 
z
M 3341 1997 
L 3341 0 
L 2766 0 
L 2766 531 
Q 2569 213 2275 61 
Q 1981 -91 1556 -91 
Q 1019 -91 701 211 
Q 384 513 384 1019 
Q 384 1609 779 1909 
Q 1175 2209 1959 2209 
L 2766 2209 
L 2766 2266 
Q 2766 2663 2505 2880 
Q 2244 3097 1772 3097 
Q 1472 3097 1187 3025 
Q 903 2953 641 2809 
L 641 3341 
Q 956 3463 1253 3523 
Q 1550 3584 1831 3584 
Q 2591 3584 2966 3190 
Q 3341 2797 3341 1997 
z
" transform="scale(0.015625)"/>
       <path id="DejaVuSans-6e" d="M 3513 2113 
L 3513 0 
L 2938 0 
L 2938 2094 
Q 2938 2591 2744 2837 
Q 2550 3084 2163 3084 
Q 1697 3084 1428 2787 
Q 1159 2491 1159 1978 
L 1159 0 
L 581 0 
L 581 3500 
L 1159 3500 
L 1159 2956 
Q 1366 3272 1645 3428 
Q 1925 3584 2291 3584 
Q 2894 3584 3203 3211 
Q 3513 2838 3513 2113 
z
" transform="scale(0.015625)"/>
       <path id="DejaVuSans-6f" d="M 1959 3097 
Q 1497 3097 1228 2736 
Q 959 2375 959 1747 
Q 959 1119 1226 758 
Q 1494 397 1959 397 
Q 2419 397 2687 759 
Q 2956 1122 2956 1747 
Q 2956 2369 2687 2733 
Q 2419 3097 1959 3097 
z
M 1959 3584 
Q 2709 3584 3137 3096 
Q 3566 2609 3566 1747 
Q 3566 888 3137 398 
Q 2709 -91 1959 -91 
Q 1206 -91 779 398 
Q 353 888 353 1747 
Q 353 2609 779 3096 
Q 1206 3584 1959 3584 
z
" transform="scale(0.015625)"/>
       <path id="DejaVuSans-69" d="M 603 3500 
L 1178 3500 
L 1178 0 
L 603 0 
L 603 3500 
z
M 603 4863 
L 1178 4863 
L 1178 4134 
L 603 4134 
L 603 4863 
z
" transform="scale(0.015625)"/>
       <path id="DejaVuSans-63" d="M 3122 3366 
L 3122 2828 
Q 2878 2963 2633 3030 
Q 2388 3097 2138 3097 
Q 1578 3097 1268 2742 
Q 959 2388 959 1747 
Q 959 1106 1268 751 
Q 1578 397 2138 397 
Q 2388 397 2633 464 
Q 2878 531 3122 666 
L 3122 134 
Q 2881 22 2623 -34 
Q 2366 -91 2075 -91 
Q 1284 -91 818 406 
Q 353 903 353 1747 
Q 353 2603 823 3093 
Q 1294 3584 2113 3584 
Q 2378 3584 2631 3529 
Q 2884 3475 3122 3366 
z
" transform="scale(0.015625)"/>
       <path id="DejaVuSans-6c" d="M 603 4863 
L 1178 4863 
L 1178 0 
L 603 0 
L 603 4863 
z
" transform="scale(0.015625)"/>
       <path id="DejaVuSans-20" transform="scale(0.015625)"/>
       <path id="DejaVuSans-70" d="M 1159 525 
L 1159 -1331 
L 581 -1331 
L 581 3500 
L 1159 3500 
L 1159 2969 
Q 1341 3281 1617 3432 
Q 1894 3584 2278 3584 
Q 2916 3584 3314 3078 
Q 3713 2572 3713 1747 
Q 3713 922 3314 415 
Q 2916 -91 2278 -91 
Q 1894 -91 1617 61 
Q 1341 213 1159 525 
z
M 3116 1747 
Q 3116 2381 2855 2742 
Q 2594 3103 2138 3103 
Q 1681 3103 1420 2742 
Q 1159 2381 1159 1747 
Q 1159 1113 1420 752 
Q 1681 391 2138 391 
Q 2594 391 2855 752 
Q 3116 1113 3116 1747 
z
" transform="scale(0.015625)"/>
       <path id="DejaVuSans-72" d="M 2631 2963 
Q 2534 3019 2420 3045 
Q 2306 3072 2169 3072 
Q 1681 3072 1420 2755 
Q 1159 2438 1159 1844 
L 1159 0 
L 581 0 
L 581 3500 
L 1159 3500 
L 1159 2956 
Q 1341 3275 1631 3429 
Q 1922 3584 2338 3584 
Q 2397 3584 2469 3576 
Q 2541 3569 2628 3553 
L 2631 2963 
z
" transform="scale(0.015625)"/>
       <path id="DejaVuSans-74" d="M 1172 4494 
L 1172 3500 
L 2356 3500 
L 2356 3053 
L 1172 3053 
L 1172 1153 
Q 1172 725 1289 603 
Q 1406 481 1766 481 
L 2356 481 
L 2356 0 
L 1766 0 
Q 1100 0 847 248 
Q 594 497 594 1153 
L 594 3053 
L 172 3053 
L 172 3500 
L 594 3500 
L 594 4494 
L 1172 4494 
z
" transform="scale(0.015625)"/>
      </defs>
      <use xlink:href="#DejaVuSans-43"/>
      <use xlink:href="#DejaVuSans-61" transform="translate(69.824219 0)"/>
      <use xlink:href="#DejaVuSans-6e" transform="translate(131.103516 0)"/>
      <use xlink:href="#DejaVuSans-6f" transform="translate(194.482422 0)"/>
      <use xlink:href="#DejaVuSans-6e" transform="translate(255.664062 0)"/>
      <use xlink:href="#DejaVuSans-69" transform="translate(319.042969 0)"/>
      <use xlink:href="#DejaVuSans-63" transform="translate(346.826172 0)"/>
      <use xlink:href="#DejaVuSans-61" transform="translate(401.806641 0)"/>
      <use xlink:href="#DejaVuSans-6c" transform="translate(463.085938 0)"/>
      <use xlink:href="#DejaVuSans-20" transform="translate(490.869141 0)"/>
      <use xlink:href="#DejaVuSans-70" transform="translate(522.65625 0)"/>
      <use xlink:href="#DejaVuSans-61" transform="translate(586.132812 0)"/>
      <use xlink:href="#DejaVuSans-72" transform="translate(647.412109 0)"/>
      <use xlink:href="#DejaVuSans-74" transform="translate(688.525391 0)"/>
      <use xlink:href="#DejaVuSans-69" transform="translate(727.734375 0)"/>
      <use xlink:href="#DejaVuSans-74" transform="translate(755.517578 0)"/>
      <use xlink:href="#DejaVuSans-69" transform="translate(794.726562 0)"/>
      <use xlink:href="#DejaVuSans-6f" transform="translate(822.509766 0)"/>
      <use xlink:href="#DejaVuSans-6e" transform="translate(883.691406 0)"/>
     </g>
    </g>
   </g>
   <g id="matplotlib.axis_2">
    <g id="ytick_1">
     <g id="line2d_7">
      <path d="M 88.498828 355.896 
L 590.698828 355.896 
" clip-path="url(#p17e56a67d5)" style="fill: none; stroke: #b0b0b0; stroke-opacity: 0.22; stroke-width: 0.7; stroke-linecap: square"/>
     </g>
     <g id="line2d_8">
      <defs>
       <path id="mbd9297b76d" d="M 0 0 
L -3.5 0 
" style="stroke: #52616b; stroke-width: 0.8"/>
      </defs>
      <g>
       <use xlink:href="#mbd9297b76d" x="88.498828" y="355.896" style="fill: #52616b; stroke: #52616b; stroke-width: 0.8"/>
      </g>
     </g>
     <g id="text_8">
      <!-- 0 -->
      <g style="fill: #52616b" transform="translate(76.408828 358.935375) scale(0.08 -0.08)">
       <use xlink:href="#DejaVuSans-30"/>
      </g>
     </g>
    </g>
    <g id="ytick_2">
     <g id="line2d_9">
      <path d="M 88.498828 291.65726 
L 590.698828 291.65726 
" clip-path="url(#p17e56a67d5)" style="fill: none; stroke: #b0b0b0; stroke-opacity: 0.22; stroke-width: 0.7; stroke-linecap: square"/>
     </g>
     <g id="line2d_10">
      <g>
       <use xlink:href="#mbd9297b76d" x="88.498828" y="291.65726" style="fill: #52616b; stroke: #52616b; stroke-width: 0.8"/>
      </g>
     </g>
     <g id="text_9">
      <!-- 100.0M -->
      <g style="fill: #52616b" transform="translate(51.693828 294.696635) scale(0.08 -0.08)">
       <defs>
        <path id="DejaVuSans-2e" d="M 684 794 
L 1344 794 
L 1344 0 
L 684 0 
L 684 794 
z
" transform="scale(0.015625)"/>
        <path id="DejaVuSans-4d" d="M 628 4666 
L 1569 4666 
L 2759 1491 
L 3956 4666 
L 4897 4666 
L 4897 0 
L 4281 0 
L 4281 4097 
L 3078 897 
L 2444 897 
L 1241 4097 
L 1241 0 
L 628 0 
L 628 4666 
z
" transform="scale(0.015625)"/>
       </defs>
       <use xlink:href="#DejaVuSans-31"/>
       <use xlink:href="#DejaVuSans-30" transform="translate(63.623047 0)"/>
       <use xlink:href="#DejaVuSans-30" transform="translate(127.246094 0)"/>
       <use xlink:href="#DejaVuSans-2e" transform="translate(190.869141 0)"/>
       <use xlink:href="#DejaVuSans-30" transform="translate(222.65625 0)"/>
       <use xlink:href="#DejaVuSans-4d" transform="translate(286.279297 0)"/>
      </g>
     </g>
    </g>
    <g id="ytick_3">
     <g id="line2d_11">
      <path d="M 88.498828 227.41852 
L 590.698828 227.41852 
" clip-path="url(#p17e56a67d5)" style="fill: none; stroke: #b0b0b0; stroke-opacity: 0.22; stroke-width: 0.7; stroke-linecap: square"/>
     </g>
     <g id="line2d_12">
      <g>
       <use xlink:href="#mbd9297b76d" x="88.498828" y="227.41852" style="fill: #52616b; stroke: #52616b; stroke-width: 0.8"/>
      </g>
     </g>
     <g id="text_10">
      <!-- 200.0M -->
      <g style="fill: #52616b" transform="translate(51.693828 230.457895) scale(0.08 -0.08)">
       <use xlink:href="#DejaVuSans-32"/>
       <use xlink:href="#DejaVuSans-30" transform="translate(63.623047 0)"/>
       <use xlink:href="#DejaVuSans-30" transform="translate(127.246094 0)"/>
       <use xlink:href="#DejaVuSans-2e" transform="translate(190.869141 0)"/>
       <use xlink:href="#DejaVuSans-30" transform="translate(222.65625 0)"/>
       <use xlink:href="#DejaVuSans-4d" transform="translate(286.279297 0)"/>
      </g>
     </g>
    </g>
    <g id="ytick_4">
     <g id="line2d_13">
      <path d="M 88.498828 163.17978 
L 590.698828 163.17978 
" clip-path="url(#p17e56a67d5)" style="fill: none; stroke: #b0b0b0; stroke-opacity: 0.22; stroke-width: 0.7; stroke-linecap: square"/>
     </g>
     <g id="line2d_14">
      <g>
       <use xlink:href="#mbd9297b76d" x="88.498828" y="163.17978" style="fill: #52616b; stroke: #52616b; stroke-width: 0.8"/>
      </g>
     </g>
     <g id="text_11">
      <!-- 300.0M -->
      <g style="fill: #52616b" transform="translate(51.693828 166.219155) scale(0.08 -0.08)">
       <use xlink:href="#DejaVuSans-33"/>
       <use xlink:href="#DejaVuSans-30" transform="translate(63.623047 0)"/>
       <use xlink:href="#DejaVuSans-30" transform="translate(127.246094 0)"/>
       <use xlink:href="#DejaVuSans-2e" transform="translate(190.869141 0)"/>
       <use xlink:href="#DejaVuSans-30" transform="translate(222.65625 0)"/>
       <use xlink:href="#DejaVuSans-4d" transform="translate(286.279297 0)"/>
      </g>
     </g>
    </g>
    <g id="ytick_5">
     <g id="line2d_15">
      <path d="M 88.498828 98.941039 
L 590.698828 98.941039 
" clip-path="url(#p17e56a67d5)" style="fill: none; stroke: #b0b0b0; stroke-opacity: 0.22; stroke-width: 0.7; stroke-linecap: square"/>
     </g>
     <g id="line2d_16">
      <g>
       <use xlink:href="#mbd9297b76d" x="88.498828" y="98.941039" style="fill: #52616b; stroke: #52616b; stroke-width: 0.8"/>
      </g>
     </g>
     <g id="text_12">
      <!-- 400.0M -->
      <g style="fill: #52616b" transform="translate(51.693828 101.980414) scale(0.08 -0.08)">
       <defs>
        <path id="DejaVuSans-34" d="M 2419 4116 
L 825 1625 
L 2419 1625 
L 2419 4116 
z
M 2253 4666 
L 3047 4666 
L 3047 1625 
L 3713 1625 
L 3713 1100 
L 3047 1100 
L 3047 0 
L 2419 0 
L 2419 1100 
L 313 1100 
L 313 1709 
L 2253 4666 
z
" transform="scale(0.015625)"/>
       </defs>
       <use xlink:href="#DejaVuSans-34"/>
       <use xlink:href="#DejaVuSans-30" transform="translate(63.623047 0)"/>
       <use xlink:href="#DejaVuSans-30" transform="translate(127.246094 0)"/>
       <use xlink:href="#DejaVuSans-2e" transform="translate(190.869141 0)"/>
       <use xlink:href="#DejaVuSans-30" transform="translate(222.65625 0)"/>
       <use xlink:href="#DejaVuSans-4d" transform="translate(286.279297 0)"/>
      </g>
     </g>
    </g>
    <g id="text_13">
     <!-- Prime records per partition -->
     <g style="fill: #1f2933" transform="translate(45.822109 270.20475) rotate(-90) scale(0.09 -0.09)">
      <defs>
       <path id="DejaVuSans-50" d="M 1259 4147 
L 1259 2394 
L 2053 2394 
Q 2494 2394 2734 2622 
Q 2975 2850 2975 3272 
Q 2975 3691 2734 3919 
Q 2494 4147 2053 4147 
L 1259 4147 
z
M 628 4666 
L 2053 4666 
Q 2838 4666 3239 4311 
Q 3641 3956 3641 3272 
Q 3641 2581 3239 2228 
Q 2838 1875 2053 1875 
L 1259 1875 
L 1259 0 
L 628 0 
L 628 4666 
z
" transform="scale(0.015625)"/>
       <path id="DejaVuSans-6d" d="M 3328 2828 
Q 3544 3216 3844 3400 
Q 4144 3584 4550 3584 
Q 5097 3584 5394 3201 
Q 5691 2819 5691 2113 
L 5691 0 
L 5113 0 
L 5113 2094 
Q 5113 2597 4934 2840 
Q 4756 3084 4391 3084 
Q 3944 3084 3684 2787 
Q 3425 2491 3425 1978 
L 3425 0 
L 2847 0 
L 2847 2094 
Q 2847 2600 2669 2842 
Q 2491 3084 2119 3084 
Q 1678 3084 1418 2786 
Q 1159 2488 1159 1978 
L 1159 0 
L 581 0 
L 581 3500 
L 1159 3500 
L 1159 2956 
Q 1356 3278 1631 3431 
Q 1906 3584 2284 3584 
Q 2666 3584 2933 3390 
Q 3200 3197 3328 2828 
z
" transform="scale(0.015625)"/>
       <path id="DejaVuSans-65" d="M 3597 1894 
L 3597 1613 
L 953 1613 
Q 991 1019 1311 708 
Q 1631 397 2203 397 
Q 2534 397 2845 478 
Q 3156 559 3463 722 
L 3463 178 
Q 3153 47 2828 -22 
Q 2503 -91 2169 -91 
Q 1331 -91 842 396 
Q 353 884 353 1716 
Q 353 2575 817 3079 
Q 1281 3584 2069 3584 
Q 2775 3584 3186 3129 
Q 3597 2675 3597 1894 
z
M 3022 2063 
Q 3016 2534 2758 2815 
Q 2500 3097 2075 3097 
Q 1594 3097 1305 2825 
Q 1016 2553 972 2059 
L 3022 2063 
z
" transform="scale(0.015625)"/>
       <path id="DejaVuSans-64" d="M 2906 2969 
L 2906 4863 
L 3481 4863 
L 3481 0 
L 2906 0 
L 2906 525 
Q 2725 213 2448 61 
Q 2172 -91 1784 -91 
Q 1150 -91 751 415 
Q 353 922 353 1747 
Q 353 2572 751 3078 
Q 1150 3584 1784 3584 
Q 2172 3584 2448 3432 
Q 2725 3281 2906 2969 
z
M 947 1747 
Q 947 1113 1208 752 
Q 1469 391 1925 391 
Q 2381 391 2643 752 
Q 2906 1113 2906 1747 
Q 2906 2381 2643 2742 
Q 2381 3103 1925 3103 
Q 1469 3103 1208 2742 
Q 947 2381 947 1747 
z
" transform="scale(0.015625)"/>
       <path id="DejaVuSans-73" d="M 2834 3397 
L 2834 2853 
Q 2591 2978 2328 3040 
Q 2066 3103 1784 3103 
Q 1356 3103 1142 2972 
Q 928 2841 928 2578 
Q 928 2378 1081 2264 
Q 1234 2150 1697 2047 
L 1894 2003 
Q 2506 1872 2764 1633 
Q 3022 1394 3022 966 
Q 3022 478 2636 193 
Q 2250 -91 1575 -91 
Q 1294 -91 989 -36 
Q 684 19 347 128 
L 347 722 
Q 666 556 975 473 
Q 1284 391 1588 391 
Q 1994 391 2212 530 
Q 2431 669 2431 922 
Q 2431 1156 2273 1281 
Q 2116 1406 1581 1522 
L 1381 1569 
Q 847 1681 609 1914 
Q 372 2147 372 2553 
Q 372 3047 722 3315 
Q 1072 3584 1716 3584 
Q 2034 3584 2315 3537 
Q 2597 3491 2834 3397 
z
" transform="scale(0.015625)"/>
      </defs>
      <use xlink:href="#DejaVuSans-50"/>
      <use xlink:href="#DejaVuSans-72" transform="translate(58.552734 0)"/>
      <use xlink:href="#DejaVuSans-69" transform="translate(99.666016 0)"/>
      <use xlink:href="#DejaVuSans-6d" transform="translate(127.449219 0)"/>
      <use xlink:href="#DejaVuSans-65" transform="translate(224.861328 0)"/>
      <use xlink:href="#DejaVuSans-20" transform="translate(286.384766 0)"/>
      <use xlink:href="#DejaVuSans-72" transform="translate(318.171875 0)"/>
      <use xlink:href="#DejaVuSans-65" transform="translate(357.035156 0)"/>
      <use xlink:href="#DejaVuSans-63" transform="translate(418.558594 0)"/>
      <use xlink:href="#DejaVuSans-6f" transform="translate(473.539062 0)"/>
      <use xlink:href="#DejaVuSans-72" transform="translate(534.720703 0)"/>
      <use xlink:href="#DejaVuSans-64" transform="translate(574.083984 0)"/>
      <use xlink:href="#DejaVuSans-73" transform="translate(637.560547 0)"/>
      <use xlink:href="#DejaVuSans-20" transform="translate(689.660156 0)"/>
      <use xlink:href="#DejaVuSans-70" transform="translate(721.447266 0)"/>
      <use xlink:href="#DejaVuSans-65" transform="translate(784.923828 0)"/>
      <use xlink:href="#DejaVuSans-72" transform="translate(846.447266 0)"/>
      <use xlink:href="#DejaVuSans-20" transform="translate(887.560547 0)"/>
      <use xlink:href="#DejaVuSans-70" transform="translate(919.347656 0)"/>
      <use xlink:href="#DejaVuSans-61" transform="translate(982.824219 0)"/>
      <use xlink:href="#DejaVuSans-72" transform="translate(1044.103516 0)"/>
      <use xlink:href="#DejaVuSans-74" transform="translate(1085.216797 0)"/>
      <use xlink:href="#DejaVuSans-69" transform="translate(1124.425781 0)"/>
      <use xlink:href="#DejaVuSans-74" transform="translate(1152.208984 0)"/>
      <use xlink:href="#DejaVuSans-69" transform="translate(1191.417969 0)"/>
      <use xlink:href="#DejaVuSans-6f" transform="translate(1219.201172 0)"/>
      <use xlink:href="#DejaVuSans-6e" transform="translate(1280.382812 0)"/>
     </g>
    </g>
   </g>
   <g id="FillBetweenPolyCollection_1">
    <defs>
     <path id="m837034e580" d="M 88.498828 -62.7408 
L 88.498828 -355.0608 
L 90.178427 -337.13928 
L 91.858025 -331.129749 
L 93.537624 -327.371973 
L 95.217223 -324.641594 
L 96.896821 -322.511715 
L 98.57642 -320.763013 
L 100.256019 -319.284444 
L 101.935617 -318.006118 
L 103.615216 -316.885844 
L 105.294815 -315.873825 
L 106.974413 -314.97689 
L 108.654012 -314.157643 
L 110.333611 -313.392596 
L 112.013209 -312.701317 
L 113.692808 -312.048769 
L 115.372407 -311.445384 
L 117.052005 -310.887041 
L 118.731604 -310.347096 
L 120.411203 -309.854321 
L 122.090801 -309.372294 
L 123.7704 -308.92342 
L 125.449999 -308.494109 
L 127.129597 -308.095306 
L 128.809196 -307.689617 
L 130.488795 -307.326366 
L 132.168393 -306.966146 
L 133.847992 -306.623563 
L 135.527591 -306.293114 
L 137.207189 -305.977058 
L 138.886788 -305.668861 
L 140.566387 -305.373619 
L 142.245985 -305.092912 
L 143.925584 -304.808167 
L 145.605183 -304.538948 
L 147.284781 -304.282247 
L 148.96438 -304.028008 
L 150.643979 -303.785578 
L 152.323577 -303.543459 
L 154.003176 -303.311531 
L 155.682775 -303.095125 
L 157.362373 -302.870518 
L 159.041972 -302.65874 
L 160.721571 -302.455903 
L 162.401169 -302.245358 
L 164.080768 -302.048004 
L 165.760367 -301.855755 
L 167.439965 -301.659506 
L 169.119564 -301.482845 
L 170.799163 -301.297914 
L 172.478761 -301.126991 
L 174.15836 -300.949421 
L 175.837959 -300.782142 
L 177.517557 -300.616334 
L 179.197156 -300.446325 
L 180.876755 -300.293063 
L 182.556353 -300.131691 
L 184.235952 -299.979419 
L 185.915551 -299.825792 
L 187.595149 -299.682705 
L 189.274748 -299.531958 
L 190.954347 -299.391262 
L 192.633945 -299.25271 
L 194.313544 -299.110612 
L 195.993143 -298.979183 
L 197.672741 -298.842034 
L 199.35234 -298.715288 
L 201.031938 -298.58646 
L 202.711537 -298.450638 
L 204.391136 -298.331725 
L 206.070734 -298.209595 
L 207.750333 -298.077708 
L 209.429932 -297.971422 
L 211.10953 -297.849216 
L 212.789129 -297.739339 
L 214.468728 -297.616705 
L 216.148326 -297.507078 
L 217.827925 -297.395351 
L 219.507524 -297.274762 
L 221.187122 -297.176189 
L 222.866721 -297.070308 
L 224.54632 -296.966402 
L 226.225918 -296.856262 
L 227.905517 -296.753663 
L 229.585116 -296.655291 
L 231.264714 -296.555044 
L 232.944313 -296.451197 
L 234.623912 -296.359336 
L 236.30351 -296.258318 
L 237.983109 -296.160359 
L 239.662708 -296.074414 
L 241.342306 -295.981288 
L 243.021905 -295.881408 
L 244.701504 -295.79716 
L 246.381102 -295.71124 
L 248.060701 -295.616732 
L 249.7403 -295.524106 
L 251.419898 -295.44156 
L 253.099497 -295.357732 
L 254.779096 -295.270535 
L 256.458694 -295.182391 
L 258.138293 -295.098829 
L 259.817892 -295.019436 
L 261.49749 -294.938192 
L 263.177089 -294.86233 
L 264.856688 -294.780323 
L 266.536286 -294.704711 
L 268.215885 -294.619064 
L 269.895484 -294.548348 
L 271.575082 -294.466056 
L 273.254681 -294.384372 
L 274.93428 -294.317576 
L 276.613878 -294.244065 
L 278.293477 -294.1657 
L 279.973076 -294.101096 
L 281.652674 -294.030949 
L 283.332273 -293.951846 
L 285.011872 -293.871292 
L 286.69147 -293.806264 
L 288.371069 -293.738283 
L 290.050668 -293.673824 
L 291.730266 -293.603295 
L 293.409865 -293.531289 
L 295.089464 -293.464745 
L 296.769062 -293.40628 
L 298.448661 -293.327687 
L 300.12826 -293.265916 
L 301.807858 -293.204445 
L 303.487457 -293.134714 
L 305.167056 -293.070454 
L 306.846654 -293.007725 
L 308.526253 -292.94418 
L 310.205852 -292.885257 
L 311.88545 -292.828344 
L 313.565049 -292.756001 
L 315.244648 -292.697241 
L 316.924246 -292.646615 
L 318.603845 -292.587915 
L 320.283444 -292.513759 
L 321.963042 -292.459053 
L 323.642641 -292.400336 
L 325.322239 -292.340132 
L 327.001838 -292.296819 
L 328.681437 -292.228022 
L 330.361035 -292.173554 
L 332.040634 -292.115027 
L 333.720233 -292.061437 
L 335.399831 -291.994942 
L 337.07943 -291.951493 
L 338.759029 -291.89554 
L 340.438627 -291.838974 
L 342.118226 -291.784 
L 343.797825 -291.732397 
L 345.477423 -291.674744 
L 347.157022 -291.624696 
L 348.836621 -291.57366 
L 350.516219 -291.524779 
L 352.195818 -291.461479 
L 353.875417 -291.416429 
L 355.555015 -291.360559 
L 357.234614 -291.309323 
L 358.914213 -291.267432 
L 360.593811 -291.210741 
L 362.27341 -291.162932 
L 363.953009 -291.120731 
L 365.632607 -291.058478 
L 367.312206 -291.018124 
L 368.991805 -290.963697 
L 370.671403 -290.926253 
L 372.351002 -290.874754 
L 374.030601 -290.825282 
L 375.710199 -290.775193 
L 377.389798 -290.73435 
L 379.069397 -290.671713 
L 380.748995 -290.633493 
L 382.428594 -290.595156 
L 384.108193 -290.554173 
L 385.787791 -290.494449 
L 387.46739 -290.455779 
L 389.146989 -290.416011 
L 390.826587 -290.363993 
L 392.506186 -290.321572 
L 394.185785 -290.27643 
L 395.865383 -290.231195 
L 397.544982 -290.183973 
L 399.224581 -290.147718 
L 400.904179 -290.093979 
L 402.583778 -290.058606 
L 404.263377 -290.009507 
L 405.942975 -289.969653 
L 407.622574 -289.929947 
L 409.302173 -289.879541 
L 410.981771 -289.846256 
L 412.66137 -289.814327 
L 414.340969 -289.750447 
L 416.020567 -289.728068 
L 417.700166 -289.681824 
L 419.379765 -289.635615 
L 421.059363 -289.606167 
L 422.738962 -289.559938 
L 424.418561 -289.52582 
L 426.098159 -289.479597 
L 427.777758 -289.435039 
L 429.457357 -289.407645 
L 431.136955 -289.364136 
L 432.816554 -289.322953 
L 434.496153 -289.28092 
L 436.175751 -289.243577 
L 437.85535 -289.206235 
L 439.534949 -289.168799 
L 441.214547 -289.125135 
L 442.894146 -289.083542 
L 444.573745 -289.06173 
L 446.253343 -289.021449 
L 447.932942 -288.974643 
L 449.61254 -288.940009 
L 451.292139 -288.904808 
L 452.971738 -288.866033 
L 454.651336 -288.830561 
L 456.330935 -288.790688 
L 458.010534 -288.762742 
L 459.690132 -288.722447 
L 461.369731 -288.683005 
L 463.04933 -288.655951 
L 464.728928 -288.616898 
L 466.408527 -288.588014 
L 468.088126 -288.548562 
L 469.767724 -288.513278 
L 471.447323 -288.479822 
L 473.126922 -288.439241 
L 474.80652 -288.406561 
L 476.486119 -288.367297 
L 478.165718 -288.337991 
L 479.845316 -288.305235 
L 481.524915 -288.272384 
L 483.204514 -288.238719 
L 484.884112 -288.206555 
L 486.563711 -288.171848 
L 488.24331 -288.141729 
L 489.922908 -288.111876 
L 491.602507 -288.068966 
L 493.282106 -288.042254 
L 494.961704 -288.009757 
L 496.641303 -287.969126 
L 498.320902 -287.93975 
L 500.0005 -287.913441 
L 501.680099 -287.87095 
L 503.359698 -287.850238 
L 505.039296 -287.817387 
L 506.718895 -287.780169 
L 508.398494 -287.749431 
L 510.078092 -287.725236 
L 511.757691 -287.686645 
L 513.43729 -287.660444 
L 515.116888 -287.625665 
L 516.796487 -287.588446 
L 518.476086 -287.561658 
L 520.155684 -287.534633 
L 521.835283 -287.501619 
L 523.514882 -287.471453 
L 525.19448 -287.439688 
L 526.874079 -287.413852 
L 528.553678 -287.384303 
L 530.233276 -287.352378 
L 531.912875 -287.316746 
L 533.592474 -287.299069 
L 535.272072 -287.263302 
L 536.951671 -287.231556 
L 538.63127 -287.212368 
L 540.310868 -287.17386 
L 541.990467 -287.145009 
L 543.670066 -287.11553 
L 545.349664 -287.090545 
L 547.029263 -287.062816 
L 548.708862 -287.036911 
L 550.38846 -287.006964 
L 552.068059 -286.973263 
L 553.747658 -286.950598 
L 555.427256 -286.917235 
L 557.106855 -286.879536 
L 558.786454 -286.868056 
L 560.466052 -286.835742 
L 562.145651 -286.799337 
L 563.82525 -286.783312 
L 565.504848 -286.746019 
L 567.184447 -286.71812 
L 568.864046 -286.707958 
L 570.543644 -286.672594 
L 572.223243 -286.644428 
L 573.902842 -286.611704 
L 575.58244 -286.588636 
L 577.262039 -286.564075 
L 578.941637 -286.533713 
L 580.621236 -286.510093 
L 582.300835 -286.485418 
L 583.980433 -286.459114 
L 585.660032 -286.421506 
L 587.339631 -286.398745 
L 589.019229 -286.376814 
L 590.698828 -286.346712 
L 590.698828 -62.7408 
L 590.698828 -62.7408 
L 589.019229 -62.7408 
L 587.339631 -62.7408 
L 585.660032 -62.7408 
L 583.980433 -62.7408 
L 582.300835 -62.7408 
L 580.621236 -62.7408 
L 578.941637 -62.7408 
L 577.262039 -62.7408 
L 575.58244 -62.7408 
L 573.902842 -62.7408 
L 572.223243 -62.7408 
L 570.543644 -62.7408 
L 568.864046 -62.7408 
L 567.184447 -62.7408 
L 565.504848 -62.7408 
L 563.82525 -62.7408 
L 562.145651 -62.7408 
L 560.466052 -62.7408 
L 558.786454 -62.7408 
L 557.106855 -62.7408 
L 555.427256 -62.7408 
L 553.747658 -62.7408 
L 552.068059 -62.7408 
L 550.38846 -62.7408 
L 548.708862 -62.7408 
L 547.029263 -62.7408 
L 545.349664 -62.7408 
L 543.670066 -62.7408 
L 541.990467 -62.7408 
L 540.310868 -62.7408 
L 538.63127 -62.7408 
L 536.951671 -62.7408 
L 535.272072 -62.7408 
L 533.592474 -62.7408 
L 531.912875 -62.7408 
L 530.233276 -62.7408 
L 528.553678 -62.7408 
L 526.874079 -62.7408 
L 525.19448 -62.7408 
L 523.514882 -62.7408 
L 521.835283 -62.7408 
L 520.155684 -62.7408 
L 518.476086 -62.7408 
L 516.796487 -62.7408 
L 515.116888 -62.7408 
L 513.43729 -62.7408 
L 511.757691 -62.7408 
L 510.078092 -62.7408 
L 508.398494 -62.7408 
L 506.718895 -62.7408 
L 505.039296 -62.7408 
L 503.359698 -62.7408 
L 501.680099 -62.7408 
L 500.0005 -62.7408 
L 498.320902 -62.7408 
L 496.641303 -62.7408 
L 494.961704 -62.7408 
L 493.282106 -62.7408 
L 491.602507 -62.7408 
L 489.922908 -62.7408 
L 488.24331 -62.7408 
L 486.563711 -62.7408 
L 484.884112 -62.7408 
L 483.204514 -62.7408 
L 481.524915 -62.7408 
L 479.845316 -62.7408 
L 478.165718 -62.7408 
L 476.486119 -62.7408 
L 474.80652 -62.7408 
L 473.126922 -62.7408 
L 471.447323 -62.7408 
L 469.767724 -62.7408 
L 468.088126 -62.7408 
L 466.408527 -62.7408 
L 464.728928 -62.7408 
L 463.04933 -62.7408 
L 461.369731 -62.7408 
L 459.690132 -62.7408 
L 458.010534 -62.7408 
L 456.330935 -62.7408 
L 454.651336 -62.7408 
L 452.971738 -62.7408 
L 451.292139 -62.7408 
L 449.61254 -62.7408 
L 447.932942 -62.7408 
L 446.253343 -62.7408 
L 444.573745 -62.7408 
L 442.894146 -62.7408 
L 441.214547 -62.7408 
L 439.534949 -62.7408 
L 437.85535 -62.7408 
L 436.175751 -62.7408 
L 434.496153 -62.7408 
L 432.816554 -62.7408 
L 431.136955 -62.7408 
L 429.457357 -62.7408 
L 427.777758 -62.7408 
L 426.098159 -62.7408 
L 424.418561 -62.7408 
L 422.738962 -62.7408 
L 421.059363 -62.7408 
L 419.379765 -62.7408 
L 417.700166 -62.7408 
L 416.020567 -62.7408 
L 414.340969 -62.7408 
L 412.66137 -62.7408 
L 410.981771 -62.7408 
L 409.302173 -62.7408 
L 407.622574 -62.7408 
L 405.942975 -62.7408 
L 404.263377 -62.7408 
L 402.583778 -62.7408 
L 400.904179 -62.7408 
L 399.224581 -62.7408 
L 397.544982 -62.7408 
L 395.865383 -62.7408 
L 394.185785 -62.7408 
L 392.506186 -62.7408 
L 390.826587 -62.7408 
L 389.146989 -62.7408 
L 387.46739 -62.7408 
L 385.787791 -62.7408 
L 384.108193 -62.7408 
L 382.428594 -62.7408 
L 380.748995 -62.7408 
L 379.069397 -62.7408 
L 377.389798 -62.7408 
L 375.710199 -62.7408 
L 374.030601 -62.7408 
L 372.351002 -62.7408 
L 370.671403 -62.7408 
L 368.991805 -62.7408 
L 367.312206 -62.7408 
L 365.632607 -62.7408 
L 363.953009 -62.7408 
L 362.27341 -62.7408 
L 360.593811 -62.7408 
L 358.914213 -62.7408 
L 357.234614 -62.7408 
L 355.555015 -62.7408 
L 353.875417 -62.7408 
L 352.195818 -62.7408 
L 350.516219 -62.7408 
L 348.836621 -62.7408 
L 347.157022 -62.7408 
L 345.477423 -62.7408 
L 343.797825 -62.7408 
L 342.118226 -62.7408 
L 340.438627 -62.7408 
L 338.759029 -62.7408 
L 337.07943 -62.7408 
L 335.399831 -62.7408 
L 333.720233 -62.7408 
L 332.040634 -62.7408 
L 330.361035 -62.7408 
L 328.681437 -62.7408 
L 327.001838 -62.7408 
L 325.322239 -62.7408 
L 323.642641 -62.7408 
L 321.963042 -62.7408 
L 320.283444 -62.7408 
L 318.603845 -62.7408 
L 316.924246 -62.7408 
L 315.244648 -62.7408 
L 313.565049 -62.7408 
L 311.88545 -62.7408 
L 310.205852 -62.7408 
L 308.526253 -62.7408 
L 306.846654 -62.7408 
L 305.167056 -62.7408 
L 303.487457 -62.7408 
L 301.807858 -62.7408 
L 300.12826 -62.7408 
L 298.448661 -62.7408 
L 296.769062 -62.7408 
L 295.089464 -62.7408 
L 293.409865 -62.7408 
L 291.730266 -62.7408 
L 290.050668 -62.7408 
L 288.371069 -62.7408 
L 286.69147 -62.7408 
L 285.011872 -62.7408 
L 283.332273 -62.7408 
L 281.652674 -62.7408 
L 279.973076 -62.7408 
L 278.293477 -62.7408 
L 276.613878 -62.7408 
L 274.93428 -62.7408 
L 273.254681 -62.7408 
L 271.575082 -62.7408 
L 269.895484 -62.7408 
L 268.215885 -62.7408 
L 266.536286 -62.7408 
L 264.856688 -62.7408 
L 263.177089 -62.7408 
L 261.49749 -62.7408 
L 259.817892 -62.7408 
L 258.138293 -62.7408 
L 256.458694 -62.7408 
L 254.779096 -62.7408 
L 253.099497 -62.7408 
L 251.419898 -62.7408 
L 249.7403 -62.7408 
L 248.060701 -62.7408 
L 246.381102 -62.7408 
L 244.701504 -62.7408 
L 243.021905 -62.7408 
L 241.342306 -62.7408 
L 239.662708 -62.7408 
L 237.983109 -62.7408 
L 236.30351 -62.7408 
L 234.623912 -62.7408 
L 232.944313 -62.7408 
L 231.264714 -62.7408 
L 229.585116 -62.7408 
L 227.905517 -62.7408 
L 226.225918 -62.7408 
L 224.54632 -62.7408 
L 222.866721 -62.7408 
L 221.187122 -62.7408 
L 219.507524 -62.7408 
L 217.827925 -62.7408 
L 216.148326 -62.7408 
L 214.468728 -62.7408 
L 212.789129 -62.7408 
L 211.10953 -62.7408 
L 209.429932 -62.7408 
L 207.750333 -62.7408 
L 206.070734 -62.7408 
L 204.391136 -62.7408 
L 202.711537 -62.7408 
L 201.031938 -62.7408 
L 199.35234 -62.7408 
L 197.672741 -62.7408 
L 195.993143 -62.7408 
L 194.313544 -62.7408 
L 192.633945 -62.7408 
L 190.954347 -62.7408 
L 189.274748 -62.7408 
L 187.595149 -62.7408 
L 185.915551 -62.7408 
L 184.235952 -62.7408 
L 182.556353 -62.7408 
L 180.876755 -62.7408 
L 179.197156 -62.7408 
L 177.517557 -62.7408 
L 175.837959 -62.7408 
L 174.15836 -62.7408 
L 172.478761 -62.7408 
L 170.799163 -62.7408 
L 169.119564 -62.7408 
L 167.439965 -62.7408 
L 165.760367 -62.7408 
L 164.080768 -62.7408 
L 162.401169 -62.7408 
L 160.721571 -62.7408 
L 159.041972 -62.7408 
L 157.362373 -62.7408 
L 155.682775 -62.7408 
L 154.003176 -62.7408 
L 152.323577 -62.7408 
L 150.643979 -62.7408 
L 148.96438 -62.7408 
L 147.284781 -62.7408 
L 145.605183 -62.7408 
L 143.925584 -62.7408 
L 142.245985 -62.7408 
L 140.566387 -62.7408 
L 138.886788 -62.7408 
L 137.207189 -62.7408 
L 135.527591 -62.7408 
L 133.847992 -62.7408 
L 132.168393 -62.7408 
L 130.488795 -62.7408 
L 128.809196 -62.7408 
L 127.129597 -62.7408 
L 125.449999 -62.7408 
L 123.7704 -62.7408 
L 122.090801 -62.7408 
L 120.411203 -62.7408 
L 118.731604 -62.7408 
L 117.052005 -62.7408 
L 115.372407 -62.7408 
L 113.692808 -62.7408 
L 112.013209 -62.7408 
L 110.333611 -62.7408 
L 108.654012 -62.7408 
L 106.974413 -62.7408 
L 105.294815 -62.7408 
L 103.615216 -62.7408 
L 101.935617 -62.7408 
L 100.256019 -62.7408 
L 98.57642 -62.7408 
L 96.896821 -62.7408 
L 95.217223 -62.7408 
L 93.537624 -62.7408 
L 91.858025 -62.7408 
L 90.178427 -62.7408 
L 88.498828 -62.7408 
z
" style="stroke: #1f77b4; stroke-opacity: 0.1"/>
    </defs>
    <g clip-path="url(#p17e56a67d5)">
     <use xlink:href="#m837034e580" x="0" y="418.6368" style="fill: #1f77b4; fill-opacity: 0.1; stroke: #1f77b4; stroke-opacity: 0.1"/>
    </g>
   </g>
   <g id="line2d_17">
    <path d="M 88.498828 63.576 
L 90.178427 81.49752 
L 91.858025 87.507051 
L 93.537624 91.264827 
L 95.217223 93.995206 
L 96.896821 96.125085 
L 98.57642 97.873787 
L 100.256019 99.352356 
L 101.935617 100.630682 
L 105.294815 102.762975 
L 108.654012 104.479157 
L 112.013209 105.935483 
L 115.372407 107.191416 
L 120.411203 108.782479 
L 125.449999 110.142691 
L 132.168393 111.670654 
L 138.886788 112.967939 
L 147.284781 114.354553 
L 155.682775 115.541675 
L 165.760367 116.781045 
L 175.837959 117.854658 
L 190.954347 119.245538 
L 209.429932 120.665378 
L 226.225918 121.780538 
L 249.7403 123.112694 
L 286.69147 124.830536 
L 325.322239 126.296668 
L 338.759029 126.74126 
L 372.351002 127.762046 
L 410.981771 128.790544 
L 432.816554 129.313847 
L 468.088126 130.088238 
L 531.912875 131.320054 
L 548.708862 131.599889 
L 590.698828 132.290088 
L 590.698828 132.290088 
" clip-path="url(#p17e56a67d5)" style="fill: none; stroke: #1f77b4; stroke-width: 1.5; stroke-linecap: square"/>
   </g>
   <g id="patch_3">
    <path d="M 88.498828 370.512 
L 88.498828 48.96 
" style="fill: none; stroke: #9fb3c8; stroke-width: 0.8; stroke-linejoin: miter; stroke-linecap: square"/>
   </g>
   <g id="patch_4">
    <path d="M 88.498828 370.512 
L 590.698828 370.512 
" style="fill: none; stroke: #9fb3c8; stroke-width: 0.8; stroke-linejoin: miter; stroke-linecap: square"/>
   </g>
   <g id="text_14">
    <!-- Measured record count and uint64 storage footprint across 300 canonical 10B partitions -->
    <g style="fill: #52616b" transform="translate(140.695313 36.96) scale(0.09 -0.09)">
     <defs>
      <path id="DejaVuSans-75" d="M 544 1381 
L 544 3500 
L 1119 3500 
L 1119 1403 
Q 1119 906 1312 657 
Q 1506 409 1894 409 
Q 2359 409 2629 706 
Q 2900 1003 2900 1516 
L 2900 3500 
L 3475 3500 
L 3475 0 
L 2900 0 
L 2900 538 
Q 2691 219 2414 64 
Q 2138 -91 1772 -91 
Q 1169 -91 856 284 
Q 544 659 544 1381 
z
M 1991 3584 
L 1991 3584 
z
" transform="scale(0.015625)"/>
      <path id="DejaVuSans-36" d="M 2113 2584 
Q 1688 2584 1439 2293 
Q 1191 2003 1191 1497 
Q 1191 994 1439 701 
Q 1688 409 2113 409 
Q 2538 409 2786 701 
Q 3034 994 3034 1497 
Q 3034 2003 2786 2293 
Q 2538 2584 2113 2584 
z
M 3366 4563 
L 3366 3988 
Q 3128 4100 2886 4159 
Q 2644 4219 2406 4219 
Q 1781 4219 1451 3797 
Q 1122 3375 1075 2522 
Q 1259 2794 1537 2939 
Q 1816 3084 2150 3084 
Q 2853 3084 3261 2657 
Q 3669 2231 3669 1497 
Q 3669 778 3244 343 
Q 2819 -91 2113 -91 
Q 1303 -91 875 529 
Q 447 1150 447 2328 
Q 447 3434 972 4092 
Q 1497 4750 2381 4750 
Q 2619 4750 2861 4703 
Q 3103 4656 3366 4563 
z
" transform="scale(0.015625)"/>
      <path id="DejaVuSans-67" d="M 2906 1791 
Q 2906 2416 2648 2759 
Q 2391 3103 1925 3103 
Q 1463 3103 1205 2759 
Q 947 2416 947 1791 
Q 947 1169 1205 825 
Q 1463 481 1925 481 
Q 2391 481 2648 825 
Q 2906 1169 2906 1791 
z
M 3481 434 
Q 3481 -459 3084 -895 
Q 2688 -1331 1869 -1331 
Q 1566 -1331 1297 -1286 
Q 1028 -1241 775 -1147 
L 775 -588 
Q 1028 -725 1275 -790 
Q 1522 -856 1778 -856 
Q 2344 -856 2625 -561 
Q 2906 -266 2906 331 
L 2906 616 
Q 2728 306 2450 153 
Q 2172 0 1784 0 
Q 1141 0 747 490 
Q 353 981 353 1791 
Q 353 2603 747 3093 
Q 1141 3584 1784 3584 
Q 2172 3584 2450 3431 
Q 2728 3278 2906 2969 
L 2906 3500 
L 3481 3500 
L 3481 434 
z
" transform="scale(0.015625)"/>
      <path id="DejaVuSans-66" d="M 2375 4863 
L 2375 4384 
L 1825 4384 
Q 1516 4384 1395 4259 
Q 1275 4134 1275 3809 
L 1275 3500 
L 2222 3500 
L 2222 3053 
L 1275 3053 
L 1275 0 
L 697 0 
L 697 3053 
L 147 3053 
L 147 3500 
L 697 3500 
L 697 3744 
Q 697 4328 969 4595 
Q 1241 4863 1831 4863 
L 2375 4863 
z
" transform="scale(0.015625)"/>
      <path id="DejaVuSans-42" d="M 1259 2228 
L 1259 519 
L 2272 519 
Q 2781 519 3026 730 
Q 3272 941 3272 1375 
Q 3272 1813 3026 2020 
Q 2781 2228 2272 2228 
L 1259 2228 
z
M 1259 4147 
L 1259 2741 
L 2194 2741 
Q 2656 2741 2882 2914 
Q 3109 3088 3109 3444 
Q 3109 3797 2882 3972 
Q 2656 4147 2194 4147 
L 1259 4147 
z
M 628 4666 
L 2241 4666 
Q 2963 4666 3353 4366 
Q 3744 4066 3744 3513 
Q 3744 3084 3544 2831 
Q 3344 2578 2956 2516 
Q 3422 2416 3680 2098 
Q 3938 1781 3938 1306 
Q 3938 681 3513 340 
Q 3088 0 2303 0 
L 628 0 
L 628 4666 
z
" transform="scale(0.015625)"/>
     </defs>
     <use xlink:href="#DejaVuSans-4d"/>
     <use xlink:href="#DejaVuSans-65" transform="translate(86.279297 0)"/>
     <use xlink:href="#DejaVuSans-61" transform="translate(147.802734 0)"/>
     <use xlink:href="#DejaVuSans-73" transform="translate(209.082031 0)"/>
     <use xlink:href="#DejaVuSans-75" transform="translate(261.181641 0)"/>
     <use xlink:href="#DejaVuSans-72" transform="translate(324.560547 0)"/>
     <use xlink:href="#DejaVuSans-65" transform="translate(363.423828 0)"/>
     <use xlink:href="#DejaVuSans-64" transform="translate(424.947266 0)"/>
     <use xlink:href="#DejaVuSans-20" transform="translate(488.423828 0)"/>
     <use xlink:href="#DejaVuSans-72" transform="translate(520.210938 0)"/>
     <use xlink:href="#DejaVuSans-65" transform="translate(559.074219 0)"/>
     <use xlink:href="#DejaVuSans-63" transform="translate(620.597656 0)"/>
     <use xlink:href="#DejaVuSans-6f" transform="translate(675.578125 0)"/>
     <use xlink:href="#DejaVuSans-72" transform="translate(736.759766 0)"/>
     <use xlink:href="#DejaVuSans-64" transform="translate(776.123047 0)"/>
     <use xlink:href="#DejaVuSans-20" transform="translate(839.599609 0)"/>
     <use xlink:href="#DejaVuSans-63" transform="translate(871.386719 0)"/>
     <use xlink:href="#DejaVuSans-6f" transform="translate(926.367188 0)"/>
     <use xlink:href="#DejaVuSans-75" transform="translate(987.548828 0)"/>
     <use xlink:href="#DejaVuSans-6e" transform="translate(1050.927734 0)"/>
     <use xlink:href="#DejaVuSans-74" transform="translate(1114.306641 0)"/>
     <use xlink:href="#DejaVuSans-20" transform="translate(1153.515625 0)"/>
     <use xlink:href="#DejaVuSans-61" transform="translate(1185.302734 0)"/>
     <use xlink:href="#DejaVuSans-6e" transform="translate(1246.582031 0)"/>
     <use xlink:href="#DejaVuSans-64" transform="translate(1309.960938 0)"/>
     <use xlink:href="#DejaVuSans-20" transform="translate(1373.4375 0)"/>
     <use xlink:href="#DejaVuSans-75" transform="translate(1405.224609 0)"/>
     <use xlink:href="#DejaVuSans-69" transform="translate(1468.603516 0)"/>
     <use xlink:href="#DejaVuSans-6e" transform="translate(1496.386719 0)"/>
     <use xlink:href="#DejaVuSans-74" transform="translate(1559.765625 0)"/>
     <use xlink:href="#DejaVuSans-36" transform="translate(1598.974609 0)"/>
     <use xlink:href="#DejaVuSans-34" transform="translate(1662.597656 0)"/>
     <use xlink:href="#DejaVuSans-20" transform="translate(1726.220703 0)"/>
     <use xlink:href="#DejaVuSans-73" transform="translate(1758.007812 0)"/>
     <use xlink:href="#DejaVuSans-74" transform="translate(1810.107422 0)"/>
     <use xlink:href="#DejaVuSans-6f" transform="translate(1849.316406 0)"/>
     <use xlink:href="#DejaVuSans-72" transform="translate(1910.498047 0)"/>
     <use xlink:href="#DejaVuSans-61" transform="translate(1951.611328 0)"/>
     <use xlink:href="#DejaVuSans-67" transform="translate(2012.890625 0)"/>
     <use xlink:href="#DejaVuSans-65" transform="translate(2076.367188 0)"/>
     <use xlink:href="#DejaVuSans-20" transform="translate(2137.890625 0)"/>
     <use xlink:href="#DejaVuSans-66" transform="translate(2169.677734 0)"/>
     <use xlink:href="#DejaVuSans-6f" transform="translate(2204.882812 0)"/>
     <use xlink:href="#DejaVuSans-6f" transform="translate(2266.064453 0)"/>
     <use xlink:href="#DejaVuSans-74" transform="translate(2327.246094 0)"/>
     <use xlink:href="#DejaVuSans-70" transform="translate(2366.455078 0)"/>
     <use xlink:href="#DejaVuSans-72" transform="translate(2429.931641 0)"/>
     <use xlink:href="#DejaVuSans-69" transform="translate(2471.044922 0)"/>
     <use xlink:href="#DejaVuSans-6e" transform="translate(2498.828125 0)"/>
     <use xlink:href="#DejaVuSans-74" transform="translate(2562.207031 0)"/>
     <use xlink:href="#DejaVuSans-20" transform="translate(2601.416016 0)"/>
     <use xlink:href="#DejaVuSans-61" transform="translate(2633.203125 0)"/>
     <use xlink:href="#DejaVuSans-63" transform="translate(2694.482422 0)"/>
     <use xlink:href="#DejaVuSans-72" transform="translate(2749.462891 0)"/>
     <use xlink:href="#DejaVuSans-6f" transform="translate(2788.326172 0)"/>
     <use xlink:href="#DejaVuSans-73" transform="translate(2849.507812 0)"/>
     <use xlink:href="#DejaVuSans-73" transform="translate(2901.607422 0)"/>
     <use xlink:href="#DejaVuSans-20" transform="translate(2953.707031 0)"/>
     <use xlink:href="#DejaVuSans-33" transform="translate(2985.494141 0)"/>
     <use xlink:href="#DejaVuSans-30" transform="translate(3049.117188 0)"/>
     <use xlink:href="#DejaVuSans-30" transform="translate(3112.740234 0)"/>
     <use xlink:href="#DejaVuSans-20" transform="translate(3176.363281 0)"/>
     <use xlink:href="#DejaVuSans-63" transform="translate(3208.150391 0)"/>
     <use xlink:href="#DejaVuSans-61" transform="translate(3263.130859 0)"/>
     <use xlink:href="#DejaVuSans-6e" transform="translate(3324.410156 0)"/>
     <use xlink:href="#DejaVuSans-6f" transform="translate(3387.789062 0)"/>
     <use xlink:href="#DejaVuSans-6e" transform="translate(3448.970703 0)"/>
     <use xlink:href="#DejaVuSans-69" transform="translate(3512.349609 0)"/>
     <use xlink:href="#DejaVuSans-63" transform="translate(3540.132812 0)"/>
     <use xlink:href="#DejaVuSans-61" transform="translate(3595.113281 0)"/>
     <use xlink:href="#DejaVuSans-6c" transform="translate(3656.392578 0)"/>
     <use xlink:href="#DejaVuSans-20" transform="translate(3684.175781 0)"/>
     <use xlink:href="#DejaVuSans-31" transform="translate(3715.962891 0)"/>
     <use xlink:href="#DejaVuSans-30" transform="translate(3779.585938 0)"/>
     <use xlink:href="#DejaVuSans-42" transform="translate(3843.208984 0)"/>
     <use xlink:href="#DejaVuSans-20" transform="translate(3911.8125 0)"/>
     <use xlink:href="#DejaVuSans-70" transform="translate(3943.599609 0)"/>
     <use xlink:href="#DejaVuSans-61" transform="translate(4007.076172 0)"/>
     <use xlink:href="#DejaVuSans-72" transform="translate(4068.355469 0)"/>
     <use xlink:href="#DejaVuSans-74" transform="translate(4109.46875 0)"/>
     <use xlink:href="#DejaVuSans-69" transform="translate(4148.677734 0)"/>
     <use xlink:href="#DejaVuSans-74" transform="translate(4176.460938 0)"/>
     <use xlink:href="#DejaVuSans-69" transform="translate(4215.669922 0)"/>
     <use xlink:href="#DejaVuSans-6f" transform="translate(4243.453125 0)"/>
     <use xlink:href="#DejaVuSans-6e" transform="translate(4304.634766 0)"/>
     <use xlink:href="#DejaVuSans-73" transform="translate(4368.013672 0)"/>
    </g>
   </g>
   <g id="legend_1">
    <g id="line2d_18">
     <path d="M 483.493828 59.43875 
L 491.493828 59.43875 
L 499.493828 59.43875 
" style="fill: none; stroke: #1f77b4; stroke-width: 1.5; stroke-linecap: square"/>
    </g>
    <g id="text_15">
     <!-- Prime records -->
     <g transform="translate(505.893828 62.23875) scale(0.08 -0.08)">
      <use xlink:href="#DejaVuSans-50"/>
      <use xlink:href="#DejaVuSans-72" transform="translate(58.552734 0)"/>
      <use xlink:href="#DejaVuSans-69" transform="translate(99.666016 0)"/>
      <use xlink:href="#DejaVuSans-6d" transform="translate(127.449219 0)"/>
      <use xlink:href="#DejaVuSans-65" transform="translate(224.861328 0)"/>
      <use xlink:href="#DejaVuSans-20" transform="translate(286.384766 0)"/>
      <use xlink:href="#DejaVuSans-72" transform="translate(318.171875 0)"/>
      <use xlink:href="#DejaVuSans-65" transform="translate(357.035156 0)"/>
      <use xlink:href="#DejaVuSans-63" transform="translate(418.558594 0)"/>
      <use xlink:href="#DejaVuSans-6f" transform="translate(473.539062 0)"/>
      <use xlink:href="#DejaVuSans-72" transform="translate(534.720703 0)"/>
      <use xlink:href="#DejaVuSans-64" transform="translate(574.083984 0)"/>
      <use xlink:href="#DejaVuSans-73" transform="translate(637.560547 0)"/>
     </g>
    </g>
    <g id="line2d_19">
     <path d="M 483.493828 71.18125 
L 491.493828 71.18125 
L 499.493828 71.18125 
" style="fill: none; stroke-dasharray: 4.44,1.92; stroke-dashoffset: 0; stroke: #f0b429; stroke-width: 1.2"/>
    </g>
    <g id="text_16">
     <!-- Derived uint64 size -->
     <g transform="translate(505.893828 73.98125) scale(0.08 -0.08)">
      <defs>
       <path id="DejaVuSans-44" d="M 1259 4147 
L 1259 519 
L 2022 519 
Q 2988 519 3436 956 
Q 3884 1394 3884 2338 
Q 3884 3275 3436 3711 
Q 2988 4147 2022 4147 
L 1259 4147 
z
M 628 4666 
L 1925 4666 
Q 3281 4666 3915 4102 
Q 4550 3538 4550 2338 
Q 4550 1131 3912 565 
Q 3275 0 1925 0 
L 628 0 
L 628 4666 
z
" transform="scale(0.015625)"/>
       <path id="DejaVuSans-76" d="M 191 3500 
L 800 3500 
L 1894 563 
L 2988 3500 
L 3597 3500 
L 2284 0 
L 1503 0 
L 191 3500 
z
" transform="scale(0.015625)"/>
       <path id="DejaVuSans-7a" d="M 353 3500 
L 3084 3500 
L 3084 2975 
L 922 459 
L 3084 459 
L 3084 0 
L 275 0 
L 275 525 
L 2438 3041 
L 353 3041 
L 353 3500 
z
" transform="scale(0.015625)"/>
      </defs>
      <use xlink:href="#DejaVuSans-44"/>
      <use xlink:href="#DejaVuSans-65" transform="translate(77.001953 0)"/>
      <use xlink:href="#DejaVuSans-72" transform="translate(138.525391 0)"/>
      <use xlink:href="#DejaVuSans-69" transform="translate(179.638672 0)"/>
      <use xlink:href="#DejaVuSans-76" transform="translate(207.421875 0)"/>
      <use xlink:href="#DejaVuSans-65" transform="translate(266.601562 0)"/>
      <use xlink:href="#DejaVuSans-64" transform="translate(328.125 0)"/>
      <use xlink:href="#DejaVuSans-20" transform="translate(391.601562 0)"/>
      <use xlink:href="#DejaVuSans-75" transform="translate(423.388672 0)"/>
      <use xlink:href="#DejaVuSans-69" transform="translate(486.767578 0)"/>
      <use xlink:href="#DejaVuSans-6e" transform="translate(514.550781 0)"/>
      <use xlink:href="#DejaVuSans-74" transform="translate(577.929688 0)"/>
      <use xlink:href="#DejaVuSans-36" transform="translate(617.138672 0)"/>
      <use xlink:href="#DejaVuSans-34" transform="translate(680.761719 0)"/>
      <use xlink:href="#DejaVuSans-20" transform="translate(744.384766 0)"/>
      <use xlink:href="#DejaVuSans-73" transform="translate(776.171875 0)"/>
      <use xlink:href="#DejaVuSans-69" transform="translate(828.271484 0)"/>
      <use xlink:href="#DejaVuSans-7a" transform="translate(856.054688 0)"/>
      <use xlink:href="#DejaVuSans-65" transform="translate(908.544922 0)"/>
     </g>
    </g>
   </g>
  </g>
  <g id="axes_2">
   <g id="matplotlib.axis_3">
    <g id="ytick_6">
     <g id="line2d_20">
      <defs>
       <path id="m46b8745094" d="M 0 0 
L 3.5 0 
" style="stroke: #52616b; stroke-width: 0.8"/>
      </defs>
      <g>
       <use xlink:href="#m46b8745094" x="590.698828" y="353.490238" style="fill: #52616b; stroke: #52616b; stroke-width: 0.8"/>
      </g>
     </g>
     <g id="text_17">
      <!-- 2.6 -->
      <g style="fill: #52616b" transform="translate(597.698828 356.529613) scale(0.08 -0.08)">
       <use xlink:href="#DejaVuSans-32"/>
       <use xlink:href="#DejaVuSans-2e" transform="translate(63.623047 0)"/>
       <use xlink:href="#DejaVuSans-36" transform="translate(95.410156 0)"/>
      </g>
     </g>
    </g>
    <g id="ytick_7">
     <g id="line2d_21">
      <g>
       <use xlink:href="#m46b8745094" x="590.698828" y="316.811056" style="fill: #52616b; stroke: #52616b; stroke-width: 0.8"/>
      </g>
     </g>
     <g id="text_18">
      <!-- 2.7 -->
      <g style="fill: #52616b" transform="translate(597.698828 319.850431) scale(0.08 -0.08)">
       <defs>
        <path id="DejaVuSans-37" d="M 525 4666 
L 3525 4666 
L 3525 4397 
L 1831 0 
L 1172 0 
L 2766 4134 
L 525 4134 
L 525 4666 
z
" transform="scale(0.015625)"/>
       </defs>
       <use xlink:href="#DejaVuSans-32"/>
       <use xlink:href="#DejaVuSans-2e" transform="translate(63.623047 0)"/>
       <use xlink:href="#DejaVuSans-37" transform="translate(95.410156 0)"/>
      </g>
     </g>
    </g>
    <g id="ytick_8">
     <g id="line2d_22">
      <g>
       <use xlink:href="#m46b8745094" x="590.698828" y="280.131874" style="fill: #52616b; stroke: #52616b; stroke-width: 0.8"/>
      </g>
     </g>
     <g id="text_19">
      <!-- 2.8 -->
      <g style="fill: #52616b" transform="translate(597.698828 283.171249) scale(0.08 -0.08)">
       <defs>
        <path id="DejaVuSans-38" d="M 2034 2216 
Q 1584 2216 1326 1975 
Q 1069 1734 1069 1313 
Q 1069 891 1326 650 
Q 1584 409 2034 409 
Q 2484 409 2743 651 
Q 3003 894 3003 1313 
Q 3003 1734 2745 1975 
Q 2488 2216 2034 2216 
z
M 1403 2484 
Q 997 2584 770 2862 
Q 544 3141 544 3541 
Q 544 4100 942 4425 
Q 1341 4750 2034 4750 
Q 2731 4750 3128 4425 
Q 3525 4100 3525 3541 
Q 3525 3141 3298 2862 
Q 3072 2584 2669 2484 
Q 3125 2378 3379 2068 
Q 3634 1759 3634 1313 
Q 3634 634 3220 271 
Q 2806 -91 2034 -91 
Q 1263 -91 848 271 
Q 434 634 434 1313 
Q 434 1759 690 2068 
Q 947 2378 1403 2484 
z
M 1172 3481 
Q 1172 3119 1398 2916 
Q 1625 2713 2034 2713 
Q 2441 2713 2670 2916 
Q 2900 3119 2900 3481 
Q 2900 3844 2670 4047 
Q 2441 4250 2034 4250 
Q 1625 4250 1398 4047 
Q 1172 3844 1172 3481 
z
" transform="scale(0.015625)"/>
       </defs>
       <use xlink:href="#DejaVuSans-32"/>
       <use xlink:href="#DejaVuSans-2e" transform="translate(63.623047 0)"/>
       <use xlink:href="#DejaVuSans-38" transform="translate(95.410156 0)"/>
      </g>
     </g>
    </g>
    <g id="ytick_9">
     <g id="line2d_23">
      <g>
       <use xlink:href="#m46b8745094" x="590.698828" y="243.452692" style="fill: #52616b; stroke: #52616b; stroke-width: 0.8"/>
      </g>
     </g>
     <g id="text_20">
      <!-- 2.9 -->
      <g style="fill: #52616b" transform="translate(597.698828 246.492067) scale(0.08 -0.08)">
       <defs>
        <path id="DejaVuSans-39" d="M 703 97 
L 703 672 
Q 941 559 1184 500 
Q 1428 441 1663 441 
Q 2288 441 2617 861 
Q 2947 1281 2994 2138 
Q 2813 1869 2534 1725 
Q 2256 1581 1919 1581 
Q 1219 1581 811 2004 
Q 403 2428 403 3163 
Q 403 3881 828 4315 
Q 1253 4750 1959 4750 
Q 2769 4750 3195 4129 
Q 3622 3509 3622 2328 
Q 3622 1225 3098 567 
Q 2575 -91 1691 -91 
Q 1453 -91 1209 -44 
Q 966 3 703 97 
z
M 1959 2075 
Q 2384 2075 2632 2365 
Q 2881 2656 2881 3163 
Q 2881 3666 2632 3958 
Q 2384 4250 1959 4250 
Q 1534 4250 1286 3958 
Q 1038 3666 1038 3163 
Q 1038 2656 1286 2365 
Q 1534 2075 1959 2075 
z
" transform="scale(0.015625)"/>
       </defs>
       <use xlink:href="#DejaVuSans-32"/>
       <use xlink:href="#DejaVuSans-2e" transform="translate(63.623047 0)"/>
       <use xlink:href="#DejaVuSans-39" transform="translate(95.410156 0)"/>
      </g>
     </g>
    </g>
    <g id="ytick_10">
     <g id="line2d_24">
      <g>
       <use xlink:href="#m46b8745094" x="590.698828" y="206.77351" style="fill: #52616b; stroke: #52616b; stroke-width: 0.8"/>
      </g>
     </g>
     <g id="text_21">
      <!-- 3.0 -->
      <g style="fill: #52616b" transform="translate(597.698828 209.812885) scale(0.08 -0.08)">
       <use xlink:href="#DejaVuSans-33"/>
       <use xlink:href="#DejaVuSans-2e" transform="translate(63.623047 0)"/>
       <use xlink:href="#DejaVuSans-30" transform="translate(95.410156 0)"/>
      </g>
     </g>
    </g>
    <g id="ytick_11">
     <g id="line2d_25">
      <g>
       <use xlink:href="#m46b8745094" x="590.698828" y="170.094328" style="fill: #52616b; stroke: #52616b; stroke-width: 0.8"/>
      </g>
     </g>
     <g id="text_22">
      <!-- 3.1 -->
      <g style="fill: #52616b" transform="translate(597.698828 173.133703) scale(0.08 -0.08)">
       <use xlink:href="#DejaVuSans-33"/>
       <use xlink:href="#DejaVuSans-2e" transform="translate(63.623047 0)"/>
       <use xlink:href="#DejaVuSans-31" transform="translate(95.410156 0)"/>
      </g>
     </g>
    </g>
    <g id="ytick_12">
     <g id="line2d_26">
      <g>
       <use xlink:href="#m46b8745094" x="590.698828" y="133.415146" style="fill: #52616b; stroke: #52616b; stroke-width: 0.8"/>
      </g>
     </g>
     <g id="text_23">
      <!-- 3.2 -->
      <g style="fill: #52616b" transform="translate(597.698828 136.454521) scale(0.08 -0.08)">
       <use xlink:href="#DejaVuSans-33"/>
       <use xlink:href="#DejaVuSans-2e" transform="translate(63.623047 0)"/>
       <use xlink:href="#DejaVuSans-32" transform="translate(95.410156 0)"/>
      </g>
     </g>
    </g>
    <g id="ytick_13">
     <g id="line2d_27">
      <g>
       <use xlink:href="#m46b8745094" x="590.698828" y="96.735964" style="fill: #52616b; stroke: #52616b; stroke-width: 0.8"/>
      </g>
     </g>
     <g id="text_24">
      <!-- 3.3 -->
      <g style="fill: #52616b" transform="translate(597.698828 99.775339) scale(0.08 -0.08)">
       <use xlink:href="#DejaVuSans-33"/>
       <use xlink:href="#DejaVuSans-2e" transform="translate(63.623047 0)"/>
       <use xlink:href="#DejaVuSans-33" transform="translate(95.410156 0)"/>
      </g>
     </g>
    </g>
    <g id="ytick_14">
     <g id="line2d_28">
      <g>
       <use xlink:href="#m46b8745094" x="590.698828" y="60.056783" style="fill: #52616b; stroke: #52616b; stroke-width: 0.8"/>
      </g>
     </g>
     <g id="text_25">
      <!-- 3.4 -->
      <g style="fill: #52616b" transform="translate(597.698828 63.096158) scale(0.08 -0.08)">
       <use xlink:href="#DejaVuSans-33"/>
       <use xlink:href="#DejaVuSans-2e" transform="translate(63.623047 0)"/>
       <use xlink:href="#DejaVuSans-34" transform="translate(95.410156 0)"/>
      </g>
     </g>
    </g>
    <g id="text_26">
     <!-- Partition payload (GiB) -->
     <g style="fill: #1f2933" transform="translate(621.259922 260.580375) rotate(-90) scale(0.09 -0.09)">
      <defs>
       <path id="DejaVuSans-79" d="M 2059 -325 
Q 1816 -950 1584 -1140 
Q 1353 -1331 966 -1331 
L 506 -1331 
L 506 -850 
L 844 -850 
Q 1081 -850 1212 -737 
Q 1344 -625 1503 -206 
L 1606 56 
L 191 3500 
L 800 3500 
L 1894 763 
L 2988 3500 
L 3597 3500 
L 2059 -325 
z
" transform="scale(0.015625)"/>
       <path id="DejaVuSans-28" d="M 1984 4856 
Q 1566 4138 1362 3434 
Q 1159 2731 1159 2009 
Q 1159 1288 1364 580 
Q 1569 -128 1984 -844 
L 1484 -844 
Q 1016 -109 783 600 
Q 550 1309 550 2009 
Q 550 2706 781 3412 
Q 1013 4119 1484 4856 
L 1984 4856 
z
" transform="scale(0.015625)"/>
       <path id="DejaVuSans-47" d="M 3809 666 
L 3809 1919 
L 2778 1919 
L 2778 2438 
L 4434 2438 
L 4434 434 
Q 4069 175 3628 42 
Q 3188 -91 2688 -91 
Q 1594 -91 976 548 
Q 359 1188 359 2328 
Q 359 3472 976 4111 
Q 1594 4750 2688 4750 
Q 3144 4750 3555 4637 
Q 3966 4525 4313 4306 
L 4313 3634 
Q 3963 3931 3569 4081 
Q 3175 4231 2741 4231 
Q 1884 4231 1454 3753 
Q 1025 3275 1025 2328 
Q 1025 1384 1454 906 
Q 1884 428 2741 428 
Q 3075 428 3337 486 
Q 3600 544 3809 666 
z
" transform="scale(0.015625)"/>
       <path id="DejaVuSans-29" d="M 513 4856 
L 1013 4856 
Q 1481 4119 1714 3412 
Q 1947 2706 1947 2009 
Q 1947 1309 1714 600 
Q 1481 -109 1013 -844 
L 513 -844 
Q 928 -128 1133 580 
Q 1338 1288 1338 2009 
Q 1338 2731 1133 3434 
Q 928 4138 513 4856 
z
" transform="scale(0.015625)"/>
      </defs>
      <use xlink:href="#DejaVuSans-50"/>
      <use xlink:href="#DejaVuSans-61" transform="translate(55.802734 0)"/>
      <use xlink:href="#DejaVuSans-72" transform="translate(117.082031 0)"/>
      <use xlink:href="#DejaVuSans-74" transform="translate(158.195312 0)"/>
      <use xlink:href="#DejaVuSans-69" transform="translate(197.404297 0)"/>
      <use xlink:href="#DejaVuSans-74" transform="translate(225.1875 0)"/>
      <use xlink:href="#DejaVuSans-69" transform="translate(264.396484 0)"/>
      <use xlink:href="#DejaVuSans-6f" transform="translate(292.179688 0)"/>
      <use xlink:href="#DejaVuSans-6e" transform="translate(353.361328 0)"/>
      <use xlink:href="#DejaVuSans-20" transform="translate(416.740234 0)"/>
      <use xlink:href="#DejaVuSans-70" transform="translate(448.527344 0)"/>
      <use xlink:href="#DejaVuSans-61" transform="translate(512.003906 0)"/>
      <use xlink:href="#DejaVuSans-79" transform="translate(573.283203 0)"/>
      <use xlink:href="#DejaVuSans-6c" transform="translate(632.462891 0)"/>
      <use xlink:href="#DejaVuSans-6f" transform="translate(660.246094 0)"/>
      <use xlink:href="#DejaVuSans-61" transform="translate(721.427734 0)"/>
      <use xlink:href="#DejaVuSans-64" transform="translate(782.707031 0)"/>
      <use xlink:href="#DejaVuSans-20" transform="translate(846.183594 0)"/>
      <use xlink:href="#DejaVuSans-28" transform="translate(877.970703 0)"/>
      <use xlink:href="#DejaVuSans-47" transform="translate(916.984375 0)"/>
      <use xlink:href="#DejaVuSans-69" transform="translate(994.474609 0)"/>
      <use xlink:href="#DejaVuSans-42" transform="translate(1022.257812 0)"/>
      <use xlink:href="#DejaVuSans-29" transform="translate(1090.861328 0)"/>
     </g>
    </g>
   </g>
   <g id="line2d_29">
    <path d="M 88.498828 63.576 
L 90.178427 139.816826 
L 91.858025 165.382268 
L 93.537624 181.368407 
L 95.217223 192.983847 
L 96.896821 202.044671 
L 98.57642 209.483913 
L 100.256019 215.773964 
L 101.935617 221.212156 
L 103.615216 225.977969 
L 105.294815 230.28325 
L 106.974413 234.098944 
L 110.333611 240.838766 
L 113.692808 246.555609 
L 117.052005 251.497774 
L 118.731604 253.794779 
L 122.090801 257.941731 
L 125.449999 261.677663 
L 130.488795 266.645418 
L 133.847992 269.635245 
L 137.207189 272.385575 
L 140.566387 274.952693 
L 147.284781 279.595555 
L 152.323577 282.738467 
L 157.362373 285.601259 
L 164.080768 289.100357 
L 170.799163 292.291353 
L 180.876755 296.566137 
L 185.915551 298.553979 
L 197.672741 302.739032 
L 211.10953 306.962629 
L 231.264714 312.468228 
L 237.983109 314.147279 
L 246.381102 316.0579 
L 253.099497 317.561772 
L 261.49749 319.346561 
L 290.050668 324.725369 
L 303.487457 327.018824 
L 316.924246 329.095269 
L 345.477423 333.229754 
L 382.428594 337.822485 
L 390.826587 338.805887 
L 436.175751 343.572305 
L 476.486119 347.300131 
L 489.922908 348.386727 
L 493.282106 348.682912 
L 531.912875 351.769331 
L 535.272072 351.99669 
L 547.029263 352.849587 
L 555.427256 353.468908 
L 558.786454 353.678126 
L 567.184447 354.315976 
L 570.543644 354.50965 
L 590.698828 355.896 
L 590.698828 355.896 
" clip-path="url(#p17e56a67d5)" style="fill: none; stroke-dasharray: 4.44,1.92; stroke-dashoffset: 0; stroke: #f0b429; stroke-width: 1.2"/>
   </g>
   <g id="patch_5">
    <path d="M 88.498828 370.512 
L 88.498828 48.96 
" style="fill: none; stroke: #000000; stroke-width: 0.8; stroke-linejoin: miter; stroke-linecap: square"/>
   </g>
   <g id="patch_6">
    <path d="M 590.698828 370.512 
L 590.698828 48.96 
" style="fill: none; stroke: #9fb3c8; stroke-width: 0.8; stroke-linejoin: miter; stroke-linecap: square"/>
   </g>
   <g id="patch_7">
    <path d="M 88.498828 370.512 
L 590.698828 370.512 
" style="fill: none; stroke: #000000; stroke-width: 0.8; stroke-linejoin: miter; stroke-linecap: square"/>
   </g>
  </g>
  <g id="text_27">
   <!-- Canonical Repository Scale by Partition -->
   <g style="fill: #1f2933" transform="translate(153.450078 19.3575) scale(0.16 -0.16)">
    <defs>
     <path id="DejaVuSans-Bold-43" d="M 4288 256 
Q 3956 84 3597 -3 
Q 3238 -91 2847 -91 
Q 1681 -91 1000 561 
Q 319 1213 319 2328 
Q 319 3447 1000 4098 
Q 1681 4750 2847 4750 
Q 3238 4750 3597 4662 
Q 3956 4575 4288 4403 
L 4288 3438 
Q 3953 3666 3628 3772 
Q 3303 3878 2944 3878 
Q 2300 3878 1931 3465 
Q 1563 3053 1563 2328 
Q 1563 1606 1931 1193 
Q 2300 781 2944 781 
Q 3303 781 3628 887 
Q 3953 994 4288 1222 
L 4288 256 
z
" transform="scale(0.015625)"/>
     <path id="DejaVuSans-Bold-61" d="M 2106 1575 
Q 1756 1575 1579 1456 
Q 1403 1338 1403 1106 
Q 1403 894 1545 773 
Q 1688 653 1941 653 
Q 2256 653 2472 879 
Q 2688 1106 2688 1447 
L 2688 1575 
L 2106 1575 
z
M 3816 1997 
L 3816 0 
L 2688 0 
L 2688 519 
Q 2463 200 2181 54 
Q 1900 -91 1497 -91 
Q 953 -91 614 226 
Q 275 544 275 1050 
Q 275 1666 698 1953 
Q 1122 2241 2028 2241 
L 2688 2241 
L 2688 2328 
Q 2688 2594 2478 2717 
Q 2269 2841 1825 2841 
Q 1466 2841 1156 2769 
Q 847 2697 581 2553 
L 581 3406 
Q 941 3494 1303 3539 
Q 1666 3584 2028 3584 
Q 2975 3584 3395 3211 
Q 3816 2838 3816 1997 
z
" transform="scale(0.015625)"/>
     <path id="DejaVuSans-Bold-6e" d="M 4056 2131 
L 4056 0 
L 2931 0 
L 2931 347 
L 2931 1631 
Q 2931 2084 2911 2256 
Q 2891 2428 2841 2509 
Q 2775 2619 2662 2680 
Q 2550 2741 2406 2741 
Q 2056 2741 1856 2470 
Q 1656 2200 1656 1722 
L 1656 0 
L 538 0 
L 538 3500 
L 1656 3500 
L 1656 2988 
Q 1909 3294 2193 3439 
Q 2478 3584 2822 3584 
Q 3428 3584 3742 3212 
Q 4056 2841 4056 2131 
z
" transform="scale(0.015625)"/>
     <path id="DejaVuSans-Bold-6f" d="M 2203 2784 
Q 1831 2784 1636 2517 
Q 1441 2250 1441 1747 
Q 1441 1244 1636 976 
Q 1831 709 2203 709 
Q 2569 709 2762 976 
Q 2956 1244 2956 1747 
Q 2956 2250 2762 2517 
Q 2569 2784 2203 2784 
z
M 2203 3584 
Q 3106 3584 3614 3096 
Q 4122 2609 4122 1747 
Q 4122 884 3614 396 
Q 3106 -91 2203 -91 
Q 1297 -91 786 396 
Q 275 884 275 1747 
Q 275 2609 786 3096 
Q 1297 3584 2203 3584 
z
" transform="scale(0.015625)"/>
     <path id="DejaVuSans-Bold-69" d="M 538 3500 
L 1656 3500 
L 1656 0 
L 538 0 
L 538 3500 
z
M 538 4863 
L 1656 4863 
L 1656 3950 
L 538 3950 
L 538 4863 
z
" transform="scale(0.015625)"/>
     <path id="DejaVuSans-Bold-63" d="M 3366 3391 
L 3366 2478 
Q 3138 2634 2908 2709 
Q 2678 2784 2431 2784 
Q 1963 2784 1702 2511 
Q 1441 2238 1441 1747 
Q 1441 1256 1702 982 
Q 1963 709 2431 709 
Q 2694 709 2930 787 
Q 3166 866 3366 1019 
L 3366 103 
Q 3103 6 2833 -42 
Q 2563 -91 2291 -91 
Q 1344 -91 809 395 
Q 275 881 275 1747 
Q 275 2613 809 3098 
Q 1344 3584 2291 3584 
Q 2566 3584 2833 3536 
Q 3100 3488 3366 3391 
z
" transform="scale(0.015625)"/>
     <path id="DejaVuSans-Bold-6c" d="M 538 4863 
L 1656 4863 
L 1656 0 
L 538 0 
L 538 4863 
z
" transform="scale(0.015625)"/>
     <path id="DejaVuSans-Bold-20" transform="scale(0.015625)"/>
     <path id="DejaVuSans-Bold-52" d="M 2297 2597 
Q 2675 2597 2839 2737 
Q 3003 2878 3003 3200 
Q 3003 3519 2839 3656 
Q 2675 3794 2297 3794 
L 1791 3794 
L 1791 2597 
L 2297 2597 
z
M 1791 1766 
L 1791 0 
L 588 0 
L 588 4666 
L 2425 4666 
Q 3347 4666 3776 4356 
Q 4206 4047 4206 3378 
Q 4206 2916 3982 2619 
Q 3759 2322 3309 2181 
Q 3556 2125 3751 1926 
Q 3947 1728 4147 1325 
L 4800 0 
L 3519 0 
L 2950 1159 
Q 2778 1509 2601 1637 
Q 2425 1766 2131 1766 
L 1791 1766 
z
" transform="scale(0.015625)"/>
     <path id="DejaVuSans-Bold-65" d="M 4031 1759 
L 4031 1441 
L 1416 1441 
Q 1456 1047 1700 850 
Q 1944 653 2381 653 
Q 2734 653 3104 758 
Q 3475 863 3866 1075 
L 3866 213 
Q 3469 63 3072 -14 
Q 2675 -91 2278 -91 
Q 1328 -91 801 392 
Q 275 875 275 1747 
Q 275 2603 792 3093 
Q 1309 3584 2216 3584 
Q 3041 3584 3536 3087 
Q 4031 2591 4031 1759 
z
M 2881 2131 
Q 2881 2450 2695 2645 
Q 2509 2841 2209 2841 
Q 1884 2841 1681 2658 
Q 1478 2475 1428 2131 
L 2881 2131 
z
" transform="scale(0.015625)"/>
     <path id="DejaVuSans-Bold-70" d="M 1656 506 
L 1656 -1331 
L 538 -1331 
L 538 3500 
L 1656 3500 
L 1656 2988 
Q 1888 3294 2169 3439 
Q 2450 3584 2816 3584 
Q 3463 3584 3878 3070 
Q 4294 2556 4294 1747 
Q 4294 938 3878 423 
Q 3463 -91 2816 -91 
Q 2450 -91 2169 54 
Q 1888 200 1656 506 
z
M 2400 2772 
Q 2041 2772 1848 2508 
Q 1656 2244 1656 1747 
Q 1656 1250 1848 986 
Q 2041 722 2400 722 
Q 2759 722 2948 984 
Q 3138 1247 3138 1747 
Q 3138 2247 2948 2509 
Q 2759 2772 2400 2772 
z
" transform="scale(0.015625)"/>
     <path id="DejaVuSans-Bold-73" d="M 3272 3391 
L 3272 2541 
Q 2913 2691 2578 2766 
Q 2244 2841 1947 2841 
Q 1628 2841 1473 2761 
Q 1319 2681 1319 2516 
Q 1319 2381 1436 2309 
Q 1553 2238 1856 2203 
L 2053 2175 
Q 2913 2066 3209 1816 
Q 3506 1566 3506 1031 
Q 3506 472 3093 190 
Q 2681 -91 1863 -91 
Q 1516 -91 1145 -36 
Q 775 19 384 128 
L 384 978 
Q 719 816 1070 734 
Q 1422 653 1784 653 
Q 2113 653 2278 743 
Q 2444 834 2444 1013 
Q 2444 1163 2330 1236 
Q 2216 1309 1875 1350 
L 1678 1375 
Q 931 1469 631 1722 
Q 331 1975 331 2491 
Q 331 3047 712 3315 
Q 1094 3584 1881 3584 
Q 2191 3584 2531 3537 
Q 2872 3491 3272 3391 
z
" transform="scale(0.015625)"/>
     <path id="DejaVuSans-Bold-74" d="M 1759 4494 
L 1759 3500 
L 2913 3500 
L 2913 2700 
L 1759 2700 
L 1759 1216 
Q 1759 972 1856 886 
Q 1953 800 2241 800 
L 2816 800 
L 2816 0 
L 1856 0 
Q 1194 0 917 276 
Q 641 553 641 1216 
L 641 2700 
L 84 2700 
L 84 3500 
L 641 3500 
L 641 4494 
L 1759 4494 
z
" transform="scale(0.015625)"/>
     <path id="DejaVuSans-Bold-72" d="M 3138 2547 
Q 2991 2616 2845 2648 
Q 2700 2681 2553 2681 
Q 2122 2681 1889 2404 
Q 1656 2128 1656 1613 
L 1656 0 
L 538 0 
L 538 3500 
L 1656 3500 
L 1656 2925 
Q 1872 3269 2151 3426 
Q 2431 3584 2822 3584 
Q 2878 3584 2943 3579 
Q 3009 3575 3134 3559 
L 3138 2547 
z
" transform="scale(0.015625)"/>
     <path id="DejaVuSans-Bold-79" d="M 78 3500 
L 1197 3500 
L 2138 1125 
L 2938 3500 
L 4056 3500 
L 2584 -331 
Q 2363 -916 2067 -1148 
Q 1772 -1381 1288 -1381 
L 641 -1381 
L 641 -647 
L 991 -647 
Q 1275 -647 1404 -556 
Q 1534 -466 1606 -231 
L 1638 -134 
L 78 3500 
z
" transform="scale(0.015625)"/>
     <path id="DejaVuSans-Bold-53" d="M 3834 4519 
L 3834 3531 
Q 3450 3703 3084 3790 
Q 2719 3878 2394 3878 
Q 1963 3878 1756 3759 
Q 1550 3641 1550 3391 
Q 1550 3203 1689 3098 
Q 1828 2994 2194 2919 
L 2706 2816 
Q 3484 2659 3812 2340 
Q 4141 2022 4141 1434 
Q 4141 663 3683 286 
Q 3225 -91 2284 -91 
Q 1841 -91 1394 -6 
Q 947 78 500 244 
L 500 1259 
Q 947 1022 1364 901 
Q 1781 781 2169 781 
Q 2563 781 2772 912 
Q 2981 1044 2981 1288 
Q 2981 1506 2839 1625 
Q 2697 1744 2272 1838 
L 1806 1941 
Q 1106 2091 782 2419 
Q 459 2747 459 3303 
Q 459 4000 909 4375 
Q 1359 4750 2203 4750 
Q 2588 4750 2994 4692 
Q 3400 4634 3834 4519 
z
" transform="scale(0.015625)"/>
     <path id="DejaVuSans-Bold-62" d="M 2400 722 
Q 2759 722 2948 984 
Q 3138 1247 3138 1747 
Q 3138 2247 2948 2509 
Q 2759 2772 2400 2772 
Q 2041 2772 1848 2508 
Q 1656 2244 1656 1747 
Q 1656 1250 1848 986 
Q 2041 722 2400 722 
z
M 1656 2988 
Q 1888 3294 2169 3439 
Q 2450 3584 2816 3584 
Q 3463 3584 3878 3070 
Q 4294 2556 4294 1747 
Q 4294 938 3878 423 
Q 3463 -91 2816 -91 
Q 2450 -91 2169 54 
Q 1888 200 1656 506 
L 1656 0 
L 538 0 
L 538 4863 
L 1656 4863 
L 1656 2988 
z
" transform="scale(0.015625)"/>
     <path id="DejaVuSans-Bold-50" d="M 588 4666 
L 2584 4666 
Q 3475 4666 3951 4270 
Q 4428 3875 4428 3144 
Q 4428 2409 3951 2014 
Q 3475 1619 2584 1619 
L 1791 1619 
L 1791 0 
L 588 0 
L 588 4666 
z
M 1791 3794 
L 1791 2491 
L 2456 2491 
Q 2806 2491 2997 2661 
Q 3188 2831 3188 3144 
Q 3188 3456 2997 3625 
Q 2806 3794 2456 3794 
L 1791 3794 
z
" transform="scale(0.015625)"/>
    </defs>
    <use xlink:href="#DejaVuSans-Bold-43"/>
    <use xlink:href="#DejaVuSans-Bold-61" transform="translate(73.388672 0)"/>
    <use xlink:href="#DejaVuSans-Bold-6e" transform="translate(140.869141 0)"/>
    <use xlink:href="#DejaVuSans-Bold-6f" transform="translate(212.060547 0)"/>
    <use xlink:href="#DejaVuSans-Bold-6e" transform="translate(280.761719 0)"/>
    <use xlink:href="#DejaVuSans-Bold-69" transform="translate(351.953125 0)"/>
    <use xlink:href="#DejaVuSans-Bold-63" transform="translate(386.230469 0)"/>
    <use xlink:href="#DejaVuSans-Bold-61" transform="translate(445.507812 0)"/>
    <use xlink:href="#DejaVuSans-Bold-6c" transform="translate(512.988281 0)"/>
    <use xlink:href="#DejaVuSans-Bold-20" transform="translate(547.265625 0)"/>
    <use xlink:href="#DejaVuSans-Bold-52" transform="translate(582.080078 0)"/>
    <use xlink:href="#DejaVuSans-Bold-65" transform="translate(659.082031 0)"/>
    <use xlink:href="#DejaVuSans-Bold-70" transform="translate(726.904297 0)"/>
    <use xlink:href="#DejaVuSans-Bold-6f" transform="translate(798.486328 0)"/>
    <use xlink:href="#DejaVuSans-Bold-73" transform="translate(867.1875 0)"/>
    <use xlink:href="#DejaVuSans-Bold-69" transform="translate(926.708984 0)"/>
    <use xlink:href="#DejaVuSans-Bold-74" transform="translate(960.986328 0)"/>
    <use xlink:href="#DejaVuSans-Bold-6f" transform="translate(1008.789062 0)"/>
    <use xlink:href="#DejaVuSans-Bold-72" transform="translate(1077.490234 0)"/>
    <use xlink:href="#DejaVuSans-Bold-79" transform="translate(1126.806641 0)"/>
    <use xlink:href="#DejaVuSans-Bold-20" transform="translate(1191.992188 0)"/>
    <use xlink:href="#DejaVuSans-Bold-53" transform="translate(1226.806641 0)"/>
    <use xlink:href="#DejaVuSans-Bold-63" transform="translate(1298.828125 0)"/>
    <use xlink:href="#DejaVuSans-Bold-61" transform="translate(1358.105469 0)"/>
    <use xlink:href="#DejaVuSans-Bold-6c" transform="translate(1425.585938 0)"/>
    <use xlink:href="#DejaVuSans-Bold-65" transform="translate(1459.863281 0)"/>
    <use xlink:href="#DejaVuSans-Bold-20" transform="translate(1527.685547 0)"/>
    <use xlink:href="#DejaVuSans-Bold-62" transform="translate(1562.5 0)"/>
    <use xlink:href="#DejaVuSans-Bold-79" transform="translate(1634.082031 0)"/>
    <use xlink:href="#DejaVuSans-Bold-20" transform="translate(1699.267578 0)"/>
    <use xlink:href="#DejaVuSans-Bold-50" transform="translate(1734.082031 0)"/>
    <use xlink:href="#DejaVuSans-Bold-61" transform="translate(1804.748047 0)"/>
    <use xlink:href="#DejaVuSans-Bold-72" transform="translate(1872.228516 0)"/>
    <use xlink:href="#DejaVuSans-Bold-74" transform="translate(1921.544922 0)"/>
    <use xlink:href="#DejaVuSans-Bold-69" transform="translate(1969.347656 0)"/>
    <use xlink:href="#DejaVuSans-Bold-74" transform="translate(2003.625 0)"/>
    <use xlink:href="#DejaVuSans-Bold-69" transform="translate(2051.427734 0)"/>
    <use xlink:href="#DejaVuSans-Bold-6f" transform="translate(2085.705078 0)"/>
    <use xlink:href="#DejaVuSans-Bold-6e" transform="translate(2154.40625 0)"/>
   </g>
  </g>
  <g id="text_28">
   <!-- Source: E:\PrimeNet\Repository\observations\twin_primes\twin_prime_census_1_3T.csv · Total records: 108,340,298,703 · Repository interval: 1 &lt;= n &lt;= 3,000,000,000,000 -->
   <g style="fill: #52616b" transform="translate(7.2 409.668441) scale(0.075 -0.075)">
    <defs>
     <path id="DejaVuSans-53" d="M 3425 4513 
L 3425 3897 
Q 3066 4069 2747 4153 
Q 2428 4238 2131 4238 
Q 1616 4238 1336 4038 
Q 1056 3838 1056 3469 
Q 1056 3159 1242 3001 
Q 1428 2844 1947 2747 
L 2328 2669 
Q 3034 2534 3370 2195 
Q 3706 1856 3706 1288 
Q 3706 609 3251 259 
Q 2797 -91 1919 -91 
Q 1588 -91 1214 -16 
Q 841 59 441 206 
L 441 856 
Q 825 641 1194 531 
Q 1563 422 1919 422 
Q 2459 422 2753 634 
Q 3047 847 3047 1241 
Q 3047 1584 2836 1778 
Q 2625 1972 2144 2069 
L 1759 2144 
Q 1053 2284 737 2584 
Q 422 2884 422 3419 
Q 422 4038 858 4394 
Q 1294 4750 2059 4750 
Q 2388 4750 2728 4690 
Q 3069 4631 3425 4513 
z
" transform="scale(0.015625)"/>
     <path id="DejaVuSans-3a" d="M 750 794 
L 1409 794 
L 1409 0 
L 750 0 
L 750 794 
z
M 750 3309 
L 1409 3309 
L 1409 2516 
L 750 2516 
L 750 3309 
z
" transform="scale(0.015625)"/>
     <path id="DejaVuSans-45" d="M 628 4666 
L 3578 4666 
L 3578 4134 
L 1259 4134 
L 1259 2753 
L 3481 2753 
L 3481 2222 
L 1259 2222 
L 1259 531 
L 3634 531 
L 3634 0 
L 628 0 
L 628 4666 
z
" transform="scale(0.015625)"/>
     <path id="DejaVuSans-5c" d="M 531 4666 
L 2156 -594 
L 1625 -594 
L 0 4666 
L 531 4666 
z
" transform="scale(0.015625)"/>
     <path id="DejaVuSans-4e" d="M 628 4666 
L 1478 4666 
L 3547 763 
L 3547 4666 
L 4159 4666 
L 4159 0 
L 3309 0 
L 1241 3903 
L 1241 0 
L 628 0 
L 628 4666 
z
" transform="scale(0.015625)"/>
     <path id="DejaVuSans-52" d="M 2841 2188 
Q 3044 2119 3236 1894 
Q 3428 1669 3622 1275 
L 4263 0 
L 3584 0 
L 2988 1197 
Q 2756 1666 2539 1819 
Q 2322 1972 1947 1972 
L 1259 1972 
L 1259 0 
L 628 0 
L 628 4666 
L 2053 4666 
Q 2853 4666 3247 4331 
Q 3641 3997 3641 3322 
Q 3641 2881 3436 2590 
Q 3231 2300 2841 2188 
z
M 1259 4147 
L 1259 2491 
L 2053 2491 
Q 2509 2491 2742 2702 
Q 2975 2913 2975 3322 
Q 2975 3731 2742 3939 
Q 2509 4147 2053 4147 
L 1259 4147 
z
" transform="scale(0.015625)"/>
     <path id="DejaVuSans-62" d="M 3116 1747 
Q 3116 2381 2855 2742 
Q 2594 3103 2138 3103 
Q 1681 3103 1420 2742 
Q 1159 2381 1159 1747 
Q 1159 1113 1420 752 
Q 1681 391 2138 391 
Q 2594 391 2855 752 
Q 3116 1113 3116 1747 
z
M 1159 2969 
Q 1341 3281 1617 3432 
Q 1894 3584 2278 3584 
Q 2916 3584 3314 3078 
Q 3713 2572 3713 1747 
Q 3713 922 3314 415 
Q 2916 -91 2278 -91 
Q 1894 -91 1617 61 
Q 1341 213 1159 525 
L 1159 0 
L 581 0 
L 581 4863 
L 1159 4863 
L 1159 2969 
z
" transform="scale(0.015625)"/>
     <path id="DejaVuSans-77" d="M 269 3500 
L 844 3500 
L 1563 769 
L 2278 3500 
L 2956 3500 
L 3675 769 
L 4391 3500 
L 4966 3500 
L 4050 0 
L 3372 0 
L 2619 2869 
L 1863 0 
L 1184 0 
L 269 3500 
z
" transform="scale(0.015625)"/>
     <path id="DejaVuSans-5f" d="M 3263 -1063 
L 3263 -1509 
L -63 -1509 
L -63 -1063 
L 3263 -1063 
z
" transform="scale(0.015625)"/>
     <path id="DejaVuSans-54" d="M -19 4666 
L 3928 4666 
L 3928 4134 
L 2272 4134 
L 2272 0 
L 1638 0 
L 1638 4134 
L -19 4134 
L -19 4666 
z
" transform="scale(0.015625)"/>
     <path id="DejaVuSans-b7" d="M 684 2619 
L 1344 2619 
L 1344 1825 
L 684 1825 
L 684 2619 
z
" transform="scale(0.015625)"/>
     <path id="DejaVuSans-2c" d="M 750 794 
L 1409 794 
L 1409 256 
L 897 -744 
L 494 -744 
L 750 256 
L 750 794 
z
" transform="scale(0.015625)"/>
     <path id="DejaVuSans-3c" d="M 4684 3150 
L 1459 2003 
L 4684 863 
L 4684 294 
L 678 1747 
L 678 2266 
L 4684 3719 
L 4684 3150 
z
" transform="scale(0.015625)"/>
     <path id="DejaVuSans-3d" d="M 678 2906 
L 4684 2906 
L 4684 2381 
L 678 2381 
L 678 2906 
z
M 678 1631 
L 4684 1631 
L 4684 1100 
L 678 1100 
L 678 1631 
z
" transform="scale(0.015625)"/>
    </defs>
    <use xlink:href="#DejaVuSans-53"/>
    <use xlink:href="#DejaVuSans-6f" transform="translate(63.476562 0)"/>
    <use xlink:href="#DejaVuSans-75" transform="translate(124.658203 0)"/>
    <use xlink:href="#DejaVuSans-72" transform="translate(188.037109 0)"/>
    <use xlink:href="#DejaVuSans-63" transform="translate(226.900391 0)"/>
    <use xlink:href="#DejaVuSans-65" transform="translate(281.880859 0)"/>
    <use xlink:href="#DejaVuSans-3a" transform="translate(343.404297 0)"/>
    <use xlink:href="#DejaVuSans-20" transform="translate(377.095703 0)"/>
    <use xlink:href="#DejaVuSans-45" transform="translate(408.882812 0)"/>
    <use xlink:href="#DejaVuSans-3a" transform="translate(472.066406 0)"/>
    <use xlink:href="#DejaVuSans-5c" transform="translate(505.757812 0)"/>
    <use xlink:href="#DejaVuSans-50" transform="translate(539.449219 0)"/>
    <use xlink:href="#DejaVuSans-72" transform="translate(598.001953 0)"/>
    <use xlink:href="#DejaVuSans-69" transform="translate(639.115234 0)"/>
    <use xlink:href="#DejaVuSans-6d" transform="translate(666.898438 0)"/>
    <use xlink:href="#DejaVuSans-65" transform="translate(764.310547 0)"/>
    <use xlink:href="#DejaVuSans-4e" transform="translate(825.833984 0)"/>
    <use xlink:href="#DejaVuSans-65" transform="translate(900.638672 0)"/>
    <use xlink:href="#DejaVuSans-74" transform="translate(962.162109 0)"/>
    <use xlink:href="#DejaVuSans-5c" transform="translate(1001.371094 0)"/>
    <use xlink:href="#DejaVuSans-52" transform="translate(1035.0625 0)"/>
    <use xlink:href="#DejaVuSans-65" transform="translate(1100.044922 0)"/>
    <use xlink:href="#DejaVuSans-70" transform="translate(1161.568359 0)"/>
    <use xlink:href="#DejaVuSans-6f" transform="translate(1225.044922 0)"/>
    <use xlink:href="#DejaVuSans-73" transform="translate(1286.226562 0)"/>
    <use xlink:href="#DejaVuSans-69" transform="translate(1338.326172 0)"/>
    <use xlink:href="#DejaVuSans-74" transform="translate(1366.109375 0)"/>
    <use xlink:href="#DejaVuSans-6f" transform="translate(1405.318359 0)"/>
    <use xlink:href="#DejaVuSans-72" transform="translate(1466.5 0)"/>
    <use xlink:href="#DejaVuSans-79" transform="translate(1507.613281 0)"/>
    <use xlink:href="#DejaVuSans-5c" transform="translate(1566.792969 0)"/>
    <use xlink:href="#DejaVuSans-6f" transform="translate(1600.484375 0)"/>
    <use xlink:href="#DejaVuSans-62" transform="translate(1661.666016 0)"/>
    <use xlink:href="#DejaVuSans-73" transform="translate(1725.142578 0)"/>
    <use xlink:href="#DejaVuSans-65" transform="translate(1777.242188 0)"/>
    <use xlink:href="#DejaVuSans-72" transform="translate(1838.765625 0)"/>
    <use xlink:href="#DejaVuSans-76" transform="translate(1879.878906 0)"/>
    <use xlink:href="#DejaVuSans-61" transform="translate(1939.058594 0)"/>
    <use xlink:href="#DejaVuSans-74" transform="translate(2000.337891 0)"/>
    <use xlink:href="#DejaVuSans-69" transform="translate(2039.546875 0)"/>
    <use xlink:href="#DejaVuSans-6f" transform="translate(2067.330078 0)"/>
    <use xlink:href="#DejaVuSans-6e" transform="translate(2128.511719 0)"/>
    <use xlink:href="#DejaVuSans-73" transform="translate(2191.890625 0)"/>
    <use xlink:href="#DejaVuSans-5c" transform="translate(2243.990234 0)"/>
    <use xlink:href="#DejaVuSans-74" transform="translate(2277.681641 0)"/>
    <use xlink:href="#DejaVuSans-77" transform="translate(2316.890625 0)"/>
    <use xlink:href="#DejaVuSans-69" transform="translate(2398.677734 0)"/>
    <use xlink:href="#DejaVuSans-6e" transform="translate(2426.460938 0)"/>
    <use xlink:href="#DejaVuSans-5f" transform="translate(2489.839844 0)"/>
    <use xlink:href="#DejaVuSans-70" transform="translate(2539.839844 0)"/>
    <use xlink:href="#DejaVuSans-72" transform="translate(2603.316406 0)"/>
    <use xlink:href="#DejaVuSans-69" transform="translate(2644.429688 0)"/>
    <use xlink:href="#DejaVuSans-6d" transform="translate(2672.212891 0)"/>
    <use xlink:href="#DejaVuSans-65" transform="translate(2769.625 0)"/>
    <use xlink:href="#DejaVuSans-73" transform="translate(2831.148438 0)"/>
    <use xlink:href="#DejaVuSans-5c" transform="translate(2883.248047 0)"/>
    <use xlink:href="#DejaVuSans-74" transform="translate(2916.939453 0)"/>
    <use xlink:href="#DejaVuSans-77" transform="translate(2956.148438 0)"/>
    <use xlink:href="#DejaVuSans-69" transform="translate(3037.935547 0)"/>
    <use xlink:href="#DejaVuSans-6e" transform="translate(3065.71875 0)"/>
    <use xlink:href="#DejaVuSans-5f" transform="translate(3129.097656 0)"/>
    <use xlink:href="#DejaVuSans-70" transform="translate(3179.097656 0)"/>
    <use xlink:href="#DejaVuSans-72" transform="translate(3242.574219 0)"/>
    <use xlink:href="#DejaVuSans-69" transform="translate(3283.6875 0)"/>
    <use xlink:href="#DejaVuSans-6d" transform="translate(3311.470703 0)"/>
    <use xlink:href="#DejaVuSans-65" transform="translate(3408.882812 0)"/>
    <use xlink:href="#DejaVuSans-5f" transform="translate(3470.40625 0)"/>
    <use xlink:href="#DejaVuSans-63" transform="translate(3520.40625 0)"/>
    <use xlink:href="#DejaVuSans-65" transform="translate(3575.386719 0)"/>
    <use xlink:href="#DejaVuSans-6e" transform="translate(3636.910156 0)"/>
    <use xlink:href="#DejaVuSans-73" transform="translate(3700.289062 0)"/>
    <use xlink:href="#DejaVuSans-75" transform="translate(3752.388672 0)"/>
    <use xlink:href="#DejaVuSans-73" transform="translate(3815.767578 0)"/>
    <use xlink:href="#DejaVuSans-5f" transform="translate(3867.867188 0)"/>
    <use xlink:href="#DejaVuSans-31" transform="translate(3917.867188 0)"/>
    <use xlink:href="#DejaVuSans-5f" transform="translate(3981.490234 0)"/>
    <use xlink:href="#DejaVuSans-33" transform="translate(4031.490234 0)"/>
    <use xlink:href="#DejaVuSans-54" transform="translate(4095.113281 0)"/>
    <use xlink:href="#DejaVuSans-2e" transform="translate(4144.322266 0)"/>
    <use xlink:href="#DejaVuSans-63" transform="translate(4176.109375 0)"/>
    <use xlink:href="#DejaVuSans-73" transform="translate(4231.089844 0)"/>
    <use xlink:href="#DejaVuSans-76" transform="translate(4283.189453 0)"/>
    <use xlink:href="#DejaVuSans-20" transform="translate(4342.369141 0)"/>
    <use xlink:href="#DejaVuSans-b7" transform="translate(4374.15625 0)"/>
    <use xlink:href="#DejaVuSans-20" transform="translate(4405.943359 0)"/>
    <use xlink:href="#DejaVuSans-54" transform="translate(4437.730469 0)"/>
    <use xlink:href="#DejaVuSans-6f" transform="translate(4481.814453 0)"/>
    <use xlink:href="#DejaVuSans-74" transform="translate(4542.996094 0)"/>
    <use xlink:href="#DejaVuSans-61" transform="translate(4582.205078 0)"/>
    <use xlink:href="#DejaVuSans-6c" transform="translate(4643.484375 0)"/>
    <use xlink:href="#DejaVuSans-20" transform="translate(4671.267578 0)"/>
    <use xlink:href="#DejaVuSans-72" transform="translate(4703.054688 0)"/>
    <use xlink:href="#DejaVuSans-65" transform="translate(4741.917969 0)"/>
    <use xlink:href="#DejaVuSans-63" transform="translate(4803.441406 0)"/>
    <use xlink:href="#DejaVuSans-6f" transform="translate(4858.421875 0)"/>
    <use xlink:href="#DejaVuSans-72" transform="translate(4919.603516 0)"/>
    <use xlink:href="#DejaVuSans-64" transform="translate(4958.966797 0)"/>
    <use xlink:href="#DejaVuSans-73" transform="translate(5022.443359 0)"/>
    <use xlink:href="#DejaVuSans-3a" transform="translate(5074.542969 0)"/>
    <use xlink:href="#DejaVuSans-20" transform="translate(5108.234375 0)"/>
    <use xlink:href="#DejaVuSans-31" transform="translate(5140.021484 0)"/>
    <use xlink:href="#DejaVuSans-30" transform="translate(5203.644531 0)"/>
    <use xlink:href="#DejaVuSans-38" transform="translate(5267.267578 0)"/>
    <use xlink:href="#DejaVuSans-2c" transform="translate(5330.890625 0)"/>
    <use xlink:href="#DejaVuSans-33" transform="translate(5362.677734 0)"/>
    <use xlink:href="#DejaVuSans-34" transform="translate(5426.300781 0)"/>
    <use xlink:href="#DejaVuSans-30" transform="translate(5489.923828 0)"/>
    <use xlink:href="#DejaVuSans-2c" transform="translate(5553.546875 0)"/>
    <use xlink:href="#DejaVuSans-32" transform="translate(5585.333984 0)"/>
    <use xlink:href="#DejaVuSans-39" transform="translate(5648.957031 0)"/>
    <use xlink:href="#DejaVuSans-38" transform="translate(5712.580078 0)"/>
    <use xlink:href="#DejaVuSans-2c" transform="translate(5776.203125 0)"/>
    <use xlink:href="#DejaVuSans-37" transform="translate(5807.990234 0)"/>
    <use xlink:href="#DejaVuSans-30" transform="translate(5871.613281 0)"/>
    <use xlink:href="#DejaVuSans-33" transform="translate(5935.236328 0)"/>
    <use xlink:href="#DejaVuSans-20" transform="translate(5998.859375 0)"/>
    <use xlink:href="#DejaVuSans-b7" transform="translate(6030.646484 0)"/>
    <use xlink:href="#DejaVuSans-20" transform="translate(6062.433594 0)"/>
    <use xlink:href="#DejaVuSans-52" transform="translate(6094.220703 0)"/>
    <use xlink:href="#DejaVuSans-65" transform="translate(6159.203125 0)"/>
    <use xlink:href="#DejaVuSans-70" transform="translate(6220.726562 0)"/>
    <use xlink:href="#DejaVuSans-6f" transform="translate(6284.203125 0)"/>
    <use xlink:href="#DejaVuSans-73" transform="translate(6345.384766 0)"/>
    <use xlink:href="#DejaVuSans-69" transform="translate(6397.484375 0)"/>
    <use xlink:href="#DejaVuSans-74" transform="translate(6425.267578 0)"/>
    <use xlink:href="#DejaVuSans-6f" transform="translate(6464.476562 0)"/>
    <use xlink:href="#DejaVuSans-72" transform="translate(6525.658203 0)"/>
    <use xlink:href="#DejaVuSans-79" transform="translate(6566.771484 0)"/>
    <use xlink:href="#DejaVuSans-20" transform="translate(6625.951172 0)"/>
    <use xlink:href="#DejaVuSans-69" transform="translate(6657.738281 0)"/>
    <use xlink:href="#DejaVuSans-6e" transform="translate(6685.521484 0)"/>
    <use xlink:href="#DejaVuSans-74" transform="translate(6748.900391 0)"/>
    <use xlink:href="#DejaVuSans-65" transform="translate(6788.109375 0)"/>
    <use xlink:href="#DejaVuSans-72" transform="translate(6849.632812 0)"/>
    <use xlink:href="#DejaVuSans-76" transform="translate(6890.746094 0)"/>
    <use xlink:href="#DejaVuSans-61" transform="translate(6949.925781 0)"/>
    <use xlink:href="#DejaVuSans-6c" transform="translate(7011.205078 0)"/>
    <use xlink:href="#DejaVuSans-3a" transform="translate(7038.988281 0)"/>
    <use xlink:href="#DejaVuSans-20" transform="translate(7072.679688 0)"/>
    <use xlink:href="#DejaVuSans-31" transform="translate(7104.466797 0)"/>
    <use xlink:href="#DejaVuSans-20" transform="translate(7168.089844 0)"/>
    <use xlink:href="#DejaVuSans-3c" transform="translate(7199.876953 0)"/>
    <use xlink:href="#DejaVuSans-3d" transform="translate(7283.666016 0)"/>
    <use xlink:href="#DejaVuSans-20" transform="translate(7367.455078 0)"/>
    <use xlink:href="#DejaVuSans-6e" transform="translate(7399.242188 0)"/>
    <use xlink:href="#DejaVuSans-20" transform="translate(7462.621094 0)"/>
    <use xlink:href="#DejaVuSans-3c" transform="translate(7494.408203 0)"/>
    <use xlink:href="#DejaVuSans-3d" transform="translate(7578.197266 0)"/>
    <use xlink:href="#DejaVuSans-20" transform="translate(7661.986328 0)"/>
    <use xlink:href="#DejaVuSans-33" transform="translate(7693.773438 0)"/>
    <use xlink:href="#DejaVuSans-2c" transform="translate(7757.396484 0)"/>
    <use xlink:href="#DejaVuSans-30" transform="translate(7789.183594 0)"/>
    <use xlink:href="#DejaVuSans-30" transform="translate(7852.806641 0)"/>
    <use xlink:href="#DejaVuSans-30" transform="translate(7916.429688 0)"/>
    <use xlink:href="#DejaVuSans-2c" transform="translate(7980.052734 0)"/>
    <use xlink:href="#DejaVuSans-30" transform="translate(8011.839844 0)"/>
    <use xlink:href="#DejaVuSans-30" transform="translate(8075.462891 0)"/>
    <use xlink:href="#DejaVuSans-30" transform="translate(8139.085938 0)"/>
    <use xlink:href="#DejaVuSans-2c" transform="translate(8202.708984 0)"/>
    <use xlink:href="#DejaVuSans-30" transform="translate(8234.496094 0)"/>
    <use xlink:href="#DejaVuSans-30" transform="translate(8298.119141 0)"/>
    <use xlink:href="#DejaVuSans-30" transform="translate(8361.742188 0)"/>
    <use xlink:href="#DejaVuSans-2c" transform="translate(8425.365234 0)"/>
    <use xlink:href="#DejaVuSans-30" transform="translate(8457.152344 0)"/>
    <use xlink:href="#DejaVuSans-30" transform="translate(8520.775391 0)"/>
    <use xlink:href="#DejaVuSans-30" transform="translate(8584.398438 0)"/>
   </g>
  </g>
 </g>
 <defs>
  <clipPath id="p17e56a67d5">
   <rect x="88.498828" y="48.96" width="502.2" height="321.552"/>
  </clipPath>
 </defs>
</svg>
