<?xml version="1.0" encoding="utf-8" standalone="no"?>
<!DOCTYPE svg PUBLIC "-//W3C//DTD SVG 1.1//EN"
  "http://www.w3.org/Graphics/SVG/1.1/DTD/svg11.dtd">
<svg xmlns:xlink="http://www.w3.org/1999/xlink" width="599.681875pt" height="418.6368pt" viewBox="0 0 599.681875 418.6368" xmlns="http://www.w3.org/2000/svg" version="1.1">
 <metadata>
  <rdf:RDF xmlns:dc="http://purl.org/dc/elements/1.1/" xmlns:cc="http://creativecommons.org/ns#" xmlns:rdf="http://www.w3.org/1999/02/22-rdf-syntax-ns#">
   <cc:Work>
    <dc:type rdf:resource="http://purl.org/dc/dcmitype/StillImage"/>
    <dc:date>2026-07-18T13:32:30.200180</dc:date>
    <dc:format>image/svg+xml</dc:format>
    <dc:creator>
     <cc:Agent>
      <dc:title>Matplotlib v3.10.9, https://matplotlib.org/</dc:title>
     </cc:Agent>
    </dc:creator>
   </cc:Work>
  </rdf:RDF>
 </metadata>
 <defs>
  <style type="text/css">*{stroke-linejoin: round; stroke-linecap: butt}</style>
 </defs>
 <g id="figure_1">
  <g id="patch_1">
   <path d="M 0 418.6368 
L 599.681875 418.6368 
L 599.681875 0 
L 0 0 
z
" style="fill: #ffffff"/>
  </g>
  <g id="axes_1">
   <g id="patch_2">
    <path d="M 55.301563 370.512 
L 557.501563 370.512 
L 557.501563 48.96 
L 55.301563 48.96 
z
" style="fill: #ffffff"/>
   </g>
   <g id="matplotlib.axis_1">
    <g id="xtick_1">
     <g id="line2d_1">
      <defs>
       <path id="mf09b6d1188" d="M 0 0 
L 0 3.5 
" style="stroke: #52616b; stroke-width: 0.8"/>
      </defs>
      <g>
       <use xlink:href="#mf09b6d1188" x="55.301563" y="370.512" style="fill: #52616b; stroke: #52616b; stroke-width: 0.8"/>
      </g>
     </g>
     <g id="text_1">
      <!-- 0.0 -->
      <g style="fill: #52616b" transform="translate(48.940313 383.59075) scale(0.08 -0.08)">
       <defs>
        <path id="DejaVuSans-30" d="M 2034 4250 
Q 1547 4250 1301 3770 
Q 1056 3291 1056 2328 
Q 1056 1369 1301 889 
Q 1547 409 2034 409 
Q 2525 409 2770 889 
Q 3016 1369 3016 2328 
Q 3016 3291 2770 3770 
Q 2525 4250 2034 4250 
z
M 2034 4750 
Q 2819 4750 3233 4129 
Q 3647 3509 3647 2328 
Q 3647 1150 3233 529 
Q 2819 -91 2034 -91 
Q 1250 -91 836 529 
Q 422 1150 422 2328 
Q 422 3509 836 4129 
Q 1250 4750 2034 4750 
z
" transform="scale(0.015625)"/>
        <path id="DejaVuSans-2e" d="M 684 794 
L 1344 794 
L 1344 0 
L 684 0 
L 684 794 
z
" transform="scale(0.015625)"/>
       </defs>
       <use xlink:href="#DejaVuSans-30"/>
       <use xlink:href="#DejaVuSans-2e" transform="translate(63.623047 0)"/>
       <use xlink:href="#DejaVuSans-30" transform="translate(95.410156 0)"/>
      </g>
     </g>
    </g>
    <g id="xtick_2">
     <g id="line2d_2">
      <g>
       <use xlink:href="#mf09b6d1188" x="139.001563" y="370.512" style="fill: #52616b; stroke: #52616b; stroke-width: 0.8"/>
      </g>
     </g>
     <g id="text_2">
      <!-- 0.5 -->
      <g style="fill: #52616b" transform="translate(132.640313 383.59075) scale(0.08 -0.08)">
       <defs>
        <path id="DejaVuSans-35" d="M 691 4666 
L 3169 4666 
L 3169 4134 
L 1269 4134 
L 1269 2991 
Q 1406 3038 1543 3061 
Q 1681 3084 1819 3084 
Q 2600 3084 3056 2656 
Q 3513 2228 3513 1497 
Q 3513 744 3044 326 
Q 2575 -91 1722 -91 
Q 1428 -91 1123 -41 
Q 819 9 494 109 
L 494 744 
Q 775 591 1075 516 
Q 1375 441 1709 441 
Q 2250 441 2565 725 
Q 2881 1009 2881 1497 
Q 2881 1984 2565 2268 
Q 2250 2553 1709 2553 
Q 1456 2553 1204 2497 
Q 953 2441 691 2322 
L 691 4666 
z
" transform="scale(0.015625)"/>
       </defs>
       <use xlink:href="#DejaVuSans-30"/>
       <use xlink:href="#DejaVuSans-2e" transform="translate(63.623047 0)"/>
       <use xlink:href="#DejaVuSans-35" transform="translate(95.410156 0)"/>
      </g>
     </g>
    </g>
    <g id="xtick_3">
     <g id="line2d_3">
      <g>
       <use xlink:href="#mf09b6d1188" x="222.701563" y="370.512" style="fill: #52616b; stroke: #52616b; stroke-width: 0.8"/>
      </g>
     </g>
     <g id="text_3">
      <!-- 1.0 -->
      <g style="fill: #52616b" transform="translate(216.340313 383.59075) scale(0.08 -0.08)">
       <defs>
        <path id="DejaVuSans-31" d="M 794 531 
L 1825 531 
L 1825 4091 
L 703 3866 
L 703 4441 
L 1819 4666 
L 2450 4666 
L 2450 531 
L 3481 531 
L 3481 0 
L 794 0 
L 794 531 
z
" transform="scale(0.015625)"/>
       </defs>
       <use xlink:href="#DejaVuSans-31"/>
       <use xlink:href="#DejaVuSans-2e" transform="translate(63.623047 0)"/>
       <use xlink:href="#DejaVuSans-30" transform="translate(95.410156 0)"/>
      </g>
     </g>
    </g>
    <g id="xtick_4">
     <g id="line2d_4">
      <g>
       <use xlink:href="#mf09b6d1188" x="306.401563" y="370.512" style="fill: #52616b; stroke: #52616b; stroke-width: 0.8"/>
      </g>
     </g>
     <g id="text_4">
      <!-- 1.5 -->
      <g style="fill: #52616b" transform="translate(300.040313 383.59075) scale(0.08 -0.08)">
       <use xlink:href="#DejaVuSans-31"/>
       <use xlink:href="#DejaVuSans-2e" transform="translate(63.623047 0)"/>
       <use xlink:href="#DejaVuSans-35" transform="translate(95.410156 0)"/>
      </g>
     </g>
    </g>
    <g id="xtick_5">
     <g id="line2d_5">
      <g>
       <use xlink:href="#mf09b6d1188" x="390.101563" y="370.512" style="fill: #52616b; stroke: #52616b; stroke-width: 0.8"/>
      </g>
     </g>
     <g id="text_5">
      <!-- 2.0 -->
      <g style="fill: #52616b" transform="translate(383.740313 383.59075) scale(0.08 -0.08)">
       <defs>
        <path id="DejaVuSans-32" d="M 1228 531 
L 3431 531 
L 3431 0 
L 469 0 
L 469 531 
Q 828 903 1448 1529 
Q 2069 2156 2228 2338 
Q 2531 2678 2651 2914 
Q 2772 3150 2772 3378 
Q 2772 3750 2511 3984 
Q 2250 4219 1831 4219 
Q 1534 4219 1204 4116 
Q 875 4013 500 3803 
L 500 4441 
Q 881 4594 1212 4672 
Q 1544 4750 1819 4750 
Q 2544 4750 2975 4387 
Q 3406 4025 3406 3419 
Q 3406 3131 3298 2873 
Q 3191 2616 2906 2266 
Q 2828 2175 2409 1742 
Q 1991 1309 1228 531 
z
" transform="scale(0.015625)"/>
       </defs>
       <use xlink:href="#DejaVuSans-32"/>
       <use xlink:href="#DejaVuSans-2e" transform="translate(63.623047 0)"/>
       <use xlink:href="#DejaVuSans-30" transform="translate(95.410156 0)"/>
      </g>
     </g>
    </g>
    <g id="xtick_6">
     <g id="line2d_6">
      <g>
       <use xlink:href="#mf09b6d1188" x="473.801563" y="370.512" style="fill: #52616b; stroke: #52616b; stroke-width: 0.8"/>
      </g>
     </g>
     <g id="text_6">
      <!-- 2.5 -->
      <g style="fill: #52616b" transform="translate(467.440313 383.59075) scale(0.08 -0.08)">
       <use xlink:href="#DejaVuSans-32"/>
       <use xlink:href="#DejaVuSans-2e" transform="translate(63.623047 0)"/>
       <use xlink:href="#DejaVuSans-35" transform="translate(95.410156 0)"/>
      </g>
     </g>
    </g>
    <g id="xtick_7">
     <g id="line2d_7">
      <g>
       <use xlink:href="#mf09b6d1188" x="557.501563" y="370.512" style="fill: #52616b; stroke: #52616b; stroke-width: 0.8"/>
      </g>
     </g>
     <g id="text_7">
      <!-- 3.0 -->
      <g style="fill: #52616b" transform="translate(551.140313 383.59075) scale(0.08 -0.08)">
       <defs>
        <path id="DejaVuSans-33" d="M 2597 2516 
Q 3050 2419 3304 2112 
Q 3559 1806 3559 1356 
Q 3559 666 3084 287 
Q 2609 -91 1734 -91 
Q 1441 -91 1130 -33 
Q 819 25 488 141 
L 488 750 
Q 750 597 1062 519 
Q 1375 441 1716 441 
Q 2309 441 2620 675 
Q 2931 909 2931 1356 
Q 2931 1769 2642 2001 
Q 2353 2234 1838 2234 
L 1294 2234 
L 1294 2753 
L 1863 2753 
Q 2328 2753 2575 2939 
Q 2822 3125 2822 3475 
Q 2822 3834 2567 4026 
Q 2313 4219 1838 4219 
Q 1578 4219 1281 4162 
Q 984 4106 628 3988 
L 628 4550 
Q 988 4650 1302 4700 
Q 1616 4750 1894 4750 
Q 2613 4750 3031 4423 
Q 3450 4097 3450 3541 
Q 3450 3153 3228 2886 
Q 3006 2619 2597 2516 
z
" transform="scale(0.015625)"/>
       </defs>
       <use xlink:href="#DejaVuSans-33"/>
       <use xlink:href="#DejaVuSans-2e" transform="translate(63.623047 0)"/>
       <use xlink:href="#DejaVuSans-30" transform="translate(95.410156 0)"/>
      </g>
     </g>
    </g>
    <g id="text_8">
     <!-- Numerical endpoint (trillion) -->
     <g style="fill: #1f2933" transform="translate(242.903047 396.093094) scale(0.09 -0.09)">
      <defs>
       <path id="DejaVuSans-4e" d="M 628 4666 
L 1478 4666 
L 3547 763 
L 3547 4666 
L 4159 4666 
L 4159 0 
L 3309 0 
L 1241 3903 
L 1241 0 
L 628 0 
L 628 4666 
z
" transform="scale(0.015625)"/>
       <path id="DejaVuSans-75" d="M 544 1381 
L 544 3500 
L 1119 3500 
L 1119 1403 
Q 1119 906 1312 657 
Q 1506 409 1894 409 
Q 2359 409 2629 706 
Q 2900 1003 2900 1516 
L 2900 3500 
L 3475 3500 
L 3475 0 
L 2900 0 
L 2900 538 
Q 2691 219 2414 64 
Q 2138 -91 1772 -91 
Q 1169 -91 856 284 
Q 544 659 544 1381 
z
M 1991 3584 
L 1991 3584 
z
" transform="scale(0.015625)"/>
       <path id="DejaVuSans-6d" d="M 3328 2828 
Q 3544 3216 3844 3400 
Q 4144 3584 4550 3584 
Q 5097 3584 5394 3201 
Q 5691 2819 5691 2113 
L 5691 0 
L 5113 0 
L 5113 2094 
Q 5113 2597 4934 2840 
Q 4756 3084 4391 3084 
Q 3944 3084 3684 2787 
Q 3425 2491 3425 1978 
L 3425 0 
L 2847 0 
L 2847 2094 
Q 2847 2600 2669 2842 
Q 2491 3084 2119 3084 
Q 1678 3084 1418 2786 
Q 1159 2488 1159 1978 
L 1159 0 
L 581 0 
L 581 3500 
L 1159 3500 
L 1159 2956 
Q 1356 3278 1631 3431 
Q 1906 3584 2284 3584 
Q 2666 3584 2933 3390 
Q 3200 3197 3328 2828 
z
" transform="scale(0.015625)"/>
       <path id="DejaVuSans-65" d="M 3597 1894 
L 3597 1613 
L 953 1613 
Q 991 1019 1311 708 
Q 1631 397 2203 397 
Q 2534 397 2845 478 
Q 3156 559 3463 722 
L 3463 178 
Q 3153 47 2828 -22 
Q 2503 -91 2169 -91 
Q 1331 -91 842 396 
Q 353 884 353 1716 
Q 353 2575 817 3079 
Q 1281 3584 2069 3584 
Q 2775 3584 3186 3129 
Q 3597 2675 3597 1894 
z
M 3022 2063 
Q 3016 2534 2758 2815 
Q 2500 3097 2075 3097 
Q 1594 3097 1305 2825 
Q 1016 2553 972 2059 
L 3022 2063 
z
" transform="scale(0.015625)"/>
       <path id="DejaVuSans-72" d="M 2631 2963 
Q 2534 3019 2420 3045 
Q 2306 3072 2169 3072 
Q 1681 3072 1420 2755 
Q 1159 2438 1159 1844 
L 1159 0 
L 581 0 
L 581 3500 
L 1159 3500 
L 1159 2956 
Q 1341 3275 1631 3429 
Q 1922 3584 2338 3584 
Q 2397 3584 2469 3576 
Q 2541 3569 2628 3553 
L 2631 2963 
z
" transform="scale(0.015625)"/>
       <path id="DejaVuSans-69" d="M 603 3500 
L 1178 3500 
L 1178 0 
L 603 0 
L 603 3500 
z
M 603 4863 
L 1178 4863 
L 1178 4134 
L 603 4134 
L 603 4863 
z
" transform="scale(0.015625)"/>
       <path id="DejaVuSans-63" d="M 3122 3366 
L 3122 2828 
Q 2878 2963 2633 3030 
Q 2388 3097 2138 3097 
Q 1578 3097 1268 2742 
Q 959 2388 959 1747 
Q 959 1106 1268 751 
Q 1578 397 2138 397 
Q 2388 397 2633 464 
Q 2878 531 3122 666 
L 3122 134 
Q 2881 22 2623 -34 
Q 2366 -91 2075 -91 
Q 1284 -91 818 406 
Q 353 903 353 1747 
Q 353 2603 823 3093 
Q 1294 3584 2113 3584 
Q 2378 3584 2631 3529 
Q 2884 3475 3122 3366 
z
" transform="scale(0.015625)"/>
       <path id="DejaVuSans-61" d="M 2194 1759 
Q 1497 1759 1228 1600 
Q 959 1441 959 1056 
Q 959 750 1161 570 
Q 1363 391 1709 391 
Q 2188 391 2477 730 
Q 2766 1069 2766 1631 
L 2766 1759 
L 2194 1759 
z
M 3341 1997 
L 3341 0 
L 2766 0 
L 2766 531 
Q 2569 213 2275 61 
Q 1981 -91 1556 -91 
Q 1019 -91 701 211 
Q 384 513 384 1019 
Q 384 1609 779 1909 
Q 1175 2209 1959 2209 
L 2766 2209 
L 2766 2266 
Q 2766 2663 2505 2880 
Q 2244 3097 1772 3097 
Q 1472 3097 1187 3025 
Q 903 2953 641 2809 
L 641 3341 
Q 956 3463 1253 3523 
Q 1550 3584 1831 3584 
Q 2591 3584 2966 3190 
Q 3341 2797 3341 1997 
z
" transform="scale(0.015625)"/>
       <path id="DejaVuSans-6c" d="M 603 4863 
L 1178 4863 
L 1178 0 
L 603 0 
L 603 4863 
z
" transform="scale(0.015625)"/>
       <path id="DejaVuSans-20" transform="scale(0.015625)"/>
       <path id="DejaVuSans-6e" d="M 3513 2113 
L 3513 0 
L 2938 0 
L 2938 2094 
Q 2938 2591 2744 2837 
Q 2550 3084 2163 3084 
Q 1697 3084 1428 2787 
Q 1159 2491 1159 1978 
L 1159 0 
L 581 0 
L 581 3500 
L 1159 3500 
L 1159 2956 
Q 1366 3272 1645 3428 
Q 1925 3584 2291 3584 
Q 2894 3584 3203 3211 
Q 3513 2838 3513 2113 
z
" transform="scale(0.015625)"/>
       <path id="DejaVuSans-64" d="M 2906 2969 
L 2906 4863 
L 3481 4863 
L 3481 0 
L 2906 0 
L 2906 525 
Q 2725 213 2448 61 
Q 2172 -91 1784 -91 
Q 1150 -91 751 415 
Q 353 922 353 1747 
Q 353 2572 751 3078 
Q 1150 3584 1784 3584 
Q 2172 3584 2448 3432 
Q 2725 3281 2906 2969 
z
M 947 1747 
Q 947 1113 1208 752 
Q 1469 391 1925 391 
Q 2381 391 2643 752 
Q 2906 1113 2906 1747 
Q 2906 2381 2643 2742 
Q 2381 3103 1925 3103 
Q 1469 3103 1208 2742 
Q 947 2381 947 1747 
z
" transform="scale(0.015625)"/>
       <path id="DejaVuSans-70" d="M 1159 525 
L 1159 -1331 
L 581 -1331 
L 581 3500 
L 1159 3500 
L 1159 2969 
Q 1341 3281 1617 3432 
Q 1894 3584 2278 3584 
Q 2916 3584 3314 3078 
Q 3713 2572 3713 1747 
Q 3713 922 3314 415 
Q 2916 -91 2278 -91 
Q 1894 -91 1617 61 
Q 1341 213 1159 525 
z
M 3116 1747 
Q 3116 2381 2855 2742 
Q 2594 3103 2138 3103 
Q 1681 3103 1420 2742 
Q 1159 2381 1159 1747 
Q 1159 1113 1420 752 
Q 1681 391 2138 391 
Q 2594 391 2855 752 
Q 3116 1113 3116 1747 
z
" transform="scale(0.015625)"/>
       <path id="DejaVuSans-6f" d="M 1959 3097 
Q 1497 3097 1228 2736 
Q 959 2375 959 1747 
Q 959 1119 1226 758 
Q 1494 397 1959 397 
Q 2419 397 2687 759 
Q 2956 1122 2956 1747 
Q 2956 2369 2687 2733 
Q 2419 3097 1959 3097 
z
M 1959 3584 
Q 2709 3584 3137 3096 
Q 3566 2609 3566 1747 
Q 3566 888 3137 398 
Q 2709 -91 1959 -91 
Q 1206 -91 779 398 
Q 353 888 353 1747 
Q 353 2609 779 3096 
Q 1206 3584 1959 3584 
z
" transform="scale(0.015625)"/>
       <path id="DejaVuSans-74" d="M 1172 4494 
L 1172 3500 
L 2356 3500 
L 2356 3053 
L 1172 3053 
L 1172 1153 
Q 1172 725 1289 603 
Q 1406 481 1766 481 
L 2356 481 
L 2356 0 
L 1766 0 
Q 1100 0 847 248 
Q 594 497 594 1153 
L 594 3053 
L 172 3053 
L 172 3500 
L 594 3500 
L 594 4494 
L 1172 4494 
z
" transform="scale(0.015625)"/>
       <path id="DejaVuSans-28" d="M 1984 4856 
Q 1566 4138 1362 3434 
Q 1159 2731 1159 2009 
Q 1159 1288 1364 580 
Q 1569 -128 1984 -844 
L 1484 -844 
Q 1016 -109 783 600 
Q 550 1309 550 2009 
Q 550 2706 781 3412 
Q 1013 4119 1484 4856 
L 1984 4856 
z
" transform="scale(0.015625)"/>
       <path id="DejaVuSans-29" d="M 513 4856 
L 1013 4856 
Q 1481 4119 1714 3412 
Q 1947 2706 1947 2009 
Q 1947 1309 1714 600 
Q 1481 -109 1013 -844 
L 513 -844 
Q 928 -128 1133 580 
Q 1338 1288 1338 2009 
Q 1338 2731 1133 3434 
Q 928 4138 513 4856 
z
" transform="scale(0.015625)"/>
      </defs>
      <use xlink:href="#DejaVuSans-4e"/>
      <use xlink:href="#DejaVuSans-75" transform="translate(74.804688 0)"/>
      <use xlink:href="#DejaVuSans-6d" transform="translate(138.183594 0)"/>
      <use xlink:href="#DejaVuSans-65" transform="translate(235.595703 0)"/>
      <use xlink:href="#DejaVuSans-72" transform="translate(297.119141 0)"/>
      <use xlink:href="#DejaVuSans-69" transform="translate(338.232422 0)"/>
      <use xlink:href="#DejaVuSans-63" transform="translate(366.015625 0)"/>
      <use xlink:href="#DejaVuSans-61" transform="translate(420.996094 0)"/>
      <use xlink:href="#DejaVuSans-6c" transform="translate(482.275391 0)"/>
      <use xlink:href="#DejaVuSans-20" transform="translate(510.058594 0)"/>
      <use xlink:href="#DejaVuSans-65" transform="translate(541.845703 0)"/>
      <use xlink:href="#DejaVuSans-6e" transform="translate(603.369141 0)"/>
      <use xlink:href="#DejaVuSans-64" transform="translate(666.748047 0)"/>
      <use xlink:href="#DejaVuSans-70" transform="translate(730.224609 0)"/>
      <use xlink:href="#DejaVuSans-6f" transform="translate(793.701172 0)"/>
      <use xlink:href="#DejaVuSans-69" transform="translate(854.882812 0)"/>
      <use xlink:href="#DejaVuSans-6e" transform="translate(882.666016 0)"/>
      <use xlink:href="#DejaVuSans-74" transform="translate(946.044922 0)"/>
      <use xlink:href="#DejaVuSans-20" transform="translate(985.253906 0)"/>
      <use xlink:href="#DejaVuSans-28" transform="translate(1017.041016 0)"/>
      <use xlink:href="#DejaVuSans-74" transform="translate(1056.054688 0)"/>
      <use xlink:href="#DejaVuSans-72" transform="translate(1095.263672 0)"/>
      <use xlink:href="#DejaVuSans-69" transform="translate(1136.376953 0)"/>
      <use xlink:href="#DejaVuSans-6c" transform="translate(1164.160156 0)"/>
      <use xlink:href="#DejaVuSans-6c" transform="translate(1191.943359 0)"/>
      <use xlink:href="#DejaVuSans-69" transform="translate(1219.726562 0)"/>
      <use xlink:href="#DejaVuSans-6f" transform="translate(1247.509766 0)"/>
      <use xlink:href="#DejaVuSans-6e" transform="translate(1308.691406 0)"/>
      <use xlink:href="#DejaVuSans-29" transform="translate(1372.070312 0)"/>
     </g>
    </g>
   </g>
   <g id="matplotlib.axis_2">
    <g id="ytick_1">
     <g id="line2d_8">
      <path d="M 55.301563 355.896 
L 557.501563 355.896 
" clip-path="url(#pc636c6b56c)" style="fill: none; stroke: #b0b0b0; stroke-opacity: 0.22; stroke-width: 0.7; stroke-linecap: square"/>
     </g>
     <g id="line2d_9">
      <defs>
       <path id="m7a54759409" d="M 0 0 
L -3.5 0 
" style="stroke: #52616b; stroke-width: 0.8"/>
      </defs>
      <g>
       <use xlink:href="#m7a54759409" x="55.301563" y="355.896" style="fill: #52616b; stroke: #52616b; stroke-width: 0.8"/>
      </g>
     </g>
     <g id="text_9">
      <!-- 0 -->
      <g style="fill: #52616b" transform="translate(43.211562 358.935375) scale(0.08 -0.08)">
       <use xlink:href="#DejaVuSans-30"/>
      </g>
     </g>
    </g>
    <g id="ytick_2">
     <g id="line2d_10">
      <path d="M 55.301563 301.9327 
L 557.501563 301.9327 
" clip-path="url(#pc636c6b56c)" style="fill: none; stroke: #b0b0b0; stroke-opacity: 0.22; stroke-width: 0.7; stroke-linecap: square"/>
     </g>
     <g id="line2d_11">
      <g>
       <use xlink:href="#m7a54759409" x="55.301563" y="301.9327" style="fill: #52616b; stroke: #52616b; stroke-width: 0.8"/>
      </g>
     </g>
     <g id="text_10">
      <!-- 20.0B -->
      <g style="fill: #52616b" transform="translate(25.000313 304.972075) scale(0.08 -0.08)">
       <defs>
        <path id="DejaVuSans-42" d="M 1259 2228 
L 1259 519 
L 2272 519 
Q 2781 519 3026 730 
Q 3272 941 3272 1375 
Q 3272 1813 3026 2020 
Q 2781 2228 2272 2228 
L 1259 2228 
z
M 1259 4147 
L 1259 2741 
L 2194 2741 
Q 2656 2741 2882 2914 
Q 3109 3088 3109 3444 
Q 3109 3797 2882 3972 
Q 2656 4147 2194 4147 
L 1259 4147 
z
M 628 4666 
L 2241 4666 
Q 2963 4666 3353 4366 
Q 3744 4066 3744 3513 
Q 3744 3084 3544 2831 
Q 3344 2578 2956 2516 
Q 3422 2416 3680 2098 
Q 3938 1781 3938 1306 
Q 3938 681 3513 340 
Q 3088 0 2303 0 
L 628 0 
L 628 4666 
z
" transform="scale(0.015625)"/>
       </defs>
       <use xlink:href="#DejaVuSans-32"/>
       <use xlink:href="#DejaVuSans-30" transform="translate(63.623047 0)"/>
       <use xlink:href="#DejaVuSans-2e" transform="translate(127.246094 0)"/>
       <use xlink:href="#DejaVuSans-30" transform="translate(159.033203 0)"/>
       <use xlink:href="#DejaVuSans-42" transform="translate(222.65625 0)"/>
      </g>
     </g>
    </g>
    <g id="ytick_3">
     <g id="line2d_12">
      <path d="M 55.301563 247.969401 
L 557.501563 247.969401 
" clip-path="url(#pc636c6b56c)" style="fill: none; stroke: #b0b0b0; stroke-opacity: 0.22; stroke-width: 0.7; stroke-linecap: square"/>
     </g>
     <g id="line2d_13">
      <g>
       <use xlink:href="#m7a54759409" x="55.301563" y="247.969401" style="fill: #52616b; stroke: #52616b; stroke-width: 0.8"/>
      </g>
     </g>
     <g id="text_11">
      <!-- 40.0B -->
      <g style="fill: #52616b" transform="translate(25.000313 251.008776) scale(0.08 -0.08)">
       <defs>
        <path id="DejaVuSans-34" d="M 2419 4116 
L 825 1625 
L 2419 1625 
L 2419 4116 
z
M 2253 4666 
L 3047 4666 
L 3047 1625 
L 3713 1625 
L 3713 1100 
L 3047 1100 
L 3047 0 
L 2419 0 
L 2419 1100 
L 313 1100 
L 313 1709 
L 2253 4666 
z
" transform="scale(0.015625)"/>
       </defs>
       <use xlink:href="#DejaVuSans-34"/>
       <use xlink:href="#DejaVuSans-30" transform="translate(63.623047 0)"/>
       <use xlink:href="#DejaVuSans-2e" transform="translate(127.246094 0)"/>
       <use xlink:href="#DejaVuSans-30" transform="translate(159.033203 0)"/>
       <use xlink:href="#DejaVuSans-42" transform="translate(222.65625 0)"/>
      </g>
     </g>
    </g>
    <g id="ytick_4">
     <g id="line2d_14">
      <path d="M 55.301563 194.006101 
L 557.501563 194.006101 
" clip-path="url(#pc636c6b56c)" style="fill: none; stroke: #b0b0b0; stroke-opacity: 0.22; stroke-width: 0.7; stroke-linecap: square"/>
     </g>
     <g id="line2d_15">
      <g>
       <use xlink:href="#m7a54759409" x="55.301563" y="194.006101" style="fill: #52616b; stroke: #52616b; stroke-width: 0.8"/>
      </g>
     </g>
     <g id="text_12">
      <!-- 60.0B -->
      <g style="fill: #52616b" transform="translate(25.000313 197.045476) scale(0.08 -0.08)">
       <defs>
        <path id="DejaVuSans-36" d="M 2113 2584 
Q 1688 2584 1439 2293 
Q 1191 2003 1191 1497 
Q 1191 994 1439 701 
Q 1688 409 2113 409 
Q 2538 409 2786 701 
Q 3034 994 3034 1497 
Q 3034 2003 2786 2293 
Q 2538 2584 2113 2584 
z
M 3366 4563 
L 3366 3988 
Q 3128 4100 2886 4159 
Q 2644 4219 2406 4219 
Q 1781 4219 1451 3797 
Q 1122 3375 1075 2522 
Q 1259 2794 1537 2939 
Q 1816 3084 2150 3084 
Q 2853 3084 3261 2657 
Q 3669 2231 3669 1497 
Q 3669 778 3244 343 
Q 2819 -91 2113 -91 
Q 1303 -91 875 529 
Q 447 1150 447 2328 
Q 447 3434 972 4092 
Q 1497 4750 2381 4750 
Q 2619 4750 2861 4703 
Q 3103 4656 3366 4563 
z
" transform="scale(0.015625)"/>
       </defs>
       <use xlink:href="#DejaVuSans-36"/>
       <use xlink:href="#DejaVuSans-30" transform="translate(63.623047 0)"/>
       <use xlink:href="#DejaVuSans-2e" transform="translate(127.246094 0)"/>
       <use xlink:href="#DejaVuSans-30" transform="translate(159.033203 0)"/>
       <use xlink:href="#DejaVuSans-42" transform="translate(222.65625 0)"/>
      </g>
     </g>
    </g>
    <g id="ytick_5">
     <g id="line2d_16">
      <path d="M 55.301563 140.042802 
L 557.501563 140.042802 
" clip-path="url(#pc636c6b56c)" style="fill: none; stroke: #b0b0b0; stroke-opacity: 0.22; stroke-width: 0.7; stroke-linecap: square"/>
     </g>
     <g id="line2d_17">
      <g>
       <use xlink:href="#m7a54759409" x="55.301563" y="140.042802" style="fill: #52616b; stroke: #52616b; stroke-width: 0.8"/>
      </g>
     </g>
     <g id="text_13">
      <!-- 80.0B -->
      <g style="fill: #52616b" transform="translate(25.000313 143.082177) scale(0.08 -0.08)">
       <defs>
        <path id="DejaVuSans-38" d="M 2034 2216 
Q 1584 2216 1326 1975 
Q 1069 1734 1069 1313 
Q 1069 891 1326 650 
Q 1584 409 2034 409 
Q 2484 409 2743 651 
Q 3003 894 3003 1313 
Q 3003 1734 2745 1975 
Q 2488 2216 2034 2216 
z
M 1403 2484 
Q 997 2584 770 2862 
Q 544 3141 544 3541 
Q 544 4100 942 4425 
Q 1341 4750 2034 4750 
Q 2731 4750 3128 4425 
Q 3525 4100 3525 3541 
Q 3525 3141 3298 2862 
Q 3072 2584 2669 2484 
Q 3125 2378 3379 2068 
Q 3634 1759 3634 1313 
Q 3634 634 3220 271 
Q 2806 -91 2034 -91 
Q 1263 -91 848 271 
Q 434 634 434 1313 
Q 434 1759 690 2068 
Q 947 2378 1403 2484 
z
M 1172 3481 
Q 1172 3119 1398 2916 
Q 1625 2713 2034 2713 
Q 2441 2713 2670 2916 
Q 2900 3119 2900 3481 
Q 2900 3844 2670 4047 
Q 2441 4250 2034 4250 
Q 1625 4250 1398 4047 
Q 1172 3844 1172 3481 
z
" transform="scale(0.015625)"/>
       </defs>
       <use xlink:href="#DejaVuSans-38"/>
       <use xlink:href="#DejaVuSans-30" transform="translate(63.623047 0)"/>
       <use xlink:href="#DejaVuSans-2e" transform="translate(127.246094 0)"/>
       <use xlink:href="#DejaVuSans-30" transform="translate(159.033203 0)"/>
       <use xlink:href="#DejaVuSans-42" transform="translate(222.65625 0)"/>
      </g>
     </g>
    </g>
    <g id="ytick_6">
     <g id="line2d_18">
      <path d="M 55.301563 86.079502 
L 557.501563 86.079502 
" clip-path="url(#pc636c6b56c)" style="fill: none; stroke: #b0b0b0; stroke-opacity: 0.22; stroke-width: 0.7; stroke-linecap: square"/>
     </g>
     <g id="line2d_19">
      <g>
       <use xlink:href="#m7a54759409" x="55.301563" y="86.079502" style="fill: #52616b; stroke: #52616b; stroke-width: 0.8"/>
      </g>
     </g>
     <g id="text_14">
      <!-- 100.0B -->
      <g style="fill: #52616b" transform="translate(19.910313 89.118877) scale(0.08 -0.08)">
       <use xlink:href="#DejaVuSans-31"/>
       <use xlink:href="#DejaVuSans-30" transform="translate(63.623047 0)"/>
       <use xlink:href="#DejaVuSans-30" transform="translate(127.246094 0)"/>
       <use xlink:href="#DejaVuSans-2e" transform="translate(190.869141 0)"/>
       <use xlink:href="#DejaVuSans-30" transform="translate(222.65625 0)"/>
       <use xlink:href="#DejaVuSans-42" transform="translate(286.279297 0)"/>
      </g>
     </g>
    </g>
    <g id="text_15">
     <!-- Cumulative prime records -->
     <g style="fill: #1f2933" transform="translate(14.038594 268.106625) rotate(-90) scale(0.09 -0.09)">
      <defs>
       <path id="DejaVuSans-43" d="M 4122 4306 
L 4122 3641 
Q 3803 3938 3442 4084 
Q 3081 4231 2675 4231 
Q 1875 4231 1450 3742 
Q 1025 3253 1025 2328 
Q 1025 1406 1450 917 
Q 1875 428 2675 428 
Q 3081 428 3442 575 
Q 3803 722 4122 1019 
L 4122 359 
Q 3791 134 3420 21 
Q 3050 -91 2638 -91 
Q 1578 -91 968 557 
Q 359 1206 359 2328 
Q 359 3453 968 4101 
Q 1578 4750 2638 4750 
Q 3056 4750 3426 4639 
Q 3797 4528 4122 4306 
z
" transform="scale(0.015625)"/>
       <path id="DejaVuSans-76" d="M 191 3500 
L 800 3500 
L 1894 563 
L 2988 3500 
L 3597 3500 
L 2284 0 
L 1503 0 
L 191 3500 
z
" transform="scale(0.015625)"/>
       <path id="DejaVuSans-73" d="M 2834 3397 
L 2834 2853 
Q 2591 2978 2328 3040 
Q 2066 3103 1784 3103 
Q 1356 3103 1142 2972 
Q 928 2841 928 2578 
Q 928 2378 1081 2264 
Q 1234 2150 1697 2047 
L 1894 2003 
Q 2506 1872 2764 1633 
Q 3022 1394 3022 966 
Q 3022 478 2636 193 
Q 2250 -91 1575 -91 
Q 1294 -91 989 -36 
Q 684 19 347 128 
L 347 722 
Q 666 556 975 473 
Q 1284 391 1588 391 
Q 1994 391 2212 530 
Q 2431 669 2431 922 
Q 2431 1156 2273 1281 
Q 2116 1406 1581 1522 
L 1381 1569 
Q 847 1681 609 1914 
Q 372 2147 372 2553 
Q 372 3047 722 3315 
Q 1072 3584 1716 3584 
Q 2034 3584 2315 3537 
Q 2597 3491 2834 3397 
z
" transform="scale(0.015625)"/>
      </defs>
      <use xlink:href="#DejaVuSans-43"/>
      <use xlink:href="#DejaVuSans-75" transform="translate(69.824219 0)"/>
      <use xlink:href="#DejaVuSans-6d" transform="translate(133.203125 0)"/>
      <use xlink:href="#DejaVuSans-75" transform="translate(230.615234 0)"/>
      <use xlink:href="#DejaVuSans-6c" transform="translate(293.994141 0)"/>
      <use xlink:href="#DejaVuSans-61" transform="translate(321.777344 0)"/>
      <use xlink:href="#DejaVuSans-74" transform="translate(383.056641 0)"/>
      <use xlink:href="#DejaVuSans-69" transform="translate(422.265625 0)"/>
      <use xlink:href="#DejaVuSans-76" transform="translate(450.048828 0)"/>
      <use xlink:href="#DejaVuSans-65" transform="translate(509.228516 0)"/>
      <use xlink:href="#DejaVuSans-20" transform="translate(570.751953 0)"/>
      <use xlink:href="#DejaVuSans-70" transform="translate(602.539062 0)"/>
      <use xlink:href="#DejaVuSans-72" transform="translate(666.015625 0)"/>
      <use xlink:href="#DejaVuSans-69" transform="translate(707.128906 0)"/>
      <use xlink:href="#DejaVuSans-6d" transform="translate(734.912109 0)"/>
      <use xlink:href="#DejaVuSans-65" transform="translate(832.324219 0)"/>
      <use xlink:href="#DejaVuSans-20" transform="translate(893.847656 0)"/>
      <use xlink:href="#DejaVuSans-72" transform="translate(925.634766 0)"/>
      <use xlink:href="#DejaVuSans-65" transform="translate(964.498047 0)"/>
      <use xlink:href="#DejaVuSans-63" transform="translate(1026.021484 0)"/>
      <use xlink:href="#DejaVuSans-6f" transform="translate(1081.001953 0)"/>
      <use xlink:href="#DejaVuSans-72" transform="translate(1142.183594 0)"/>
      <use xlink:href="#DejaVuSans-64" transform="translate(1181.546875 0)"/>
      <use xlink:href="#DejaVuSans-73" transform="translate(1245.023438 0)"/>
     </g>
    </g>
   </g>
   <g id="FillBetweenPolyCollection_1">
    <defs>
     <path id="m33484027bf" d="M 56.975563 -62.7408 
L 56.975563 -63.968607 
L 58.649563 -65.121139 
L 60.323563 -66.24843 
L 61.997563 -67.359938 
L 63.671563 -68.459978 
L 65.345562 -69.551071 
L 67.019563 -70.63482 
L 68.693563 -71.712358 
L 70.367563 -72.784528 
L 72.041563 -73.851991 
L 73.715563 -74.915204 
L 75.389563 -75.97465 
L 77.063563 -77.030655 
L 78.737563 -78.083446 
L 80.411563 -79.133334 
L 82.085563 -80.180481 
L 83.759563 -81.225094 
L 85.433563 -82.267361 
L 87.107563 -83.307361 
L 88.781563 -84.34529 
L 90.455563 -85.381196 
L 92.129563 -86.415216 
L 93.803563 -87.447432 
L 95.477563 -88.477974 
L 97.151563 -89.506811 
L 98.825563 -90.534123 
L 100.499563 -91.559922 
L 102.173563 -92.584282 
L 103.847563 -93.607254 
L 105.521563 -94.628899 
L 107.195563 -95.649249 
L 108.869563 -96.668359 
L 110.543563 -97.686289 
L 112.217563 -98.703024 
L 113.891563 -99.718628 
L 115.565563 -100.733154 
L 117.239563 -101.746612 
L 118.913563 -102.759052 
L 120.587563 -103.770475 
L 122.261563 -104.780924 
L 123.935563 -105.790464 
L 125.609563 -106.79906 
L 127.283563 -107.806767 
L 128.957563 -108.813622 
L 130.631563 -109.819592 
L 132.305563 -110.824734 
L 133.979563 -111.829068 
L 135.653563 -112.832578 
L 137.327562 -113.835346 
L 139.001563 -114.837337 
L 140.675563 -115.83861 
L 142.349563 -116.839137 
L 144.023563 -117.838962 
L 145.697563 -118.83809 
L 147.371563 -119.836505 
L 149.045563 -120.834275 
L 150.719562 -121.831368 
L 152.393563 -122.827821 
L 154.067563 -123.823629 
L 155.741563 -124.818836 
L 157.415563 -125.813409 
L 159.089563 -126.807392 
L 160.763563 -127.800793 
L 162.437563 -128.793597 
L 164.111563 -129.785849 
L 165.785563 -130.777525 
L 167.459563 -131.768668 
L 169.133563 -132.75927 
L 170.807563 -133.749302 
L 172.481563 -134.738835 
L 174.155563 -135.727854 
L 175.829563 -136.71632 
L 177.503563 -137.704339 
L 179.177563 -138.691845 
L 180.851563 -139.678889 
L 182.525563 -140.665418 
L 184.199563 -141.651487 
L 185.873563 -142.637087 
L 187.547563 -143.62218 
L 189.221563 -144.606859 
L 190.895563 -145.591093 
L 192.569563 -146.574891 
L 194.243563 -147.558226 
L 195.917563 -148.54113 
L 197.591563 -149.523621 
L 199.265563 -150.505691 
L 200.939563 -151.487325 
L 202.613563 -152.468573 
L 204.287563 -153.449397 
L 205.961563 -154.429809 
L 207.635563 -155.40986 
L 209.309563 -156.38952 
L 210.983563 -157.368761 
L 212.657563 -158.347648 
L 214.331563 -159.326173 
L 216.005563 -160.304302 
L 217.679563 -161.282042 
L 219.353563 -162.259435 
L 221.027563 -163.236476 
L 222.701563 -164.213151 
L 224.375563 -165.189456 
L 226.049563 -166.165409 
L 227.723563 -167.14103 
L 229.397563 -168.116308 
L 231.071563 -169.091269 
L 232.745563 -170.065884 
L 234.419563 -171.040183 
L 236.093563 -172.014121 
L 237.767563 -172.987763 
L 239.441563 -173.961058 
L 241.115563 -174.934011 
L 242.789563 -175.906683 
L 244.463563 -176.879047 
L 246.137563 -177.851081 
L 247.811563 -178.822844 
L 249.485563 -179.794312 
L 251.159563 -180.765448 
L 252.833563 -181.736246 
L 254.507563 -182.70677 
L 256.181563 -183.677009 
L 257.855563 -184.646978 
L 259.529563 -185.61665 
L 261.203563 -186.586019 
L 262.877563 -187.555109 
L 264.551563 -188.523954 
L 266.225563 -189.492468 
L 267.899563 -190.460723 
L 269.573563 -191.42872 
L 271.247563 -192.396424 
L 272.921563 -193.363858 
L 274.595563 -194.331029 
L 276.269563 -195.297932 
L 277.943563 -196.264588 
L 279.617563 -197.231005 
L 281.291563 -198.197119 
L 282.965563 -199.162985 
L 284.639563 -200.128639 
L 286.313563 -201.094046 
L 287.987563 -202.059142 
L 289.661563 -203.024008 
L 291.335563 -203.988627 
L 293.009563 -204.952994 
L 294.683563 -205.917178 
L 296.357563 -206.881074 
L 298.031563 -207.844741 
L 299.705563 -208.808162 
L 301.379563 -209.771357 
L 303.053563 -210.734274 
L 304.727563 -211.697008 
L 306.401563 -212.659507 
L 308.075563 -213.621769 
L 309.749563 -214.583799 
L 311.423563 -215.545613 
L 313.097563 -216.507185 
L 314.771563 -217.468546 
L 316.445563 -218.429694 
L 318.119563 -219.390635 
L 319.793563 -220.351311 
L 321.467563 -221.311798 
L 323.141563 -222.27205 
L 324.815563 -223.232087 
L 326.489563 -224.191948 
L 328.163563 -225.151571 
L 329.837563 -226.110993 
L 331.511563 -227.070237 
L 333.185563 -228.029221 
L 334.859563 -228.988034 
L 336.533563 -229.94662 
L 338.207563 -230.905048 
L 339.881563 -231.863259 
L 341.555563 -232.821263 
L 343.229563 -233.779056 
L 344.903563 -234.736678 
L 346.577563 -235.694037 
L 348.251563 -236.651235 
L 349.925563 -237.608272 
L 351.599563 -238.565137 
L 353.273563 -239.521752 
L 354.947563 -240.478203 
L 356.621563 -241.434488 
L 358.295563 -242.390554 
L 359.969563 -243.346443 
L 361.643563 -244.302141 
L 363.317563 -245.257649 
L 364.991563 -246.21296 
L 366.665563 -247.168118 
L 368.339563 -248.12305 
L 370.013563 -249.077833 
L 371.687563 -250.032411 
L 373.361563 -250.986821 
L 375.035563 -251.941064 
L 376.709563 -252.895095 
L 378.383563 -253.848987 
L 380.057563 -254.802744 
L 381.731563 -255.756234 
L 383.405563 -256.709629 
L 385.079563 -257.66283 
L 386.753563 -258.615837 
L 388.427563 -259.56872 
L 390.101563 -260.521409 
L 391.775563 -261.473955 
L 393.449563 -262.426307 
L 395.123563 -263.378471 
L 396.797563 -264.33052 
L 398.471563 -265.282387 
L 400.145563 -266.234081 
L 401.819563 -267.185598 
L 403.493563 -268.136958 
L 405.167563 -269.088162 
L 406.841563 -270.039208 
L 408.515563 -270.990071 
L 410.189563 -271.940759 
L 411.863563 -272.891355 
L 413.537563 -273.841783 
L 415.211563 -274.792013 
L 416.885563 -275.742099 
L 418.559563 -276.692036 
L 420.233563 -277.64181 
L 421.907563 -278.591436 
L 423.581563 -279.540894 
L 425.255563 -280.490235 
L 426.929563 -281.439406 
L 428.603563 -282.388412 
L 430.277563 -283.337304 
L 431.951563 -284.286032 
L 433.625563 -285.234639 
L 435.299563 -286.18308 
L 436.973563 -287.131373 
L 438.647563 -288.079525 
L 440.321563 -289.027507 
L 441.995563 -289.975352 
L 443.669563 -290.923031 
L 445.343563 -291.870588 
L 447.017563 -292.818007 
L 448.691563 -293.765288 
L 450.365563 -294.712428 
L 452.039563 -295.659432 
L 453.713563 -296.606291 
L 455.387563 -297.553023 
L 457.061563 -298.49963 
L 458.735563 -299.446057 
L 460.409563 -300.392372 
L 462.083563 -301.338549 
L 463.757563 -302.284557 
L 465.431563 -303.230441 
L 467.105563 -304.176214 
L 468.779563 -305.121809 
L 470.453563 -306.067317 
L 472.127563 -307.012687 
L 473.801563 -307.957901 
L 475.475563 -308.902985 
L 477.149563 -309.847968 
L 478.823563 -310.792789 
L 480.497563 -311.7375 
L 482.171563 -312.682065 
L 483.845563 -313.626473 
L 485.519563 -314.570769 
L 487.193563 -315.514951 
L 488.867563 -316.458995 
L 490.541563 -317.402912 
L 492.215563 -318.346695 
L 493.889563 -319.29037 
L 495.563563 -320.233921 
L 497.237563 -321.177338 
L 498.911563 -322.120605 
L 500.585563 -323.063798 
L 502.259563 -324.006841 
L 503.933563 -324.94975 
L 505.607563 -325.892579 
L 507.281563 -326.835246 
L 508.955563 -327.777792 
L 510.629563 -328.720214 
L 512.303563 -329.662531 
L 513.977563 -330.604732 
L 515.651563 -331.546824 
L 517.325563 -332.48879 
L 518.999563 -333.430614 
L 520.673563 -334.372343 
L 522.347563 -335.313933 
L 524.021563 -336.255363 
L 525.695563 -337.196746 
L 527.369563 -338.137993 
L 529.043563 -339.079087 
L 530.717563 -340.020113 
L 532.391563 -340.960983 
L 534.065563 -341.901736 
L 535.739563 -342.842446 
L 537.413563 -343.783008 
L 539.087563 -344.723451 
L 540.761563 -345.663757 
L 542.435563 -346.603966 
L 544.109563 -347.544072 
L 545.783563 -348.48405 
L 547.457563 -349.423929 
L 549.131563 -350.363705 
L 550.805563 -351.30337 
L 552.479563 -352.242877 
L 554.153563 -353.182288 
L 555.827563 -354.121607 
L 557.501563 -355.0608 
L 557.501563 -62.7408 
L 557.501563 -62.7408 
L 555.827563 -62.7408 
L 554.153563 -62.7408 
L 552.479563 -62.7408 
L 550.805563 -62.7408 
L 549.131563 -62.7408 
L 547.457563 -62.7408 
L 545.783563 -62.7408 
L 544.109563 -62.7408 
L 542.435563 -62.7408 
L 540.761563 -62.7408 
L 539.087563 -62.7408 
L 537.413563 -62.7408 
L 535.739563 -62.7408 
L 534.065563 -62.7408 
L 532.391563 -62.7408 
L 530.717563 -62.7408 
L 529.043563 -62.7408 
L 527.369563 -62.7408 
L 525.695563 -62.7408 
L 524.021563 -62.7408 
L 522.347563 -62.7408 
L 520.673563 -62.7408 
L 518.999563 -62.7408 
L 517.325563 -62.7408 
L 515.651563 -62.7408 
L 513.977563 -62.7408 
L 512.303563 -62.7408 
L 510.629563 -62.7408 
L 508.955563 -62.7408 
L 507.281563 -62.7408 
L 505.607563 -62.7408 
L 503.933563 -62.7408 
L 502.259563 -62.7408 
L 500.585563 -62.7408 
L 498.911563 -62.7408 
L 497.237563 -62.7408 
L 495.563563 -62.7408 
L 493.889563 -62.7408 
L 492.215563 -62.7408 
L 490.541563 -62.7408 
L 488.867563 -62.7408 
L 487.193563 -62.7408 
L 485.519563 -62.7408 
L 483.845563 -62.7408 
L 482.171563 -62.7408 
L 480.497563 -62.7408 
L 478.823563 -62.7408 
L 477.149563 -62.7408 
L 475.475563 -62.7408 
L 473.801563 -62.7408 
L 472.127563 -62.7408 
L 470.453563 -62.7408 
L 468.779563 -62.7408 
L 467.105563 -62.7408 
L 465.431563 -62.7408 
L 463.757563 -62.7408 
L 462.083563 -62.7408 
L 460.409563 -62.7408 
L 458.735563 -62.7408 
L 457.061563 -62.7408 
L 455.387563 -62.7408 
L 453.713563 -62.7408 
L 452.039563 -62.7408 
L 450.365563 -62.7408 
L 448.691563 -62.7408 
L 447.017563 -62.7408 
L 445.343563 -62.7408 
L 443.669563 -62.7408 
L 441.995563 -62.7408 
L 440.321563 -62.7408 
L 438.647563 -62.7408 
L 436.973563 -62.7408 
L 435.299563 -62.7408 
L 433.625563 -62.7408 
L 431.951563 -62.7408 
L 430.277563 -62.7408 
L 428.603563 -62.7408 
L 426.929563 -62.7408 
L 425.255563 -62.7408 
L 423.581563 -62.7408 
L 421.907563 -62.7408 
L 420.233563 -62.7408 
L 418.559563 -62.7408 
L 416.885563 -62.7408 
L 415.211563 -62.7408 
L 413.537563 -62.7408 
L 411.863563 -62.7408 
L 410.189563 -62.7408 
L 408.515563 -62.7408 
L 406.841563 -62.7408 
L 405.167563 -62.7408 
L 403.493563 -62.7408 
L 401.819563 -62.7408 
L 400.145563 -62.7408 
L 398.471563 -62.7408 
L 396.797563 -62.7408 
L 395.123563 -62.7408 
L 393.449563 -62.7408 
L 391.775563 -62.7408 
L 390.101563 -62.7408 
L 388.427563 -62.7408 
L 386.753563 -62.7408 
L 385.079563 -62.7408 
L 383.405563 -62.7408 
L 381.731563 -62.7408 
L 380.057563 -62.7408 
L 378.383563 -62.7408 
L 376.709563 -62.7408 
L 375.035563 -62.7408 
L 373.361563 -62.7408 
L 371.687563 -62.7408 
L 370.013563 -62.7408 
L 368.339563 -62.7408 
L 366.665563 -62.7408 
L 364.991563 -62.7408 
L 363.317563 -62.7408 
L 361.643563 -62.7408 
L 359.969563 -62.7408 
L 358.295563 -62.7408 
L 356.621563 -62.7408 
L 354.947563 -62.7408 
L 353.273563 -62.7408 
L 351.599563 -62.7408 
L 349.925563 -62.7408 
L 348.251563 -62.7408 
L 346.577563 -62.7408 
L 344.903563 -62.7408 
L 343.229563 -62.7408 
L 341.555563 -62.7408 
L 339.881563 -62.7408 
L 338.207563 -62.7408 
L 336.533563 -62.7408 
L 334.859563 -62.7408 
L 333.185563 -62.7408 
L 331.511563 -62.7408 
L 329.837563 -62.7408 
L 328.163563 -62.7408 
L 326.489563 -62.7408 
L 324.815563 -62.7408 
L 323.141563 -62.7408 
L 321.467563 -62.7408 
L 319.793563 -62.7408 
L 318.119563 -62.7408 
L 316.445563 -62.7408 
L 314.771563 -62.7408 
L 313.097563 -62.7408 
L 311.423563 -62.7408 
L 309.749563 -62.7408 
L 308.075563 -62.7408 
L 306.401563 -62.7408 
L 304.727563 -62.7408 
L 303.053563 -62.7408 
L 301.379563 -62.7408 
L 299.705563 -62.7408 
L 298.031563 -62.7408 
L 296.357563 -62.7408 
L 294.683563 -62.7408 
L 293.009563 -62.7408 
L 291.335563 -62.7408 
L 289.661563 -62.7408 
L 287.987563 -62.7408 
L 286.313563 -62.7408 
L 284.639563 -62.7408 
L 282.965563 -62.7408 
L 281.291563 -62.7408 
L 279.617563 -62.7408 
L 277.943563 -62.7408 
L 276.269563 -62.7408 
L 274.595563 -62.7408 
L 272.921563 -62.7408 
L 271.247563 -62.7408 
L 269.573563 -62.7408 
L 267.899563 -62.7408 
L 266.225563 -62.7408 
L 264.551563 -62.7408 
L 262.877563 -62.7408 
L 261.203563 -62.7408 
L 259.529563 -62.7408 
L 257.855563 -62.7408 
L 256.181563 -62.7408 
L 254.507563 -62.7408 
L 252.833563 -62.7408 
L 251.159563 -62.7408 
L 249.485563 -62.7408 
L 247.811563 -62.7408 
L 246.137563 -62.7408 
L 244.463563 -62.7408 
L 242.789563 -62.7408 
L 241.115563 -62.7408 
L 239.441563 -62.7408 
L 237.767563 -62.7408 
L 236.093563 -62.7408 
L 234.419563 -62.7408 
L 232.745563 -62.7408 
L 231.071563 -62.7408 
L 229.397563 -62.7408 
L 227.723563 -62.7408 
L 226.049563 -62.7408 
L 224.375563 -62.7408 
L 222.701563 -62.7408 
L 221.027563 -62.7408 
L 219.353563 -62.7408 
L 217.679563 -62.7408 
L 216.005563 -62.7408 
L 214.331563 -62.7408 
L 212.657563 -62.7408 
L 210.983563 -62.7408 
L 209.309563 -62.7408 
L 207.635563 -62.7408 
L 205.961563 -62.7408 
L 204.287563 -62.7408 
L 202.613563 -62.7408 
L 200.939563 -62.7408 
L 199.265563 -62.7408 
L 197.591563 -62.7408 
L 195.917563 -62.7408 
L 194.243563 -62.7408 
L 192.569563 -62.7408 
L 190.895563 -62.7408 
L 189.221563 -62.7408 
L 187.547563 -62.7408 
L 185.873563 -62.7408 
L 184.199563 -62.7408 
L 182.525563 -62.7408 
L 180.851563 -62.7408 
L 179.177563 -62.7408 
L 177.503563 -62.7408 
L 175.829563 -62.7408 
L 174.155563 -62.7408 
L 172.481563 -62.7408 
L 170.807563 -62.7408 
L 169.133563 -62.7408 
L 167.459563 -62.7408 
L 165.785563 -62.7408 
L 164.111563 -62.7408 
L 162.437563 -62.7408 
L 160.763563 -62.7408 
L 159.089563 -62.7408 
L 157.415563 -62.7408 
L 155.741563 -62.7408 
L 154.067563 -62.7408 
L 152.393563 -62.7408 
L 150.719562 -62.7408 
L 149.045563 -62.7408 
L 147.371563 -62.7408 
L 145.697563 -62.7408 
L 144.023563 -62.7408 
L 142.349563 -62.7408 
L 140.675563 -62.7408 
L 139.001563 -62.7408 
L 137.327562 -62.7408 
L 135.653563 -62.7408 
L 133.979563 -62.7408 
L 132.305563 -62.7408 
L 130.631563 -62.7408 
L 128.957563 -62.7408 
L 127.283563 -62.7408 
L 125.609563 -62.7408 
L 123.935563 -62.7408 
L 122.261563 -62.7408 
L 120.587563 -62.7408 
L 118.913563 -62.7408 
L 117.239563 -62.7408 
L 115.565563 -62.7408 
L 113.891563 -62.7408 
L 112.217563 -62.7408 
L 110.543563 -62.7408 
L 108.869563 -62.7408 
L 107.195563 -62.7408 
L 105.521563 -62.7408 
L 103.847563 -62.7408 
L 102.173563 -62.7408 
L 100.499563 -62.7408 
L 98.825563 -62.7408 
L 97.151563 -62.7408 
L 95.477563 -62.7408 
L 93.803563 -62.7408 
L 92.129563 -62.7408 
L 90.455563 -62.7408 
L 88.781563 -62.7408 
L 87.107563 -62.7408 
L 85.433563 -62.7408 
L 83.759563 -62.7408 
L 82.085563 -62.7408 
L 80.411563 -62.7408 
L 78.737563 -62.7408 
L 77.063563 -62.7408 
L 75.389563 -62.7408 
L 73.715563 -62.7408 
L 72.041563 -62.7408 
L 70.367563 -62.7408 
L 68.693563 -62.7408 
L 67.019563 -62.7408 
L 65.345562 -62.7408 
L 63.671563 -62.7408 
L 61.997563 -62.7408 
L 60.323563 -62.7408 
L 58.649563 -62.7408 
L 56.975563 -62.7408 
z
" style="stroke: #1f77b4; stroke-opacity: 0.08"/>
    </defs>
    <g clip-path="url(#pc636c6b56c)">
     <use xlink:href="#m33484027bf" x="0" y="418.6368" style="fill: #1f77b4; fill-opacity: 0.08; stroke: #1f77b4; stroke-opacity: 0.08"/>
    </g>
   </g>
   <g id="line2d_20">
    <path d="M 56.975563 354.668193 
L 63.671563 350.176822 
L 75.389563 342.66215 
L 92.129563 332.221584 
L 113.891563 318.918172 
L 142.349563 301.797663 
L 175.829563 281.92048 
L 216.005563 258.332498 
L 262.877563 231.081691 
L 314.771563 201.168254 
L 373.361563 167.649979 
L 438.647563 130.557275 
L 510.629563 89.916586 
L 557.501563 63.576 
L 557.501563 63.576 
" clip-path="url(#pc636c6b56c)" style="fill: none; stroke: #1f77b4; stroke-width: 1.7; stroke-linecap: square"/>
   </g>
   <g id="patch_3">
    <path d="M 55.301563 370.512 
L 55.301563 48.96 
" style="fill: none; stroke: #9fb3c8; stroke-width: 0.8; stroke-linejoin: miter; stroke-linecap: square"/>
   </g>
   <g id="patch_4">
    <path d="M 55.301563 370.512 
L 557.501563 370.512 
" style="fill: none; stroke: #9fb3c8; stroke-width: 0.8; stroke-linejoin: miter; stroke-linecap: square"/>
   </g>
   <g id="text_16">
    <!-- Measured growth of canonical prime records and their uint64 payload over the interval 1 ≤ n ≤ 3×10¹² -->
    <g style="fill: #52616b" transform="translate(73.774766 36.96) scale(0.09 -0.09)">
     <defs>
      <path id="DejaVuSans-4d" d="M 628 4666 
L 1569 4666 
L 2759 1491 
L 3956 4666 
L 4897 4666 
L 4897 0 
L 4281 0 
L 4281 4097 
L 3078 897 
L 2444 897 
L 1241 4097 
L 1241 0 
L 628 0 
L 628 4666 
z
" transform="scale(0.015625)"/>
      <path id="DejaVuSans-67" d="M 2906 1791 
Q 2906 2416 2648 2759 
Q 2391 3103 1925 3103 
Q 1463 3103 1205 2759 
Q 947 2416 947 1791 
Q 947 1169 1205 825 
Q 1463 481 1925 481 
Q 2391 481 2648 825 
Q 2906 1169 2906 1791 
z
M 3481 434 
Q 3481 -459 3084 -895 
Q 2688 -1331 1869 -1331 
Q 1566 -1331 1297 -1286 
Q 1028 -1241 775 -1147 
L 775 -588 
Q 1028 -725 1275 -790 
Q 1522 -856 1778 -856 
Q 2344 -856 2625 -561 
Q 2906 -266 2906 331 
L 2906 616 
Q 2728 306 2450 153 
Q 2172 0 1784 0 
Q 1141 0 747 490 
Q 353 981 353 1791 
Q 353 2603 747 3093 
Q 1141 3584 1784 3584 
Q 2172 3584 2450 3431 
Q 2728 3278 2906 2969 
L 2906 3500 
L 3481 3500 
L 3481 434 
z
" transform="scale(0.015625)"/>
      <path id="DejaVuSans-77" d="M 269 3500 
L 844 3500 
L 1563 769 
L 2278 3500 
L 2956 3500 
L 3675 769 
L 4391 3500 
L 4966 3500 
L 4050 0 
L 3372 0 
L 2619 2869 
L 1863 0 
L 1184 0 
L 269 3500 
z
" transform="scale(0.015625)"/>
      <path id="DejaVuSans-68" d="M 3513 2113 
L 3513 0 
L 2938 0 
L 2938 2094 
Q 2938 2591 2744 2837 
Q 2550 3084 2163 3084 
Q 1697 3084 1428 2787 
Q 1159 2491 1159 1978 
L 1159 0 
L 581 0 
L 581 4863 
L 1159 4863 
L 1159 2956 
Q 1366 3272 1645 3428 
Q 1925 3584 2291 3584 
Q 2894 3584 3203 3211 
Q 3513 2838 3513 2113 
z
" transform="scale(0.015625)"/>
      <path id="DejaVuSans-66" d="M 2375 4863 
L 2375 4384 
L 1825 4384 
Q 1516 4384 1395 4259 
Q 1275 4134 1275 3809 
L 1275 3500 
L 2222 3500 
L 2222 3053 
L 1275 3053 
L 1275 0 
L 697 0 
L 697 3053 
L 147 3053 
L 147 3500 
L 697 3500 
L 697 3744 
Q 697 4328 969 4595 
Q 1241 4863 1831 4863 
L 2375 4863 
z
" transform="scale(0.015625)"/>
      <path id="DejaVuSans-79" d="M 2059 -325 
Q 1816 -950 1584 -1140 
Q 1353 -1331 966 -1331 
L 506 -1331 
L 506 -850 
L 844 -850 
Q 1081 -850 1212 -737 
Q 1344 -625 1503 -206 
L 1606 56 
L 191 3500 
L 800 3500 
L 1894 763 
L 2988 3500 
L 3597 3500 
L 2059 -325 
z
" transform="scale(0.015625)"/>
      <path id="DejaVuSans-2264" d="M 4684 3175 
L 1684 2309 
L 4684 1453 
L 4684 897 
L 678 2047 
L 678 2578 
L 4684 3725 
L 4684 3175 
z
M 678 531 
L 4684 531 
L 4684 0 
L 678 0 
L 678 531 
z
" transform="scale(0.015625)"/>
      <path id="DejaVuSans-d7" d="M 4488 3438 
L 3059 2003 
L 4488 575 
L 4116 197 
L 2681 1631 
L 1247 197 
L 878 575 
L 2303 2003 
L 878 3438 
L 1247 3816 
L 2681 2381 
L 4116 3816 
L 4488 3438 
z
" transform="scale(0.015625)"/>
      <path id="DejaVuSans-b9" d="M 488 2431 
L 1125 2431 
L 1125 4341 
L 428 4213 
L 428 4575 
L 1147 4697 
L 1575 4697 
L 1575 2431 
L 2216 2431 
L 2216 2088 
L 488 2088 
L 488 2431 
z
" transform="scale(0.015625)"/>
      <path id="DejaVuSans-b2" d="M 838 2444 
L 2163 2444 
L 2163 2088 
L 294 2088 
L 294 2431 
Q 400 2528 597 2703 
Q 1672 3656 1672 3950 
Q 1672 4156 1509 4282 
Q 1347 4409 1081 4409 
Q 919 4409 728 4354 
Q 538 4300 313 4191 
L 313 4575 
Q 553 4663 761 4706 
Q 969 4750 1147 4750 
Q 1600 4750 1872 4544 
Q 2144 4338 2144 4000 
Q 2144 3566 1109 2678 
Q 934 2528 838 2444 
z
" transform="scale(0.015625)"/>
     </defs>
     <use xlink:href="#DejaVuSans-4d"/>
     <use xlink:href="#DejaVuSans-65" transform="translate(86.279297 0)"/>
     <use xlink:href="#DejaVuSans-61" transform="translate(147.802734 0)"/>
     <use xlink:href="#DejaVuSans-73" transform="translate(209.082031 0)"/>
     <use xlink:href="#DejaVuSans-75" transform="translate(261.181641 0)"/>
     <use xlink:href="#DejaVuSans-72" transform="translate(324.560547 0)"/>
     <use xlink:href="#DejaVuSans-65" transform="translate(363.423828 0)"/>
     <use xlink:href="#DejaVuSans-64" transform="translate(424.947266 0)"/>
     <use xlink:href="#DejaVuSans-20" transform="translate(488.423828 0)"/>
     <use xlink:href="#DejaVuSans-67" transform="translate(520.210938 0)"/>
     <use xlink:href="#DejaVuSans-72" transform="translate(583.6875 0)"/>
     <use xlink:href="#DejaVuSans-6f" transform="translate(622.550781 0)"/>
     <use xlink:href="#DejaVuSans-77" transform="translate(683.732422 0)"/>
     <use xlink:href="#DejaVuSans-74" transform="translate(765.519531 0)"/>
     <use xlink:href="#DejaVuSans-68" transform="translate(804.728516 0)"/>
     <use xlink:href="#DejaVuSans-20" transform="translate(868.107422 0)"/>
     <use xlink:href="#DejaVuSans-6f" transform="translate(899.894531 0)"/>
     <use xlink:href="#DejaVuSans-66" transform="translate(961.076172 0)"/>
     <use xlink:href="#DejaVuSans-20" transform="translate(996.28125 0)"/>
     <use xlink:href="#DejaVuSans-63" transform="translate(1028.068359 0)"/>
     <use xlink:href="#DejaVuSans-61" transform="translate(1083.048828 0)"/>
     <use xlink:href="#DejaVuSans-6e" transform="translate(1144.328125 0)"/>
     <use xlink:href="#DejaVuSans-6f" transform="translate(1207.707031 0)"/>
     <use xlink:href="#DejaVuSans-6e" transform="translate(1268.888672 0)"/>
     <use xlink:href="#DejaVuSans-69" transform="translate(1332.267578 0)"/>
     <use xlink:href="#DejaVuSans-63" transform="translate(1360.050781 0)"/>
     <use xlink:href="#DejaVuSans-61" transform="translate(1415.03125 0)"/>
     <use xlink:href="#DejaVuSans-6c" transform="translate(1476.310547 0)"/>
     <use xlink:href="#DejaVuSans-20" transform="translate(1504.09375 0)"/>
     <use xlink:href="#DejaVuSans-70" transform="translate(1535.880859 0)"/>
     <use xlink:href="#DejaVuSans-72" transform="translate(1599.357422 0)"/>
     <use xlink:href="#DejaVuSans-69" transform="translate(1640.470703 0)"/>
     <use xlink:href="#DejaVuSans-6d" transform="translate(1668.253906 0)"/>
     <use xlink:href="#DejaVuSans-65" transform="translate(1765.666016 0)"/>
     <use xlink:href="#DejaVuSans-20" transform="translate(1827.189453 0)"/>
     <use xlink:href="#DejaVuSans-72" transform="translate(1858.976562 0)"/>
     <use xlink:href="#DejaVuSans-65" transform="translate(1897.839844 0)"/>
     <use xlink:href="#DejaVuSans-63" transform="translate(1959.363281 0)"/>
     <use xlink:href="#DejaVuSans-6f" transform="translate(2014.34375 0)"/>
     <use xlink:href="#DejaVuSans-72" transform="translate(2075.525391 0)"/>
     <use xlink:href="#DejaVuSans-64" transform="translate(2114.888672 0)"/>
     <use xlink:href="#DejaVuSans-73" transform="translate(2178.365234 0)"/>
     <use xlink:href="#DejaVuSans-20" transform="translate(2230.464844 0)"/>
     <use xlink:href="#DejaVuSans-61" transform="translate(2262.251953 0)"/>
     <use xlink:href="#DejaVuSans-6e" transform="translate(2323.53125 0)"/>
     <use xlink:href="#DejaVuSans-64" transform="translate(2386.910156 0)"/>
     <use xlink:href="#DejaVuSans-20" transform="translate(2450.386719 0)"/>
     <use xlink:href="#DejaVuSans-74" transform="translate(2482.173828 0)"/>
     <use xlink:href="#DejaVuSans-68" transform="translate(2521.382812 0)"/>
     <use xlink:href="#DejaVuSans-65" transform="translate(2584.761719 0)"/>
     <use xlink:href="#DejaVuSans-69" transform="translate(2646.285156 0)"/>
     <use xlink:href="#DejaVuSans-72" transform="translate(2674.068359 0)"/>
     <use xlink:href="#DejaVuSans-20" transform="translate(2715.181641 0)"/>
     <use xlink:href="#DejaVuSans-75" transform="translate(2746.96875 0)"/>
     <use xlink:href="#DejaVuSans-69" transform="translate(2810.347656 0)"/>
     <use xlink:href="#DejaVuSans-6e" transform="translate(2838.130859 0)"/>
     <use xlink:href="#DejaVuSans-74" transform="translate(2901.509766 0)"/>
     <use xlink:href="#DejaVuSans-36" transform="translate(2940.71875 0)"/>
     <use xlink:href="#DejaVuSans-34" transform="translate(3004.341797 0)"/>
     <use xlink:href="#DejaVuSans-20" transform="translate(3067.964844 0)"/>
     <use xlink:href="#DejaVuSans-70" transform="translate(3099.751953 0)"/>
     <use xlink:href="#DejaVuSans-61" transform="translate(3163.228516 0)"/>
     <use xlink:href="#DejaVuSans-79" transform="translate(3224.507812 0)"/>
     <use xlink:href="#DejaVuSans-6c" transform="translate(3283.6875 0)"/>
     <use xlink:href="#DejaVuSans-6f" transform="translate(3311.470703 0)"/>
     <use xlink:href="#DejaVuSans-61" transform="translate(3372.652344 0)"/>
     <use xlink:href="#DejaVuSans-64" transform="translate(3433.931641 0)"/>
     <use xlink:href="#DejaVuSans-20" transform="translate(3497.408203 0)"/>
     <use xlink:href="#DejaVuSans-6f" transform="translate(3529.195312 0)"/>
     <use xlink:href="#DejaVuSans-76" transform="translate(3590.376953 0)"/>
     <use xlink:href="#DejaVuSans-65" transform="translate(3649.556641 0)"/>
     <use xlink:href="#DejaVuSans-72" transform="translate(3711.080078 0)"/>
     <use xlink:href="#DejaVuSans-20" transform="translate(3752.193359 0)"/>
     <use xlink:href="#DejaVuSans-74" transform="translate(3783.980469 0)"/>
     <use xlink:href="#DejaVuSans-68" transform="translate(3823.189453 0)"/>
     <use xlink:href="#DejaVuSans-65" transform="translate(3886.568359 0)"/>
     <use xlink:href="#DejaVuSans-20" transform="translate(3948.091797 0)"/>
     <use xlink:href="#DejaVuSans-69" transform="translate(3979.878906 0)"/>
     <use xlink:href="#DejaVuSans-6e" transform="translate(4007.662109 0)"/>
     <use xlink:href="#DejaVuSans-74" transform="translate(4071.041016 0)"/>
     <use xlink:href="#DejaVuSans-65" transform="translate(4110.25 0)"/>
     <use xlink:href="#DejaVuSans-72" transform="translate(4171.773438 0)"/>
     <use xlink:href="#DejaVuSans-76" transform="translate(4212.886719 0)"/>
     <use xlink:href="#DejaVuSans-61" transform="translate(4272.066406 0)"/>
     <use xlink:href="#DejaVuSans-6c" transform="translate(4333.345703 0)"/>
     <use xlink:href="#DejaVuSans-20" transform="translate(4361.128906 0)"/>
     <use xlink:href="#DejaVuSans-31" transform="translate(4392.916016 0)"/>
     <use xlink:href="#DejaVuSans-20" transform="translate(4456.539062 0)"/>
     <use xlink:href="#DejaVuSans-2264" transform="translate(4488.326172 0)"/>
     <use xlink:href="#DejaVuSans-20" transform="translate(4572.115234 0)"/>
     <use xlink:href="#DejaVuSans-6e" transform="translate(4603.902344 0)"/>
     <use xlink:href="#DejaVuSans-20" transform="translate(4667.28125 0)"/>
     <use xlink:href="#DejaVuSans-2264" transform="translate(4699.068359 0)"/>
     <use xlink:href="#DejaVuSans-20" transform="translate(4782.857422 0)"/>
     <use xlink:href="#DejaVuSans-33" transform="translate(4814.644531 0)"/>
     <use xlink:href="#DejaVuSans-d7" transform="translate(4878.267578 0)"/>
     <use xlink:href="#DejaVuSans-31" transform="translate(4962.056641 0)"/>
     <use xlink:href="#DejaVuSans-30" transform="translate(5025.679688 0)"/>
     <use xlink:href="#DejaVuSans-b9" transform="translate(5089.302734 0)"/>
     <use xlink:href="#DejaVuSans-b2" transform="translate(5129.390625 0)"/>
    </g>
   </g>
   <g id="legend_1">
    <g id="line2d_21">
     <path d="M 62.501563 59.43875 
L 70.501563 59.43875 
L 78.501563 59.43875 
" style="fill: none; stroke: #1f77b4; stroke-width: 1.7; stroke-linecap: square"/>
    </g>
    <g id="text_17">
     <!-- Cumulative prime records -->
     <g transform="translate(84.901563 62.23875) scale(0.08 -0.08)">
      <use xlink:href="#DejaVuSans-43"/>
      <use xlink:href="#DejaVuSans-75" transform="translate(69.824219 0)"/>
      <use xlink:href="#DejaVuSans-6d" transform="translate(133.203125 0)"/>
      <use xlink:href="#DejaVuSans-75" transform="translate(230.615234 0)"/>
      <use xlink:href="#DejaVuSans-6c" transform="translate(293.994141 0)"/>
      <use xlink:href="#DejaVuSans-61" transform="translate(321.777344 0)"/>
      <use xlink:href="#DejaVuSans-74" transform="translate(383.056641 0)"/>
      <use xlink:href="#DejaVuSans-69" transform="translate(422.265625 0)"/>
      <use xlink:href="#DejaVuSans-76" transform="translate(450.048828 0)"/>
      <use xlink:href="#DejaVuSans-65" transform="translate(509.228516 0)"/>
      <use xlink:href="#DejaVuSans-20" transform="translate(570.751953 0)"/>
      <use xlink:href="#DejaVuSans-70" transform="translate(602.539062 0)"/>
      <use xlink:href="#DejaVuSans-72" transform="translate(666.015625 0)"/>
      <use xlink:href="#DejaVuSans-69" transform="translate(707.128906 0)"/>
      <use xlink:href="#DejaVuSans-6d" transform="translate(734.912109 0)"/>
      <use xlink:href="#DejaVuSans-65" transform="translate(832.324219 0)"/>
      <use xlink:href="#DejaVuSans-20" transform="translate(893.847656 0)"/>
      <use xlink:href="#DejaVuSans-72" transform="translate(925.634766 0)"/>
      <use xlink:href="#DejaVuSans-65" transform="translate(964.498047 0)"/>
      <use xlink:href="#DejaVuSans-63" transform="translate(1026.021484 0)"/>
      <use xlink:href="#DejaVuSans-6f" transform="translate(1081.001953 0)"/>
      <use xlink:href="#DejaVuSans-72" transform="translate(1142.183594 0)"/>
      <use xlink:href="#DejaVuSans-64" transform="translate(1181.546875 0)"/>
      <use xlink:href="#DejaVuSans-73" transform="translate(1245.023438 0)"/>
     </g>
    </g>
    <g id="line2d_22">
     <path d="M 62.501563 71.18125 
L 70.501563 71.18125 
L 78.501563 71.18125 
" style="fill: none; stroke-dasharray: 4.81,2.08; stroke-dashoffset: 0; stroke: #f0b429; stroke-width: 1.3"/>
    </g>
    <g id="text_18">
     <!-- Cumulative uint64 payload -->
     <g transform="translate(84.901563 73.98125) scale(0.08 -0.08)">
      <use xlink:href="#DejaVuSans-43"/>
      <use xlink:href="#DejaVuSans-75" transform="translate(69.824219 0)"/>
      <use xlink:href="#DejaVuSans-6d" transform="translate(133.203125 0)"/>
      <use xlink:href="#DejaVuSans-75" transform="translate(230.615234 0)"/>
      <use xlink:href="#DejaVuSans-6c" transform="translate(293.994141 0)"/>
      <use xlink:href="#DejaVuSans-61" transform="translate(321.777344 0)"/>
      <use xlink:href="#DejaVuSans-74" transform="translate(383.056641 0)"/>
      <use xlink:href="#DejaVuSans-69" transform="translate(422.265625 0)"/>
      <use xlink:href="#DejaVuSans-76" transform="translate(450.048828 0)"/>
      <use xlink:href="#DejaVuSans-65" transform="translate(509.228516 0)"/>
      <use xlink:href="#DejaVuSans-20" transform="translate(570.751953 0)"/>
      <use xlink:href="#DejaVuSans-75" transform="translate(602.539062 0)"/>
      <use xlink:href="#DejaVuSans-69" transform="translate(665.917969 0)"/>
      <use xlink:href="#DejaVuSans-6e" transform="translate(693.701172 0)"/>
      <use xlink:href="#DejaVuSans-74" transform="translate(757.080078 0)"/>
      <use xlink:href="#DejaVuSans-36" transform="translate(796.289062 0)"/>
      <use xlink:href="#DejaVuSans-34" transform="translate(859.912109 0)"/>
      <use xlink:href="#DejaVuSans-20" transform="translate(923.535156 0)"/>
      <use xlink:href="#DejaVuSans-70" transform="translate(955.322266 0)"/>
      <use xlink:href="#DejaVuSans-61" transform="translate(1018.798828 0)"/>
      <use xlink:href="#DejaVuSans-79" transform="translate(1080.078125 0)"/>
      <use xlink:href="#DejaVuSans-6c" transform="translate(1139.257812 0)"/>
      <use xlink:href="#DejaVuSans-6f" transform="translate(1167.041016 0)"/>
      <use xlink:href="#DejaVuSans-61" transform="translate(1228.222656 0)"/>
      <use xlink:href="#DejaVuSans-64" transform="translate(1289.501953 0)"/>
     </g>
    </g>
   </g>
  </g>
  <g id="axes_2">
   <g id="matplotlib.axis_3">
    <g id="ytick_7">
     <g id="line2d_23">
      <defs>
       <path id="m24f4e3c959" d="M 0 0 
L 3.5 0 
" style="stroke: #52616b; stroke-width: 0.8"/>
      </defs>
      <g>
       <use xlink:href="#m24f4e3c959" x="557.501563" y="357.128986" style="fill: #52616b; stroke: #52616b; stroke-width: 0.8"/>
      </g>
     </g>
     <g id="text_19">
      <!-- 0 -->
      <g style="fill: #52616b" transform="translate(564.501563 360.168361) scale(0.08 -0.08)">
       <use xlink:href="#DejaVuSans-30"/>
      </g>
     </g>
    </g>
    <g id="ytick_8">
     <g id="line2d_24">
      <g>
       <use xlink:href="#m24f4e3c959" x="557.501563" y="320.762079" style="fill: #52616b; stroke: #52616b; stroke-width: 0.8"/>
      </g>
     </g>
     <g id="text_20">
      <!-- 100 -->
      <g style="fill: #52616b" transform="translate(564.501563 323.801454) scale(0.08 -0.08)">
       <use xlink:href="#DejaVuSans-31"/>
       <use xlink:href="#DejaVuSans-30" transform="translate(63.623047 0)"/>
       <use xlink:href="#DejaVuSans-30" transform="translate(127.246094 0)"/>
      </g>
     </g>
    </g>
    <g id="ytick_9">
     <g id="line2d_25">
      <g>
       <use xlink:href="#m24f4e3c959" x="557.501563" y="284.395173" style="fill: #52616b; stroke: #52616b; stroke-width: 0.8"/>
      </g>
     </g>
     <g id="text_21">
      <!-- 200 -->
      <g style="fill: #52616b" transform="translate(564.501563 287.434548) scale(0.08 -0.08)">
       <use xlink:href="#DejaVuSans-32"/>
       <use xlink:href="#DejaVuSans-30" transform="translate(63.623047 0)"/>
       <use xlink:href="#DejaVuSans-30" transform="translate(127.246094 0)"/>
      </g>
     </g>
    </g>
    <g id="ytick_10">
     <g id="line2d_26">
      <g>
       <use xlink:href="#m24f4e3c959" x="557.501563" y="248.028267" style="fill: #52616b; stroke: #52616b; stroke-width: 0.8"/>
      </g>
     </g>
     <g id="text_22">
      <!-- 300 -->
      <g style="fill: #52616b" transform="translate(564.501563 251.067642) scale(0.08 -0.08)">
       <use xlink:href="#DejaVuSans-33"/>
       <use xlink:href="#DejaVuSans-30" transform="translate(63.623047 0)"/>
       <use xlink:href="#DejaVuSans-30" transform="translate(127.246094 0)"/>
      </g>
     </g>
    </g>
    <g id="ytick_11">
     <g id="line2d_27">
      <g>
       <use xlink:href="#m24f4e3c959" x="557.501563" y="211.661361" style="fill: #52616b; stroke: #52616b; stroke-width: 0.8"/>
      </g>
     </g>
     <g id="text_23">
      <!-- 400 -->
      <g style="fill: #52616b" transform="translate(564.501563 214.700736) scale(0.08 -0.08)">
       <use xlink:href="#DejaVuSans-34"/>
       <use xlink:href="#DejaVuSans-30" transform="translate(63.623047 0)"/>
       <use xlink:href="#DejaVuSans-30" transform="translate(127.246094 0)"/>
      </g>
     </g>
    </g>
    <g id="ytick_12">
     <g id="line2d_28">
      <g>
       <use xlink:href="#m24f4e3c959" x="557.501563" y="175.294455" style="fill: #52616b; stroke: #52616b; stroke-width: 0.8"/>
      </g>
     </g>
     <g id="text_24">
      <!-- 500 -->
      <g style="fill: #52616b" transform="translate(564.501563 178.33383) scale(0.08 -0.08)">
       <use xlink:href="#DejaVuSans-35"/>
       <use xlink:href="#DejaVuSans-30" transform="translate(63.623047 0)"/>
       <use xlink:href="#DejaVuSans-30" transform="translate(127.246094 0)"/>
      </g>
     </g>
    </g>
    <g id="ytick_13">
     <g id="line2d_29">
      <g>
       <use xlink:href="#m24f4e3c959" x="557.501563" y="138.927549" style="fill: #52616b; stroke: #52616b; stroke-width: 0.8"/>
      </g>
     </g>
     <g id="text_25">
      <!-- 600 -->
      <g style="fill: #52616b" transform="translate(564.501563 141.966924) scale(0.08 -0.08)">
       <use xlink:href="#DejaVuSans-36"/>
       <use xlink:href="#DejaVuSans-30" transform="translate(63.623047 0)"/>
       <use xlink:href="#DejaVuSans-30" transform="translate(127.246094 0)"/>
      </g>
     </g>
    </g>
    <g id="ytick_14">
     <g id="line2d_30">
      <g>
       <use xlink:href="#m24f4e3c959" x="557.501563" y="102.560642" style="fill: #52616b; stroke: #52616b; stroke-width: 0.8"/>
      </g>
     </g>
     <g id="text_26">
      <!-- 700 -->
      <g style="fill: #52616b" transform="translate(564.501563 105.600017) scale(0.08 -0.08)">
       <defs>
        <path id="DejaVuSans-37" d="M 525 4666 
L 3525 4666 
L 3525 4397 
L 1831 0 
L 1172 0 
L 2766 4134 
L 525 4134 
L 525 4666 
z
" transform="scale(0.015625)"/>
       </defs>
       <use xlink:href="#DejaVuSans-37"/>
       <use xlink:href="#DejaVuSans-30" transform="translate(63.623047 0)"/>
       <use xlink:href="#DejaVuSans-30" transform="translate(127.246094 0)"/>
      </g>
     </g>
    </g>
    <g id="ytick_15">
     <g id="line2d_31">
      <g>
       <use xlink:href="#m24f4e3c959" x="557.501563" y="66.193736" style="fill: #52616b; stroke: #52616b; stroke-width: 0.8"/>
      </g>
     </g>
     <g id="text_27">
      <!-- 800 -->
      <g style="fill: #52616b" transform="translate(564.501563 69.233111) scale(0.08 -0.08)">
       <use xlink:href="#DejaVuSans-38"/>
       <use xlink:href="#DejaVuSans-30" transform="translate(63.623047 0)"/>
       <use xlink:href="#DejaVuSans-30" transform="translate(127.246094 0)"/>
      </g>
     </g>
    </g>
    <g id="text_28">
     <!-- Cumulative payload (GiB) -->
     <g style="fill: #1f2933" transform="translate(590.610156 267.511781) rotate(-90) scale(0.09 -0.09)">
      <defs>
       <path id="DejaVuSans-47" d="M 3809 666 
L 3809 1919 
L 2778 1919 
L 2778 2438 
L 4434 2438 
L 4434 434 
Q 4069 175 3628 42 
Q 3188 -91 2688 -91 
Q 1594 -91 976 548 
Q 359 1188 359 2328 
Q 359 3472 976 4111 
Q 1594 4750 2688 4750 
Q 3144 4750 3555 4637 
Q 3966 4525 4313 4306 
L 4313 3634 
Q 3963 3931 3569 4081 
Q 3175 4231 2741 4231 
Q 1884 4231 1454 3753 
Q 1025 3275 1025 2328 
Q 1025 1384 1454 906 
Q 1884 428 2741 428 
Q 3075 428 3337 486 
Q 3600 544 3809 666 
z
" transform="scale(0.015625)"/>
      </defs>
      <use xlink:href="#DejaVuSans-43"/>
      <use xlink:href="#DejaVuSans-75" transform="translate(69.824219 0)"/>
      <use xlink:href="#DejaVuSans-6d" transform="translate(133.203125 0)"/>
      <use xlink:href="#DejaVuSans-75" transform="translate(230.615234 0)"/>
      <use xlink:href="#DejaVuSans-6c" transform="translate(293.994141 0)"/>
      <use xlink:href="#DejaVuSans-61" transform="translate(321.777344 0)"/>
      <use xlink:href="#DejaVuSans-74" transform="translate(383.056641 0)"/>
      <use xlink:href="#DejaVuSans-69" transform="translate(422.265625 0)"/>
      <use xlink:href="#DejaVuSans-76" transform="translate(450.048828 0)"/>
      <use xlink:href="#DejaVuSans-65" transform="translate(509.228516 0)"/>
      <use xlink:href="#DejaVuSans-20" transform="translate(570.751953 0)"/>
      <use xlink:href="#DejaVuSans-70" transform="translate(602.539062 0)"/>
      <use xlink:href="#DejaVuSans-61" transform="translate(666.015625 0)"/>
      <use xlink:href="#DejaVuSans-79" transform="translate(727.294922 0)"/>
      <use xlink:href="#DejaVuSans-6c" transform="translate(786.474609 0)"/>
      <use xlink:href="#DejaVuSans-6f" transform="translate(814.257812 0)"/>
      <use xlink:href="#DejaVuSans-61" transform="translate(875.439453 0)"/>
      <use xlink:href="#DejaVuSans-64" transform="translate(936.71875 0)"/>
      <use xlink:href="#DejaVuSans-20" transform="translate(1000.195312 0)"/>
      <use xlink:href="#DejaVuSans-28" transform="translate(1031.982422 0)"/>
      <use xlink:href="#DejaVuSans-47" transform="translate(1070.996094 0)"/>
      <use xlink:href="#DejaVuSans-69" transform="translate(1148.486328 0)"/>
      <use xlink:href="#DejaVuSans-42" transform="translate(1176.269531 0)"/>
      <use xlink:href="#DejaVuSans-29" transform="translate(1244.873047 0)"/>
     </g>
    </g>
   </g>
   <g id="line2d_32">
    <path d="M 56.975563 355.896 
L 63.671563 351.385685 
L 75.389563 343.839316 
L 92.129563 333.354713 
L 113.891563 319.995187 
L 142.349563 302.802465 
L 175.829563 282.841442 
L 216.005563 259.153967 
L 262.877563 231.788218 
L 314.771563 201.748608 
L 373.361563 168.088956 
L 438.647563 130.839797 
L 510.629563 90.027689 
L 557.501563 63.576 
L 557.501563 63.576 
" clip-path="url(#pc636c6b56c)" style="fill: none; stroke-dasharray: 4.81,2.08; stroke-dashoffset: 0; stroke: #f0b429; stroke-width: 1.3"/>
   </g>
   <g id="patch_5">
    <path d="M 55.301563 370.512 
L 55.301563 48.96 
" style="fill: none; stroke: #000000; stroke-width: 0.8; stroke-linejoin: miter; stroke-linecap: square"/>
   </g>
   <g id="patch_6">
    <path d="M 557.501563 370.512 
L 557.501563 48.96 
" style="fill: none; stroke: #9fb3c8; stroke-width: 0.8; stroke-linejoin: miter; stroke-linecap: square"/>
   </g>
   <g id="patch_7">
    <path d="M 55.301563 370.512 
L 557.501563 370.512 
" style="fill: none; stroke: #000000; stroke-width: 0.8; stroke-linejoin: miter; stroke-linecap: square"/>
   </g>
  </g>
  <g id="text_29">
   <!-- Cumulative Repository Growth -->
   <g style="fill: #1f2933" transform="translate(160.075312 19.3575) scale(0.16 -0.16)">
    <defs>
     <path id="DejaVuSans-Bold-43" d="M 4288 256 
Q 3956 84 3597 -3 
Q 3238 -91 2847 -91 
Q 1681 -91 1000 561 
Q 319 1213 319 2328 
Q 319 3447 1000 4098 
Q 1681 4750 2847 4750 
Q 3238 4750 3597 4662 
Q 3956 4575 4288 4403 
L 4288 3438 
Q 3953 3666 3628 3772 
Q 3303 3878 2944 3878 
Q 2300 3878 1931 3465 
Q 1563 3053 1563 2328 
Q 1563 1606 1931 1193 
Q 2300 781 2944 781 
Q 3303 781 3628 887 
Q 3953 994 4288 1222 
L 4288 256 
z
" transform="scale(0.015625)"/>
     <path id="DejaVuSans-Bold-75" d="M 500 1363 
L 500 3500 
L 1625 3500 
L 1625 3150 
Q 1625 2866 1622 2436 
Q 1619 2006 1619 1863 
Q 1619 1441 1641 1255 
Q 1663 1069 1716 984 
Q 1784 875 1895 815 
Q 2006 756 2150 756 
Q 2500 756 2700 1025 
Q 2900 1294 2900 1772 
L 2900 3500 
L 4019 3500 
L 4019 0 
L 2900 0 
L 2900 506 
Q 2647 200 2364 54 
Q 2081 -91 1741 -91 
Q 1134 -91 817 281 
Q 500 653 500 1363 
z
" transform="scale(0.015625)"/>
     <path id="DejaVuSans-Bold-6d" d="M 3781 2919 
Q 3994 3244 4286 3414 
Q 4578 3584 4928 3584 
Q 5531 3584 5847 3212 
Q 6163 2841 6163 2131 
L 6163 0 
L 5038 0 
L 5038 1825 
Q 5041 1866 5042 1909 
Q 5044 1953 5044 2034 
Q 5044 2406 4934 2573 
Q 4825 2741 4581 2741 
Q 4263 2741 4089 2478 
Q 3916 2216 3909 1719 
L 3909 0 
L 2784 0 
L 2784 1825 
Q 2784 2406 2684 2573 
Q 2584 2741 2328 2741 
Q 2006 2741 1831 2477 
Q 1656 2213 1656 1722 
L 1656 0 
L 531 0 
L 531 3500 
L 1656 3500 
L 1656 2988 
Q 1863 3284 2130 3434 
Q 2397 3584 2719 3584 
Q 3081 3584 3359 3409 
Q 3638 3234 3781 2919 
z
" transform="scale(0.015625)"/>
     <path id="DejaVuSans-Bold-6c" d="M 538 4863 
L 1656 4863 
L 1656 0 
L 538 0 
L 538 4863 
z
" transform="scale(0.015625)"/>
     <path id="DejaVuSans-Bold-61" d="M 2106 1575 
Q 1756 1575 1579 1456 
Q 1403 1338 1403 1106 
Q 1403 894 1545 773 
Q 1688 653 1941 653 
Q 2256 653 2472 879 
Q 2688 1106 2688 1447 
L 2688 1575 
L 2106 1575 
z
M 3816 1997 
L 3816 0 
L 2688 0 
L 2688 519 
Q 2463 200 2181 54 
Q 1900 -91 1497 -91 
Q 953 -91 614 226 
Q 275 544 275 1050 
Q 275 1666 698 1953 
Q 1122 2241 2028 2241 
L 2688 2241 
L 2688 2328 
Q 2688 2594 2478 2717 
Q 2269 2841 1825 2841 
Q 1466 2841 1156 2769 
Q 847 2697 581 2553 
L 581 3406 
Q 941 3494 1303 3539 
Q 1666 3584 2028 3584 
Q 2975 3584 3395 3211 
Q 3816 2838 3816 1997 
z
" transform="scale(0.015625)"/>
     <path id="DejaVuSans-Bold-74" d="M 1759 4494 
L 1759 3500 
L 2913 3500 
L 2913 2700 
L 1759 2700 
L 1759 1216 
Q 1759 972 1856 886 
Q 1953 800 2241 800 
L 2816 800 
L 2816 0 
L 1856 0 
Q 1194 0 917 276 
Q 641 553 641 1216 
L 641 2700 
L 84 2700 
L 84 3500 
L 641 3500 
L 641 4494 
L 1759 4494 
z
" transform="scale(0.015625)"/>
     <path id="DejaVuSans-Bold-69" d="M 538 3500 
L 1656 3500 
L 1656 0 
L 538 0 
L 538 3500 
z
M 538 4863 
L 1656 4863 
L 1656 3950 
L 538 3950 
L 538 4863 
z
" transform="scale(0.015625)"/>
     <path id="DejaVuSans-Bold-76" d="M 97 3500 
L 1216 3500 
L 2088 1081 
L 2956 3500 
L 4078 3500 
L 2700 0 
L 1472 0 
L 97 3500 
z
" transform="scale(0.015625)"/>
     <path id="DejaVuSans-Bold-65" d="M 4031 1759 
L 4031 1441 
L 1416 1441 
Q 1456 1047 1700 850 
Q 1944 653 2381 653 
Q 2734 653 3104 758 
Q 3475 863 3866 1075 
L 3866 213 
Q 3469 63 3072 -14 
Q 2675 -91 2278 -91 
Q 1328 -91 801 392 
Q 275 875 275 1747 
Q 275 2603 792 3093 
Q 1309 3584 2216 3584 
Q 3041 3584 3536 3087 
Q 4031 2591 4031 1759 
z
M 2881 2131 
Q 2881 2450 2695 2645 
Q 2509 2841 2209 2841 
Q 1884 2841 1681 2658 
Q 1478 2475 1428 2131 
L 2881 2131 
z
" transform="scale(0.015625)"/>
     <path id="DejaVuSans-Bold-20" transform="scale(0.015625)"/>
     <path id="DejaVuSans-Bold-52" d="M 2297 2597 
Q 2675 2597 2839 2737 
Q 3003 2878 3003 3200 
Q 3003 3519 2839 3656 
Q 2675 3794 2297 3794 
L 1791 3794 
L 1791 2597 
L 2297 2597 
z
M 1791 1766 
L 1791 0 
L 588 0 
L 588 4666 
L 2425 4666 
Q 3347 4666 3776 4356 
Q 4206 4047 4206 3378 
Q 4206 2916 3982 2619 
Q 3759 2322 3309 2181 
Q 3556 2125 3751 1926 
Q 3947 1728 4147 1325 
L 4800 0 
L 3519 0 
L 2950 1159 
Q 2778 1509 2601 1637 
Q 2425 1766 2131 1766 
L 1791 1766 
z
" transform="scale(0.015625)"/>
     <path id="DejaVuSans-Bold-70" d="M 1656 506 
L 1656 -1331 
L 538 -1331 
L 538 3500 
L 1656 3500 
L 1656 2988 
Q 1888 3294 2169 3439 
Q 2450 3584 2816 3584 
Q 3463 3584 3878 3070 
Q 4294 2556 4294 1747 
Q 4294 938 3878 423 
Q 3463 -91 2816 -91 
Q 2450 -91 2169 54 
Q 1888 200 1656 506 
z
M 2400 2772 
Q 2041 2772 1848 2508 
Q 1656 2244 1656 1747 
Q 1656 1250 1848 986 
Q 2041 722 2400 722 
Q 2759 722 2948 984 
Q 3138 1247 3138 1747 
Q 3138 2247 2948 2509 
Q 2759 2772 2400 2772 
z
" transform="scale(0.015625)"/>
     <path id="DejaVuSans-Bold-6f" d="M 2203 2784 
Q 1831 2784 1636 2517 
Q 1441 2250 1441 1747 
Q 1441 1244 1636 976 
Q 1831 709 2203 709 
Q 2569 709 2762 976 
Q 2956 1244 2956 1747 
Q 2956 2250 2762 2517 
Q 2569 2784 2203 2784 
z
M 2203 3584 
Q 3106 3584 3614 3096 
Q 4122 2609 4122 1747 
Q 4122 884 3614 396 
Q 3106 -91 2203 -91 
Q 1297 -91 786 396 
Q 275 884 275 1747 
Q 275 2609 786 3096 
Q 1297 3584 2203 3584 
z
" transform="scale(0.015625)"/>
     <path id="DejaVuSans-Bold-73" d="M 3272 3391 
L 3272 2541 
Q 2913 2691 2578 2766 
Q 2244 2841 1947 2841 
Q 1628 2841 1473 2761 
Q 1319 2681 1319 2516 
Q 1319 2381 1436 2309 
Q 1553 2238 1856 2203 
L 2053 2175 
Q 2913 2066 3209 1816 
Q 3506 1566 3506 1031 
Q 3506 472 3093 190 
Q 2681 -91 1863 -91 
Q 1516 -91 1145 -36 
Q 775 19 384 128 
L 384 978 
Q 719 816 1070 734 
Q 1422 653 1784 653 
Q 2113 653 2278 743 
Q 2444 834 2444 1013 
Q 2444 1163 2330 1236 
Q 2216 1309 1875 1350 
L 1678 1375 
Q 931 1469 631 1722 
Q 331 1975 331 2491 
Q 331 3047 712 3315 
Q 1094 3584 1881 3584 
Q 2191 3584 2531 3537 
Q 2872 3491 3272 3391 
z
" transform="scale(0.015625)"/>
     <path id="DejaVuSans-Bold-72" d="M 3138 2547 
Q 2991 2616 2845 2648 
Q 2700 2681 2553 2681 
Q 2122 2681 1889 2404 
Q 1656 2128 1656 1613 
L 1656 0 
L 538 0 
L 538 3500 
L 1656 3500 
L 1656 2925 
Q 1872 3269 2151 3426 
Q 2431 3584 2822 3584 
Q 2878 3584 2943 3579 
Q 3009 3575 3134 3559 
L 3138 2547 
z
" transform="scale(0.015625)"/>
     <path id="DejaVuSans-Bold-79" d="M 78 3500 
L 1197 3500 
L 2138 1125 
L 2938 3500 
L 4056 3500 
L 2584 -331 
Q 2363 -916 2067 -1148 
Q 1772 -1381 1288 -1381 
L 641 -1381 
L 641 -647 
L 991 -647 
Q 1275 -647 1404 -556 
Q 1534 -466 1606 -231 
L 1638 -134 
L 78 3500 
z
" transform="scale(0.015625)"/>
     <path id="DejaVuSans-Bold-47" d="M 4781 347 
Q 4331 128 3847 18 
Q 3363 -91 2847 -91 
Q 1681 -91 1000 561 
Q 319 1213 319 2328 
Q 319 3456 1012 4103 
Q 1706 4750 2913 4750 
Q 3378 4750 3804 4662 
Q 4231 4575 4609 4403 
L 4609 3438 
Q 4219 3659 3833 3768 
Q 3447 3878 3059 3878 
Q 2341 3878 1952 3476 
Q 1563 3075 1563 2328 
Q 1563 1588 1938 1184 
Q 2313 781 3003 781 
Q 3191 781 3352 804 
Q 3513 828 3641 878 
L 3641 1784 
L 2906 1784 
L 2906 2591 
L 4781 2591 
L 4781 347 
z
" transform="scale(0.015625)"/>
     <path id="DejaVuSans-Bold-77" d="M 225 3500 
L 1313 3500 
L 1900 1088 
L 2491 3500 
L 3425 3500 
L 4013 1113 
L 4603 3500 
L 5691 3500 
L 4769 0 
L 3547 0 
L 2956 2406 
L 2369 0 
L 1147 0 
L 225 3500 
z
" transform="scale(0.015625)"/>
     <path id="DejaVuSans-Bold-68" d="M 4056 2131 
L 4056 0 
L 2931 0 
L 2931 347 
L 2931 1625 
Q 2931 2084 2911 2256 
Q 2891 2428 2841 2509 
Q 2775 2619 2662 2680 
Q 2550 2741 2406 2741 
Q 2056 2741 1856 2470 
Q 1656 2200 1656 1722 
L 1656 0 
L 538 0 
L 538 4863 
L 1656 4863 
L 1656 2988 
Q 1909 3294 2193 3439 
Q 2478 3584 2822 3584 
Q 3428 3584 3742 3212 
Q 4056 2841 4056 2131 
z
" transform="scale(0.015625)"/>
    </defs>
    <use xlink:href="#DejaVuSans-Bold-43"/>
    <use xlink:href="#DejaVuSans-Bold-75" transform="translate(73.388672 0)"/>
    <use xlink:href="#DejaVuSans-Bold-6d" transform="translate(144.580078 0)"/>
    <use xlink:href="#DejaVuSans-Bold-75" transform="translate(248.779297 0)"/>
    <use xlink:href="#DejaVuSans-Bold-6c" transform="translate(319.970703 0)"/>
    <use xlink:href="#DejaVuSans-Bold-61" transform="translate(354.248047 0)"/>
    <use xlink:href="#DejaVuSans-Bold-74" transform="translate(421.728516 0)"/>
    <use xlink:href="#DejaVuSans-Bold-69" transform="translate(469.53125 0)"/>
    <use xlink:href="#DejaVuSans-Bold-76" transform="translate(503.808594 0)"/>
    <use xlink:href="#DejaVuSans-Bold-65" transform="translate(568.994141 0)"/>
    <use xlink:href="#DejaVuSans-Bold-20" transform="translate(636.816406 0)"/>
    <use xlink:href="#DejaVuSans-Bold-52" transform="translate(671.630859 0)"/>
    <use xlink:href="#DejaVuSans-Bold-65" transform="translate(748.632812 0)"/>
    <use xlink:href="#DejaVuSans-Bold-70" transform="translate(816.455078 0)"/>
    <use xlink:href="#DejaVuSans-Bold-6f" transform="translate(888.037109 0)"/>
    <use xlink:href="#DejaVuSans-Bold-73" transform="translate(956.738281 0)"/>
    <use xlink:href="#DejaVuSans-Bold-69" transform="translate(1016.259766 0)"/>
    <use xlink:href="#DejaVuSans-Bold-74" transform="translate(1050.537109 0)"/>
    <use xlink:href="#DejaVuSans-Bold-6f" transform="translate(1098.339844 0)"/>
    <use xlink:href="#DejaVuSans-Bold-72" transform="translate(1167.041016 0)"/>
    <use xlink:href="#DejaVuSans-Bold-79" transform="translate(1216.357422 0)"/>
    <use xlink:href="#DejaVuSans-Bold-20" transform="translate(1281.542969 0)"/>
    <use xlink:href="#DejaVuSans-Bold-47" transform="translate(1316.357422 0)"/>
    <use xlink:href="#DejaVuSans-Bold-72" transform="translate(1398.4375 0)"/>
    <use xlink:href="#DejaVuSans-Bold-6f" transform="translate(1447.753906 0)"/>
    <use xlink:href="#DejaVuSans-Bold-77" transform="translate(1516.455078 0)"/>
    <use xlink:href="#DejaVuSans-Bold-74" transform="translate(1608.837891 0)"/>
    <use xlink:href="#DejaVuSans-Bold-68" transform="translate(1656.640625 0)"/>
   </g>
  </g>
  <g id="text_30">
   <!-- Final measured repository size: 807.198 GiB · Payload curve is derived from accepted uint64 record counts; file-system size includes NumPy headers. -->
   <g style="fill: #52616b" transform="translate(17.159375 409.877034) scale(0.075 -0.075)">
    <defs>
     <path id="DejaVuSans-46" d="M 628 4666 
L 3309 4666 
L 3309 4134 
L 1259 4134 
L 1259 2759 
L 3109 2759 
L 3109 2228 
L 1259 2228 
L 1259 0 
L 628 0 
L 628 4666 
z
" transform="scale(0.015625)"/>
     <path id="DejaVuSans-7a" d="M 353 3500 
L 3084 3500 
L 3084 2975 
L 922 459 
L 3084 459 
L 3084 0 
L 275 0 
L 275 525 
L 2438 3041 
L 353 3041 
L 353 3500 
z
" transform="scale(0.015625)"/>
     <path id="DejaVuSans-3a" d="M 750 794 
L 1409 794 
L 1409 0 
L 750 0 
L 750 794 
z
M 750 3309 
L 1409 3309 
L 1409 2516 
L 750 2516 
L 750 3309 
z
" transform="scale(0.015625)"/>
     <path id="DejaVuSans-39" d="M 703 97 
L 703 672 
Q 941 559 1184 500 
Q 1428 441 1663 441 
Q 2288 441 2617 861 
Q 2947 1281 2994 2138 
Q 2813 1869 2534 1725 
Q 2256 1581 1919 1581 
Q 1219 1581 811 2004 
Q 403 2428 403 3163 
Q 403 3881 828 4315 
Q 1253 4750 1959 4750 
Q 2769 4750 3195 4129 
Q 3622 3509 3622 2328 
Q 3622 1225 3098 567 
Q 2575 -91 1691 -91 
Q 1453 -91 1209 -44 
Q 966 3 703 97 
z
M 1959 2075 
Q 2384 2075 2632 2365 
Q 2881 2656 2881 3163 
Q 2881 3666 2632 3958 
Q 2384 4250 1959 4250 
Q 1534 4250 1286 3958 
Q 1038 3666 1038 3163 
Q 1038 2656 1286 2365 
Q 1534 2075 1959 2075 
z
" transform="scale(0.015625)"/>
     <path id="DejaVuSans-b7" d="M 684 2619 
L 1344 2619 
L 1344 1825 
L 684 1825 
L 684 2619 
z
" transform="scale(0.015625)"/>
     <path id="DejaVuSans-50" d="M 1259 4147 
L 1259 2394 
L 2053 2394 
Q 2494 2394 2734 2622 
Q 2975 2850 2975 3272 
Q 2975 3691 2734 3919 
Q 2494 4147 2053 4147 
L 1259 4147 
z
M 628 4666 
L 2053 4666 
Q 2838 4666 3239 4311 
Q 3641 3956 3641 3272 
Q 3641 2581 3239 2228 
Q 2838 1875 2053 1875 
L 1259 1875 
L 1259 0 
L 628 0 
L 628 4666 
z
" transform="scale(0.015625)"/>
     <path id="DejaVuSans-3b" d="M 750 3309 
L 1409 3309 
L 1409 2516 
L 750 2516 
L 750 3309 
z
M 750 794 
L 1409 794 
L 1409 256 
L 897 -744 
L 494 -744 
L 750 256 
L 750 794 
z
" transform="scale(0.015625)"/>
     <path id="DejaVuSans-2d" d="M 313 2009 
L 1997 2009 
L 1997 1497 
L 313 1497 
L 313 2009 
z
" transform="scale(0.015625)"/>
    </defs>
    <use xlink:href="#DejaVuSans-46"/>
    <use xlink:href="#DejaVuSans-69" transform="translate(50.269531 0)"/>
    <use xlink:href="#DejaVuSans-6e" transform="translate(78.052734 0)"/>
    <use xlink:href="#DejaVuSans-61" transform="translate(141.431641 0)"/>
    <use xlink:href="#DejaVuSans-6c" transform="translate(202.710938 0)"/>
    <use xlink:href="#DejaVuSans-20" transform="translate(230.494141 0)"/>
    <use xlink:href="#DejaVuSans-6d" transform="translate(262.28125 0)"/>
    <use xlink:href="#DejaVuSans-65" transform="translate(359.693359 0)"/>
    <use xlink:href="#DejaVuSans-61" transform="translate(421.216797 0)"/>
    <use xlink:href="#DejaVuSans-73" transform="translate(482.496094 0)"/>
    <use xlink:href="#DejaVuSans-75" transform="translate(534.595703 0)"/>
    <use xlink:href="#DejaVuSans-72" transform="translate(597.974609 0)"/>
    <use xlink:href="#DejaVuSans-65" transform="translate(636.837891 0)"/>
    <use xlink:href="#DejaVuSans-64" transform="translate(698.361328 0)"/>
    <use xlink:href="#DejaVuSans-20" transform="translate(761.837891 0)"/>
    <use xlink:href="#DejaVuSans-72" transform="translate(793.625 0)"/>
    <use xlink:href="#DejaVuSans-65" transform="translate(832.488281 0)"/>
    <use xlink:href="#DejaVuSans-70" transform="translate(894.011719 0)"/>
    <use xlink:href="#DejaVuSans-6f" transform="translate(957.488281 0)"/>
    <use xlink:href="#DejaVuSans-73" transform="translate(1018.669922 0)"/>
    <use xlink:href="#DejaVuSans-69" transform="translate(1070.769531 0)"/>
    <use xlink:href="#DejaVuSans-74" transform="translate(1098.552734 0)"/>
    <use xlink:href="#DejaVuSans-6f" transform="translate(1137.761719 0)"/>
    <use xlink:href="#DejaVuSans-72" transform="translate(1198.943359 0)"/>
    <use xlink:href="#DejaVuSans-79" transform="translate(1240.056641 0)"/>
    <use xlink:href="#DejaVuSans-20" transform="translate(1299.236328 0)"/>
    <use xlink:href="#DejaVuSans-73" transform="translate(1331.023438 0)"/>
    <use xlink:href="#DejaVuSans-69" transform="translate(1383.123047 0)"/>
    <use xlink:href="#DejaVuSans-7a" transform="translate(1410.90625 0)"/>
    <use xlink:href="#DejaVuSans-65" transform="translate(1463.396484 0)"/>
    <use xlink:href="#DejaVuSans-3a" transform="translate(1524.919922 0)"/>
    <use xlink:href="#DejaVuSans-20" transform="translate(1558.611328 0)"/>
    <use xlink:href="#DejaVuSans-38" transform="translate(1590.398438 0)"/>
    <use xlink:href="#DejaVuSans-30" transform="translate(1654.021484 0)"/>
    <use xlink:href="#DejaVuSans-37" transform="translate(1717.644531 0)"/>
    <use xlink:href="#DejaVuSans-2e" transform="translate(1781.267578 0)"/>
    <use xlink:href="#DejaVuSans-31" transform="translate(1813.054688 0)"/>
    <use xlink:href="#DejaVuSans-39" transform="translate(1876.677734 0)"/>
    <use xlink:href="#DejaVuSans-38" transform="translate(1940.300781 0)"/>
    <use xlink:href="#DejaVuSans-20" transform="translate(2003.923828 0)"/>
    <use xlink:href="#DejaVuSans-47" transform="translate(2035.710938 0)"/>
    <use xlink:href="#DejaVuSans-69" transform="translate(2113.201172 0)"/>
    <use xlink:href="#DejaVuSans-42" transform="translate(2140.984375 0)"/>
    <use xlink:href="#DejaVuSans-20" transform="translate(2209.587891 0)"/>
    <use xlink:href="#DejaVuSans-b7" transform="translate(2241.375 0)"/>
    <use xlink:href="#DejaVuSans-20" transform="translate(2273.162109 0)"/>
    <use xlink:href="#DejaVuSans-50" transform="translate(2304.949219 0)"/>
    <use xlink:href="#DejaVuSans-61" transform="translate(2360.751953 0)"/>
    <use xlink:href="#DejaVuSans-79" transform="translate(2422.03125 0)"/>
    <use xlink:href="#DejaVuSans-6c" transform="translate(2481.210938 0)"/>
    <use xlink:href="#DejaVuSans-6f" transform="translate(2508.994141 0)"/>
    <use xlink:href="#DejaVuSans-61" transform="translate(2570.175781 0)"/>
    <use xlink:href="#DejaVuSans-64" transform="translate(2631.455078 0)"/>
    <use xlink:href="#DejaVuSans-20" transform="translate(2694.931641 0)"/>
    <use xlink:href="#DejaVuSans-63" transform="translate(2726.71875 0)"/>
    <use xlink:href="#DejaVuSans-75" transform="translate(2781.699219 0)"/>
    <use xlink:href="#DejaVuSans-72" transform="translate(2845.078125 0)"/>
    <use xlink:href="#DejaVuSans-76" transform="translate(2886.191406 0)"/>
    <use xlink:href="#DejaVuSans-65" transform="translate(2945.371094 0)"/>
    <use xlink:href="#DejaVuSans-20" transform="translate(3006.894531 0)"/>
    <use xlink:href="#DejaVuSans-69" transform="translate(3038.681641 0)"/>
    <use xlink:href="#DejaVuSans-73" transform="translate(3066.464844 0)"/>
    <use xlink:href="#DejaVuSans-20" transform="translate(3118.564453 0)"/>
    <use xlink:href="#DejaVuSans-64" transform="translate(3150.351562 0)"/>
    <use xlink:href="#DejaVuSans-65" transform="translate(3213.828125 0)"/>
    <use xlink:href="#DejaVuSans-72" transform="translate(3275.351562 0)"/>
    <use xlink:href="#DejaVuSans-69" transform="translate(3316.464844 0)"/>
    <use xlink:href="#DejaVuSans-76" transform="translate(3344.248047 0)"/>
    <use xlink:href="#DejaVuSans-65" transform="translate(3403.427734 0)"/>
    <use xlink:href="#DejaVuSans-64" transform="translate(3464.951172 0)"/>
    <use xlink:href="#DejaVuSans-20" transform="translate(3528.427734 0)"/>
    <use xlink:href="#DejaVuSans-66" transform="translate(3560.214844 0)"/>
    <use xlink:href="#DejaVuSans-72" transform="translate(3595.419922 0)"/>
    <use xlink:href="#DejaVuSans-6f" transform="translate(3634.283203 0)"/>
    <use xlink:href="#DejaVuSans-6d" transform="translate(3695.464844 0)"/>
    <use xlink:href="#DejaVuSans-20" transform="translate(3792.876953 0)"/>
    <use xlink:href="#DejaVuSans-61" transform="translate(3824.664062 0)"/>
    <use xlink:href="#DejaVuSans-63" transform="translate(3885.943359 0)"/>
    <use xlink:href="#DejaVuSans-63" transform="translate(3940.923828 0)"/>
    <use xlink:href="#DejaVuSans-65" transform="translate(3995.904297 0)"/>
    <use xlink:href="#DejaVuSans-70" transform="translate(4057.427734 0)"/>
    <use xlink:href="#DejaVuSans-74" transform="translate(4120.904297 0)"/>
    <use xlink:href="#DejaVuSans-65" transform="translate(4160.113281 0)"/>
    <use xlink:href="#DejaVuSans-64" transform="translate(4221.636719 0)"/>
    <use xlink:href="#DejaVuSans-20" transform="translate(4285.113281 0)"/>
    <use xlink:href="#DejaVuSans-75" transform="translate(4316.900391 0)"/>
    <use xlink:href="#DejaVuSans-69" transform="translate(4380.279297 0)"/>
    <use xlink:href="#DejaVuSans-6e" transform="translate(4408.0625 0)"/>
    <use xlink:href="#DejaVuSans-74" transform="translate(4471.441406 0)"/>
    <use xlink:href="#DejaVuSans-36" transform="translate(4510.650391 0)"/>
    <use xlink:href="#DejaVuSans-34" transform="translate(4574.273438 0)"/>
    <use xlink:href="#DejaVuSans-20" transform="translate(4637.896484 0)"/>
    <use xlink:href="#DejaVuSans-72" transform="translate(4669.683594 0)"/>
    <use xlink:href="#DejaVuSans-65" transform="translate(4708.546875 0)"/>
    <use xlink:href="#DejaVuSans-63" transform="translate(4770.070312 0)"/>
    <use xlink:href="#DejaVuSans-6f" transform="translate(4825.050781 0)"/>
    <use xlink:href="#DejaVuSans-72" transform="translate(4886.232422 0)"/>
    <use xlink:href="#DejaVuSans-64" transform="translate(4925.595703 0)"/>
    <use xlink:href="#DejaVuSans-20" transform="translate(4989.072266 0)"/>
    <use xlink:href="#DejaVuSans-63" transform="translate(5020.859375 0)"/>
    <use xlink:href="#DejaVuSans-6f" transform="translate(5075.839844 0)"/>
    <use xlink:href="#DejaVuSans-75" transform="translate(5137.021484 0)"/>
    <use xlink:href="#DejaVuSans-6e" transform="translate(5200.400391 0)"/>
    <use xlink:href="#DejaVuSans-74" transform="translate(5263.779297 0)"/>
    <use xlink:href="#DejaVuSans-73" transform="translate(5302.988281 0)"/>
    <use xlink:href="#DejaVuSans-3b" transform="translate(5355.087891 0)"/>
    <use xlink:href="#DejaVuSans-20" transform="translate(5388.779297 0)"/>
    <use xlink:href="#DejaVuSans-66" transform="translate(5420.566406 0)"/>
    <use xlink:href="#DejaVuSans-69" transform="translate(5455.771484 0)"/>
    <use xlink:href="#DejaVuSans-6c" transform="translate(5483.554688 0)"/>
    <use xlink:href="#DejaVuSans-65" transform="translate(5511.337891 0)"/>
    <use xlink:href="#DejaVuSans-2d" transform="translate(5572.861328 0)"/>
    <use xlink:href="#DejaVuSans-73" transform="translate(5608.945312 0)"/>
    <use xlink:href="#DejaVuSans-79" transform="translate(5661.044922 0)"/>
    <use xlink:href="#DejaVuSans-73" transform="translate(5720.224609 0)"/>
    <use xlink:href="#DejaVuSans-74" transform="translate(5772.324219 0)"/>
    <use xlink:href="#DejaVuSans-65" transform="translate(5811.533203 0)"/>
    <use xlink:href="#DejaVuSans-6d" transform="translate(5873.056641 0)"/>
    <use xlink:href="#DejaVuSans-20" transform="translate(5970.46875 0)"/>
    <use xlink:href="#DejaVuSans-73" transform="translate(6002.255859 0)"/>
    <use xlink:href="#DejaVuSans-69" transform="translate(6054.355469 0)"/>
    <use xlink:href="#DejaVuSans-7a" transform="translate(6082.138672 0)"/>
    <use xlink:href="#DejaVuSans-65" transform="translate(6134.628906 0)"/>
    <use xlink:href="#DejaVuSans-20" transform="translate(6196.152344 0)"/>
    <use xlink:href="#DejaVuSans-69" transform="translate(6227.939453 0)"/>
    <use xlink:href="#DejaVuSans-6e" transform="translate(6255.722656 0)"/>
    <use xlink:href="#DejaVuSans-63" transform="translate(6319.101562 0)"/>
    <use xlink:href="#DejaVuSans-6c" transform="translate(6374.082031 0)"/>
    <use xlink:href="#DejaVuSans-75" transform="translate(6401.865234 0)"/>
    <use xlink:href="#DejaVuSans-64" transform="translate(6465.244141 0)"/>
    <use xlink:href="#DejaVuSans-65" transform="translate(6528.720703 0)"/>
    <use xlink:href="#DejaVuSans-73" transform="translate(6590.244141 0)"/>
    <use xlink:href="#DejaVuSans-20" transform="translate(6642.34375 0)"/>
    <use xlink:href="#DejaVuSans-4e" transform="translate(6674.130859 0)"/>
    <use xlink:href="#DejaVuSans-75" transform="translate(6748.935547 0)"/>
    <use xlink:href="#DejaVuSans-6d" transform="translate(6812.314453 0)"/>
    <use xlink:href="#DejaVuSans-50" transform="translate(6909.726562 0)"/>
    <use xlink:href="#DejaVuSans-79" transform="translate(6970.029297 0)"/>
    <use xlink:href="#DejaVuSans-20" transform="translate(7029.208984 0)"/>
    <use xlink:href="#DejaVuSans-68" transform="translate(7060.996094 0)"/>
    <use xlink:href="#DejaVuSans-65" transform="translate(7124.375 0)"/>
    <use xlink:href="#DejaVuSans-61" transform="translate(7185.898438 0)"/>
    <use xlink:href="#DejaVuSans-64" transform="translate(7247.177734 0)"/>
    <use xlink:href="#DejaVuSans-65" transform="translate(7310.654297 0)"/>
    <use xlink:href="#DejaVuSans-72" transform="translate(7372.177734 0)"/>
    <use xlink:href="#DejaVuSans-73" transform="translate(7413.291016 0)"/>
    <use xlink:href="#DejaVuSans-2e" transform="translate(7465.390625 0)"/>
   </g>
  </g>
 </g>
 <defs>
  <clipPath id="pc636c6b56c">
   <rect x="55.301563" y="48.96" width="502.2" height="321.552"/>
  </clipPath>
 </defs>
</svg>
