<?xml version="1.0" encoding="utf-8" standalone="no"?>
<!DOCTYPE svg PUBLIC "-//W3C//DTD SVG 1.1//EN"
  "http://www.w3.org/Graphics/SVG/1.1/DTD/svg11.dtd">
<svg xmlns:xlink="http://www.w3.org/1999/xlink" width="516.6pt" height="335.952pt" viewBox="0 0 516.6 335.952" xmlns="http://www.w3.org/2000/svg" version="1.1">
 <metadata>
  <rdf:RDF xmlns:dc="http://purl.org/dc/elements/1.1/" xmlns:cc="http://creativecommons.org/ns#" xmlns:rdf="http://www.w3.org/1999/02/22-rdf-syntax-ns#">
   <cc:Work>
    <dc:type rdf:resource="http://purl.org/dc/dcmitype/StillImage"/>
    <dc:date>2026-07-18T02:30:51.011595</dc:date>
    <dc:format>image/svg+xml</dc:format>
    <dc:creator>
     <cc:Agent>
      <dc:title>Matplotlib v3.10.9, https://matplotlib.org/</dc:title>
     </cc:Agent>
    </dc:creator>
   </cc:Work>
  </rdf:RDF>
 </metadata>
 <defs>
  <style type="text/css">*{stroke-linejoin: round; stroke-linecap: butt}</style>
 </defs>
 <g id="figure_1">
  <g id="patch_1">
   <path d="M 0 335.952 
L 516.6 335.952 
L 516.6 0 
L 0 0 
z
" style="fill: #ffffff"/>
  </g>
  <g id="axes_1">
   <g id="patch_2">
    <path d="M 57.42 134.21304 
L 147.816 134.21304 
Q 165.393 134.21304 165.393 122.95872 
L 165.393 97.23456 
Q 165.393 85.98024 147.816 85.98024 
L 57.42 85.98024 
Q 39.843 85.98024 39.843 97.23456 
L 39.843 122.95872 
Q 39.843 134.21304 57.42 134.21304 
z
" clip-path="url(#p23c3566d36)" style="fill: #f7f9fa; stroke: #9fb3c8; stroke-width: 1.4; stroke-linejoin: miter"/>
   </g>
   <g id="patch_3">
    <path d="M 213.102 198.52344 
L 303.498 198.52344 
Q 321.075 198.52344 321.075 187.26912 
L 321.075 161.54496 
Q 321.075 150.29064 303.498 150.29064 
L 213.102 150.29064 
Q 195.525 150.29064 195.525 161.54496 
L 195.525 187.26912 
Q 195.525 198.52344 213.102 198.52344 
z
" clip-path="url(#p23c3566d36)" style="fill: #f7f9fa; stroke: #9fb3c8; stroke-width: 1.4; stroke-linejoin: miter"/>
   </g>
   <g id="patch_4">
    <path d="M 368.784 275.69592 
L 469.224 275.69592 
Q 486.801 275.69592 486.801 264.4416 
L 486.801 219.42432 
Q 486.801 208.17 469.224 208.17 
L 368.784 208.17 
Q 351.207 208.17 351.207 219.42432 
L 351.207 264.4416 
Q 351.207 275.69592 368.784 275.69592 
z
" clip-path="url(#p23c3566d36)" style="fill: #eaf4fb; stroke: #1f77b4; stroke-width: 1.4; stroke-linejoin: miter"/>
   </g>
   <g id="patch_5">
    <path d="M 161.311092 115.007059 
Q 180.460805 142.254408 198.806924 168.358356 
" clip-path="url(#p23c3566d36)" style="fill: none; stroke: #1f77b4; stroke-width: 1.25; stroke-linecap: round"/>
    <path d="M 197.944092 162.608963 
L 198.806924 168.358356 
L 193.68971 165.598986 
z
" clip-path="url(#p23c3566d36)" style="fill: #1f77b4; stroke: #1f77b4; stroke-width: 1.25; stroke-linecap: round"/>
   </g>
   <g id="patch_6">
    <path d="M 316.877228 179.389879 
Q 336.138856 208.166797 354.623116 235.782325 
" clip-path="url(#p23c3566d36)" style="fill: none; stroke: #1f77b4; stroke-width: 1.25; stroke-linecap: round"/>
    <path d="M 353.891331 230.014787 
L 354.623116 235.782325 
L 349.570015 232.90723 
z
" clip-path="url(#p23c3566d36)" style="fill: #1f77b4; stroke: #1f77b4; stroke-width: 1.25; stroke-linecap: round"/>
   </g>
   <g id="text_1">
    <!-- Evolution of Computational Research -->
    <g style="fill: #1f2933" transform="translate(90.79625 30.61182) scale(0.16 -0.16)">
     <defs>
      <path id="DejaVuSans-Bold-45" d="M 588 4666 
L 3834 4666 
L 3834 3756 
L 1791 3756 
L 1791 2888 
L 3713 2888 
L 3713 1978 
L 1791 1978 
L 1791 909 
L 3903 909 
L 3903 0 
L 588 0 
L 588 4666 
z
" transform="scale(0.015625)"/>
      <path id="DejaVuSans-Bold-76" d="M 97 3500 
L 1216 3500 
L 2088 1081 
L 2956 3500 
L 4078 3500 
L 2700 0 
L 1472 0 
L 97 3500 
z
" transform="scale(0.015625)"/>
      <path id="DejaVuSans-Bold-6f" d="M 2203 2784 
Q 1831 2784 1636 2517 
Q 1441 2250 1441 1747 
Q 1441 1244 1636 976 
Q 1831 709 2203 709 
Q 2569 709 2762 976 
Q 2956 1244 2956 1747 
Q 2956 2250 2762 2517 
Q 2569 2784 2203 2784 
z
M 2203 3584 
Q 3106 3584 3614 3096 
Q 4122 2609 4122 1747 
Q 4122 884 3614 396 
Q 3106 -91 2203 -91 
Q 1297 -91 786 396 
Q 275 884 275 1747 
Q 275 2609 786 3096 
Q 1297 3584 2203 3584 
z
" transform="scale(0.015625)"/>
      <path id="DejaVuSans-Bold-6c" d="M 538 4863 
L 1656 4863 
L 1656 0 
L 538 0 
L 538 4863 
z
" transform="scale(0.015625)"/>
      <path id="DejaVuSans-Bold-75" d="M 500 1363 
L 500 3500 
L 1625 3500 
L 1625 3150 
Q 1625 2866 1622 2436 
Q 1619 2006 1619 1863 
Q 1619 1441 1641 1255 
Q 1663 1069 1716 984 
Q 1784 875 1895 815 
Q 2006 756 2150 756 
Q 2500 756 2700 1025 
Q 2900 1294 2900 1772 
L 2900 3500 
L 4019 3500 
L 4019 0 
L 2900 0 
L 2900 506 
Q 2647 200 2364 54 
Q 2081 -91 1741 -91 
Q 1134 -91 817 281 
Q 500 653 500 1363 
z
" transform="scale(0.015625)"/>
      <path id="DejaVuSans-Bold-74" d="M 1759 4494 
L 1759 3500 
L 2913 3500 
L 2913 2700 
L 1759 2700 
L 1759 1216 
Q 1759 972 1856 886 
Q 1953 800 2241 800 
L 2816 800 
L 2816 0 
L 1856 0 
Q 1194 0 917 276 
Q 641 553 641 1216 
L 641 2700 
L 84 2700 
L 84 3500 
L 641 3500 
L 641 4494 
L 1759 4494 
z
" transform="scale(0.015625)"/>
      <path id="DejaVuSans-Bold-69" d="M 538 3500 
L 1656 3500 
L 1656 0 
L 538 0 
L 538 3500 
z
M 538 4863 
L 1656 4863 
L 1656 3950 
L 538 3950 
L 538 4863 
z
" transform="scale(0.015625)"/>
      <path id="DejaVuSans-Bold-6e" d="M 4056 2131 
L 4056 0 
L 2931 0 
L 2931 347 
L 2931 1631 
Q 2931 2084 2911 2256 
Q 2891 2428 2841 2509 
Q 2775 2619 2662 2680 
Q 2550 2741 2406 2741 
Q 2056 2741 1856 2470 
Q 1656 2200 1656 1722 
L 1656 0 
L 538 0 
L 538 3500 
L 1656 3500 
L 1656 2988 
Q 1909 3294 2193 3439 
Q 2478 3584 2822 3584 
Q 3428 3584 3742 3212 
Q 4056 2841 4056 2131 
z
" transform="scale(0.015625)"/>
      <path id="DejaVuSans-Bold-20" transform="scale(0.015625)"/>
      <path id="DejaVuSans-Bold-66" d="M 2841 4863 
L 2841 4128 
L 2222 4128 
Q 1984 4128 1890 4042 
Q 1797 3956 1797 3744 
L 1797 3500 
L 2753 3500 
L 2753 2700 
L 1797 2700 
L 1797 0 
L 678 0 
L 678 2700 
L 122 2700 
L 122 3500 
L 678 3500 
L 678 3744 
Q 678 4316 997 4589 
Q 1316 4863 1984 4863 
L 2841 4863 
z
" transform="scale(0.015625)"/>
      <path id="DejaVuSans-Bold-43" d="M 4288 256 
Q 3956 84 3597 -3 
Q 3238 -91 2847 -91 
Q 1681 -91 1000 561 
Q 319 1213 319 2328 
Q 319 3447 1000 4098 
Q 1681 4750 2847 4750 
Q 3238 4750 3597 4662 
Q 3956 4575 4288 4403 
L 4288 3438 
Q 3953 3666 3628 3772 
Q 3303 3878 2944 3878 
Q 2300 3878 1931 3465 
Q 1563 3053 1563 2328 
Q 1563 1606 1931 1193 
Q 2300 781 2944 781 
Q 3303 781 3628 887 
Q 3953 994 4288 1222 
L 4288 256 
z
" transform="scale(0.015625)"/>
      <path id="DejaVuSans-Bold-6d" d="M 3781 2919 
Q 3994 3244 4286 3414 
Q 4578 3584 4928 3584 
Q 5531 3584 5847 3212 
Q 6163 2841 6163 2131 
L 6163 0 
L 5038 0 
L 5038 1825 
Q 5041 1866 5042 1909 
Q 5044 1953 5044 2034 
Q 5044 2406 4934 2573 
Q 4825 2741 4581 2741 
Q 4263 2741 4089 2478 
Q 3916 2216 3909 1719 
L 3909 0 
L 2784 0 
L 2784 1825 
Q 2784 2406 2684 2573 
Q 2584 2741 2328 2741 
Q 2006 2741 1831 2477 
Q 1656 2213 1656 1722 
L 1656 0 
L 531 0 
L 531 3500 
L 1656 3500 
L 1656 2988 
Q 1863 3284 2130 3434 
Q 2397 3584 2719 3584 
Q 3081 3584 3359 3409 
Q 3638 3234 3781 2919 
z
" transform="scale(0.015625)"/>
      <path id="DejaVuSans-Bold-70" d="M 1656 506 
L 1656 -1331 
L 538 -1331 
L 538 3500 
L 1656 3500 
L 1656 2988 
Q 1888 3294 2169 3439 
Q 2450 3584 2816 3584 
Q 3463 3584 3878 3070 
Q 4294 2556 4294 1747 
Q 4294 938 3878 423 
Q 3463 -91 2816 -91 
Q 2450 -91 2169 54 
Q 1888 200 1656 506 
z
M 2400 2772 
Q 2041 2772 1848 2508 
Q 1656 2244 1656 1747 
Q 1656 1250 1848 986 
Q 2041 722 2400 722 
Q 2759 722 2948 984 
Q 3138 1247 3138 1747 
Q 3138 2247 2948 2509 
Q 2759 2772 2400 2772 
z
" transform="scale(0.015625)"/>
      <path id="DejaVuSans-Bold-61" d="M 2106 1575 
Q 1756 1575 1579 1456 
Q 1403 1338 1403 1106 
Q 1403 894 1545 773 
Q 1688 653 1941 653 
Q 2256 653 2472 879 
Q 2688 1106 2688 1447 
L 2688 1575 
L 2106 1575 
z
M 3816 1997 
L 3816 0 
L 2688 0 
L 2688 519 
Q 2463 200 2181 54 
Q 1900 -91 1497 -91 
Q 953 -91 614 226 
Q 275 544 275 1050 
Q 275 1666 698 1953 
Q 1122 2241 2028 2241 
L 2688 2241 
L 2688 2328 
Q 2688 2594 2478 2717 
Q 2269 2841 1825 2841 
Q 1466 2841 1156 2769 
Q 847 2697 581 2553 
L 581 3406 
Q 941 3494 1303 3539 
Q 1666 3584 2028 3584 
Q 2975 3584 3395 3211 
Q 3816 2838 3816 1997 
z
" transform="scale(0.015625)"/>
      <path id="DejaVuSans-Bold-52" d="M 2297 2597 
Q 2675 2597 2839 2737 
Q 3003 2878 3003 3200 
Q 3003 3519 2839 3656 
Q 2675 3794 2297 3794 
L 1791 3794 
L 1791 2597 
L 2297 2597 
z
M 1791 1766 
L 1791 0 
L 588 0 
L 588 4666 
L 2425 4666 
Q 3347 4666 3776 4356 
Q 4206 4047 4206 3378 
Q 4206 2916 3982 2619 
Q 3759 2322 3309 2181 
Q 3556 2125 3751 1926 
Q 3947 1728 4147 1325 
L 4800 0 
L 3519 0 
L 2950 1159 
Q 2778 1509 2601 1637 
Q 2425 1766 2131 1766 
L 1791 1766 
z
" transform="scale(0.015625)"/>
      <path id="DejaVuSans-Bold-65" d="M 4031 1759 
L 4031 1441 
L 1416 1441 
Q 1456 1047 1700 850 
Q 1944 653 2381 653 
Q 2734 653 3104 758 
Q 3475 863 3866 1075 
L 3866 213 
Q 3469 63 3072 -14 
Q 2675 -91 2278 -91 
Q 1328 -91 801 392 
Q 275 875 275 1747 
Q 275 2603 792 3093 
Q 1309 3584 2216 3584 
Q 3041 3584 3536 3087 
Q 4031 2591 4031 1759 
z
M 2881 2131 
Q 2881 2450 2695 2645 
Q 2509 2841 2209 2841 
Q 1884 2841 1681 2658 
Q 1478 2475 1428 2131 
L 2881 2131 
z
" transform="scale(0.015625)"/>
      <path id="DejaVuSans-Bold-73" d="M 3272 3391 
L 3272 2541 
Q 2913 2691 2578 2766 
Q 2244 2841 1947 2841 
Q 1628 2841 1473 2761 
Q 1319 2681 1319 2516 
Q 1319 2381 1436 2309 
Q 1553 2238 1856 2203 
L 2053 2175 
Q 2913 2066 3209 1816 
Q 3506 1566 3506 1031 
Q 3506 472 3093 190 
Q 2681 -91 1863 -91 
Q 1516 -91 1145 -36 
Q 775 19 384 128 
L 384 978 
Q 719 816 1070 734 
Q 1422 653 1784 653 
Q 2113 653 2278 743 
Q 2444 834 2444 1013 
Q 2444 1163 2330 1236 
Q 2216 1309 1875 1350 
L 1678 1375 
Q 931 1469 631 1722 
Q 331 1975 331 2491 
Q 331 3047 712 3315 
Q 1094 3584 1881 3584 
Q 2191 3584 2531 3537 
Q 2872 3491 3272 3391 
z
" transform="scale(0.015625)"/>
      <path id="DejaVuSans-Bold-72" d="M 3138 2547 
Q 2991 2616 2845 2648 
Q 2700 2681 2553 2681 
Q 2122 2681 1889 2404 
Q 1656 2128 1656 1613 
L 1656 0 
L 538 0 
L 538 3500 
L 1656 3500 
L 1656 2925 
Q 1872 3269 2151 3426 
Q 2431 3584 2822 3584 
Q 2878 3584 2943 3579 
Q 3009 3575 3134 3559 
L 3138 2547 
z
" transform="scale(0.015625)"/>
      <path id="DejaVuSans-Bold-63" d="M 3366 3391 
L 3366 2478 
Q 3138 2634 2908 2709 
Q 2678 2784 2431 2784 
Q 1963 2784 1702 2511 
Q 1441 2238 1441 1747 
Q 1441 1256 1702 982 
Q 1963 709 2431 709 
Q 2694 709 2930 787 
Q 3166 866 3366 1019 
L 3366 103 
Q 3103 6 2833 -42 
Q 2563 -91 2291 -91 
Q 1344 -91 809 395 
Q 275 881 275 1747 
Q 275 2613 809 3098 
Q 1344 3584 2291 3584 
Q 2566 3584 2833 3536 
Q 3100 3488 3366 3391 
z
" transform="scale(0.015625)"/>
      <path id="DejaVuSans-Bold-68" d="M 4056 2131 
L 4056 0 
L 2931 0 
L 2931 347 
L 2931 1625 
Q 2931 2084 2911 2256 
Q 2891 2428 2841 2509 
Q 2775 2619 2662 2680 
Q 2550 2741 2406 2741 
Q 2056 2741 1856 2470 
Q 1656 2200 1656 1722 
L 1656 0 
L 538 0 
L 538 4863 
L 1656 4863 
L 1656 2988 
Q 1909 3294 2193 3439 
Q 2478 3584 2822 3584 
Q 3428 3584 3742 3212 
Q 4056 2841 4056 2131 
z
" transform="scale(0.015625)"/>
     </defs>
     <use xlink:href="#DejaVuSans-Bold-45"/>
     <use xlink:href="#DejaVuSans-Bold-76" transform="translate(68.310547 0)"/>
     <use xlink:href="#DejaVuSans-Bold-6f" transform="translate(133.496094 0)"/>
     <use xlink:href="#DejaVuSans-Bold-6c" transform="translate(202.197266 0)"/>
     <use xlink:href="#DejaVuSans-Bold-75" transform="translate(236.474609 0)"/>
     <use xlink:href="#DejaVuSans-Bold-74" transform="translate(307.666016 0)"/>
     <use xlink:href="#DejaVuSans-Bold-69" transform="translate(355.46875 0)"/>
     <use xlink:href="#DejaVuSans-Bold-6f" transform="translate(389.746094 0)"/>
     <use xlink:href="#DejaVuSans-Bold-6e" transform="translate(458.447266 0)"/>
     <use xlink:href="#DejaVuSans-Bold-20" transform="translate(529.638672 0)"/>
     <use xlink:href="#DejaVuSans-Bold-6f" transform="translate(564.453125 0)"/>
     <use xlink:href="#DejaVuSans-Bold-66" transform="translate(633.154297 0)"/>
     <use xlink:href="#DejaVuSans-Bold-20" transform="translate(676.660156 0)"/>
     <use xlink:href="#DejaVuSans-Bold-43" transform="translate(711.474609 0)"/>
     <use xlink:href="#DejaVuSans-Bold-6f" transform="translate(784.863281 0)"/>
     <use xlink:href="#DejaVuSans-Bold-6d" transform="translate(853.564453 0)"/>
     <use xlink:href="#DejaVuSans-Bold-70" transform="translate(957.763672 0)"/>
     <use xlink:href="#DejaVuSans-Bold-75" transform="translate(1029.345703 0)"/>
     <use xlink:href="#DejaVuSans-Bold-74" transform="translate(1100.537109 0)"/>
     <use xlink:href="#DejaVuSans-Bold-61" transform="translate(1148.339844 0)"/>
     <use xlink:href="#DejaVuSans-Bold-74" transform="translate(1215.820312 0)"/>
     <use xlink:href="#DejaVuSans-Bold-69" transform="translate(1263.623047 0)"/>
     <use xlink:href="#DejaVuSans-Bold-6f" transform="translate(1297.900391 0)"/>
     <use xlink:href="#DejaVuSans-Bold-6e" transform="translate(1366.601562 0)"/>
     <use xlink:href="#DejaVuSans-Bold-61" transform="translate(1437.792969 0)"/>
     <use xlink:href="#DejaVuSans-Bold-6c" transform="translate(1505.273438 0)"/>
     <use xlink:href="#DejaVuSans-Bold-20" transform="translate(1539.550781 0)"/>
     <use xlink:href="#DejaVuSans-Bold-52" transform="translate(1574.365234 0)"/>
     <use xlink:href="#DejaVuSans-Bold-65" transform="translate(1651.367188 0)"/>
     <use xlink:href="#DejaVuSans-Bold-73" transform="translate(1719.189453 0)"/>
     <use xlink:href="#DejaVuSans-Bold-65" transform="translate(1778.710938 0)"/>
     <use xlink:href="#DejaVuSans-Bold-61" transform="translate(1846.533203 0)"/>
     <use xlink:href="#DejaVuSans-Bold-72" transform="translate(1914.013672 0)"/>
     <use xlink:href="#DejaVuSans-Bold-63" transform="translate(1963.330078 0)"/>
     <use xlink:href="#DejaVuSans-Bold-68" transform="translate(2022.607422 0)"/>
    </g>
   </g>
   <g id="text_2">
    <!-- From computation to persistent scientific infrastructure -->
    <g style="fill: #52616b" transform="translate(133.735781 41.370514) scale(0.09 -0.09)">
     <defs>
      <path id="DejaVuSans-46" d="M 628 4666 
L 3309 4666 
L 3309 4134 
L 1259 4134 
L 1259 2759 
L 3109 2759 
L 3109 2228 
L 1259 2228 
L 1259 0 
L 628 0 
L 628 4666 
z
" transform="scale(0.015625)"/>
      <path id="DejaVuSans-72" d="M 2631 2963 
Q 2534 3019 2420 3045 
Q 2306 3072 2169 3072 
Q 1681 3072 1420 2755 
Q 1159 2438 1159 1844 
L 1159 0 
L 581 0 
L 581 3500 
L 1159 3500 
L 1159 2956 
Q 1341 3275 1631 3429 
Q 1922 3584 2338 3584 
Q 2397 3584 2469 3576 
Q 2541 3569 2628 3553 
L 2631 2963 
z
" transform="scale(0.015625)"/>
      <path id="DejaVuSans-6f" d="M 1959 3097 
Q 1497 3097 1228 2736 
Q 959 2375 959 1747 
Q 959 1119 1226 758 
Q 1494 397 1959 397 
Q 2419 397 2687 759 
Q 2956 1122 2956 1747 
Q 2956 2369 2687 2733 
Q 2419 3097 1959 3097 
z
M 1959 3584 
Q 2709 3584 3137 3096 
Q 3566 2609 3566 1747 
Q 3566 888 3137 398 
Q 2709 -91 1959 -91 
Q 1206 -91 779 398 
Q 353 888 353 1747 
Q 353 2609 779 3096 
Q 1206 3584 1959 3584 
z
" transform="scale(0.015625)"/>
      <path id="DejaVuSans-6d" d="M 3328 2828 
Q 3544 3216 3844 3400 
Q 4144 3584 4550 3584 
Q 5097 3584 5394 3201 
Q 5691 2819 5691 2113 
L 5691 0 
L 5113 0 
L 5113 2094 
Q 5113 2597 4934 2840 
Q 4756 3084 4391 3084 
Q 3944 3084 3684 2787 
Q 3425 2491 3425 1978 
L 3425 0 
L 2847 0 
L 2847 2094 
Q 2847 2600 2669 2842 
Q 2491 3084 2119 3084 
Q 1678 3084 1418 2786 
Q 1159 2488 1159 1978 
L 1159 0 
L 581 0 
L 581 3500 
L 1159 3500 
L 1159 2956 
Q 1356 3278 1631 3431 
Q 1906 3584 2284 3584 
Q 2666 3584 2933 3390 
Q 3200 3197 3328 2828 
z
" transform="scale(0.015625)"/>
      <path id="DejaVuSans-20" transform="scale(0.015625)"/>
      <path id="DejaVuSans-63" d="M 3122 3366 
L 3122 2828 
Q 2878 2963 2633 3030 
Q 2388 3097 2138 3097 
Q 1578 3097 1268 2742 
Q 959 2388 959 1747 
Q 959 1106 1268 751 
Q 1578 397 2138 397 
Q 2388 397 2633 464 
Q 2878 531 3122 666 
L 3122 134 
Q 2881 22 2623 -34 
Q 2366 -91 2075 -91 
Q 1284 -91 818 406 
Q 353 903 353 1747 
Q 353 2603 823 3093 
Q 1294 3584 2113 3584 
Q 2378 3584 2631 3529 
Q 2884 3475 3122 3366 
z
" transform="scale(0.015625)"/>
      <path id="DejaVuSans-70" d="M 1159 525 
L 1159 -1331 
L 581 -1331 
L 581 3500 
L 1159 3500 
L 1159 2969 
Q 1341 3281 1617 3432 
Q 1894 3584 2278 3584 
Q 2916 3584 3314 3078 
Q 3713 2572 3713 1747 
Q 3713 922 3314 415 
Q 2916 -91 2278 -91 
Q 1894 -91 1617 61 
Q 1341 213 1159 525 
z
M 3116 1747 
Q 3116 2381 2855 2742 
Q 2594 3103 2138 3103 
Q 1681 3103 1420 2742 
Q 1159 2381 1159 1747 
Q 1159 1113 1420 752 
Q 1681 391 2138 391 
Q 2594 391 2855 752 
Q 3116 1113 3116 1747 
z
" transform="scale(0.015625)"/>
      <path id="DejaVuSans-75" d="M 544 1381 
L 544 3500 
L 1119 3500 
L 1119 1403 
Q 1119 906 1312 657 
Q 1506 409 1894 409 
Q 2359 409 2629 706 
Q 2900 1003 2900 1516 
L 2900 3500 
L 3475 3500 
L 3475 0 
L 2900 0 
L 2900 538 
Q 2691 219 2414 64 
Q 2138 -91 1772 -91 
Q 1169 -91 856 284 
Q 544 659 544 1381 
z
M 1991 3584 
L 1991 3584 
z
" transform="scale(0.015625)"/>
      <path id="DejaVuSans-74" d="M 1172 4494 
L 1172 3500 
L 2356 3500 
L 2356 3053 
L 1172 3053 
L 1172 1153 
Q 1172 725 1289 603 
Q 1406 481 1766 481 
L 2356 481 
L 2356 0 
L 1766 0 
Q 1100 0 847 248 
Q 594 497 594 1153 
L 594 3053 
L 172 3053 
L 172 3500 
L 594 3500 
L 594 4494 
L 1172 4494 
z
" transform="scale(0.015625)"/>
      <path id="DejaVuSans-61" d="M 2194 1759 
Q 1497 1759 1228 1600 
Q 959 1441 959 1056 
Q 959 750 1161 570 
Q 1363 391 1709 391 
Q 2188 391 2477 730 
Q 2766 1069 2766 1631 
L 2766 1759 
L 2194 1759 
z
M 3341 1997 
L 3341 0 
L 2766 0 
L 2766 531 
Q 2569 213 2275 61 
Q 1981 -91 1556 -91 
Q 1019 -91 701 211 
Q 384 513 384 1019 
Q 384 1609 779 1909 
Q 1175 2209 1959 2209 
L 2766 2209 
L 2766 2266 
Q 2766 2663 2505 2880 
Q 2244 3097 1772 3097 
Q 1472 3097 1187 3025 
Q 903 2953 641 2809 
L 641 3341 
Q 956 3463 1253 3523 
Q 1550 3584 1831 3584 
Q 2591 3584 2966 3190 
Q 3341 2797 3341 1997 
z
" transform="scale(0.015625)"/>
      <path id="DejaVuSans-69" d="M 603 3500 
L 1178 3500 
L 1178 0 
L 603 0 
L 603 3500 
z
M 603 4863 
L 1178 4863 
L 1178 4134 
L 603 4134 
L 603 4863 
z
" transform="scale(0.015625)"/>
      <path id="DejaVuSans-6e" d="M 3513 2113 
L 3513 0 
L 2938 0 
L 2938 2094 
Q 2938 2591 2744 2837 
Q 2550 3084 2163 3084 
Q 1697 3084 1428 2787 
Q 1159 2491 1159 1978 
L 1159 0 
L 581 0 
L 581 3500 
L 1159 3500 
L 1159 2956 
Q 1366 3272 1645 3428 
Q 1925 3584 2291 3584 
Q 2894 3584 3203 3211 
Q 3513 2838 3513 2113 
z
" transform="scale(0.015625)"/>
      <path id="DejaVuSans-65" d="M 3597 1894 
L 3597 1613 
L 953 1613 
Q 991 1019 1311 708 
Q 1631 397 2203 397 
Q 2534 397 2845 478 
Q 3156 559 3463 722 
L 3463 178 
Q 3153 47 2828 -22 
Q 2503 -91 2169 -91 
Q 1331 -91 842 396 
Q 353 884 353 1716 
Q 353 2575 817 3079 
Q 1281 3584 2069 3584 
Q 2775 3584 3186 3129 
Q 3597 2675 3597 1894 
z
M 3022 2063 
Q 3016 2534 2758 2815 
Q 2500 3097 2075 3097 
Q 1594 3097 1305 2825 
Q 1016 2553 972 2059 
L 3022 2063 
z
" transform="scale(0.015625)"/>
      <path id="DejaVuSans-73" d="M 2834 3397 
L 2834 2853 
Q 2591 2978 2328 3040 
Q 2066 3103 1784 3103 
Q 1356 3103 1142 2972 
Q 928 2841 928 2578 
Q 928 2378 1081 2264 
Q 1234 2150 1697 2047 
L 1894 2003 
Q 2506 1872 2764 1633 
Q 3022 1394 3022 966 
Q 3022 478 2636 193 
Q 2250 -91 1575 -91 
Q 1294 -91 989 -36 
Q 684 19 347 128 
L 347 722 
Q 666 556 975 473 
Q 1284 391 1588 391 
Q 1994 391 2212 530 
Q 2431 669 2431 922 
Q 2431 1156 2273 1281 
Q 2116 1406 1581 1522 
L 1381 1569 
Q 847 1681 609 1914 
Q 372 2147 372 2553 
Q 372 3047 722 3315 
Q 1072 3584 1716 3584 
Q 2034 3584 2315 3537 
Q 2597 3491 2834 3397 
z
" transform="scale(0.015625)"/>
      <path id="DejaVuSans-66" d="M 2375 4863 
L 2375 4384 
L 1825 4384 
Q 1516 4384 1395 4259 
Q 1275 4134 1275 3809 
L 1275 3500 
L 2222 3500 
L 2222 3053 
L 1275 3053 
L 1275 0 
L 697 0 
L 697 3053 
L 147 3053 
L 147 3500 
L 697 3500 
L 697 3744 
Q 697 4328 969 4595 
Q 1241 4863 1831 4863 
L 2375 4863 
z
" transform="scale(0.015625)"/>
     </defs>
     <use xlink:href="#DejaVuSans-46"/>
     <use xlink:href="#DejaVuSans-72" transform="translate(50.269531 0)"/>
     <use xlink:href="#DejaVuSans-6f" transform="translate(89.132812 0)"/>
     <use xlink:href="#DejaVuSans-6d" transform="translate(150.314453 0)"/>
     <use xlink:href="#DejaVuSans-20" transform="translate(247.726562 0)"/>
     <use xlink:href="#DejaVuSans-63" transform="translate(279.513672 0)"/>
     <use xlink:href="#DejaVuSans-6f" transform="translate(334.494141 0)"/>
     <use xlink:href="#DejaVuSans-6d" transform="translate(395.675781 0)"/>
     <use xlink:href="#DejaVuSans-70" transform="translate(493.087891 0)"/>
     <use xlink:href="#DejaVuSans-75" transform="translate(556.564453 0)"/>
     <use xlink:href="#DejaVuSans-74" transform="translate(619.943359 0)"/>
     <use xlink:href="#DejaVuSans-61" transform="translate(659.152344 0)"/>
     <use xlink:href="#DejaVuSans-74" transform="translate(720.431641 0)"/>
     <use xlink:href="#DejaVuSans-69" transform="translate(759.640625 0)"/>
     <use xlink:href="#DejaVuSans-6f" transform="translate(787.423828 0)"/>
     <use xlink:href="#DejaVuSans-6e" transform="translate(848.605469 0)"/>
     <use xlink:href="#DejaVuSans-20" transform="translate(911.984375 0)"/>
     <use xlink:href="#DejaVuSans-74" transform="translate(943.771484 0)"/>
     <use xlink:href="#DejaVuSans-6f" transform="translate(982.980469 0)"/>
     <use xlink:href="#DejaVuSans-20" transform="translate(1044.162109 0)"/>
     <use xlink:href="#DejaVuSans-70" transform="translate(1075.949219 0)"/>
     <use xlink:href="#DejaVuSans-65" transform="translate(1139.425781 0)"/>
     <use xlink:href="#DejaVuSans-72" transform="translate(1200.949219 0)"/>
     <use xlink:href="#DejaVuSans-73" transform="translate(1242.0625 0)"/>
     <use xlink:href="#DejaVuSans-69" transform="translate(1294.162109 0)"/>
     <use xlink:href="#DejaVuSans-73" transform="translate(1321.945312 0)"/>
     <use xlink:href="#DejaVuSans-74" transform="translate(1374.044922 0)"/>
     <use xlink:href="#DejaVuSans-65" transform="translate(1413.253906 0)"/>
     <use xlink:href="#DejaVuSans-6e" transform="translate(1474.777344 0)"/>
     <use xlink:href="#DejaVuSans-74" transform="translate(1538.15625 0)"/>
     <use xlink:href="#DejaVuSans-20" transform="translate(1577.365234 0)"/>
     <use xlink:href="#DejaVuSans-73" transform="translate(1609.152344 0)"/>
     <use xlink:href="#DejaVuSans-63" transform="translate(1661.251953 0)"/>
     <use xlink:href="#DejaVuSans-69" transform="translate(1716.232422 0)"/>
     <use xlink:href="#DejaVuSans-65" transform="translate(1744.015625 0)"/>
     <use xlink:href="#DejaVuSans-6e" transform="translate(1805.539062 0)"/>
     <use xlink:href="#DejaVuSans-74" transform="translate(1868.917969 0)"/>
     <use xlink:href="#DejaVuSans-69" transform="translate(1908.126953 0)"/>
     <use xlink:href="#DejaVuSans-66" transform="translate(1935.910156 0)"/>
     <use xlink:href="#DejaVuSans-69" transform="translate(1971.115234 0)"/>
     <use xlink:href="#DejaVuSans-63" transform="translate(1998.898438 0)"/>
     <use xlink:href="#DejaVuSans-20" transform="translate(2053.878906 0)"/>
     <use xlink:href="#DejaVuSans-69" transform="translate(2085.666016 0)"/>
     <use xlink:href="#DejaVuSans-6e" transform="translate(2113.449219 0)"/>
     <use xlink:href="#DejaVuSans-66" transform="translate(2176.828125 0)"/>
     <use xlink:href="#DejaVuSans-72" transform="translate(2212.033203 0)"/>
     <use xlink:href="#DejaVuSans-61" transform="translate(2253.146484 0)"/>
     <use xlink:href="#DejaVuSans-73" transform="translate(2314.425781 0)"/>
     <use xlink:href="#DejaVuSans-74" transform="translate(2366.525391 0)"/>
     <use xlink:href="#DejaVuSans-72" transform="translate(2405.734375 0)"/>
     <use xlink:href="#DejaVuSans-75" transform="translate(2446.847656 0)"/>
     <use xlink:href="#DejaVuSans-63" transform="translate(2510.226562 0)"/>
     <use xlink:href="#DejaVuSans-74" transform="translate(2565.207031 0)"/>
     <use xlink:href="#DejaVuSans-75" transform="translate(2604.416016 0)"/>
     <use xlink:href="#DejaVuSans-72" transform="translate(2667.794922 0)"/>
     <use xlink:href="#DejaVuSans-65" transform="translate(2706.658203 0)"/>
    </g>
   </g>
   <g id="text_3">
    <!-- 1960s-1980s -->
    <g style="fill: #1f2933" transform="translate(76.647375 107.825015) scale(0.08 -0.08)">
     <defs>
      <path id="DejaVuSans-31" d="M 794 531 
L 1825 531 
L 1825 4091 
L 703 3866 
L 703 4441 
L 1819 4666 
L 2450 4666 
L 2450 531 
L 3481 531 
L 3481 0 
L 794 0 
L 794 531 
z
" transform="scale(0.015625)"/>
      <path id="DejaVuSans-39" d="M 703 97 
L 703 672 
Q 941 559 1184 500 
Q 1428 441 1663 441 
Q 2288 441 2617 861 
Q 2947 1281 2994 2138 
Q 2813 1869 2534 1725 
Q 2256 1581 1919 1581 
Q 1219 1581 811 2004 
Q 403 2428 403 3163 
Q 403 3881 828 4315 
Q 1253 4750 1959 4750 
Q 2769 4750 3195 4129 
Q 3622 3509 3622 2328 
Q 3622 1225 3098 567 
Q 2575 -91 1691 -91 
Q 1453 -91 1209 -44 
Q 966 3 703 97 
z
M 1959 2075 
Q 2384 2075 2632 2365 
Q 2881 2656 2881 3163 
Q 2881 3666 2632 3958 
Q 2384 4250 1959 4250 
Q 1534 4250 1286 3958 
Q 1038 3666 1038 3163 
Q 1038 2656 1286 2365 
Q 1534 2075 1959 2075 
z
" transform="scale(0.015625)"/>
      <path id="DejaVuSans-36" d="M 2113 2584 
Q 1688 2584 1439 2293 
Q 1191 2003 1191 1497 
Q 1191 994 1439 701 
Q 1688 409 2113 409 
Q 2538 409 2786 701 
Q 3034 994 3034 1497 
Q 3034 2003 2786 2293 
Q 2538 2584 2113 2584 
z
M 3366 4563 
L 3366 3988 
Q 3128 4100 2886 4159 
Q 2644 4219 2406 4219 
Q 1781 4219 1451 3797 
Q 1122 3375 1075 2522 
Q 1259 2794 1537 2939 
Q 1816 3084 2150 3084 
Q 2853 3084 3261 2657 
Q 3669 2231 3669 1497 
Q 3669 778 3244 343 
Q 2819 -91 2113 -91 
Q 1303 -91 875 529 
Q 447 1150 447 2328 
Q 447 3434 972 4092 
Q 1497 4750 2381 4750 
Q 2619 4750 2861 4703 
Q 3103 4656 3366 4563 
z
" transform="scale(0.015625)"/>
      <path id="DejaVuSans-30" d="M 2034 4250 
Q 1547 4250 1301 3770 
Q 1056 3291 1056 2328 
Q 1056 1369 1301 889 
Q 1547 409 2034 409 
Q 2525 409 2770 889 
Q 3016 1369 3016 2328 
Q 3016 3291 2770 3770 
Q 2525 4250 2034 4250 
z
M 2034 4750 
Q 2819 4750 3233 4129 
Q 3647 3509 3647 2328 
Q 3647 1150 3233 529 
Q 2819 -91 2034 -91 
Q 1250 -91 836 529 
Q 422 1150 422 2328 
Q 422 3509 836 4129 
Q 1250 4750 2034 4750 
z
" transform="scale(0.015625)"/>
      <path id="DejaVuSans-2d" d="M 313 2009 
L 1997 2009 
L 1997 1497 
L 313 1497 
L 313 2009 
z
" transform="scale(0.015625)"/>
      <path id="DejaVuSans-38" d="M 2034 2216 
Q 1584 2216 1326 1975 
Q 1069 1734 1069 1313 
Q 1069 891 1326 650 
Q 1584 409 2034 409 
Q 2484 409 2743 651 
Q 3003 894 3003 1313 
Q 3003 1734 2745 1975 
Q 2488 2216 2034 2216 
z
M 1403 2484 
Q 997 2584 770 2862 
Q 544 3141 544 3541 
Q 544 4100 942 4425 
Q 1341 4750 2034 4750 
Q 2731 4750 3128 4425 
Q 3525 4100 3525 3541 
Q 3525 3141 3298 2862 
Q 3072 2584 2669 2484 
Q 3125 2378 3379 2068 
Q 3634 1759 3634 1313 
Q 3634 634 3220 271 
Q 2806 -91 2034 -91 
Q 1263 -91 848 271 
Q 434 634 434 1313 
Q 434 1759 690 2068 
Q 947 2378 1403 2484 
z
M 1172 3481 
Q 1172 3119 1398 2916 
Q 1625 2713 2034 2713 
Q 2441 2713 2670 2916 
Q 2900 3119 2900 3481 
Q 2900 3844 2670 4047 
Q 2441 4250 2034 4250 
Q 1625 4250 1398 4047 
Q 1172 3844 1172 3481 
z
" transform="scale(0.015625)"/>
     </defs>
     <use xlink:href="#DejaVuSans-31"/>
     <use xlink:href="#DejaVuSans-39" transform="translate(63.623047 0)"/>
     <use xlink:href="#DejaVuSans-36" transform="translate(127.246094 0)"/>
     <use xlink:href="#DejaVuSans-30" transform="translate(190.869141 0)"/>
     <use xlink:href="#DejaVuSans-73" transform="translate(254.492188 0)"/>
     <use xlink:href="#DejaVuSans-2d" transform="translate(306.591797 0)"/>
     <use xlink:href="#DejaVuSans-31" transform="translate(342.675781 0)"/>
     <use xlink:href="#DejaVuSans-39" transform="translate(406.298828 0)"/>
     <use xlink:href="#DejaVuSans-38" transform="translate(469.921875 0)"/>
     <use xlink:href="#DejaVuSans-30" transform="translate(533.544922 0)"/>
     <use xlink:href="#DejaVuSans-73" transform="translate(597.167969 0)"/>
    </g>
    <!-- Can we compute? -->
    <g style="fill: #1f2933" transform="translate(66.793625 116.783265) scale(0.08 -0.08)">
     <defs>
      <path id="DejaVuSans-43" d="M 4122 4306 
L 4122 3641 
Q 3803 3938 3442 4084 
Q 3081 4231 2675 4231 
Q 1875 4231 1450 3742 
Q 1025 3253 1025 2328 
Q 1025 1406 1450 917 
Q 1875 428 2675 428 
Q 3081 428 3442 575 
Q 3803 722 4122 1019 
L 4122 359 
Q 3791 134 3420 21 
Q 3050 -91 2638 -91 
Q 1578 -91 968 557 
Q 359 1206 359 2328 
Q 359 3453 968 4101 
Q 1578 4750 2638 4750 
Q 3056 4750 3426 4639 
Q 3797 4528 4122 4306 
z
" transform="scale(0.015625)"/>
      <path id="DejaVuSans-77" d="M 269 3500 
L 844 3500 
L 1563 769 
L 2278 3500 
L 2956 3500 
L 3675 769 
L 4391 3500 
L 4966 3500 
L 4050 0 
L 3372 0 
L 2619 2869 
L 1863 0 
L 1184 0 
L 269 3500 
z
" transform="scale(0.015625)"/>
      <path id="DejaVuSans-3f" d="M 1222 794 
L 1856 794 
L 1856 0 
L 1222 0 
L 1222 794 
z
M 1838 1253 
L 1241 1253 
L 1241 1734 
Q 1241 2050 1328 2253 
Q 1416 2456 1697 2725 
L 1978 3003 
Q 2156 3169 2236 3316 
Q 2316 3463 2316 3616 
Q 2316 3894 2111 4066 
Q 1906 4238 1569 4238 
Q 1322 4238 1042 4128 
Q 763 4019 459 3809 
L 459 4397 
Q 753 4575 1054 4662 
Q 1356 4750 1678 4750 
Q 2253 4750 2601 4447 
Q 2950 4144 2950 3647 
Q 2950 3409 2837 3195 
Q 2725 2981 2444 2713 
L 2169 2444 
Q 2022 2297 1961 2214 
Q 1900 2131 1875 2053 
Q 1856 1988 1847 1894 
Q 1838 1800 1838 1638 
L 1838 1253 
z
" transform="scale(0.015625)"/>
     </defs>
     <use xlink:href="#DejaVuSans-43"/>
     <use xlink:href="#DejaVuSans-61" transform="translate(69.824219 0)"/>
     <use xlink:href="#DejaVuSans-6e" transform="translate(131.103516 0)"/>
     <use xlink:href="#DejaVuSans-20" transform="translate(194.482422 0)"/>
     <use xlink:href="#DejaVuSans-77" transform="translate(226.269531 0)"/>
     <use xlink:href="#DejaVuSans-65" transform="translate(308.056641 0)"/>
     <use xlink:href="#DejaVuSans-20" transform="translate(369.580078 0)"/>
     <use xlink:href="#DejaVuSans-63" transform="translate(401.367188 0)"/>
     <use xlink:href="#DejaVuSans-6f" transform="translate(456.347656 0)"/>
     <use xlink:href="#DejaVuSans-6d" transform="translate(517.529297 0)"/>
     <use xlink:href="#DejaVuSans-70" transform="translate(614.941406 0)"/>
     <use xlink:href="#DejaVuSans-75" transform="translate(678.417969 0)"/>
     <use xlink:href="#DejaVuSans-74" transform="translate(741.796875 0)"/>
     <use xlink:href="#DejaVuSans-65" transform="translate(781.005859 0)"/>
     <use xlink:href="#DejaVuSans-3f" transform="translate(842.529297 0)"/>
    </g>
   </g>
   <g id="text_4">
    <!-- 1990s-2010s -->
    <g style="fill: #1f2933" transform="translate(232.329375 172.135415) scale(0.08 -0.08)">
     <defs>
      <path id="DejaVuSans-32" d="M 1228 531 
L 3431 531 
L 3431 0 
L 469 0 
L 469 531 
Q 828 903 1448 1529 
Q 2069 2156 2228 2338 
Q 2531 2678 2651 2914 
Q 2772 3150 2772 3378 
Q 2772 3750 2511 3984 
Q 2250 4219 1831 4219 
Q 1534 4219 1204 4116 
Q 875 4013 500 3803 
L 500 4441 
Q 881 4594 1212 4672 
Q 1544 4750 1819 4750 
Q 2544 4750 2975 4387 
Q 3406 4025 3406 3419 
Q 3406 3131 3298 2873 
Q 3191 2616 2906 2266 
Q 2828 2175 2409 1742 
Q 1991 1309 1228 531 
z
" transform="scale(0.015625)"/>
     </defs>
     <use xlink:href="#DejaVuSans-31"/>
     <use xlink:href="#DejaVuSans-39" transform="translate(63.623047 0)"/>
     <use xlink:href="#DejaVuSans-39" transform="translate(127.246094 0)"/>
     <use xlink:href="#DejaVuSans-30" transform="translate(190.869141 0)"/>
     <use xlink:href="#DejaVuSans-73" transform="translate(254.492188 0)"/>
     <use xlink:href="#DejaVuSans-2d" transform="translate(306.591797 0)"/>
     <use xlink:href="#DejaVuSans-32" transform="translate(342.675781 0)"/>
     <use xlink:href="#DejaVuSans-30" transform="translate(406.298828 0)"/>
     <use xlink:href="#DejaVuSans-31" transform="translate(469.921875 0)"/>
     <use xlink:href="#DejaVuSans-30" transform="translate(533.544922 0)"/>
     <use xlink:href="#DejaVuSans-73" transform="translate(597.167969 0)"/>
    </g>
    <!-- Can we compute faster? -->
    <g style="fill: #1f2933" transform="translate(209.5875 181.093665) scale(0.08 -0.08)">
     <use xlink:href="#DejaVuSans-43"/>
     <use xlink:href="#DejaVuSans-61" transform="translate(69.824219 0)"/>
     <use xlink:href="#DejaVuSans-6e" transform="translate(131.103516 0)"/>
     <use xlink:href="#DejaVuSans-20" transform="translate(194.482422 0)"/>
     <use xlink:href="#DejaVuSans-77" transform="translate(226.269531 0)"/>
     <use xlink:href="#DejaVuSans-65" transform="translate(308.056641 0)"/>
     <use xlink:href="#DejaVuSans-20" transform="translate(369.580078 0)"/>
     <use xlink:href="#DejaVuSans-63" transform="translate(401.367188 0)"/>
     <use xlink:href="#DejaVuSans-6f" transform="translate(456.347656 0)"/>
     <use xlink:href="#DejaVuSans-6d" transform="translate(517.529297 0)"/>
     <use xlink:href="#DejaVuSans-70" transform="translate(614.941406 0)"/>
     <use xlink:href="#DejaVuSans-75" transform="translate(678.417969 0)"/>
     <use xlink:href="#DejaVuSans-74" transform="translate(741.796875 0)"/>
     <use xlink:href="#DejaVuSans-65" transform="translate(781.005859 0)"/>
     <use xlink:href="#DejaVuSans-20" transform="translate(842.529297 0)"/>
     <use xlink:href="#DejaVuSans-66" transform="translate(874.316406 0)"/>
     <use xlink:href="#DejaVuSans-61" transform="translate(909.521484 0)"/>
     <use xlink:href="#DejaVuSans-73" transform="translate(970.800781 0)"/>
     <use xlink:href="#DejaVuSans-74" transform="translate(1022.900391 0)"/>
     <use xlink:href="#DejaVuSans-65" transform="translate(1062.109375 0)"/>
     <use xlink:href="#DejaVuSans-72" transform="translate(1123.632812 0)"/>
     <use xlink:href="#DejaVuSans-3f" transform="translate(1164.746094 0)"/>
    </g>
   </g>
   <g id="text_5">
    <!-- 2020s- -->
    <g style="fill: #1f2933" transform="translate(405.297125 226.22396) scale(0.08 -0.08)">
     <use xlink:href="#DejaVuSans-32"/>
     <use xlink:href="#DejaVuSans-30" transform="translate(63.623047 0)"/>
     <use xlink:href="#DejaVuSans-32" transform="translate(127.246094 0)"/>
     <use xlink:href="#DejaVuSans-30" transform="translate(190.869141 0)"/>
     <use xlink:href="#DejaVuSans-73" transform="translate(254.492188 0)"/>
     <use xlink:href="#DejaVuSans-2d" transform="translate(306.591797 0)"/>
    </g>
    <!-- How do we organize, -->
    <g style="fill: #1f2933" transform="translate(377.253375 235.18221) scale(0.08 -0.08)">
     <defs>
      <path id="DejaVuSans-48" d="M 628 4666 
L 1259 4666 
L 1259 2753 
L 3553 2753 
L 3553 4666 
L 4184 4666 
L 4184 0 
L 3553 0 
L 3553 2222 
L 1259 2222 
L 1259 0 
L 628 0 
L 628 4666 
z
" transform="scale(0.015625)"/>
      <path id="DejaVuSans-64" d="M 2906 2969 
L 2906 4863 
L 3481 4863 
L 3481 0 
L 2906 0 
L 2906 525 
Q 2725 213 2448 61 
Q 2172 -91 1784 -91 
Q 1150 -91 751 415 
Q 353 922 353 1747 
Q 353 2572 751 3078 
Q 1150 3584 1784 3584 
Q 2172 3584 2448 3432 
Q 2725 3281 2906 2969 
z
M 947 1747 
Q 947 1113 1208 752 
Q 1469 391 1925 391 
Q 2381 391 2643 752 
Q 2906 1113 2906 1747 
Q 2906 2381 2643 2742 
Q 2381 3103 1925 3103 
Q 1469 3103 1208 2742 
Q 947 2381 947 1747 
z
" transform="scale(0.015625)"/>
      <path id="DejaVuSans-67" d="M 2906 1791 
Q 2906 2416 2648 2759 
Q 2391 3103 1925 3103 
Q 1463 3103 1205 2759 
Q 947 2416 947 1791 
Q 947 1169 1205 825 
Q 1463 481 1925 481 
Q 2391 481 2648 825 
Q 2906 1169 2906 1791 
z
M 3481 434 
Q 3481 -459 3084 -895 
Q 2688 -1331 1869 -1331 
Q 1566 -1331 1297 -1286 
Q 1028 -1241 775 -1147 
L 775 -588 
Q 1028 -725 1275 -790 
Q 1522 -856 1778 -856 
Q 2344 -856 2625 -561 
Q 2906 -266 2906 331 
L 2906 616 
Q 2728 306 2450 153 
Q 2172 0 1784 0 
Q 1141 0 747 490 
Q 353 981 353 1791 
Q 353 2603 747 3093 
Q 1141 3584 1784 3584 
Q 2172 3584 2450 3431 
Q 2728 3278 2906 2969 
L 2906 3500 
L 3481 3500 
L 3481 434 
z
" transform="scale(0.015625)"/>
      <path id="DejaVuSans-7a" d="M 353 3500 
L 3084 3500 
L 3084 2975 
L 922 459 
L 3084 459 
L 3084 0 
L 275 0 
L 275 525 
L 2438 3041 
L 353 3041 
L 353 3500 
z
" transform="scale(0.015625)"/>
      <path id="DejaVuSans-2c" d="M 750 794 
L 1409 794 
L 1409 256 
L 897 -744 
L 494 -744 
L 750 256 
L 750 794 
z
" transform="scale(0.015625)"/>
     </defs>
     <use xlink:href="#DejaVuSans-48"/>
     <use xlink:href="#DejaVuSans-6f" transform="translate(75.195312 0)"/>
     <use xlink:href="#DejaVuSans-77" transform="translate(136.376953 0)"/>
     <use xlink:href="#DejaVuSans-20" transform="translate(218.164062 0)"/>
     <use xlink:href="#DejaVuSans-64" transform="translate(249.951172 0)"/>
     <use xlink:href="#DejaVuSans-6f" transform="translate(313.427734 0)"/>
     <use xlink:href="#DejaVuSans-20" transform="translate(374.609375 0)"/>
     <use xlink:href="#DejaVuSans-77" transform="translate(406.396484 0)"/>
     <use xlink:href="#DejaVuSans-65" transform="translate(488.183594 0)"/>
     <use xlink:href="#DejaVuSans-20" transform="translate(549.707031 0)"/>
     <use xlink:href="#DejaVuSans-6f" transform="translate(581.494141 0)"/>
     <use xlink:href="#DejaVuSans-72" transform="translate(642.675781 0)"/>
     <use xlink:href="#DejaVuSans-67" transform="translate(682.039062 0)"/>
     <use xlink:href="#DejaVuSans-61" transform="translate(745.515625 0)"/>
     <use xlink:href="#DejaVuSans-6e" transform="translate(806.794922 0)"/>
     <use xlink:href="#DejaVuSans-69" transform="translate(870.173828 0)"/>
     <use xlink:href="#DejaVuSans-7a" transform="translate(897.957031 0)"/>
     <use xlink:href="#DejaVuSans-65" transform="translate(950.447266 0)"/>
     <use xlink:href="#DejaVuSans-2c" transform="translate(1011.970703 0)"/>
    </g>
    <!-- verify, preserve, -->
    <g style="fill: #1f2933" transform="translate(386.327125 244.14046) scale(0.08 -0.08)">
     <defs>
      <path id="DejaVuSans-76" d="M 191 3500 
L 800 3500 
L 1894 563 
L 2988 3500 
L 3597 3500 
L 2284 0 
L 1503 0 
L 191 3500 
z
" transform="scale(0.015625)"/>
      <path id="DejaVuSans-79" d="M 2059 -325 
Q 1816 -950 1584 -1140 
Q 1353 -1331 966 -1331 
L 506 -1331 
L 506 -850 
L 844 -850 
Q 1081 -850 1212 -737 
Q 1344 -625 1503 -206 
L 1606 56 
L 191 3500 
L 800 3500 
L 1894 763 
L 2988 3500 
L 3597 3500 
L 2059 -325 
z
" transform="scale(0.015625)"/>
     </defs>
     <use xlink:href="#DejaVuSans-76"/>
     <use xlink:href="#DejaVuSans-65" transform="translate(59.179688 0)"/>
     <use xlink:href="#DejaVuSans-72" transform="translate(120.703125 0)"/>
     <use xlink:href="#DejaVuSans-69" transform="translate(161.816406 0)"/>
     <use xlink:href="#DejaVuSans-66" transform="translate(189.599609 0)"/>
     <use xlink:href="#DejaVuSans-79" transform="translate(223.054688 0)"/>
     <use xlink:href="#DejaVuSans-2c" transform="translate(282.234375 0)"/>
     <use xlink:href="#DejaVuSans-20" transform="translate(314.021484 0)"/>
     <use xlink:href="#DejaVuSans-70" transform="translate(345.808594 0)"/>
     <use xlink:href="#DejaVuSans-72" transform="translate(409.285156 0)"/>
     <use xlink:href="#DejaVuSans-65" transform="translate(448.148438 0)"/>
     <use xlink:href="#DejaVuSans-73" transform="translate(509.671875 0)"/>
     <use xlink:href="#DejaVuSans-65" transform="translate(561.771484 0)"/>
     <use xlink:href="#DejaVuSans-72" transform="translate(623.294922 0)"/>
     <use xlink:href="#DejaVuSans-76" transform="translate(664.408203 0)"/>
     <use xlink:href="#DejaVuSans-65" transform="translate(723.587891 0)"/>
     <use xlink:href="#DejaVuSans-2c" transform="translate(785.111328 0)"/>
    </g>
    <!-- share, and build upon -->
    <g style="fill: #1f2933" transform="translate(375.414625 253.09871) scale(0.08 -0.08)">
     <defs>
      <path id="DejaVuSans-68" d="M 3513 2113 
L 3513 0 
L 2938 0 
L 2938 2094 
Q 2938 2591 2744 2837 
Q 2550 3084 2163 3084 
Q 1697 3084 1428 2787 
Q 1159 2491 1159 1978 
L 1159 0 
L 581 0 
L 581 4863 
L 1159 4863 
L 1159 2956 
Q 1366 3272 1645 3428 
Q 1925 3584 2291 3584 
Q 2894 3584 3203 3211 
Q 3513 2838 3513 2113 
z
" transform="scale(0.015625)"/>
      <path id="DejaVuSans-62" d="M 3116 1747 
Q 3116 2381 2855 2742 
Q 2594 3103 2138 3103 
Q 1681 3103 1420 2742 
Q 1159 2381 1159 1747 
Q 1159 1113 1420 752 
Q 1681 391 2138 391 
Q 2594 391 2855 752 
Q 3116 1113 3116 1747 
z
M 1159 2969 
Q 1341 3281 1617 3432 
Q 1894 3584 2278 3584 
Q 2916 3584 3314 3078 
Q 3713 2572 3713 1747 
Q 3713 922 3314 415 
Q 2916 -91 2278 -91 
Q 1894 -91 1617 61 
Q 1341 213 1159 525 
L 1159 0 
L 581 0 
L 581 4863 
L 1159 4863 
L 1159 2969 
z
" transform="scale(0.015625)"/>
      <path id="DejaVuSans-6c" d="M 603 4863 
L 1178 4863 
L 1178 0 
L 603 0 
L 603 4863 
z
" transform="scale(0.015625)"/>
     </defs>
     <use xlink:href="#DejaVuSans-73"/>
     <use xlink:href="#DejaVuSans-68" transform="translate(52.099609 0)"/>
     <use xlink:href="#DejaVuSans-61" transform="translate(115.478516 0)"/>
     <use xlink:href="#DejaVuSans-72" transform="translate(176.757812 0)"/>
     <use xlink:href="#DejaVuSans-65" transform="translate(215.621094 0)"/>
     <use xlink:href="#DejaVuSans-2c" transform="translate(277.144531 0)"/>
     <use xlink:href="#DejaVuSans-20" transform="translate(308.931641 0)"/>
     <use xlink:href="#DejaVuSans-61" transform="translate(340.71875 0)"/>
     <use xlink:href="#DejaVuSans-6e" transform="translate(401.998047 0)"/>
     <use xlink:href="#DejaVuSans-64" transform="translate(465.376953 0)"/>
     <use xlink:href="#DejaVuSans-20" transform="translate(528.853516 0)"/>
     <use xlink:href="#DejaVuSans-62" transform="translate(560.640625 0)"/>
     <use xlink:href="#DejaVuSans-75" transform="translate(624.117188 0)"/>
     <use xlink:href="#DejaVuSans-69" transform="translate(687.496094 0)"/>
     <use xlink:href="#DejaVuSans-6c" transform="translate(715.279297 0)"/>
     <use xlink:href="#DejaVuSans-64" transform="translate(743.0625 0)"/>
     <use xlink:href="#DejaVuSans-20" transform="translate(806.539062 0)"/>
     <use xlink:href="#DejaVuSans-75" transform="translate(838.326172 0)"/>
     <use xlink:href="#DejaVuSans-70" transform="translate(901.705078 0)"/>
     <use xlink:href="#DejaVuSans-6f" transform="translate(965.181641 0)"/>
     <use xlink:href="#DejaVuSans-6e" transform="translate(1026.363281 0)"/>
    </g>
    <!-- what we compute? -->
    <g style="fill: #1f2933" transform="translate(381.133375 262.05696) scale(0.08 -0.08)">
     <use xlink:href="#DejaVuSans-77"/>
     <use xlink:href="#DejaVuSans-68" transform="translate(81.787109 0)"/>
     <use xlink:href="#DejaVuSans-61" transform="translate(145.166016 0)"/>
     <use xlink:href="#DejaVuSans-74" transform="translate(206.445312 0)"/>
     <use xlink:href="#DejaVuSans-20" transform="translate(245.654297 0)"/>
     <use xlink:href="#DejaVuSans-77" transform="translate(277.441406 0)"/>
     <use xlink:href="#DejaVuSans-65" transform="translate(359.228516 0)"/>
     <use xlink:href="#DejaVuSans-20" transform="translate(420.751953 0)"/>
     <use xlink:href="#DejaVuSans-63" transform="translate(452.539062 0)"/>
     <use xlink:href="#DejaVuSans-6f" transform="translate(507.519531 0)"/>
     <use xlink:href="#DejaVuSans-6d" transform="translate(568.701172 0)"/>
     <use xlink:href="#DejaVuSans-70" transform="translate(666.113281 0)"/>
     <use xlink:href="#DejaVuSans-75" transform="translate(729.589844 0)"/>
     <use xlink:href="#DejaVuSans-74" transform="translate(792.96875 0)"/>
     <use xlink:href="#DejaVuSans-65" transform="translate(832.177734 0)"/>
     <use xlink:href="#DejaVuSans-3f" transform="translate(893.701172 0)"/>
    </g>
   </g>
   <g id="text_6">
    <!-- PrimeNet addresses the infrastructure question in computational arithmetic. -->
    <g style="fill: #52616b" transform="translate(104.94625 314.8819) scale(0.08 -0.08)">
     <defs>
      <path id="DejaVuSans-Oblique-50" d="M 1081 4666 
L 2541 4666 
Q 3178 4666 3512 4369 
Q 3847 4072 3847 3500 
Q 3847 2731 3353 2303 
Q 2859 1875 1966 1875 
L 1172 1875 
L 806 0 
L 172 0 
L 1081 4666 
z
M 1613 4147 
L 1275 2394 
L 2069 2394 
Q 2606 2394 2893 2669 
Q 3181 2944 3181 3456 
Q 3181 3784 2986 3965 
Q 2791 4147 2438 4147 
L 1613 4147 
z
" transform="scale(0.015625)"/>
      <path id="DejaVuSans-Oblique-72" d="M 2853 2969 
Q 2766 3016 2653 3041 
Q 2541 3066 2413 3066 
Q 1953 3066 1609 2717 
Q 1266 2369 1153 1784 
L 800 0 
L 225 0 
L 909 3500 
L 1484 3500 
L 1375 2956 
Q 1603 3259 1920 3421 
Q 2238 3584 2597 3584 
Q 2691 3584 2781 3573 
Q 2872 3563 2963 3538 
L 2853 2969 
z
" transform="scale(0.015625)"/>
      <path id="DejaVuSans-Oblique-69" d="M 1172 4863 
L 1747 4863 
L 1606 4134 
L 1031 4134 
L 1172 4863 
z
M 909 3500 
L 1484 3500 
L 800 0 
L 225 0 
L 909 3500 
z
" transform="scale(0.015625)"/>
      <path id="DejaVuSans-Oblique-6d" d="M 5747 2113 
L 5338 0 
L 4763 0 
L 5166 2094 
Q 5191 2228 5203 2325 
Q 5216 2422 5216 2491 
Q 5216 2772 5059 2928 
Q 4903 3084 4622 3084 
Q 4203 3084 3875 2770 
Q 3547 2456 3450 1953 
L 3066 0 
L 2491 0 
L 2900 2094 
Q 2925 2209 2937 2307 
Q 2950 2406 2950 2484 
Q 2950 2769 2794 2926 
Q 2638 3084 2363 3084 
Q 1938 3084 1609 2770 
Q 1281 2456 1184 1953 
L 800 0 
L 225 0 
L 909 3500 
L 1484 3500 
L 1375 2956 
Q 1609 3263 1923 3423 
Q 2238 3584 2597 3584 
Q 2978 3584 3223 3384 
Q 3469 3184 3519 2828 
Q 3781 3197 4126 3390 
Q 4472 3584 4856 3584 
Q 5306 3584 5551 3325 
Q 5797 3066 5797 2591 
Q 5797 2488 5784 2364 
Q 5772 2241 5747 2113 
z
" transform="scale(0.015625)"/>
      <path id="DejaVuSans-Oblique-65" d="M 3078 2063 
Q 3088 2113 3092 2166 
Q 3097 2219 3097 2272 
Q 3097 2653 2873 2875 
Q 2650 3097 2266 3097 
Q 1838 3097 1509 2826 
Q 1181 2556 1013 2059 
L 3078 2063 
z
M 3578 1613 
L 903 1613 
Q 884 1494 878 1425 
Q 872 1356 872 1306 
Q 872 872 1139 634 
Q 1406 397 1894 397 
Q 2269 397 2603 481 
Q 2938 566 3225 728 
L 3116 159 
Q 2806 34 2476 -28 
Q 2147 -91 1806 -91 
Q 1078 -91 686 257 
Q 294 606 294 1247 
Q 294 1794 489 2264 
Q 684 2734 1063 3103 
Q 1306 3334 1642 3459 
Q 1978 3584 2356 3584 
Q 2950 3584 3301 3228 
Q 3653 2872 3653 2272 
Q 3653 2128 3634 1964 
Q 3616 1800 3578 1613 
z
" transform="scale(0.015625)"/>
      <path id="DejaVuSans-Oblique-4e" d="M 1081 4666 
L 1931 4666 
L 3219 666 
L 4000 4666 
L 4616 4666 
L 3706 0 
L 2853 0 
L 1569 4025 
L 788 0 
L 172 0 
L 1081 4666 
z
" transform="scale(0.015625)"/>
      <path id="DejaVuSans-Oblique-74" d="M 2706 3500 
L 2619 3053 
L 1472 3053 
L 1100 1153 
Q 1081 1047 1072 975 
Q 1063 903 1063 863 
Q 1063 663 1183 572 
Q 1303 481 1569 481 
L 2150 481 
L 2053 0 
L 1503 0 
Q 991 0 739 200 
Q 488 400 488 806 
Q 488 878 497 964 
Q 506 1050 525 1153 
L 897 3053 
L 409 3053 
L 500 3500 
L 978 3500 
L 1172 4494 
L 1747 4494 
L 1556 3500 
L 2706 3500 
z
" transform="scale(0.015625)"/>
      <path id="DejaVuSans-Oblique-20" transform="scale(0.015625)"/>
      <path id="DejaVuSans-Oblique-61" d="M 3438 1997 
L 3047 0 
L 2472 0 
L 2578 531 
Q 2325 219 2001 64 
Q 1678 -91 1281 -91 
Q 834 -91 548 182 
Q 263 456 263 884 
Q 263 1497 752 1853 
Q 1241 2209 2100 2209 
L 2900 2209 
L 2931 2363 
Q 2938 2388 2941 2417 
Q 2944 2447 2944 2509 
Q 2944 2788 2717 2942 
Q 2491 3097 2081 3097 
Q 1800 3097 1504 3025 
Q 1209 2953 897 2809 
L 997 3341 
Q 1322 3463 1633 3523 
Q 1944 3584 2234 3584 
Q 2853 3584 3176 3315 
Q 3500 3047 3500 2534 
Q 3500 2431 3484 2292 
Q 3469 2153 3438 1997 
z
M 2816 1759 
L 2241 1759 
Q 1534 1759 1195 1570 
Q 856 1381 856 984 
Q 856 709 1029 553 
Q 1203 397 1509 397 
Q 1978 397 2328 733 
Q 2678 1069 2791 1631 
L 2816 1759 
z
" transform="scale(0.015625)"/>
      <path id="DejaVuSans-Oblique-64" d="M 2675 525 
Q 2444 222 2128 65 
Q 1813 -91 1428 -91 
Q 903 -91 598 267 
Q 294 625 294 1247 
Q 294 1766 478 2236 
Q 663 2706 1013 3078 
Q 1244 3325 1534 3454 
Q 1825 3584 2144 3584 
Q 2481 3584 2739 3421 
Q 2997 3259 3138 2956 
L 3513 4863 
L 4091 4863 
L 3144 0 
L 2566 0 
L 2675 525 
z
M 891 1350 
Q 891 897 1095 644 
Q 1300 391 1663 391 
Q 1931 391 2161 520 
Q 2391 650 2566 903 
Q 2750 1166 2856 1509 
Q 2963 1853 2963 2188 
Q 2963 2622 2758 2865 
Q 2553 3109 2194 3109 
Q 1922 3109 1687 2981 
Q 1453 2853 1288 2613 
Q 1106 2353 998 2009 
Q 891 1666 891 1350 
z
" transform="scale(0.015625)"/>
      <path id="DejaVuSans-Oblique-73" d="M 3200 3397 
L 3091 2853 
Q 2863 2978 2609 3040 
Q 2356 3103 2088 3103 
Q 1634 3103 1373 2948 
Q 1113 2794 1113 2528 
Q 1113 2219 1719 2053 
Q 1766 2041 1788 2034 
L 1972 1978 
Q 2547 1819 2739 1644 
Q 2931 1469 2931 1166 
Q 2931 609 2489 259 
Q 2047 -91 1331 -91 
Q 1053 -91 747 -37 
Q 441 16 72 128 
L 184 722 
Q 500 559 806 475 
Q 1113 391 1394 391 
Q 1816 391 2080 572 
Q 2344 753 2344 1031 
Q 2344 1331 1650 1516 
L 1591 1531 
L 1394 1581 
Q 956 1697 753 1886 
Q 550 2075 550 2369 
Q 550 2928 970 3256 
Q 1391 3584 2113 3584 
Q 2397 3584 2667 3537 
Q 2938 3491 3200 3397 
z
" transform="scale(0.015625)"/>
      <path id="DejaVuSans-Oblique-68" d="M 3566 2113 
L 3156 0 
L 2578 0 
L 2988 2091 
Q 3016 2238 3031 2350 
Q 3047 2463 3047 2528 
Q 3047 2791 2881 2937 
Q 2716 3084 2419 3084 
Q 1956 3084 1617 2771 
Q 1278 2459 1178 1941 
L 800 0 
L 225 0 
L 1172 4863 
L 1747 4863 
L 1375 2950 
Q 1594 3244 1934 3414 
Q 2275 3584 2650 3584 
Q 3113 3584 3367 3334 
Q 3622 3084 3622 2631 
Q 3622 2519 3608 2391 
Q 3594 2263 3566 2113 
z
" transform="scale(0.015625)"/>
      <path id="DejaVuSans-Oblique-6e" d="M 3566 2113 
L 3156 0 
L 2578 0 
L 2988 2091 
Q 3016 2238 3031 2350 
Q 3047 2463 3047 2528 
Q 3047 2791 2881 2937 
Q 2716 3084 2419 3084 
Q 1956 3084 1622 2776 
Q 1288 2469 1184 1941 
L 800 0 
L 225 0 
L 903 3500 
L 1478 3500 
L 1363 2950 
Q 1603 3253 1940 3418 
Q 2278 3584 2650 3584 
Q 3113 3584 3367 3334 
Q 3622 3084 3622 2631 
Q 3622 2519 3608 2391 
Q 3594 2263 3566 2113 
z
" transform="scale(0.015625)"/>
      <path id="DejaVuSans-Oblique-66" d="M 3059 4863 
L 2969 4384 
L 2419 4384 
Q 2106 4384 1964 4261 
Q 1822 4138 1753 3809 
L 1691 3500 
L 2638 3500 
L 2553 3053 
L 1606 3053 
L 1013 0 
L 434 0 
L 1031 3053 
L 481 3053 
L 563 3500 
L 1113 3500 
L 1159 3744 
Q 1278 4363 1576 4613 
Q 1875 4863 2516 4863 
L 3059 4863 
z
" transform="scale(0.015625)"/>
      <path id="DejaVuSans-Oblique-75" d="M 428 1388 
L 838 3500 
L 1416 3500 
L 1006 1409 
Q 975 1256 961 1147 
Q 947 1038 947 966 
Q 947 700 1109 554 
Q 1272 409 1569 409 
Q 2031 409 2368 721 
Q 2706 1034 2809 1563 
L 3194 3500 
L 3769 3500 
L 3091 0 
L 2516 0 
L 2631 550 
Q 2388 244 2052 76 
Q 1716 -91 1338 -91 
Q 878 -91 622 161 
Q 366 413 366 863 
Q 366 956 381 1097 
Q 397 1238 428 1388 
z
" transform="scale(0.015625)"/>
      <path id="DejaVuSans-Oblique-63" d="M 3431 3366 
L 3316 2797 
Q 3109 2947 2876 3022 
Q 2644 3097 2394 3097 
Q 2119 3097 1870 3000 
Q 1622 2903 1453 2725 
Q 1184 2453 1037 2087 
Q 891 1722 891 1331 
Q 891 859 1127 628 
Q 1363 397 1844 397 
Q 2081 397 2348 469 
Q 2616 541 2906 684 
L 2797 116 
Q 2547 13 2283 -39 
Q 2019 -91 1741 -91 
Q 1044 -91 669 257 
Q 294 606 294 1253 
Q 294 1797 489 2255 
Q 684 2713 1069 3078 
Q 1331 3328 1684 3456 
Q 2038 3584 2456 3584 
Q 2700 3584 2940 3529 
Q 3181 3475 3431 3366 
z
" transform="scale(0.015625)"/>
      <path id="DejaVuSans-Oblique-71" d="M 2669 525 
Q 2438 222 2123 65 
Q 1809 -91 1428 -91 
Q 897 -91 595 267 
Q 294 625 294 1253 
Q 294 1759 480 2231 
Q 666 2703 1013 3078 
Q 1238 3322 1530 3453 
Q 1822 3584 2144 3584 
Q 2531 3584 2781 3431 
Q 3031 3278 3144 2969 
L 3244 3494 
L 3822 3494 
L 2888 -1319 
L 2309 -1319 
L 2669 525 
z
M 891 1338 
Q 891 875 1084 633 
Q 1278 391 1644 391 
Q 2188 391 2572 911 
Q 2956 1431 2956 2175 
Q 2956 2625 2757 2864 
Q 2559 3103 2188 3103 
Q 1916 3103 1684 2976 
Q 1453 2850 1281 2606 
Q 1100 2350 995 2006 
Q 891 1663 891 1338 
z
" transform="scale(0.015625)"/>
      <path id="DejaVuSans-Oblique-6f" d="M 1625 -91 
Q 1009 -91 651 289 
Q 294 669 294 1325 
Q 294 1706 417 2101 
Q 541 2497 738 2766 
Q 1047 3184 1428 3384 
Q 1809 3584 2291 3584 
Q 2888 3584 3255 3212 
Q 3622 2841 3622 2241 
Q 3622 1825 3500 1412 
Q 3378 1000 3181 728 
Q 2875 309 2494 109 
Q 2113 -91 1625 -91 
z
M 891 1344 
Q 891 869 1089 633 
Q 1288 397 1691 397 
Q 2269 397 2648 901 
Q 3028 1406 3028 2181 
Q 3028 2634 2825 2865 
Q 2622 3097 2228 3097 
Q 1903 3097 1650 2945 
Q 1397 2794 1197 2484 
Q 1050 2253 970 1956 
Q 891 1659 891 1344 
z
" transform="scale(0.015625)"/>
      <path id="DejaVuSans-Oblique-70" d="M 3175 2156 
Q 3175 2616 2975 2859 
Q 2775 3103 2400 3103 
Q 2144 3103 1911 2972 
Q 1678 2841 1497 2591 
Q 1319 2344 1212 1994 
Q 1106 1644 1106 1300 
Q 1106 863 1306 627 
Q 1506 391 1875 391 
Q 2147 391 2380 519 
Q 2613 647 2778 891 
Q 2956 1147 3065 1494 
Q 3175 1841 3175 2156 
z
M 1394 2969 
Q 1625 3272 1939 3428 
Q 2253 3584 2638 3584 
Q 3175 3584 3472 3232 
Q 3769 2881 3769 2247 
Q 3769 1728 3584 1258 
Q 3400 788 3053 416 
Q 2822 169 2531 39 
Q 2241 -91 1919 -91 
Q 1547 -91 1294 64 
Q 1041 219 916 525 
L 556 -1331 
L -19 -1331 
L 922 3500 
L 1497 3500 
L 1394 2969 
z
" transform="scale(0.015625)"/>
      <path id="DejaVuSans-Oblique-6c" d="M 1172 4863 
L 1747 4863 
L 800 0 
L 225 0 
L 1172 4863 
z
" transform="scale(0.015625)"/>
      <path id="DejaVuSans-Oblique-2e" d="M 525 794 
L 1184 794 
L 1031 0 
L 372 0 
L 525 794 
z
" transform="scale(0.015625)"/>
     </defs>
     <use xlink:href="#DejaVuSans-Oblique-50"/>
     <use xlink:href="#DejaVuSans-Oblique-72" transform="translate(60.302734 0)"/>
     <use xlink:href="#DejaVuSans-Oblique-69" transform="translate(101.416016 0)"/>
     <use xlink:href="#DejaVuSans-Oblique-6d" transform="translate(129.199219 0)"/>
     <use xlink:href="#DejaVuSans-Oblique-65" transform="translate(226.611328 0)"/>
     <use xlink:href="#DejaVuSans-Oblique-4e" transform="translate(288.134766 0)"/>
     <use xlink:href="#DejaVuSans-Oblique-65" transform="translate(362.939453 0)"/>
     <use xlink:href="#DejaVuSans-Oblique-74" transform="translate(424.462891 0)"/>
     <use xlink:href="#DejaVuSans-Oblique-20" transform="translate(463.671875 0)"/>
     <use xlink:href="#DejaVuSans-Oblique-61" transform="translate(495.458984 0)"/>
     <use xlink:href="#DejaVuSans-Oblique-64" transform="translate(556.738281 0)"/>
     <use xlink:href="#DejaVuSans-Oblique-64" transform="translate(620.214844 0)"/>
     <use xlink:href="#DejaVuSans-Oblique-72" transform="translate(683.691406 0)"/>
     <use xlink:href="#DejaVuSans-Oblique-65" transform="translate(724.804688 0)"/>
     <use xlink:href="#DejaVuSans-Oblique-73" transform="translate(786.328125 0)"/>
     <use xlink:href="#DejaVuSans-Oblique-73" transform="translate(838.427734 0)"/>
     <use xlink:href="#DejaVuSans-Oblique-65" transform="translate(890.527344 0)"/>
     <use xlink:href="#DejaVuSans-Oblique-73" transform="translate(952.050781 0)"/>
     <use xlink:href="#DejaVuSans-Oblique-20" transform="translate(1004.150391 0)"/>
     <use xlink:href="#DejaVuSans-Oblique-74" transform="translate(1035.9375 0)"/>
     <use xlink:href="#DejaVuSans-Oblique-68" transform="translate(1075.146484 0)"/>
     <use xlink:href="#DejaVuSans-Oblique-65" transform="translate(1138.525391 0)"/>
     <use xlink:href="#DejaVuSans-Oblique-20" transform="translate(1200.048828 0)"/>
     <use xlink:href="#DejaVuSans-Oblique-69" transform="translate(1231.835938 0)"/>
     <use xlink:href="#DejaVuSans-Oblique-6e" transform="translate(1259.619141 0)"/>
     <use xlink:href="#DejaVuSans-Oblique-66" transform="translate(1322.998047 0)"/>
     <use xlink:href="#DejaVuSans-Oblique-72" transform="translate(1358.203125 0)"/>
     <use xlink:href="#DejaVuSans-Oblique-61" transform="translate(1399.316406 0)"/>
     <use xlink:href="#DejaVuSans-Oblique-73" transform="translate(1460.595703 0)"/>
     <use xlink:href="#DejaVuSans-Oblique-74" transform="translate(1512.695312 0)"/>
     <use xlink:href="#DejaVuSans-Oblique-72" transform="translate(1551.904297 0)"/>
     <use xlink:href="#DejaVuSans-Oblique-75" transform="translate(1593.017578 0)"/>
     <use xlink:href="#DejaVuSans-Oblique-63" transform="translate(1656.396484 0)"/>
     <use xlink:href="#DejaVuSans-Oblique-74" transform="translate(1711.376953 0)"/>
     <use xlink:href="#DejaVuSans-Oblique-75" transform="translate(1750.585938 0)"/>
     <use xlink:href="#DejaVuSans-Oblique-72" transform="translate(1813.964844 0)"/>
     <use xlink:href="#DejaVuSans-Oblique-65" transform="translate(1855.078125 0)"/>
     <use xlink:href="#DejaVuSans-Oblique-20" transform="translate(1916.601562 0)"/>
     <use xlink:href="#DejaVuSans-Oblique-71" transform="translate(1948.388672 0)"/>
     <use xlink:href="#DejaVuSans-Oblique-75" transform="translate(2011.865234 0)"/>
     <use xlink:href="#DejaVuSans-Oblique-65" transform="translate(2075.244141 0)"/>
     <use xlink:href="#DejaVuSans-Oblique-73" transform="translate(2136.767578 0)"/>
     <use xlink:href="#DejaVuSans-Oblique-74" transform="translate(2188.867188 0)"/>
     <use xlink:href="#DejaVuSans-Oblique-69" transform="translate(2228.076172 0)"/>
     <use xlink:href="#DejaVuSans-Oblique-6f" transform="translate(2255.859375 0)"/>
     <use xlink:href="#DejaVuSans-Oblique-6e" transform="translate(2317.041016 0)"/>
     <use xlink:href="#DejaVuSans-Oblique-20" transform="translate(2380.419922 0)"/>
     <use xlink:href="#DejaVuSans-Oblique-69" transform="translate(2412.207031 0)"/>
     <use xlink:href="#DejaVuSans-Oblique-6e" transform="translate(2439.990234 0)"/>
     <use xlink:href="#DejaVuSans-Oblique-20" transform="translate(2503.369141 0)"/>
     <use xlink:href="#DejaVuSans-Oblique-63" transform="translate(2535.15625 0)"/>
     <use xlink:href="#DejaVuSans-Oblique-6f" transform="translate(2590.136719 0)"/>
     <use xlink:href="#DejaVuSans-Oblique-6d" transform="translate(2651.318359 0)"/>
     <use xlink:href="#DejaVuSans-Oblique-70" transform="translate(2748.730469 0)"/>
     <use xlink:href="#DejaVuSans-Oblique-75" transform="translate(2812.207031 0)"/>
     <use xlink:href="#DejaVuSans-Oblique-74" transform="translate(2875.585938 0)"/>
     <use xlink:href="#DejaVuSans-Oblique-61" transform="translate(2914.794922 0)"/>
     <use xlink:href="#DejaVuSans-Oblique-74" transform="translate(2976.074219 0)"/>
     <use xlink:href="#DejaVuSans-Oblique-69" transform="translate(3015.283203 0)"/>
     <use xlink:href="#DejaVuSans-Oblique-6f" transform="translate(3043.066406 0)"/>
     <use xlink:href="#DejaVuSans-Oblique-6e" transform="translate(3104.248047 0)"/>
     <use xlink:href="#DejaVuSans-Oblique-61" transform="translate(3167.626953 0)"/>
     <use xlink:href="#DejaVuSans-Oblique-6c" transform="translate(3228.90625 0)"/>
     <use xlink:href="#DejaVuSans-Oblique-20" transform="translate(3256.689453 0)"/>
     <use xlink:href="#DejaVuSans-Oblique-61" transform="translate(3288.476562 0)"/>
     <use xlink:href="#DejaVuSans-Oblique-72" transform="translate(3349.755859 0)"/>
     <use xlink:href="#DejaVuSans-Oblique-69" transform="translate(3390.869141 0)"/>
     <use xlink:href="#DejaVuSans-Oblique-74" transform="translate(3418.652344 0)"/>
     <use xlink:href="#DejaVuSans-Oblique-68" transform="translate(3457.861328 0)"/>
     <use xlink:href="#DejaVuSans-Oblique-6d" transform="translate(3521.240234 0)"/>
     <use xlink:href="#DejaVuSans-Oblique-65" transform="translate(3618.652344 0)"/>
     <use xlink:href="#DejaVuSans-Oblique-74" transform="translate(3680.175781 0)"/>
     <use xlink:href="#DejaVuSans-Oblique-69" transform="translate(3719.384766 0)"/>
     <use xlink:href="#DejaVuSans-Oblique-63" transform="translate(3747.167969 0)"/>
     <use xlink:href="#DejaVuSans-Oblique-2e" transform="translate(3802.148438 0)"/>
    </g>
   </g>
  </g>
 </g>
 <defs>
  <clipPath id="p23c3566d36">
   <rect x="7.2" y="7.2" width="502.2" height="321.552"/>
  </clipPath>
 </defs>
</svg>
