<?xml version="1.0" encoding="utf-8" standalone="no"?>
<!DOCTYPE svg PUBLIC "-//W3C//DTD SVG 1.1//EN"
  "http://www.w3.org/Graphics/SVG/1.1/DTD/svg11.dtd">
<svg xmlns:xlink="http://www.w3.org/1999/xlink" width="745.085625pt" height="407.19625pt" viewBox="0 0 745.085625 407.19625" xmlns="http://www.w3.org/2000/svg" version="1.1">
 <metadata>
  <rdf:RDF xmlns:dc="http://purl.org/dc/elements/1.1/" xmlns:cc="http://creativecommons.org/ns#" xmlns:rdf="http://www.w3.org/1999/02/22-rdf-syntax-ns#">
   <cc:Work>
    <dc:type rdf:resource="http://purl.org/dc/dcmitype/StillImage"/>
    <dc:date>2026-07-18T11:45:57.036855</dc:date>
    <dc:format>image/svg+xml</dc:format>
    <dc:creator>
     <cc:Agent>
      <dc:title>Matplotlib v3.10.9, https://matplotlib.org/</dc:title>
     </cc:Agent>
    </dc:creator>
   </cc:Work>
  </rdf:RDF>
 </metadata>
 <defs>
  <style type="text/css">*{stroke-linejoin: round; stroke-linecap: butt}</style>
 </defs>
 <g id="figure_1">
  <g id="patch_1">
   <path d="M 0 407.19625 
L 745.085625 407.19625 
L 745.085625 0 
L 0 0 
z
" style="fill: #ffffff"/>
  </g>
  <g id="axes_1">
   <g id="patch_2">
    <path d="M 63.390625 369.64 
L 737.885625 369.64 
L 737.885625 22.32 
L 63.390625 22.32 
z
" style="fill: #ffffff"/>
   </g>
   <g id="matplotlib.axis_1">
    <g id="xtick_1">
     <g id="line2d_1">
      <path d="M 89.934205 369.64 
L 89.934205 22.32 
" clip-path="url(#pc0e61190af)" style="fill: none; stroke: #b0b0b0; stroke-opacity: 0.25; stroke-width: 0.8; stroke-linecap: square"/>
     </g>
     <g id="line2d_2">
      <defs>
       <path id="m19cea1b00d" d="M 0 0 
L 0 3.5 
" style="stroke: #000000; stroke-width: 0.8"/>
      </defs>
      <g>
       <use xlink:href="#m19cea1b00d" x="89.934205" y="369.64" style="stroke: #000000; stroke-width: 0.8"/>
      </g>
     </g>
     <g id="text_1">
      <!-- 0 -->
      <g transform="translate(86.752955 384.238437) scale(0.1 -0.1)">
       <defs>
        <path id="DejaVuSans-30" d="M 2034 4250 
Q 1547 4250 1301 3770 
Q 1056 3291 1056 2328 
Q 1056 1369 1301 889 
Q 1547 409 2034 409 
Q 2525 409 2770 889 
Q 3016 1369 3016 2328 
Q 3016 3291 2770 3770 
Q 2525 4250 2034 4250 
z
M 2034 4750 
Q 2819 4750 3233 4129 
Q 3647 3509 3647 2328 
Q 3647 1150 3233 529 
Q 2819 -91 2034 -91 
Q 1250 -91 836 529 
Q 422 1150 422 2328 
Q 422 3509 836 4129 
Q 1250 4750 2034 4750 
z
" transform="scale(0.015625)"/>
       </defs>
       <use xlink:href="#DejaVuSans-30"/>
      </g>
     </g>
    </g>
    <g id="xtick_2">
     <g id="line2d_3">
      <path d="M 192.816298 369.64 
L 192.816298 22.32 
" clip-path="url(#pc0e61190af)" style="fill: none; stroke: #b0b0b0; stroke-opacity: 0.25; stroke-width: 0.8; stroke-linecap: square"/>
     </g>
     <g id="line2d_4">
      <g>
       <use xlink:href="#m19cea1b00d" x="192.816298" y="369.64" style="stroke: #000000; stroke-width: 0.8"/>
      </g>
     </g>
     <g id="text_2">
      <!-- 50 -->
      <g transform="translate(186.453798 384.238437) scale(0.1 -0.1)">
       <defs>
        <path id="DejaVuSans-35" d="M 691 4666 
L 3169 4666 
L 3169 4134 
L 1269 4134 
L 1269 2991 
Q 1406 3038 1543 3061 
Q 1681 3084 1819 3084 
Q 2600 3084 3056 2656 
Q 3513 2228 3513 1497 
Q 3513 744 3044 326 
Q 2575 -91 1722 -91 
Q 1428 -91 1123 -41 
Q 819 9 494 109 
L 494 744 
Q 775 591 1075 516 
Q 1375 441 1709 441 
Q 2250 441 2565 725 
Q 2881 1009 2881 1497 
Q 2881 1984 2565 2268 
Q 2250 2553 1709 2553 
Q 1456 2553 1204 2497 
Q 953 2441 691 2322 
L 691 4666 
z
" transform="scale(0.015625)"/>
       </defs>
       <use xlink:href="#DejaVuSans-35"/>
       <use xlink:href="#DejaVuSans-30" transform="translate(63.623047 0)"/>
      </g>
     </g>
    </g>
    <g id="xtick_3">
     <g id="line2d_5">
      <path d="M 295.69839 369.64 
L 295.69839 22.32 
" clip-path="url(#pc0e61190af)" style="fill: none; stroke: #b0b0b0; stroke-opacity: 0.25; stroke-width: 0.8; stroke-linecap: square"/>
     </g>
     <g id="line2d_6">
      <g>
       <use xlink:href="#m19cea1b00d" x="295.69839" y="369.64" style="stroke: #000000; stroke-width: 0.8"/>
      </g>
     </g>
     <g id="text_3">
      <!-- 100 -->
      <g transform="translate(286.15464 384.238437) scale(0.1 -0.1)">
       <defs>
        <path id="DejaVuSans-31" d="M 794 531 
L 1825 531 
L 1825 4091 
L 703 3866 
L 703 4441 
L 1819 4666 
L 2450 4666 
L 2450 531 
L 3481 531 
L 3481 0 
L 794 0 
L 794 531 
z
" transform="scale(0.015625)"/>
       </defs>
       <use xlink:href="#DejaVuSans-31"/>
       <use xlink:href="#DejaVuSans-30" transform="translate(63.623047 0)"/>
       <use xlink:href="#DejaVuSans-30" transform="translate(127.246094 0)"/>
      </g>
     </g>
    </g>
    <g id="xtick_4">
     <g id="line2d_7">
      <path d="M 398.580483 369.64 
L 398.580483 22.32 
" clip-path="url(#pc0e61190af)" style="fill: none; stroke: #b0b0b0; stroke-opacity: 0.25; stroke-width: 0.8; stroke-linecap: square"/>
     </g>
     <g id="line2d_8">
      <g>
       <use xlink:href="#m19cea1b00d" x="398.580483" y="369.64" style="stroke: #000000; stroke-width: 0.8"/>
      </g>
     </g>
     <g id="text_4">
      <!-- 150 -->
      <g transform="translate(389.036733 384.238437) scale(0.1 -0.1)">
       <use xlink:href="#DejaVuSans-31"/>
       <use xlink:href="#DejaVuSans-35" transform="translate(63.623047 0)"/>
       <use xlink:href="#DejaVuSans-30" transform="translate(127.246094 0)"/>
      </g>
     </g>
    </g>
    <g id="xtick_5">
     <g id="line2d_9">
      <path d="M 501.462576 369.64 
L 501.462576 22.32 
" clip-path="url(#pc0e61190af)" style="fill: none; stroke: #b0b0b0; stroke-opacity: 0.25; stroke-width: 0.8; stroke-linecap: square"/>
     </g>
     <g id="line2d_10">
      <g>
       <use xlink:href="#m19cea1b00d" x="501.462576" y="369.64" style="stroke: #000000; stroke-width: 0.8"/>
      </g>
     </g>
     <g id="text_5">
      <!-- 200 -->
      <g transform="translate(491.918826 384.238437) scale(0.1 -0.1)">
       <defs>
        <path id="DejaVuSans-32" d="M 1228 531 
L 3431 531 
L 3431 0 
L 469 0 
L 469 531 
Q 828 903 1448 1529 
Q 2069 2156 2228 2338 
Q 2531 2678 2651 2914 
Q 2772 3150 2772 3378 
Q 2772 3750 2511 3984 
Q 2250 4219 1831 4219 
Q 1534 4219 1204 4116 
Q 875 4013 500 3803 
L 500 4441 
Q 881 4594 1212 4672 
Q 1544 4750 1819 4750 
Q 2544 4750 2975 4387 
Q 3406 4025 3406 3419 
Q 3406 3131 3298 2873 
Q 3191 2616 2906 2266 
Q 2828 2175 2409 1742 
Q 1991 1309 1228 531 
z
" transform="scale(0.015625)"/>
       </defs>
       <use xlink:href="#DejaVuSans-32"/>
       <use xlink:href="#DejaVuSans-30" transform="translate(63.623047 0)"/>
       <use xlink:href="#DejaVuSans-30" transform="translate(127.246094 0)"/>
      </g>
     </g>
    </g>
    <g id="xtick_6">
     <g id="line2d_11">
      <path d="M 604.344669 369.64 
L 604.344669 22.32 
" clip-path="url(#pc0e61190af)" style="fill: none; stroke: #b0b0b0; stroke-opacity: 0.25; stroke-width: 0.8; stroke-linecap: square"/>
     </g>
     <g id="line2d_12">
      <g>
       <use xlink:href="#m19cea1b00d" x="604.344669" y="369.64" style="stroke: #000000; stroke-width: 0.8"/>
      </g>
     </g>
     <g id="text_6">
      <!-- 250 -->
      <g transform="translate(594.800919 384.238437) scale(0.1 -0.1)">
       <use xlink:href="#DejaVuSans-32"/>
       <use xlink:href="#DejaVuSans-35" transform="translate(63.623047 0)"/>
       <use xlink:href="#DejaVuSans-30" transform="translate(127.246094 0)"/>
      </g>
     </g>
    </g>
    <g id="xtick_7">
     <g id="line2d_13">
      <path d="M 707.226761 369.64 
L 707.226761 22.32 
" clip-path="url(#pc0e61190af)" style="fill: none; stroke: #b0b0b0; stroke-opacity: 0.25; stroke-width: 0.8; stroke-linecap: square"/>
     </g>
     <g id="line2d_14">
      <g>
       <use xlink:href="#m19cea1b00d" x="707.226761" y="369.64" style="stroke: #000000; stroke-width: 0.8"/>
      </g>
     </g>
     <g id="text_7">
      <!-- 300 -->
      <g transform="translate(697.683011 384.238437) scale(0.1 -0.1)">
       <defs>
        <path id="DejaVuSans-33" d="M 2597 2516 
Q 3050 2419 3304 2112 
Q 3559 1806 3559 1356 
Q 3559 666 3084 287 
Q 2609 -91 1734 -91 
Q 1441 -91 1130 -33 
Q 819 25 488 141 
L 488 750 
Q 750 597 1062 519 
Q 1375 441 1716 441 
Q 2309 441 2620 675 
Q 2931 909 2931 1356 
Q 2931 1769 2642 2001 
Q 2353 2234 1838 2234 
L 1294 2234 
L 1294 2753 
L 1863 2753 
Q 2328 2753 2575 2939 
Q 2822 3125 2822 3475 
Q 2822 3834 2567 4026 
Q 2313 4219 1838 4219 
Q 1578 4219 1281 4162 
Q 984 4106 628 3988 
L 628 4550 
Q 988 4650 1302 4700 
Q 1616 4750 1894 4750 
Q 2613 4750 3031 4423 
Q 3450 4097 3450 3541 
Q 3450 3153 3228 2886 
Q 3006 2619 2597 2516 
z
" transform="scale(0.015625)"/>
       </defs>
       <use xlink:href="#DejaVuSans-33"/>
       <use xlink:href="#DejaVuSans-30" transform="translate(63.623047 0)"/>
       <use xlink:href="#DejaVuSans-30" transform="translate(127.246094 0)"/>
      </g>
     </g>
    </g>
    <g id="text_8">
     <!-- Canonical 10B partition -->
     <g transform="translate(341.902969 397.916562) scale(0.1 -0.1)">
      <defs>
       <path id="DejaVuSans-43" d="M 4122 4306 
L 4122 3641 
Q 3803 3938 3442 4084 
Q 3081 4231 2675 4231 
Q 1875 4231 1450 3742 
Q 1025 3253 1025 2328 
Q 1025 1406 1450 917 
Q 1875 428 2675 428 
Q 3081 428 3442 575 
Q 3803 722 4122 1019 
L 4122 359 
Q 3791 134 3420 21 
Q 3050 -91 2638 -91 
Q 1578 -91 968 557 
Q 359 1206 359 2328 
Q 359 3453 968 4101 
Q 1578 4750 2638 4750 
Q 3056 4750 3426 4639 
Q 3797 4528 4122 4306 
z
" transform="scale(0.015625)"/>
       <path id="DejaVuSans-61" d="M 2194 1759 
Q 1497 1759 1228 1600 
Q 959 1441 959 1056 
Q 959 750 1161 570 
Q 1363 391 1709 391 
Q 2188 391 2477 730 
Q 2766 1069 2766 1631 
L 2766 1759 
L 2194 1759 
z
M 3341 1997 
L 3341 0 
L 2766 0 
L 2766 531 
Q 2569 213 2275 61 
Q 1981 -91 1556 -91 
Q 1019 -91 701 211 
Q 384 513 384 1019 
Q 384 1609 779 1909 
Q 1175 2209 1959 2209 
L 2766 2209 
L 2766 2266 
Q 2766 2663 2505 2880 
Q 2244 3097 1772 3097 
Q 1472 3097 1187 3025 
Q 903 2953 641 2809 
L 641 3341 
Q 956 3463 1253 3523 
Q 1550 3584 1831 3584 
Q 2591 3584 2966 3190 
Q 3341 2797 3341 1997 
z
" transform="scale(0.015625)"/>
       <path id="DejaVuSans-6e" d="M 3513 2113 
L 3513 0 
L 2938 0 
L 2938 2094 
Q 2938 2591 2744 2837 
Q 2550 3084 2163 3084 
Q 1697 3084 1428 2787 
Q 1159 2491 1159 1978 
L 1159 0 
L 581 0 
L 581 3500 
L 1159 3500 
L 1159 2956 
Q 1366 3272 1645 3428 
Q 1925 3584 2291 3584 
Q 2894 3584 3203 3211 
Q 3513 2838 3513 2113 
z
" transform="scale(0.015625)"/>
       <path id="DejaVuSans-6f" d="M 1959 3097 
Q 1497 3097 1228 2736 
Q 959 2375 959 1747 
Q 959 1119 1226 758 
Q 1494 397 1959 397 
Q 2419 397 2687 759 
Q 2956 1122 2956 1747 
Q 2956 2369 2687 2733 
Q 2419 3097 1959 3097 
z
M 1959 3584 
Q 2709 3584 3137 3096 
Q 3566 2609 3566 1747 
Q 3566 888 3137 398 
Q 2709 -91 1959 -91 
Q 1206 -91 779 398 
Q 353 888 353 1747 
Q 353 2609 779 3096 
Q 1206 3584 1959 3584 
z
" transform="scale(0.015625)"/>
       <path id="DejaVuSans-69" d="M 603 3500 
L 1178 3500 
L 1178 0 
L 603 0 
L 603 3500 
z
M 603 4863 
L 1178 4863 
L 1178 4134 
L 603 4134 
L 603 4863 
z
" transform="scale(0.015625)"/>
       <path id="DejaVuSans-63" d="M 3122 3366 
L 3122 2828 
Q 2878 2963 2633 3030 
Q 2388 3097 2138 3097 
Q 1578 3097 1268 2742 
Q 959 2388 959 1747 
Q 959 1106 1268 751 
Q 1578 397 2138 397 
Q 2388 397 2633 464 
Q 2878 531 3122 666 
L 3122 134 
Q 2881 22 2623 -34 
Q 2366 -91 2075 -91 
Q 1284 -91 818 406 
Q 353 903 353 1747 
Q 353 2603 823 3093 
Q 1294 3584 2113 3584 
Q 2378 3584 2631 3529 
Q 2884 3475 3122 3366 
z
" transform="scale(0.015625)"/>
       <path id="DejaVuSans-6c" d="M 603 4863 
L 1178 4863 
L 1178 0 
L 603 0 
L 603 4863 
z
" transform="scale(0.015625)"/>
       <path id="DejaVuSans-20" transform="scale(0.015625)"/>
       <path id="DejaVuSans-42" d="M 1259 2228 
L 1259 519 
L 2272 519 
Q 2781 519 3026 730 
Q 3272 941 3272 1375 
Q 3272 1813 3026 2020 
Q 2781 2228 2272 2228 
L 1259 2228 
z
M 1259 4147 
L 1259 2741 
L 2194 2741 
Q 2656 2741 2882 2914 
Q 3109 3088 3109 3444 
Q 3109 3797 2882 3972 
Q 2656 4147 2194 4147 
L 1259 4147 
z
M 628 4666 
L 2241 4666 
Q 2963 4666 3353 4366 
Q 3744 4066 3744 3513 
Q 3744 3084 3544 2831 
Q 3344 2578 2956 2516 
Q 3422 2416 3680 2098 
Q 3938 1781 3938 1306 
Q 3938 681 3513 340 
Q 3088 0 2303 0 
L 628 0 
L 628 4666 
z
" transform="scale(0.015625)"/>
       <path id="DejaVuSans-70" d="M 1159 525 
L 1159 -1331 
L 581 -1331 
L 581 3500 
L 1159 3500 
L 1159 2969 
Q 1341 3281 1617 3432 
Q 1894 3584 2278 3584 
Q 2916 3584 3314 3078 
Q 3713 2572 3713 1747 
Q 3713 922 3314 415 
Q 2916 -91 2278 -91 
Q 1894 -91 1617 61 
Q 1341 213 1159 525 
z
M 3116 1747 
Q 3116 2381 2855 2742 
Q 2594 3103 2138 3103 
Q 1681 3103 1420 2742 
Q 1159 2381 1159 1747 
Q 1159 1113 1420 752 
Q 1681 391 2138 391 
Q 2594 391 2855 752 
Q 3116 1113 3116 1747 
z
" transform="scale(0.015625)"/>
       <path id="DejaVuSans-72" d="M 2631 2963 
Q 2534 3019 2420 3045 
Q 2306 3072 2169 3072 
Q 1681 3072 1420 2755 
Q 1159 2438 1159 1844 
L 1159 0 
L 581 0 
L 581 3500 
L 1159 3500 
L 1159 2956 
Q 1341 3275 1631 3429 
Q 1922 3584 2338 3584 
Q 2397 3584 2469 3576 
Q 2541 3569 2628 3553 
L 2631 2963 
z
" transform="scale(0.015625)"/>
       <path id="DejaVuSans-74" d="M 1172 4494 
L 1172 3500 
L 2356 3500 
L 2356 3053 
L 1172 3053 
L 1172 1153 
Q 1172 725 1289 603 
Q 1406 481 1766 481 
L 2356 481 
L 2356 0 
L 1766 0 
Q 1100 0 847 248 
Q 594 497 594 1153 
L 594 3053 
L 172 3053 
L 172 3500 
L 594 3500 
L 594 4494 
L 1172 4494 
z
" transform="scale(0.015625)"/>
      </defs>
      <use xlink:href="#DejaVuSans-43"/>
      <use xlink:href="#DejaVuSans-61" transform="translate(69.824219 0)"/>
      <use xlink:href="#DejaVuSans-6e" transform="translate(131.103516 0)"/>
      <use xlink:href="#DejaVuSans-6f" transform="translate(194.482422 0)"/>
      <use xlink:href="#DejaVuSans-6e" transform="translate(255.664062 0)"/>
      <use xlink:href="#DejaVuSans-69" transform="translate(319.042969 0)"/>
      <use xlink:href="#DejaVuSans-63" transform="translate(346.826172 0)"/>
      <use xlink:href="#DejaVuSans-61" transform="translate(401.806641 0)"/>
      <use xlink:href="#DejaVuSans-6c" transform="translate(463.085938 0)"/>
      <use xlink:href="#DejaVuSans-20" transform="translate(490.869141 0)"/>
      <use xlink:href="#DejaVuSans-31" transform="translate(522.65625 0)"/>
      <use xlink:href="#DejaVuSans-30" transform="translate(586.279297 0)"/>
      <use xlink:href="#DejaVuSans-42" transform="translate(649.902344 0)"/>
      <use xlink:href="#DejaVuSans-20" transform="translate(718.505859 0)"/>
      <use xlink:href="#DejaVuSans-70" transform="translate(750.292969 0)"/>
      <use xlink:href="#DejaVuSans-61" transform="translate(813.769531 0)"/>
      <use xlink:href="#DejaVuSans-72" transform="translate(875.048828 0)"/>
      <use xlink:href="#DejaVuSans-74" transform="translate(916.162109 0)"/>
      <use xlink:href="#DejaVuSans-69" transform="translate(955.371094 0)"/>
      <use xlink:href="#DejaVuSans-74" transform="translate(983.154297 0)"/>
      <use xlink:href="#DejaVuSans-69" transform="translate(1022.363281 0)"/>
      <use xlink:href="#DejaVuSans-6f" transform="translate(1050.146484 0)"/>
      <use xlink:href="#DejaVuSans-6e" transform="translate(1111.328125 0)"/>
     </g>
    </g>
   </g>
   <g id="matplotlib.axis_2">
    <g id="ytick_1">
     <g id="line2d_15">
      <path d="M 63.390625 327.499439 
L 737.885625 327.499439 
" clip-path="url(#pc0e61190af)" style="fill: none; stroke: #b0b0b0; stroke-opacity: 0.25; stroke-width: 0.8; stroke-linecap: square"/>
     </g>
     <g id="line2d_16">
      <defs>
       <path id="mf35b95b5b5" d="M 0 0 
L -3.5 0 
" style="stroke: #000000; stroke-width: 0.8"/>
      </defs>
      <g>
       <use xlink:href="#mf35b95b5b5" x="63.390625" y="327.499439" style="stroke: #000000; stroke-width: 0.8"/>
      </g>
     </g>
     <g id="text_9">
      <!-- 0.9992 -->
      <g transform="translate(21.4 331.298657) scale(0.1 -0.1)">
       <defs>
        <path id="DejaVuSans-2e" d="M 684 794 
L 1344 794 
L 1344 0 
L 684 0 
L 684 794 
z
" transform="scale(0.015625)"/>
        <path id="DejaVuSans-39" d="M 703 97 
L 703 672 
Q 941 559 1184 500 
Q 1428 441 1663 441 
Q 2288 441 2617 861 
Q 2947 1281 2994 2138 
Q 2813 1869 2534 1725 
Q 2256 1581 1919 1581 
Q 1219 1581 811 2004 
Q 403 2428 403 3163 
Q 403 3881 828 4315 
Q 1253 4750 1959 4750 
Q 2769 4750 3195 4129 
Q 3622 3509 3622 2328 
Q 3622 1225 3098 567 
Q 2575 -91 1691 -91 
Q 1453 -91 1209 -44 
Q 966 3 703 97 
z
M 1959 2075 
Q 2384 2075 2632 2365 
Q 2881 2656 2881 3163 
Q 2881 3666 2632 3958 
Q 2384 4250 1959 4250 
Q 1534 4250 1286 3958 
Q 1038 3666 1038 3163 
Q 1038 2656 1286 2365 
Q 1534 2075 1959 2075 
z
" transform="scale(0.015625)"/>
       </defs>
       <use xlink:href="#DejaVuSans-30"/>
       <use xlink:href="#DejaVuSans-2e" transform="translate(63.623047 0)"/>
       <use xlink:href="#DejaVuSans-39" transform="translate(95.410156 0)"/>
       <use xlink:href="#DejaVuSans-39" transform="translate(159.033203 0)"/>
       <use xlink:href="#DejaVuSans-39" transform="translate(222.65625 0)"/>
       <use xlink:href="#DejaVuSans-32" transform="translate(286.279297 0)"/>
      </g>
     </g>
    </g>
    <g id="ytick_2">
     <g id="line2d_17">
      <path d="M 63.390625 259.700453 
L 737.885625 259.700453 
" clip-path="url(#pc0e61190af)" style="fill: none; stroke: #b0b0b0; stroke-opacity: 0.25; stroke-width: 0.8; stroke-linecap: square"/>
     </g>
     <g id="line2d_18">
      <g>
       <use xlink:href="#mf35b95b5b5" x="63.390625" y="259.700453" style="stroke: #000000; stroke-width: 0.8"/>
      </g>
     </g>
     <g id="text_10">
      <!-- 0.9994 -->
      <g transform="translate(21.4 263.499672) scale(0.1 -0.1)">
       <defs>
        <path id="DejaVuSans-34" d="M 2419 4116 
L 825 1625 
L 2419 1625 
L 2419 4116 
z
M 2253 4666 
L 3047 4666 
L 3047 1625 
L 3713 1625 
L 3713 1100 
L 3047 1100 
L 3047 0 
L 2419 0 
L 2419 1100 
L 313 1100 
L 313 1709 
L 2253 4666 
z
" transform="scale(0.015625)"/>
       </defs>
       <use xlink:href="#DejaVuSans-30"/>
       <use xlink:href="#DejaVuSans-2e" transform="translate(63.623047 0)"/>
       <use xlink:href="#DejaVuSans-39" transform="translate(95.410156 0)"/>
       <use xlink:href="#DejaVuSans-39" transform="translate(159.033203 0)"/>
       <use xlink:href="#DejaVuSans-39" transform="translate(222.65625 0)"/>
       <use xlink:href="#DejaVuSans-34" transform="translate(286.279297 0)"/>
      </g>
     </g>
    </g>
    <g id="ytick_3">
     <g id="line2d_19">
      <path d="M 63.390625 191.901468 
L 737.885625 191.901468 
" clip-path="url(#pc0e61190af)" style="fill: none; stroke: #b0b0b0; stroke-opacity: 0.25; stroke-width: 0.8; stroke-linecap: square"/>
     </g>
     <g id="line2d_20">
      <g>
       <use xlink:href="#mf35b95b5b5" x="63.390625" y="191.901468" style="stroke: #000000; stroke-width: 0.8"/>
      </g>
     </g>
     <g id="text_11">
      <!-- 0.9996 -->
      <g transform="translate(21.4 195.700687) scale(0.1 -0.1)">
       <defs>
        <path id="DejaVuSans-36" d="M 2113 2584 
Q 1688 2584 1439 2293 
Q 1191 2003 1191 1497 
Q 1191 994 1439 701 
Q 1688 409 2113 409 
Q 2538 409 2786 701 
Q 3034 994 3034 1497 
Q 3034 2003 2786 2293 
Q 2538 2584 2113 2584 
z
M 3366 4563 
L 3366 3988 
Q 3128 4100 2886 4159 
Q 2644 4219 2406 4219 
Q 1781 4219 1451 3797 
Q 1122 3375 1075 2522 
Q 1259 2794 1537 2939 
Q 1816 3084 2150 3084 
Q 2853 3084 3261 2657 
Q 3669 2231 3669 1497 
Q 3669 778 3244 343 
Q 2819 -91 2113 -91 
Q 1303 -91 875 529 
Q 447 1150 447 2328 
Q 447 3434 972 4092 
Q 1497 4750 2381 4750 
Q 2619 4750 2861 4703 
Q 3103 4656 3366 4563 
z
" transform="scale(0.015625)"/>
       </defs>
       <use xlink:href="#DejaVuSans-30"/>
       <use xlink:href="#DejaVuSans-2e" transform="translate(63.623047 0)"/>
       <use xlink:href="#DejaVuSans-39" transform="translate(95.410156 0)"/>
       <use xlink:href="#DejaVuSans-39" transform="translate(159.033203 0)"/>
       <use xlink:href="#DejaVuSans-39" transform="translate(222.65625 0)"/>
       <use xlink:href="#DejaVuSans-36" transform="translate(286.279297 0)"/>
      </g>
     </g>
    </g>
    <g id="ytick_4">
     <g id="line2d_21">
      <path d="M 63.390625 124.102483 
L 737.885625 124.102483 
" clip-path="url(#pc0e61190af)" style="fill: none; stroke: #b0b0b0; stroke-opacity: 0.25; stroke-width: 0.8; stroke-linecap: square"/>
     </g>
     <g id="line2d_22">
      <g>
       <use xlink:href="#mf35b95b5b5" x="63.390625" y="124.102483" style="stroke: #000000; stroke-width: 0.8"/>
      </g>
     </g>
     <g id="text_12">
      <!-- 0.9998 -->
      <g transform="translate(21.4 127.901702) scale(0.1 -0.1)">
       <defs>
        <path id="DejaVuSans-38" d="M 2034 2216 
Q 1584 2216 1326 1975 
Q 1069 1734 1069 1313 
Q 1069 891 1326 650 
Q 1584 409 2034 409 
Q 2484 409 2743 651 
Q 3003 894 3003 1313 
Q 3003 1734 2745 1975 
Q 2488 2216 2034 2216 
z
M 1403 2484 
Q 997 2584 770 2862 
Q 544 3141 544 3541 
Q 544 4100 942 4425 
Q 1341 4750 2034 4750 
Q 2731 4750 3128 4425 
Q 3525 4100 3525 3541 
Q 3525 3141 3298 2862 
Q 3072 2584 2669 2484 
Q 3125 2378 3379 2068 
Q 3634 1759 3634 1313 
Q 3634 634 3220 271 
Q 2806 -91 2034 -91 
Q 1263 -91 848 271 
Q 434 634 434 1313 
Q 434 1759 690 2068 
Q 947 2378 1403 2484 
z
M 1172 3481 
Q 1172 3119 1398 2916 
Q 1625 2713 2034 2713 
Q 2441 2713 2670 2916 
Q 2900 3119 2900 3481 
Q 2900 3844 2670 4047 
Q 2441 4250 2034 4250 
Q 1625 4250 1398 4047 
Q 1172 3844 1172 3481 
z
" transform="scale(0.015625)"/>
       </defs>
       <use xlink:href="#DejaVuSans-30"/>
       <use xlink:href="#DejaVuSans-2e" transform="translate(63.623047 0)"/>
       <use xlink:href="#DejaVuSans-39" transform="translate(95.410156 0)"/>
       <use xlink:href="#DejaVuSans-39" transform="translate(159.033203 0)"/>
       <use xlink:href="#DejaVuSans-39" transform="translate(222.65625 0)"/>
       <use xlink:href="#DejaVuSans-38" transform="translate(286.279297 0)"/>
      </g>
     </g>
    </g>
    <g id="ytick_5">
     <g id="line2d_23">
      <path d="M 63.390625 56.303497 
L 737.885625 56.303497 
" clip-path="url(#pc0e61190af)" style="fill: none; stroke: #b0b0b0; stroke-opacity: 0.25; stroke-width: 0.8; stroke-linecap: square"/>
     </g>
     <g id="line2d_24">
      <g>
       <use xlink:href="#mf35b95b5b5" x="63.390625" y="56.303497" style="stroke: #000000; stroke-width: 0.8"/>
      </g>
     </g>
     <g id="text_13">
      <!-- 1.0000 -->
      <g transform="translate(21.4 60.102716) scale(0.1 -0.1)">
       <use xlink:href="#DejaVuSans-31"/>
       <use xlink:href="#DejaVuSans-2e" transform="translate(63.623047 0)"/>
       <use xlink:href="#DejaVuSans-30" transform="translate(95.410156 0)"/>
       <use xlink:href="#DejaVuSans-30" transform="translate(159.033203 0)"/>
       <use xlink:href="#DejaVuSans-30" transform="translate(222.65625 0)"/>
       <use xlink:href="#DejaVuSans-30" transform="translate(286.279297 0)"/>
      </g>
     </g>
    </g>
    <g id="text_14">
     <!-- $\overline{g}/\log x$ -->
     <g transform="translate(15.3 212.28) rotate(-90) scale(0.1 -0.1)">
      <defs>
       <path id="DejaVuSans-Oblique-67" d="M 3816 3500 
L 3219 434 
Q 3047 -456 2561 -893 
Q 2075 -1331 1253 -1331 
Q 950 -1331 690 -1286 
Q 431 -1241 206 -1147 
L 313 -588 
Q 525 -725 762 -790 
Q 1000 -856 1269 -856 
Q 1816 -856 2167 -557 
Q 2519 -259 2631 300 
L 2681 563 
Q 2441 288 2122 144 
Q 1803 0 1434 0 
Q 903 0 598 351 
Q 294 703 294 1319 
Q 294 1803 478 2267 
Q 663 2731 997 3091 
Q 1219 3328 1514 3456 
Q 1809 3584 2131 3584 
Q 2484 3584 2746 3420 
Q 3009 3256 3138 2956 
L 3238 3500 
L 3816 3500 
z
M 2950 2216 
Q 2950 2641 2750 2872 
Q 2550 3103 2181 3103 
Q 1953 3103 1747 3012 
Q 1541 2922 1394 2759 
Q 1156 2491 1023 2127 
Q 891 1763 891 1375 
Q 891 944 1092 712 
Q 1294 481 1672 481 
Q 2219 481 2584 976 
Q 2950 1472 2950 2216 
z
" transform="scale(0.015625)"/>
       <path id="DejaVuSans-2f" d="M 1625 4666 
L 2156 4666 
L 531 -594 
L 0 -594 
L 1625 4666 
z
" transform="scale(0.015625)"/>
       <path id="DejaVuSans-67" d="M 2906 1791 
Q 2906 2416 2648 2759 
Q 2391 3103 1925 3103 
Q 1463 3103 1205 2759 
Q 947 2416 947 1791 
Q 947 1169 1205 825 
Q 1463 481 1925 481 
Q 2391 481 2648 825 
Q 2906 1169 2906 1791 
z
M 3481 434 
Q 3481 -459 3084 -895 
Q 2688 -1331 1869 -1331 
Q 1566 -1331 1297 -1286 
Q 1028 -1241 775 -1147 
L 775 -588 
Q 1028 -725 1275 -790 
Q 1522 -856 1778 -856 
Q 2344 -856 2625 -561 
Q 2906 -266 2906 331 
L 2906 616 
Q 2728 306 2450 153 
Q 2172 0 1784 0 
Q 1141 0 747 490 
Q 353 981 353 1791 
Q 353 2603 747 3093 
Q 1141 3584 1784 3584 
Q 2172 3584 2450 3431 
Q 2728 3278 2906 2969 
L 2906 3500 
L 3481 3500 
L 3481 434 
z
" transform="scale(0.015625)"/>
       <path id="DejaVuSans-Oblique-78" d="M 3841 3500 
L 2234 1784 
L 3219 0 
L 2559 0 
L 1819 1388 
L 531 0 
L -166 0 
L 1556 1844 
L 641 3500 
L 1300 3500 
L 1972 2234 
L 3144 3500 
L 3841 3500 
z
" transform="scale(0.015625)"/>
      </defs>
      <use xlink:href="#DejaVuSans-Oblique-67" transform="translate(0 0.75)"/>
      <use xlink:href="#DejaVuSans-2f" transform="translate(63.476562 0.25)"/>
      <use xlink:href="#DejaVuSans-6c" transform="translate(97.167969 0.25)"/>
      <use xlink:href="#DejaVuSans-6f" transform="translate(124.951172 0.25)"/>
      <use xlink:href="#DejaVuSans-67" transform="translate(186.132812 0.25)"/>
      <use xlink:href="#DejaVuSans-Oblique-78" transform="translate(265.845051 0.25)"/>
      <path d="M 0 68.5 
L 0 74.75 
L 63.476562 74.75 
L 63.476562 68.5 
L 0 68.5 
z
"/>
     </g>
    </g>
   </g>
   <g id="line2d_25">
    <path d="M 94.049489 353.852727 
L 96.10713 158.24118 
L 98.164772 109.280942 
L 100.222414 84.464444 
L 102.280056 78.271865 
L 104.337698 70.737336 
L 106.39534 65.394178 
L 108.452982 62.203947 
L 110.510623 66.147144 
L 112.568265 53.137665 
L 114.625907 62.881671 
L 116.683549 68.095332 
L 118.741191 54.494673 
L 120.798833 62.169464 
L 122.856475 54.581763 
L 124.914116 54.679075 
L 126.971758 64.152164 
L 129.0294 52.609393 
L 131.087042 64.467277 
L 133.144684 54.082676 
L 135.202326 55.862289 
L 137.259968 54.283899 
L 139.317609 67.201676 
L 141.375251 45.33481 
L 143.432893 58.981901 
L 145.490535 55.467939 
L 147.548177 56.672346 
L 149.605819 56.417154 
L 151.663461 59.163126 
L 153.721102 56.992617 
L 155.778744 58.061205 
L 157.836386 65.562861 
L 159.894028 54.386631 
L 161.95167 52.688445 
L 164.009312 57.012754 
L 166.066954 53.912601 
L 168.124595 57.124194 
L 170.182237 51.042607 
L 172.239879 50.084878 
L 174.297521 62.253431 
L 176.355163 54.552444 
L 178.412805 57.041854 
L 180.470447 64.639895 
L 182.528088 54.149274 
L 184.58573 55.463823 
L 186.643372 57.45151 
L 188.701014 47.492172 
L 190.758656 59.322773 
L 192.816298 53.65713 
L 194.87394 62.380982 
L 196.931581 56.353315 
L 198.989223 59.875 
L 201.046865 60.604554 
L 203.104507 50.623895 
L 205.162149 59.990779 
L 207.219791 53.413488 
L 209.277433 55.611715 
L 211.335074 51.812166 
L 213.392716 59.150604 
L 215.450358 51.743301 
L 217.508 55.053292 
L 219.565642 57.892698 
L 221.623284 52.216807 
L 223.680925 58.520995 
L 225.738567 53.401693 
L 227.796209 60.098411 
L 229.853851 60.789211 
L 231.911493 48.486956 
L 233.969135 57.654899 
L 236.026777 59.434623 
L 238.084418 44.480338 
L 240.14206 63.793538 
L 242.199702 57.63833 
L 244.257344 66.79461 
L 246.314986 55.146825 
L 248.372628 59.942417 
L 250.43027 59.428262 
L 252.487911 43.890986 
L 254.545553 58.024729 
L 256.603195 59.494104 
L 258.660837 61.774334 
L 260.718479 53.031446 
L 262.776121 53.260374 
L 264.833763 57.711942 
L 266.891404 57.592103 
L 268.949046 50.439195 
L 271.006688 58.903121 
L 273.06433 52.356393 
L 275.121972 48.553662 
L 277.179614 60.554087 
L 279.237256 60.514014 
L 281.294897 49.076684 
L 283.352539 58.82376 
L 285.410181 64.636078 
L 287.467823 56.474286 
L 289.525465 49.601636 
L 291.583107 55.99425 
L 293.640749 59.135871 
L 295.69839 56.008714 
L 297.756032 50.172626 
L 299.813674 49.710559 
L 301.871316 54.056942 
L 303.928958 54.453949 
L 305.9866 61.483021 
L 308.044242 58.335416 
L 310.101883 63.353334 
L 312.159525 52.543822 
L 314.217167 62.430412 
L 318.332451 45.904209 
L 320.390093 58.252214 
L 322.447735 59.719446 
L 324.505376 53.044367 
L 326.563018 65.51192 
L 328.62066 68.859737 
L 330.678302 58.102977 
L 332.735944 44.243635 
L 334.793586 52.208447 
L 336.851228 54.911329 
L 338.908869 61.874515 
L 340.966511 59.025312 
L 343.024153 53.120231 
L 345.081795 54.367729 
L 347.139437 66.629624 
L 349.197079 48.477255 
L 351.25472 54.211544 
L 353.312362 59.580975 
L 355.370004 51.99352 
L 357.427646 51.672657 
L 359.485288 52.820808 
L 361.54293 52.005163 
L 363.600572 57.245506 
L 365.658213 64.705933 
L 367.715855 48.702816 
L 369.773497 51.997992 
L 371.831139 66.572586 
L 373.888781 68.556001 
L 375.946423 47.043749 
L 378.004065 53.549848 
L 380.061706 53.469156 
L 382.119348 50.53481 
L 384.17699 71.893334 
L 386.234632 54.984501 
L 388.292274 58.603909 
L 390.349916 55.606802 
L 392.407558 59.291241 
L 394.465199 43.293537 
L 396.522841 60.77402 
L 398.580483 59.184658 
L 400.638125 56.100514 
L 402.695767 54.805935 
L 404.753409 57.92852 
L 406.811051 51.542426 
L 408.868692 55.865004 
L 410.926334 58.188148 
L 412.983976 63.165663 
L 415.041618 46.249158 
L 417.09926 55.856402 
L 419.156902 48.914067 
L 421.214544 48.328331 
L 423.272185 61.104934 
L 425.329827 51.431882 
L 427.387469 54.447916 
L 429.445111 65.306907 
L 431.502753 45.920664 
L 433.560395 58.573351 
L 435.618037 49.868206 
L 437.675678 65.92742 
L 439.73332 60.654747 
L 441.790962 57.941331 
L 443.848604 53.866748 
L 445.906246 63.103249 
L 447.963888 39.492642 
L 452.079171 63.4514 
L 454.136813 70.785953 
L 456.194455 49.811035 
L 458.252097 59.767789 
L 460.309739 67.685212 
L 462.367381 56.965636 
L 464.425022 60.139273 
L 466.482664 58.870998 
L 468.540306 57.07784 
L 470.597948 51.940101 
L 472.65559 62.773039 
L 474.713232 47.165701 
L 476.770874 58.575529 
L 478.828515 49.146501 
L 482.943799 57.011395 
L 485.001441 44.554087 
L 487.059083 57.301588 
L 489.116725 71.728237 
L 491.174367 38.107273 
L 493.232008 66.121661 
L 497.347292 49.908422 
L 499.404934 66.380649 
L 501.462576 57.447325 
L 503.520218 66.29286 
L 505.57786 56.726304 
L 507.635501 49.331973 
L 509.693143 67.289555 
L 511.750785 60.843415 
L 513.808427 57.56426 
L 515.866069 52.711553 
L 517.923711 54.573007 
L 519.981353 56.14073 
L 522.038994 57.279829 
L 524.096636 48.793731 
L 526.154278 43.11942 
L 528.21192 66.790338 
L 530.269562 62.515218 
L 532.327204 48.180162 
L 534.384846 51.80613 
L 536.442487 54.306448 
L 538.500129 51.176139 
L 540.557771 52.730658 
L 542.615413 47.416967 
L 544.673055 59.721268 
L 546.730697 53.247733 
L 548.788339 47.788908 
L 550.84598 60.661829 
L 552.903622 55.273718 
L 554.961264 64.893968 
L 557.018906 58.402375 
L 559.076548 57.91755 
L 561.13419 59.930664 
L 563.191832 50.998161 
L 565.249473 53.690317 
L 567.307115 46.255006 
L 569.364757 53.537239 
L 571.422399 55.405806 
L 573.480041 56.895406 
L 575.537683 56.93016 
L 577.595325 58.994738 
L 579.652966 57.006219 
L 583.76825 66.555082 
L 585.825892 51.555518 
L 587.883534 60.701458 
L 589.941176 60.928231 
L 591.998817 48.69611 
L 594.056459 53.187294 
L 596.114101 62.084227 
L 598.171743 46.407137 
L 600.229385 63.316806 
L 602.287027 61.737977 
L 604.344669 53.375539 
L 606.40231 54.567286 
L 608.459952 65.414687 
L 610.517594 54.37876 
L 612.575236 61.804491 
L 614.632878 56.107424 
L 616.69052 46.533811 
L 618.748162 52.492046 
L 620.805803 57.899838 
L 622.863445 54.087127 
L 624.921087 54.379854 
L 626.978729 52.068977 
L 629.036371 58.519138 
L 631.094013 59.180834 
L 633.151655 56.071789 
L 635.209296 47.186625 
L 637.266938 65.218887 
L 639.32458 55.768155 
L 641.382222 52.204895 
L 643.439864 67.431623 
L 645.497506 53.302199 
L 647.555148 53.585846 
L 649.612789 52.744997 
L 651.670431 58.522477 
L 653.728073 59.984254 
L 655.785715 64.037171 
L 657.843357 61.810007 
L 659.900999 53.740248 
L 661.958641 62.189958 
L 664.016282 54.30082 
L 666.073924 39.686072 
L 668.131566 64.563791 
L 670.189208 57.775269 
L 672.24685 44.63161 
L 674.304492 62.164723 
L 676.362134 47.359327 
L 678.419775 46.611354 
L 680.477417 72.555767 
L 682.535059 60.20044 
L 684.592701 58.59244 
L 686.650343 49.92328 
L 688.707985 55.727619 
L 690.765627 59.120183 
L 692.823268 53.580887 
L 694.88091 58.103008 
L 696.938552 60.883806 
L 698.996194 61.048847 
L 701.053836 43.93834 
L 703.111478 49.187976 
L 705.16912 55.546877 
L 707.226761 49.384777 
L 707.226761 49.384777 
" clip-path="url(#pc0e61190af)" style="fill: none; stroke: #1f77b4; stroke-width: 2; stroke-linecap: square"/>
   </g>
   <g id="line2d_26">
    <path d="M 63.390625 56.303497 
L 737.885625 56.303497 
" clip-path="url(#pc0e61190af)" style="fill: none; stroke: #1f77b4; stroke-linecap: square"/>
   </g>
   <g id="patch_3">
    <path d="M 63.390625 369.64 
L 63.390625 22.32 
" style="fill: none; stroke: #000000; stroke-width: 0.8; stroke-linejoin: miter; stroke-linecap: square"/>
   </g>
   <g id="patch_4">
    <path d="M 737.885625 369.64 
L 737.885625 22.32 
" style="fill: none; stroke: #000000; stroke-width: 0.8; stroke-linejoin: miter; stroke-linecap: square"/>
   </g>
   <g id="patch_5">
    <path d="M 63.390625 369.64 
L 737.885625 369.64 
" style="fill: none; stroke: #000000; stroke-width: 0.8; stroke-linejoin: miter; stroke-linecap: square"/>
   </g>
   <g id="patch_6">
    <path d="M 63.390625 22.32 
L 737.885625 22.32 
" style="fill: none; stroke: #000000; stroke-width: 0.8; stroke-linejoin: miter; stroke-linecap: square"/>
   </g>
   <g id="text_15">
    <!-- Main panel: partitions 2–300; partition 1 ratio = 0.984005 -->
    <g transform="translate(73.50805 357.348681) scale(0.09 -0.09)">
     <defs>
      <path id="DejaVuSans-4d" d="M 628 4666 
L 1569 4666 
L 2759 1491 
L 3956 4666 
L 4897 4666 
L 4897 0 
L 4281 0 
L 4281 4097 
L 3078 897 
L 2444 897 
L 1241 4097 
L 1241 0 
L 628 0 
L 628 4666 
z
" transform="scale(0.015625)"/>
      <path id="DejaVuSans-65" d="M 3597 1894 
L 3597 1613 
L 953 1613 
Q 991 1019 1311 708 
Q 1631 397 2203 397 
Q 2534 397 2845 478 
Q 3156 559 3463 722 
L 3463 178 
Q 3153 47 2828 -22 
Q 2503 -91 2169 -91 
Q 1331 -91 842 396 
Q 353 884 353 1716 
Q 353 2575 817 3079 
Q 1281 3584 2069 3584 
Q 2775 3584 3186 3129 
Q 3597 2675 3597 1894 
z
M 3022 2063 
Q 3016 2534 2758 2815 
Q 2500 3097 2075 3097 
Q 1594 3097 1305 2825 
Q 1016 2553 972 2059 
L 3022 2063 
z
" transform="scale(0.015625)"/>
      <path id="DejaVuSans-3a" d="M 750 794 
L 1409 794 
L 1409 0 
L 750 0 
L 750 794 
z
M 750 3309 
L 1409 3309 
L 1409 2516 
L 750 2516 
L 750 3309 
z
" transform="scale(0.015625)"/>
      <path id="DejaVuSans-73" d="M 2834 3397 
L 2834 2853 
Q 2591 2978 2328 3040 
Q 2066 3103 1784 3103 
Q 1356 3103 1142 2972 
Q 928 2841 928 2578 
Q 928 2378 1081 2264 
Q 1234 2150 1697 2047 
L 1894 2003 
Q 2506 1872 2764 1633 
Q 3022 1394 3022 966 
Q 3022 478 2636 193 
Q 2250 -91 1575 -91 
Q 1294 -91 989 -36 
Q 684 19 347 128 
L 347 722 
Q 666 556 975 473 
Q 1284 391 1588 391 
Q 1994 391 2212 530 
Q 2431 669 2431 922 
Q 2431 1156 2273 1281 
Q 2116 1406 1581 1522 
L 1381 1569 
Q 847 1681 609 1914 
Q 372 2147 372 2553 
Q 372 3047 722 3315 
Q 1072 3584 1716 3584 
Q 2034 3584 2315 3537 
Q 2597 3491 2834 3397 
z
" transform="scale(0.015625)"/>
      <path id="DejaVuSans-2013" d="M 313 1978 
L 2888 1978 
L 2888 1528 
L 313 1528 
L 313 1978 
z
" transform="scale(0.015625)"/>
      <path id="DejaVuSans-3b" d="M 750 3309 
L 1409 3309 
L 1409 2516 
L 750 2516 
L 750 3309 
z
M 750 794 
L 1409 794 
L 1409 256 
L 897 -744 
L 494 -744 
L 750 256 
L 750 794 
z
" transform="scale(0.015625)"/>
      <path id="DejaVuSans-3d" d="M 678 2906 
L 4684 2906 
L 4684 2381 
L 678 2381 
L 678 2906 
z
M 678 1631 
L 4684 1631 
L 4684 1100 
L 678 1100 
L 678 1631 
z
" transform="scale(0.015625)"/>
     </defs>
     <use xlink:href="#DejaVuSans-4d"/>
     <use xlink:href="#DejaVuSans-61" transform="translate(86.279297 0)"/>
     <use xlink:href="#DejaVuSans-69" transform="translate(147.558594 0)"/>
     <use xlink:href="#DejaVuSans-6e" transform="translate(175.341797 0)"/>
     <use xlink:href="#DejaVuSans-20" transform="translate(238.720703 0)"/>
     <use xlink:href="#DejaVuSans-70" transform="translate(270.507812 0)"/>
     <use xlink:href="#DejaVuSans-61" transform="translate(333.984375 0)"/>
     <use xlink:href="#DejaVuSans-6e" transform="translate(395.263672 0)"/>
     <use xlink:href="#DejaVuSans-65" transform="translate(458.642578 0)"/>
     <use xlink:href="#DejaVuSans-6c" transform="translate(520.166016 0)"/>
     <use xlink:href="#DejaVuSans-3a" transform="translate(547.949219 0)"/>
     <use xlink:href="#DejaVuSans-20" transform="translate(581.640625 0)"/>
     <use xlink:href="#DejaVuSans-70" transform="translate(613.427734 0)"/>
     <use xlink:href="#DejaVuSans-61" transform="translate(676.904297 0)"/>
     <use xlink:href="#DejaVuSans-72" transform="translate(738.183594 0)"/>
     <use xlink:href="#DejaVuSans-74" transform="translate(779.296875 0)"/>
     <use xlink:href="#DejaVuSans-69" transform="translate(818.505859 0)"/>
     <use xlink:href="#DejaVuSans-74" transform="translate(846.289062 0)"/>
     <use xlink:href="#DejaVuSans-69" transform="translate(885.498047 0)"/>
     <use xlink:href="#DejaVuSans-6f" transform="translate(913.28125 0)"/>
     <use xlink:href="#DejaVuSans-6e" transform="translate(974.462891 0)"/>
     <use xlink:href="#DejaVuSans-73" transform="translate(1037.841797 0)"/>
     <use xlink:href="#DejaVuSans-20" transform="translate(1089.941406 0)"/>
     <use xlink:href="#DejaVuSans-32" transform="translate(1121.728516 0)"/>
     <use xlink:href="#DejaVuSans-2013" transform="translate(1185.351562 0)"/>
     <use xlink:href="#DejaVuSans-33" transform="translate(1235.351562 0)"/>
     <use xlink:href="#DejaVuSans-30" transform="translate(1298.974609 0)"/>
     <use xlink:href="#DejaVuSans-30" transform="translate(1362.597656 0)"/>
     <use xlink:href="#DejaVuSans-3b" transform="translate(1426.220703 0)"/>
     <use xlink:href="#DejaVuSans-20" transform="translate(1459.912109 0)"/>
     <use xlink:href="#DejaVuSans-70" transform="translate(1491.699219 0)"/>
     <use xlink:href="#DejaVuSans-61" transform="translate(1555.175781 0)"/>
     <use xlink:href="#DejaVuSans-72" transform="translate(1616.455078 0)"/>
     <use xlink:href="#DejaVuSans-74" transform="translate(1657.568359 0)"/>
     <use xlink:href="#DejaVuSans-69" transform="translate(1696.777344 0)"/>
     <use xlink:href="#DejaVuSans-74" transform="translate(1724.560547 0)"/>
     <use xlink:href="#DejaVuSans-69" transform="translate(1763.769531 0)"/>
     <use xlink:href="#DejaVuSans-6f" transform="translate(1791.552734 0)"/>
     <use xlink:href="#DejaVuSans-6e" transform="translate(1852.734375 0)"/>
     <use xlink:href="#DejaVuSans-20" transform="translate(1916.113281 0)"/>
     <use xlink:href="#DejaVuSans-31" transform="translate(1947.900391 0)"/>
     <use xlink:href="#DejaVuSans-20" transform="translate(2011.523438 0)"/>
     <use xlink:href="#DejaVuSans-72" transform="translate(2043.310547 0)"/>
     <use xlink:href="#DejaVuSans-61" transform="translate(2084.423828 0)"/>
     <use xlink:href="#DejaVuSans-74" transform="translate(2145.703125 0)"/>
     <use xlink:href="#DejaVuSans-69" transform="translate(2184.912109 0)"/>
     <use xlink:href="#DejaVuSans-6f" transform="translate(2212.695312 0)"/>
     <use xlink:href="#DejaVuSans-20" transform="translate(2273.876953 0)"/>
     <use xlink:href="#DejaVuSans-3d" transform="translate(2305.664062 0)"/>
     <use xlink:href="#DejaVuSans-20" transform="translate(2389.453125 0)"/>
     <use xlink:href="#DejaVuSans-30" transform="translate(2421.240234 0)"/>
     <use xlink:href="#DejaVuSans-2e" transform="translate(2484.863281 0)"/>
     <use xlink:href="#DejaVuSans-39" transform="translate(2516.650391 0)"/>
     <use xlink:href="#DejaVuSans-38" transform="translate(2580.273438 0)"/>
     <use xlink:href="#DejaVuSans-34" transform="translate(2643.896484 0)"/>
     <use xlink:href="#DejaVuSans-30" transform="translate(2707.519531 0)"/>
     <use xlink:href="#DejaVuSans-30" transform="translate(2771.142578 0)"/>
     <use xlink:href="#DejaVuSans-35" transform="translate(2834.765625 0)"/>
    </g>
   </g>
   <g id="text_16">
    <!-- Observed Mean Gap Normalized by $\log x$ -->
    <g transform="translate(278.538125 16.32) scale(0.12 -0.12)">
     <defs>
      <path id="DejaVuSans-4f" d="M 2522 4238 
Q 1834 4238 1429 3725 
Q 1025 3213 1025 2328 
Q 1025 1447 1429 934 
Q 1834 422 2522 422 
Q 3209 422 3611 934 
Q 4013 1447 4013 2328 
Q 4013 3213 3611 3725 
Q 3209 4238 2522 4238 
z
M 2522 4750 
Q 3503 4750 4090 4092 
Q 4678 3434 4678 2328 
Q 4678 1225 4090 567 
Q 3503 -91 2522 -91 
Q 1538 -91 948 565 
Q 359 1222 359 2328 
Q 359 3434 948 4092 
Q 1538 4750 2522 4750 
z
" transform="scale(0.015625)"/>
      <path id="DejaVuSans-62" d="M 3116 1747 
Q 3116 2381 2855 2742 
Q 2594 3103 2138 3103 
Q 1681 3103 1420 2742 
Q 1159 2381 1159 1747 
Q 1159 1113 1420 752 
Q 1681 391 2138 391 
Q 2594 391 2855 752 
Q 3116 1113 3116 1747 
z
M 1159 2969 
Q 1341 3281 1617 3432 
Q 1894 3584 2278 3584 
Q 2916 3584 3314 3078 
Q 3713 2572 3713 1747 
Q 3713 922 3314 415 
Q 2916 -91 2278 -91 
Q 1894 -91 1617 61 
Q 1341 213 1159 525 
L 1159 0 
L 581 0 
L 581 4863 
L 1159 4863 
L 1159 2969 
z
" transform="scale(0.015625)"/>
      <path id="DejaVuSans-76" d="M 191 3500 
L 800 3500 
L 1894 563 
L 2988 3500 
L 3597 3500 
L 2284 0 
L 1503 0 
L 191 3500 
z
" transform="scale(0.015625)"/>
      <path id="DejaVuSans-64" d="M 2906 2969 
L 2906 4863 
L 3481 4863 
L 3481 0 
L 2906 0 
L 2906 525 
Q 2725 213 2448 61 
Q 2172 -91 1784 -91 
Q 1150 -91 751 415 
Q 353 922 353 1747 
Q 353 2572 751 3078 
Q 1150 3584 1784 3584 
Q 2172 3584 2448 3432 
Q 2725 3281 2906 2969 
z
M 947 1747 
Q 947 1113 1208 752 
Q 1469 391 1925 391 
Q 2381 391 2643 752 
Q 2906 1113 2906 1747 
Q 2906 2381 2643 2742 
Q 2381 3103 1925 3103 
Q 1469 3103 1208 2742 
Q 947 2381 947 1747 
z
" transform="scale(0.015625)"/>
      <path id="DejaVuSans-47" d="M 3809 666 
L 3809 1919 
L 2778 1919 
L 2778 2438 
L 4434 2438 
L 4434 434 
Q 4069 175 3628 42 
Q 3188 -91 2688 -91 
Q 1594 -91 976 548 
Q 359 1188 359 2328 
Q 359 3472 976 4111 
Q 1594 4750 2688 4750 
Q 3144 4750 3555 4637 
Q 3966 4525 4313 4306 
L 4313 3634 
Q 3963 3931 3569 4081 
Q 3175 4231 2741 4231 
Q 1884 4231 1454 3753 
Q 1025 3275 1025 2328 
Q 1025 1384 1454 906 
Q 1884 428 2741 428 
Q 3075 428 3337 486 
Q 3600 544 3809 666 
z
" transform="scale(0.015625)"/>
      <path id="DejaVuSans-4e" d="M 628 4666 
L 1478 4666 
L 3547 763 
L 3547 4666 
L 4159 4666 
L 4159 0 
L 3309 0 
L 1241 3903 
L 1241 0 
L 628 0 
L 628 4666 
z
" transform="scale(0.015625)"/>
      <path id="DejaVuSans-6d" d="M 3328 2828 
Q 3544 3216 3844 3400 
Q 4144 3584 4550 3584 
Q 5097 3584 5394 3201 
Q 5691 2819 5691 2113 
L 5691 0 
L 5113 0 
L 5113 2094 
Q 5113 2597 4934 2840 
Q 4756 3084 4391 3084 
Q 3944 3084 3684 2787 
Q 3425 2491 3425 1978 
L 3425 0 
L 2847 0 
L 2847 2094 
Q 2847 2600 2669 2842 
Q 2491 3084 2119 3084 
Q 1678 3084 1418 2786 
Q 1159 2488 1159 1978 
L 1159 0 
L 581 0 
L 581 3500 
L 1159 3500 
L 1159 2956 
Q 1356 3278 1631 3431 
Q 1906 3584 2284 3584 
Q 2666 3584 2933 3390 
Q 3200 3197 3328 2828 
z
" transform="scale(0.015625)"/>
      <path id="DejaVuSans-7a" d="M 353 3500 
L 3084 3500 
L 3084 2975 
L 922 459 
L 3084 459 
L 3084 0 
L 275 0 
L 275 525 
L 2438 3041 
L 353 3041 
L 353 3500 
z
" transform="scale(0.015625)"/>
      <path id="DejaVuSans-79" d="M 2059 -325 
Q 1816 -950 1584 -1140 
Q 1353 -1331 966 -1331 
L 506 -1331 
L 506 -850 
L 844 -850 
Q 1081 -850 1212 -737 
Q 1344 -625 1503 -206 
L 1606 56 
L 191 3500 
L 800 3500 
L 1894 763 
L 2988 3500 
L 3597 3500 
L 2059 -325 
z
" transform="scale(0.015625)"/>
     </defs>
     <use xlink:href="#DejaVuSans-4f" transform="translate(0 0.015625)"/>
     <use xlink:href="#DejaVuSans-62" transform="translate(78.710938 0.015625)"/>
     <use xlink:href="#DejaVuSans-73" transform="translate(142.1875 0.015625)"/>
     <use xlink:href="#DejaVuSans-65" transform="translate(194.287109 0.015625)"/>
     <use xlink:href="#DejaVuSans-72" transform="translate(255.810547 0.015625)"/>
     <use xlink:href="#DejaVuSans-76" transform="translate(296.923828 0.015625)"/>
     <use xlink:href="#DejaVuSans-65" transform="translate(356.103516 0.015625)"/>
     <use xlink:href="#DejaVuSans-64" transform="translate(417.626953 0.015625)"/>
     <use xlink:href="#DejaVuSans-20" transform="translate(481.103516 0.015625)"/>
     <use xlink:href="#DejaVuSans-4d" transform="translate(512.890625 0.015625)"/>
     <use xlink:href="#DejaVuSans-65" transform="translate(599.169922 0.015625)"/>
     <use xlink:href="#DejaVuSans-61" transform="translate(660.693359 0.015625)"/>
     <use xlink:href="#DejaVuSans-6e" transform="translate(721.972656 0.015625)"/>
     <use xlink:href="#DejaVuSans-20" transform="translate(785.351562 0.015625)"/>
     <use xlink:href="#DejaVuSans-47" transform="translate(817.138672 0.015625)"/>
     <use xlink:href="#DejaVuSans-61" transform="translate(894.628906 0.015625)"/>
     <use xlink:href="#DejaVuSans-70" transform="translate(955.908203 0.015625)"/>
     <use xlink:href="#DejaVuSans-20" transform="translate(1019.384766 0.015625)"/>
     <use xlink:href="#DejaVuSans-4e" transform="translate(1051.171875 0.015625)"/>
     <use xlink:href="#DejaVuSans-6f" transform="translate(1125.976562 0.015625)"/>
     <use xlink:href="#DejaVuSans-72" transform="translate(1187.158203 0.015625)"/>
     <use xlink:href="#DejaVuSans-6d" transform="translate(1228.271484 0.015625)"/>
     <use xlink:href="#DejaVuSans-61" transform="translate(1325.683594 0.015625)"/>
     <use xlink:href="#DejaVuSans-6c" transform="translate(1386.962891 0.015625)"/>
     <use xlink:href="#DejaVuSans-69" transform="translate(1414.746094 0.015625)"/>
     <use xlink:href="#DejaVuSans-7a" transform="translate(1442.529297 0.015625)"/>
     <use xlink:href="#DejaVuSans-65" transform="translate(1495.019531 0.015625)"/>
     <use xlink:href="#DejaVuSans-64" transform="translate(1556.542969 0.015625)"/>
     <use xlink:href="#DejaVuSans-20" transform="translate(1620.019531 0.015625)"/>
     <use xlink:href="#DejaVuSans-62" transform="translate(1651.806641 0.015625)"/>
     <use xlink:href="#DejaVuSans-79" transform="translate(1715.283203 0.015625)"/>
     <use xlink:href="#DejaVuSans-20" transform="translate(1774.462891 0.015625)"/>
     <use xlink:href="#DejaVuSans-6c" transform="translate(1806.25 0.015625)"/>
     <use xlink:href="#DejaVuSans-6f" transform="translate(1834.033203 0.015625)"/>
     <use xlink:href="#DejaVuSans-67" transform="translate(1895.214844 0.015625)"/>
     <use xlink:href="#DejaVuSans-Oblique-78" transform="translate(1974.927083 0.015625)"/>
    </g>
   </g>
   <g id="axes_2">
    <g id="patch_7">
     <path d="M 454.597725 321.0152 
L 704.160875 321.0152 
L 704.160875 202.9264 
L 454.597725 202.9264 
z
" style="fill: #ffffff"/>
    </g>
    <g id="matplotlib.axis_3">
     <g id="xtick_8">
      <g id="line2d_27">
       <path d="M 465.182723 321.0152 
L 465.182723 202.9264 
" clip-path="url(#p7af244f1ed)" style="fill: none; stroke: #b0b0b0; stroke-opacity: 0.2; stroke-width: 0.8; stroke-linecap: square"/>
      </g>
      <g id="line2d_28">
       <g>
        <use xlink:href="#m19cea1b00d" x="465.182723" y="321.0152" style="stroke: #000000; stroke-width: 0.8"/>
       </g>
      </g>
      <g id="text_17">
       <!-- 0 -->
       <g transform="translate(462.637723 334.09395) scale(0.08 -0.08)">
        <use xlink:href="#DejaVuSans-30"/>
       </g>
      </g>
     </g>
     <g id="xtick_9">
      <g id="line2d_29">
       <path d="M 503.121785 321.0152 
L 503.121785 202.9264 
" clip-path="url(#p7af244f1ed)" style="fill: none; stroke: #b0b0b0; stroke-opacity: 0.2; stroke-width: 0.8; stroke-linecap: square"/>
      </g>
      <g id="line2d_30">
       <g>
        <use xlink:href="#m19cea1b00d" x="503.121785" y="321.0152" style="stroke: #000000; stroke-width: 0.8"/>
       </g>
      </g>
      <g id="text_18">
       <!-- 50 -->
       <g transform="translate(498.031785 334.09395) scale(0.08 -0.08)">
        <use xlink:href="#DejaVuSans-35"/>
        <use xlink:href="#DejaVuSans-30" transform="translate(63.623047 0)"/>
       </g>
      </g>
     </g>
     <g id="xtick_10">
      <g id="line2d_31">
       <path d="M 541.060847 321.0152 
L 541.060847 202.9264 
" clip-path="url(#p7af244f1ed)" style="fill: none; stroke: #b0b0b0; stroke-opacity: 0.2; stroke-width: 0.8; stroke-linecap: square"/>
      </g>
      <g id="line2d_32">
       <g>
        <use xlink:href="#m19cea1b00d" x="541.060847" y="321.0152" style="stroke: #000000; stroke-width: 0.8"/>
       </g>
      </g>
      <g id="text_19">
       <!-- 100 -->
       <g transform="translate(533.425847 334.09395) scale(0.08 -0.08)">
        <use xlink:href="#DejaVuSans-31"/>
        <use xlink:href="#DejaVuSans-30" transform="translate(63.623047 0)"/>
        <use xlink:href="#DejaVuSans-30" transform="translate(127.246094 0)"/>
       </g>
      </g>
     </g>
     <g id="xtick_11">
      <g id="line2d_33">
       <path d="M 578.999909 321.0152 
L 578.999909 202.9264 
" clip-path="url(#p7af244f1ed)" style="fill: none; stroke: #b0b0b0; stroke-opacity: 0.2; stroke-width: 0.8; stroke-linecap: square"/>
      </g>
      <g id="line2d_34">
       <g>
        <use xlink:href="#m19cea1b00d" x="578.999909" y="321.0152" style="stroke: #000000; stroke-width: 0.8"/>
       </g>
      </g>
      <g id="text_20">
       <!-- 150 -->
       <g transform="translate(571.364909 334.09395) scale(0.08 -0.08)">
        <use xlink:href="#DejaVuSans-31"/>
        <use xlink:href="#DejaVuSans-35" transform="translate(63.623047 0)"/>
        <use xlink:href="#DejaVuSans-30" transform="translate(127.246094 0)"/>
       </g>
      </g>
     </g>
     <g id="xtick_12">
      <g id="line2d_35">
       <path d="M 616.938971 321.0152 
L 616.938971 202.9264 
" clip-path="url(#p7af244f1ed)" style="fill: none; stroke: #b0b0b0; stroke-opacity: 0.2; stroke-width: 0.8; stroke-linecap: square"/>
      </g>
      <g id="line2d_36">
       <g>
        <use xlink:href="#m19cea1b00d" x="616.938971" y="321.0152" style="stroke: #000000; stroke-width: 0.8"/>
       </g>
      </g>
      <g id="text_21">
       <!-- 200 -->
       <g transform="translate(609.303971 334.09395) scale(0.08 -0.08)">
        <use xlink:href="#DejaVuSans-32"/>
        <use xlink:href="#DejaVuSans-30" transform="translate(63.623047 0)"/>
        <use xlink:href="#DejaVuSans-30" transform="translate(127.246094 0)"/>
       </g>
      </g>
     </g>
     <g id="xtick_13">
      <g id="line2d_37">
       <path d="M 654.878033 321.0152 
L 654.878033 202.9264 
" clip-path="url(#p7af244f1ed)" style="fill: none; stroke: #b0b0b0; stroke-opacity: 0.2; stroke-width: 0.8; stroke-linecap: square"/>
      </g>
      <g id="line2d_38">
       <g>
        <use xlink:href="#m19cea1b00d" x="654.878033" y="321.0152" style="stroke: #000000; stroke-width: 0.8"/>
       </g>
      </g>
      <g id="text_22">
       <!-- 250 -->
       <g transform="translate(647.243033 334.09395) scale(0.08 -0.08)">
        <use xlink:href="#DejaVuSans-32"/>
        <use xlink:href="#DejaVuSans-35" transform="translate(63.623047 0)"/>
        <use xlink:href="#DejaVuSans-30" transform="translate(127.246094 0)"/>
       </g>
      </g>
     </g>
     <g id="xtick_14">
      <g id="line2d_39">
       <path d="M 692.817095 321.0152 
L 692.817095 202.9264 
" clip-path="url(#p7af244f1ed)" style="fill: none; stroke: #b0b0b0; stroke-opacity: 0.2; stroke-width: 0.8; stroke-linecap: square"/>
      </g>
      <g id="line2d_40">
       <g>
        <use xlink:href="#m19cea1b00d" x="692.817095" y="321.0152" style="stroke: #000000; stroke-width: 0.8"/>
       </g>
      </g>
      <g id="text_23">
       <!-- 300 -->
       <g transform="translate(685.182095 334.09395) scale(0.08 -0.08)">
        <use xlink:href="#DejaVuSans-33"/>
        <use xlink:href="#DejaVuSans-30" transform="translate(63.623047 0)"/>
        <use xlink:href="#DejaVuSans-30" transform="translate(127.246094 0)"/>
       </g>
      </g>
     </g>
     <g id="text_24">
      <!-- Partition -->
      <g transform="translate(562.71055 345.83645) scale(0.08 -0.08)">
       <defs>
        <path id="DejaVuSans-50" d="M 1259 4147 
L 1259 2394 
L 2053 2394 
Q 2494 2394 2734 2622 
Q 2975 2850 2975 3272 
Q 2975 3691 2734 3919 
Q 2494 4147 2053 4147 
L 1259 4147 
z
M 628 4666 
L 2053 4666 
Q 2838 4666 3239 4311 
Q 3641 3956 3641 3272 
Q 3641 2581 3239 2228 
Q 2838 1875 2053 1875 
L 1259 1875 
L 1259 0 
L 628 0 
L 628 4666 
z
" transform="scale(0.015625)"/>
       </defs>
       <use xlink:href="#DejaVuSans-50"/>
       <use xlink:href="#DejaVuSans-61" transform="translate(55.802734 0)"/>
       <use xlink:href="#DejaVuSans-72" transform="translate(117.082031 0)"/>
       <use xlink:href="#DejaVuSans-74" transform="translate(158.195312 0)"/>
       <use xlink:href="#DejaVuSans-69" transform="translate(197.404297 0)"/>
       <use xlink:href="#DejaVuSans-74" transform="translate(225.1875 0)"/>
       <use xlink:href="#DejaVuSans-69" transform="translate(264.396484 0)"/>
       <use xlink:href="#DejaVuSans-6f" transform="translate(292.179688 0)"/>
       <use xlink:href="#DejaVuSans-6e" transform="translate(353.361328 0)"/>
      </g>
     </g>
    </g>
    <g id="matplotlib.axis_4">
     <g id="ytick_6">
      <g id="line2d_41">
       <path d="M 454.597725 308.989962 
L 704.160875 308.989962 
" clip-path="url(#p7af244f1ed)" style="fill: none; stroke: #b0b0b0; stroke-opacity: 0.2; stroke-width: 0.8; stroke-linecap: square"/>
      </g>
      <g id="line2d_42">
       <g>
        <use xlink:href="#mf35b95b5b5" x="454.597725" y="308.989962" style="stroke: #000000; stroke-width: 0.8"/>
       </g>
      </g>
      <g id="text_25">
       <!-- 0.985 -->
       <g transform="translate(424.695225 312.029337) scale(0.08 -0.08)">
        <use xlink:href="#DejaVuSans-30"/>
        <use xlink:href="#DejaVuSans-2e" transform="translate(63.623047 0)"/>
        <use xlink:href="#DejaVuSans-39" transform="translate(95.410156 0)"/>
        <use xlink:href="#DejaVuSans-38" transform="translate(159.033203 0)"/>
        <use xlink:href="#DejaVuSans-35" transform="translate(222.65625 0)"/>
       </g>
      </g>
     </g>
     <g id="ytick_7">
      <g id="line2d_43">
       <path d="M 454.597725 275.54435 
L 704.160875 275.54435 
" clip-path="url(#p7af244f1ed)" style="fill: none; stroke: #b0b0b0; stroke-opacity: 0.2; stroke-width: 0.8; stroke-linecap: square"/>
      </g>
      <g id="line2d_44">
       <g>
        <use xlink:href="#mf35b95b5b5" x="454.597725" y="275.54435" style="stroke: #000000; stroke-width: 0.8"/>
       </g>
      </g>
      <g id="text_26">
       <!-- 0.990 -->
       <g transform="translate(424.695225 278.583725) scale(0.08 -0.08)">
        <use xlink:href="#DejaVuSans-30"/>
        <use xlink:href="#DejaVuSans-2e" transform="translate(63.623047 0)"/>
        <use xlink:href="#DejaVuSans-39" transform="translate(95.410156 0)"/>
        <use xlink:href="#DejaVuSans-39" transform="translate(159.033203 0)"/>
        <use xlink:href="#DejaVuSans-30" transform="translate(222.65625 0)"/>
       </g>
      </g>
     </g>
     <g id="ytick_8">
      <g id="line2d_45">
       <path d="M 454.597725 242.098737 
L 704.160875 242.098737 
" clip-path="url(#p7af244f1ed)" style="fill: none; stroke: #b0b0b0; stroke-opacity: 0.2; stroke-width: 0.8; stroke-linecap: square"/>
      </g>
      <g id="line2d_46">
       <g>
        <use xlink:href="#mf35b95b5b5" x="454.597725" y="242.098737" style="stroke: #000000; stroke-width: 0.8"/>
       </g>
      </g>
      <g id="text_27">
       <!-- 0.995 -->
       <g transform="translate(424.695225 245.138112) scale(0.08 -0.08)">
        <use xlink:href="#DejaVuSans-30"/>
        <use xlink:href="#DejaVuSans-2e" transform="translate(63.623047 0)"/>
        <use xlink:href="#DejaVuSans-39" transform="translate(95.410156 0)"/>
        <use xlink:href="#DejaVuSans-39" transform="translate(159.033203 0)"/>
        <use xlink:href="#DejaVuSans-35" transform="translate(222.65625 0)"/>
       </g>
      </g>
     </g>
     <g id="ytick_9">
      <g id="line2d_47">
       <path d="M 454.597725 208.653125 
L 704.160875 208.653125 
" clip-path="url(#p7af244f1ed)" style="fill: none; stroke: #b0b0b0; stroke-opacity: 0.2; stroke-width: 0.8; stroke-linecap: square"/>
      </g>
      <g id="line2d_48">
       <g>
        <use xlink:href="#mf35b95b5b5" x="454.597725" y="208.653125" style="stroke: #000000; stroke-width: 0.8"/>
       </g>
      </g>
      <g id="text_28">
       <!-- 1.000 -->
       <g transform="translate(424.695225 211.6925) scale(0.08 -0.08)">
        <use xlink:href="#DejaVuSans-31"/>
        <use xlink:href="#DejaVuSans-2e" transform="translate(63.623047 0)"/>
        <use xlink:href="#DejaVuSans-30" transform="translate(95.410156 0)"/>
        <use xlink:href="#DejaVuSans-30" transform="translate(159.033203 0)"/>
        <use xlink:href="#DejaVuSans-30" transform="translate(222.65625 0)"/>
       </g>
      </g>
     </g>
     <g id="text_29">
      <!-- Ratio -->
      <g transform="translate(419.031475 272.2383) rotate(-90) scale(0.08 -0.08)">
       <defs>
        <path id="DejaVuSans-52" d="M 2841 2188 
Q 3044 2119 3236 1894 
Q 3428 1669 3622 1275 
L 4263 0 
L 3584 0 
L 2988 1197 
Q 2756 1666 2539 1819 
Q 2322 1972 1947 1972 
L 1259 1972 
L 1259 0 
L 628 0 
L 628 4666 
L 2053 4666 
Q 2853 4666 3247 4331 
Q 3641 3997 3641 3322 
Q 3641 2881 3436 2590 
Q 3231 2300 2841 2188 
z
M 1259 4147 
L 1259 2491 
L 2053 2491 
Q 2509 2491 2742 2702 
Q 2975 2913 2975 3322 
Q 2975 3731 2742 3939 
Q 2509 4147 2053 4147 
L 1259 4147 
z
" transform="scale(0.015625)"/>
       </defs>
       <use xlink:href="#DejaVuSans-52"/>
       <use xlink:href="#DejaVuSans-61" transform="translate(67.232422 0)"/>
       <use xlink:href="#DejaVuSans-74" transform="translate(128.511719 0)"/>
       <use xlink:href="#DejaVuSans-69" transform="translate(167.720703 0)"/>
       <use xlink:href="#DejaVuSans-6f" transform="translate(195.503906 0)"/>
      </g>
     </g>
    </g>
    <g id="line2d_49">
     <path d="M 465.941505 315.647527 
L 466.700286 214.524432 
L 467.459067 210.664581 
L 468.217848 209.698487 
L 468.97663 209.208803 
L 472.011754 208.769554 
L 472.770536 208.847362 
L 473.529317 208.590656 
L 475.046879 208.885804 
L 475.805661 208.617433 
L 476.564442 208.768873 
L 477.323223 208.619151 
L 478.082004 208.621071 
L 478.840786 208.807996 
L 479.599567 208.580232 
L 480.358348 208.814214 
L 481.117129 208.609303 
L 482.634692 208.613273 
L 483.393473 208.86817 
L 484.152254 208.436688 
L 484.911036 208.705975 
L 486.428598 208.660403 
L 489.463723 208.687808 
L 490.222504 208.835832 
L 490.981285 208.615301 
L 491.740067 208.581792 
L 492.498848 208.66712 
L 493.257629 208.605947 
L 494.01641 208.669319 
L 495.533973 208.530417 
L 496.292754 208.77053 
L 497.051535 208.618572 
L 498.569098 208.81762 
L 499.327879 208.610617 
L 500.845442 208.675777 
L 501.604223 208.479258 
L 502.363004 208.712702 
L 503.121785 208.600906 
L 503.880567 208.773047 
L 504.639348 208.654108 
L 506.15691 208.737994 
L 506.915692 208.541053 
L 507.674473 208.725883 
L 508.433254 208.596098 
L 509.192035 208.639474 
L 509.950816 208.564501 
L 510.709598 208.709304 
L 511.468379 208.563142 
L 512.985941 208.684483 
L 513.744723 208.572485 
L 514.503504 208.696881 
L 515.262285 208.595866 
L 516.021066 208.728007 
L 516.779848 208.741638 
L 517.538629 208.498887 
L 518.29741 208.679791 
L 519.056191 208.714909 
L 519.814973 208.419827 
L 520.573754 208.80092 
L 521.332535 208.679464 
L 522.091316 208.860138 
L 522.850098 208.630301 
L 524.36766 208.714783 
L 525.126441 208.408198 
L 525.885223 208.687088 
L 527.402785 208.761076 
L 528.161566 208.58856 
L 532.714254 208.57524 
L 533.473035 208.500203 
L 534.231816 208.736998 
L 534.990597 208.736207 
L 535.749379 208.510524 
L 537.266941 208.817545 
L 538.784504 208.520882 
L 540.302066 208.709014 
L 542.57841 208.523031 
L 544.854754 208.755328 
L 545.613535 208.693219 
L 546.372316 208.792234 
L 547.131097 208.578938 
L 547.889879 208.774022 
L 549.407441 208.447924 
L 550.166222 208.691577 
L 550.925003 208.720529 
L 551.683785 208.588815 
L 552.442566 208.834827 
L 553.201347 208.900887 
L 554.71891 208.415157 
L 556.236472 208.625654 
L 556.995253 208.763053 
L 559.271597 208.614928 
L 560.030378 208.856882 
L 560.78916 208.498695 
L 562.306722 208.717797 
L 563.065503 208.568079 
L 565.341847 208.568309 
L 566.85941 208.818923 
L 567.618191 208.503146 
L 568.376972 208.568167 
L 569.135753 208.855757 
L 569.894534 208.894894 
L 570.653316 208.470409 
L 571.412097 208.598789 
L 572.929659 208.539296 
L 573.688441 208.960747 
L 574.447222 208.627098 
L 575.206003 208.698517 
L 575.964784 208.639377 
L 576.723566 208.712079 
L 577.482347 208.396409 
L 578.241128 208.741338 
L 582.793816 208.644472 
L 584.311378 208.78853 
L 585.070159 208.45473 
L 585.828941 208.644302 
L 586.587722 208.507315 
L 587.346503 208.495757 
L 588.105284 208.747868 
L 588.864066 208.556997 
L 589.622847 208.61651 
L 590.381628 208.830782 
L 591.140409 208.448248 
L 591.89919 208.697914 
L 592.657972 208.526142 
L 593.416753 208.843026 
L 595.693097 208.605042 
L 596.451878 208.787299 
L 597.210659 208.321409 
L 599.487003 208.938896 
L 600.245784 208.525014 
L 601.763347 208.877711 
L 602.522128 208.66619 
L 604.03969 208.703787 
L 605.557253 208.567025 
L 606.316034 208.780783 
L 607.074815 208.472816 
L 607.833597 208.697957 
L 608.592378 208.511901 
L 610.10994 208.667093 
L 610.868721 208.421283 
L 612.386284 208.957489 
L 613.145065 208.294073 
L 613.903846 208.846859 
L 615.421409 208.526936 
L 616.18019 208.851969 
L 616.938971 208.675695 
L 617.697753 208.850237 
L 619.215315 208.515561 
L 619.974096 208.869904 
L 622.25044 208.582248 
L 624.526784 208.67239 
L 626.044346 208.392974 
L 626.803128 208.860053 
L 627.561909 208.775696 
L 628.32069 208.492833 
L 629.838252 208.613718 
L 632.114596 208.477774 
L 632.873377 208.720565 
L 634.39094 208.485113 
L 635.149721 208.739124 
L 635.908502 208.632805 
L 636.667284 208.822634 
L 637.426065 208.69454 
L 638.943627 208.724697 
L 639.702409 208.548439 
L 640.46119 208.601561 
L 641.219971 208.454846 
L 642.737534 208.635411 
L 647.290221 208.855411 
L 648.049002 208.559436 
L 648.807784 208.739906 
L 649.566565 208.744381 
L 650.325346 208.503014 
L 651.842908 208.767191 
L 652.60169 208.457847 
L 653.360471 208.791513 
L 654.119252 208.760359 
L 654.878033 208.59535 
L 655.636815 208.618865 
L 656.395596 208.832909 
L 657.154377 208.615145 
L 657.913158 208.761671 
L 659.430721 208.460347 
L 660.948283 208.684624 
L 663.224627 208.569568 
L 663.983408 208.696844 
L 665.500971 208.648553 
L 666.259752 208.473228 
L 667.018533 208.829045 
L 667.777315 208.642561 
L 668.536096 208.57225 
L 669.294877 208.872707 
L 670.053658 208.593902 
L 673.088783 208.725754 
L 673.847564 208.805727 
L 674.606346 208.76178 
L 675.365127 208.602546 
L 676.123908 208.769278 
L 676.882689 208.613607 
L 677.641471 208.325226 
L 678.400252 208.816119 
L 679.159033 208.682166 
L 679.917814 208.422812 
L 680.676596 208.76878 
L 681.435377 208.476636 
L 682.194158 208.461877 
L 682.952939 208.973818 
L 683.711721 208.73002 
L 684.470502 208.698291 
L 685.229283 208.527229 
L 686.746846 208.708704 
L 687.505627 208.599401 
L 689.023189 208.743504 
L 689.78197 208.746761 
L 690.540752 208.409133 
L 692.058314 208.638195 
L 692.817095 208.516603 
L 692.817095 208.516603 
" clip-path="url(#p7af244f1ed)" style="fill: none; stroke: #1f77b4; stroke-width: 1.2; stroke-linecap: square"/>
    </g>
    <g id="line2d_50">
     <path d="M 454.597725 208.653125 
L 704.160875 208.653125 
" clip-path="url(#p7af244f1ed)" style="fill: none; stroke: #1f77b4; stroke-width: 0.8; stroke-linecap: square"/>
    </g>
    <g id="patch_8">
     <path d="M 454.597725 321.0152 
L 454.597725 202.9264 
" style="fill: none; stroke: #000000; stroke-width: 0.8; stroke-linejoin: miter; stroke-linecap: square"/>
    </g>
    <g id="patch_9">
     <path d="M 704.160875 321.0152 
L 704.160875 202.9264 
" style="fill: none; stroke: #000000; stroke-width: 0.8; stroke-linejoin: miter; stroke-linecap: square"/>
    </g>
    <g id="patch_10">
     <path d="M 454.597725 321.0152 
L 704.160875 321.0152 
" style="fill: none; stroke: #000000; stroke-width: 0.8; stroke-linejoin: miter; stroke-linecap: square"/>
    </g>
    <g id="patch_11">
     <path d="M 454.597725 202.9264 
L 704.160875 202.9264 
" style="fill: none; stroke: #000000; stroke-width: 0.8; stroke-linejoin: miter; stroke-linecap: square"/>
    </g>
    <g id="text_30">
     <!-- Full domain -->
     <g transform="translate(553.40305 196.9264) scale(0.09 -0.09)">
      <defs>
       <path id="DejaVuSans-46" d="M 628 4666 
L 3309 4666 
L 3309 4134 
L 1259 4134 
L 1259 2759 
L 3109 2759 
L 3109 2228 
L 1259 2228 
L 1259 0 
L 628 0 
L 628 4666 
z
" transform="scale(0.015625)"/>
       <path id="DejaVuSans-75" d="M 544 1381 
L 544 3500 
L 1119 3500 
L 1119 1403 
Q 1119 906 1312 657 
Q 1506 409 1894 409 
Q 2359 409 2629 706 
Q 2900 1003 2900 1516 
L 2900 3500 
L 3475 3500 
L 3475 0 
L 2900 0 
L 2900 538 
Q 2691 219 2414 64 
Q 2138 -91 1772 -91 
Q 1169 -91 856 284 
Q 544 659 544 1381 
z
M 1991 3584 
L 1991 3584 
z
" transform="scale(0.015625)"/>
      </defs>
      <use xlink:href="#DejaVuSans-46"/>
      <use xlink:href="#DejaVuSans-75" transform="translate(52.019531 0)"/>
      <use xlink:href="#DejaVuSans-6c" transform="translate(115.398438 0)"/>
      <use xlink:href="#DejaVuSans-6c" transform="translate(143.181641 0)"/>
      <use xlink:href="#DejaVuSans-20" transform="translate(170.964844 0)"/>
      <use xlink:href="#DejaVuSans-64" transform="translate(202.751953 0)"/>
      <use xlink:href="#DejaVuSans-6f" transform="translate(266.228516 0)"/>
      <use xlink:href="#DejaVuSans-6d" transform="translate(327.410156 0)"/>
      <use xlink:href="#DejaVuSans-61" transform="translate(424.822266 0)"/>
      <use xlink:href="#DejaVuSans-69" transform="translate(486.101562 0)"/>
      <use xlink:href="#DejaVuSans-6e" transform="translate(513.884766 0)"/>
     </g>
    </g>
   </g>
  </g>
 </g>
 <defs>
  <clipPath id="pc0e61190af">
   <rect x="63.390625" y="22.32" width="674.495" height="347.32"/>
  </clipPath>
  <clipPath id="p7af244f1ed">
   <rect x="454.597725" y="202.9264" width="249.56315" height="118.0888"/>
  </clipPath>
 </defs>
</svg>
