<?xml version="1.0" encoding="utf-8" standalone="no"?>
<!DOCTYPE svg PUBLIC "-//W3C//DTD SVG 1.1//EN"
  "http://www.w3.org/Graphics/SVG/1.1/DTD/svg11.dtd">
<svg xmlns:xlink="http://www.w3.org/1999/xlink" width="748.495625pt" height="434.57625pt" viewBox="0 0 748.495625 434.57625" xmlns="http://www.w3.org/2000/svg" version="1.1">
 <metadata>
  <rdf:RDF xmlns:dc="http://purl.org/dc/elements/1.1/" xmlns:cc="http://creativecommons.org/ns#" xmlns:rdf="http://www.w3.org/1999/02/22-rdf-syntax-ns#">
   <cc:Work>
    <dc:type rdf:resource="http://purl.org/dc/dcmitype/StillImage"/>
    <dc:date>2026-07-18T11:45:55.500727</dc:date>
    <dc:format>image/svg+xml</dc:format>
    <dc:creator>
     <cc:Agent>
      <dc:title>Matplotlib v3.10.9, https://matplotlib.org/</dc:title>
     </cc:Agent>
    </dc:creator>
   </cc:Work>
  </rdf:RDF>
 </metadata>
 <defs>
  <style type="text/css">*{stroke-linejoin: round; stroke-linecap: butt}</style>
 </defs>
 <g id="figure_1">
  <g id="patch_1">
   <path d="M -0 434.57625 
L 748.495625 434.57625 
L 748.495625 0 
L -0 0 
z
" style="fill: #ffffff"/>
  </g>
  <g id="axes_1">
   <g id="patch_2">
    <path d="M 46.965625 396.998125 
L 741.295625 396.998125 
L 741.295625 22.318125 
L 46.965625 22.318125 
z
" style="fill: #ffffff"/>
   </g>
   <g id="line2d_1">
    <path d="M 78.52608 379.967216 
L 86.970348 374.93142 
L 99.636751 367.680497 
L 118.636356 357.076588 
L 143.969163 343.208373 
L 175.63517 326.136076 
L 213.63438 305.904916 
L 260.077858 281.444299 
L 312.854538 253.909972 
L 371.964419 223.323821 
L 439.51857 188.624716 
L 513.405921 150.924622 
L 595.737542 109.170015 
L 684.402364 64.453015 
L 709.73517 51.718493 
L 709.73517 51.718493 
" clip-path="url(#pc37c218825)" style="fill: none; stroke-dasharray: 11.52,2.88,1.8,2.88; stroke-dashoffset: 0; stroke: #1f77b4; stroke-width: 1.8"/>
   </g>
   <g id="matplotlib.axis_1">
    <g id="xtick_1">
     <g id="line2d_2">
      <path d="M 76.415012 396.998125 
L 76.415012 22.318125 
" clip-path="url(#pc37c218825)" style="fill: none; stroke: #b0b0b0; stroke-opacity: 0.25; stroke-width: 0.8; stroke-linecap: square"/>
     </g>
     <g id="line2d_3">
      <defs>
       <path id="m5cc300a914" d="M 0 0 
L 0 3.5 
" style="stroke: #000000; stroke-width: 0.8"/>
      </defs>
      <g>
       <use xlink:href="#m5cc300a914" x="76.415012" y="396.998125" style="stroke: #000000; stroke-width: 0.8"/>
      </g>
     </g>
     <g id="text_1">
      <!-- 0.0 -->
      <g transform="translate(68.46345 411.596562) scale(0.1 -0.1)">
       <defs>
        <path id="DejaVuSans-30" d="M 2034 4250 
Q 1547 4250 1301 3770 
Q 1056 3291 1056 2328 
Q 1056 1369 1301 889 
Q 1547 409 2034 409 
Q 2525 409 2770 889 
Q 3016 1369 3016 2328 
Q 3016 3291 2770 3770 
Q 2525 4250 2034 4250 
z
M 2034 4750 
Q 2819 4750 3233 4129 
Q 3647 3509 3647 2328 
Q 3647 1150 3233 529 
Q 2819 -91 2034 -91 
Q 1250 -91 836 529 
Q 422 1150 422 2328 
Q 422 3509 836 4129 
Q 1250 4750 2034 4750 
z
" transform="scale(0.015625)"/>
        <path id="DejaVuSans-2e" d="M 684 794 
L 1344 794 
L 1344 0 
L 684 0 
L 684 794 
z
" transform="scale(0.015625)"/>
       </defs>
       <use xlink:href="#DejaVuSans-30"/>
       <use xlink:href="#DejaVuSans-2e" transform="translate(63.623047 0)"/>
       <use xlink:href="#DejaVuSans-30" transform="translate(95.410156 0)"/>
      </g>
     </g>
    </g>
    <g id="xtick_2">
     <g id="line2d_4">
      <path d="M 181.968372 396.998125 
L 181.968372 22.318125 
" clip-path="url(#pc37c218825)" style="fill: none; stroke: #b0b0b0; stroke-opacity: 0.25; stroke-width: 0.8; stroke-linecap: square"/>
     </g>
     <g id="line2d_5">
      <g>
       <use xlink:href="#m5cc300a914" x="181.968372" y="396.998125" style="stroke: #000000; stroke-width: 0.8"/>
      </g>
     </g>
     <g id="text_2">
      <!-- 0.5 -->
      <g transform="translate(174.01681 411.596562) scale(0.1 -0.1)">
       <defs>
        <path id="DejaVuSans-35" d="M 691 4666 
L 3169 4666 
L 3169 4134 
L 1269 4134 
L 1269 2991 
Q 1406 3038 1543 3061 
Q 1681 3084 1819 3084 
Q 2600 3084 3056 2656 
Q 3513 2228 3513 1497 
Q 3513 744 3044 326 
Q 2575 -91 1722 -91 
Q 1428 -91 1123 -41 
Q 819 9 494 109 
L 494 744 
Q 775 591 1075 516 
Q 1375 441 1709 441 
Q 2250 441 2565 725 
Q 2881 1009 2881 1497 
Q 2881 1984 2565 2268 
Q 2250 2553 1709 2553 
Q 1456 2553 1204 2497 
Q 953 2441 691 2322 
L 691 4666 
z
" transform="scale(0.015625)"/>
       </defs>
       <use xlink:href="#DejaVuSans-30"/>
       <use xlink:href="#DejaVuSans-2e" transform="translate(63.623047 0)"/>
       <use xlink:href="#DejaVuSans-35" transform="translate(95.410156 0)"/>
      </g>
     </g>
    </g>
    <g id="xtick_3">
     <g id="line2d_6">
      <path d="M 287.521732 396.998125 
L 287.521732 22.318125 
" clip-path="url(#pc37c218825)" style="fill: none; stroke: #b0b0b0; stroke-opacity: 0.25; stroke-width: 0.8; stroke-linecap: square"/>
     </g>
     <g id="line2d_7">
      <g>
       <use xlink:href="#m5cc300a914" x="287.521732" y="396.998125" style="stroke: #000000; stroke-width: 0.8"/>
      </g>
     </g>
     <g id="text_3">
      <!-- 1.0 -->
      <g transform="translate(279.570169 411.596562) scale(0.1 -0.1)">
       <defs>
        <path id="DejaVuSans-31" d="M 794 531 
L 1825 531 
L 1825 4091 
L 703 3866 
L 703 4441 
L 1819 4666 
L 2450 4666 
L 2450 531 
L 3481 531 
L 3481 0 
L 794 0 
L 794 531 
z
" transform="scale(0.015625)"/>
       </defs>
       <use xlink:href="#DejaVuSans-31"/>
       <use xlink:href="#DejaVuSans-2e" transform="translate(63.623047 0)"/>
       <use xlink:href="#DejaVuSans-30" transform="translate(95.410156 0)"/>
      </g>
     </g>
    </g>
    <g id="xtick_4">
     <g id="line2d_8">
      <path d="M 393.075091 396.998125 
L 393.075091 22.318125 
" clip-path="url(#pc37c218825)" style="fill: none; stroke: #b0b0b0; stroke-opacity: 0.25; stroke-width: 0.8; stroke-linecap: square"/>
     </g>
     <g id="line2d_9">
      <g>
       <use xlink:href="#m5cc300a914" x="393.075091" y="396.998125" style="stroke: #000000; stroke-width: 0.8"/>
      </g>
     </g>
     <g id="text_4">
      <!-- 1.5 -->
      <g transform="translate(385.123529 411.596562) scale(0.1 -0.1)">
       <use xlink:href="#DejaVuSans-31"/>
       <use xlink:href="#DejaVuSans-2e" transform="translate(63.623047 0)"/>
       <use xlink:href="#DejaVuSans-35" transform="translate(95.410156 0)"/>
      </g>
     </g>
    </g>
    <g id="xtick_5">
     <g id="line2d_10">
      <path d="M 498.628451 396.998125 
L 498.628451 22.318125 
" clip-path="url(#pc37c218825)" style="fill: none; stroke: #b0b0b0; stroke-opacity: 0.25; stroke-width: 0.8; stroke-linecap: square"/>
     </g>
     <g id="line2d_11">
      <g>
       <use xlink:href="#m5cc300a914" x="498.628451" y="396.998125" style="stroke: #000000; stroke-width: 0.8"/>
      </g>
     </g>
     <g id="text_5">
      <!-- 2.0 -->
      <g transform="translate(490.676889 411.596562) scale(0.1 -0.1)">
       <defs>
        <path id="DejaVuSans-32" d="M 1228 531 
L 3431 531 
L 3431 0 
L 469 0 
L 469 531 
Q 828 903 1448 1529 
Q 2069 2156 2228 2338 
Q 2531 2678 2651 2914 
Q 2772 3150 2772 3378 
Q 2772 3750 2511 3984 
Q 2250 4219 1831 4219 
Q 1534 4219 1204 4116 
Q 875 4013 500 3803 
L 500 4441 
Q 881 4594 1212 4672 
Q 1544 4750 1819 4750 
Q 2544 4750 2975 4387 
Q 3406 4025 3406 3419 
Q 3406 3131 3298 2873 
Q 3191 2616 2906 2266 
Q 2828 2175 2409 1742 
Q 1991 1309 1228 531 
z
" transform="scale(0.015625)"/>
       </defs>
       <use xlink:href="#DejaVuSans-32"/>
       <use xlink:href="#DejaVuSans-2e" transform="translate(63.623047 0)"/>
       <use xlink:href="#DejaVuSans-30" transform="translate(95.410156 0)"/>
      </g>
     </g>
    </g>
    <g id="xtick_6">
     <g id="line2d_12">
      <path d="M 604.181811 396.998125 
L 604.181811 22.318125 
" clip-path="url(#pc37c218825)" style="fill: none; stroke: #b0b0b0; stroke-opacity: 0.25; stroke-width: 0.8; stroke-linecap: square"/>
     </g>
     <g id="line2d_13">
      <g>
       <use xlink:href="#m5cc300a914" x="604.181811" y="396.998125" style="stroke: #000000; stroke-width: 0.8"/>
      </g>
     </g>
     <g id="text_6">
      <!-- 2.5 -->
      <g transform="translate(596.230248 411.596562) scale(0.1 -0.1)">
       <use xlink:href="#DejaVuSans-32"/>
       <use xlink:href="#DejaVuSans-2e" transform="translate(63.623047 0)"/>
       <use xlink:href="#DejaVuSans-35" transform="translate(95.410156 0)"/>
      </g>
     </g>
    </g>
    <g id="xtick_7">
     <g id="line2d_14">
      <path d="M 709.73517 396.998125 
L 709.73517 22.318125 
" clip-path="url(#pc37c218825)" style="fill: none; stroke: #b0b0b0; stroke-opacity: 0.25; stroke-width: 0.8; stroke-linecap: square"/>
     </g>
     <g id="line2d_15">
      <g>
       <use xlink:href="#m5cc300a914" x="709.73517" y="396.998125" style="stroke: #000000; stroke-width: 0.8"/>
      </g>
     </g>
     <g id="text_7">
      <!-- 3.0 -->
      <g transform="translate(701.783608 411.596562) scale(0.1 -0.1)">
       <defs>
        <path id="DejaVuSans-33" d="M 2597 2516 
Q 3050 2419 3304 2112 
Q 3559 1806 3559 1356 
Q 3559 666 3084 287 
Q 2609 -91 1734 -91 
Q 1441 -91 1130 -33 
Q 819 25 488 141 
L 488 750 
Q 750 597 1062 519 
Q 1375 441 1716 441 
Q 2309 441 2620 675 
Q 2931 909 2931 1356 
Q 2931 1769 2642 2001 
Q 2353 2234 1838 2234 
L 1294 2234 
L 1294 2753 
L 1863 2753 
Q 2328 2753 2575 2939 
Q 2822 3125 2822 3475 
Q 2822 3834 2567 4026 
Q 2313 4219 1838 4219 
Q 1578 4219 1281 4162 
Q 984 4106 628 3988 
L 628 4550 
Q 988 4650 1302 4700 
Q 1616 4750 1894 4750 
Q 2613 4750 3031 4423 
Q 3450 4097 3450 3541 
Q 3450 3153 3228 2886 
Q 3006 2619 2597 2516 
z
" transform="scale(0.015625)"/>
       </defs>
       <use xlink:href="#DejaVuSans-33"/>
       <use xlink:href="#DejaVuSans-2e" transform="translate(63.623047 0)"/>
       <use xlink:href="#DejaVuSans-30" transform="translate(95.410156 0)"/>
      </g>
     </g>
    </g>
    <g id="text_8">
     <!-- Endpoint $x$ (trillions) -->
     <g transform="translate(343.430625 425.27625) scale(0.1 -0.1)">
      <defs>
       <path id="DejaVuSans-45" d="M 628 4666 
L 3578 4666 
L 3578 4134 
L 1259 4134 
L 1259 2753 
L 3481 2753 
L 3481 2222 
L 1259 2222 
L 1259 531 
L 3634 531 
L 3634 0 
L 628 0 
L 628 4666 
z
" transform="scale(0.015625)"/>
       <path id="DejaVuSans-6e" d="M 3513 2113 
L 3513 0 
L 2938 0 
L 2938 2094 
Q 2938 2591 2744 2837 
Q 2550 3084 2163 3084 
Q 1697 3084 1428 2787 
Q 1159 2491 1159 1978 
L 1159 0 
L 581 0 
L 581 3500 
L 1159 3500 
L 1159 2956 
Q 1366 3272 1645 3428 
Q 1925 3584 2291 3584 
Q 2894 3584 3203 3211 
Q 3513 2838 3513 2113 
z
" transform="scale(0.015625)"/>
       <path id="DejaVuSans-64" d="M 2906 2969 
L 2906 4863 
L 3481 4863 
L 3481 0 
L 2906 0 
L 2906 525 
Q 2725 213 2448 61 
Q 2172 -91 1784 -91 
Q 1150 -91 751 415 
Q 353 922 353 1747 
Q 353 2572 751 3078 
Q 1150 3584 1784 3584 
Q 2172 3584 2448 3432 
Q 2725 3281 2906 2969 
z
M 947 1747 
Q 947 1113 1208 752 
Q 1469 391 1925 391 
Q 2381 391 2643 752 
Q 2906 1113 2906 1747 
Q 2906 2381 2643 2742 
Q 2381 3103 1925 3103 
Q 1469 3103 1208 2742 
Q 947 2381 947 1747 
z
" transform="scale(0.015625)"/>
       <path id="DejaVuSans-70" d="M 1159 525 
L 1159 -1331 
L 581 -1331 
L 581 3500 
L 1159 3500 
L 1159 2969 
Q 1341 3281 1617 3432 
Q 1894 3584 2278 3584 
Q 2916 3584 3314 3078 
Q 3713 2572 3713 1747 
Q 3713 922 3314 415 
Q 2916 -91 2278 -91 
Q 1894 -91 1617 61 
Q 1341 213 1159 525 
z
M 3116 1747 
Q 3116 2381 2855 2742 
Q 2594 3103 2138 3103 
Q 1681 3103 1420 2742 
Q 1159 2381 1159 1747 
Q 1159 1113 1420 752 
Q 1681 391 2138 391 
Q 2594 391 2855 752 
Q 3116 1113 3116 1747 
z
" transform="scale(0.015625)"/>
       <path id="DejaVuSans-6f" d="M 1959 3097 
Q 1497 3097 1228 2736 
Q 959 2375 959 1747 
Q 959 1119 1226 758 
Q 1494 397 1959 397 
Q 2419 397 2687 759 
Q 2956 1122 2956 1747 
Q 2956 2369 2687 2733 
Q 2419 3097 1959 3097 
z
M 1959 3584 
Q 2709 3584 3137 3096 
Q 3566 2609 3566 1747 
Q 3566 888 3137 398 
Q 2709 -91 1959 -91 
Q 1206 -91 779 398 
Q 353 888 353 1747 
Q 353 2609 779 3096 
Q 1206 3584 1959 3584 
z
" transform="scale(0.015625)"/>
       <path id="DejaVuSans-69" d="M 603 3500 
L 1178 3500 
L 1178 0 
L 603 0 
L 603 3500 
z
M 603 4863 
L 1178 4863 
L 1178 4134 
L 603 4134 
L 603 4863 
z
" transform="scale(0.015625)"/>
       <path id="DejaVuSans-74" d="M 1172 4494 
L 1172 3500 
L 2356 3500 
L 2356 3053 
L 1172 3053 
L 1172 1153 
Q 1172 725 1289 603 
Q 1406 481 1766 481 
L 2356 481 
L 2356 0 
L 1766 0 
Q 1100 0 847 248 
Q 594 497 594 1153 
L 594 3053 
L 172 3053 
L 172 3500 
L 594 3500 
L 594 4494 
L 1172 4494 
z
" transform="scale(0.015625)"/>
       <path id="DejaVuSans-20" transform="scale(0.015625)"/>
       <path id="DejaVuSans-Oblique-78" d="M 3841 3500 
L 2234 1784 
L 3219 0 
L 2559 0 
L 1819 1388 
L 531 0 
L -166 0 
L 1556 1844 
L 641 3500 
L 1300 3500 
L 1972 2234 
L 3144 3500 
L 3841 3500 
z
" transform="scale(0.015625)"/>
       <path id="DejaVuSans-28" d="M 1984 4856 
Q 1566 4138 1362 3434 
Q 1159 2731 1159 2009 
Q 1159 1288 1364 580 
Q 1569 -128 1984 -844 
L 1484 -844 
Q 1016 -109 783 600 
Q 550 1309 550 2009 
Q 550 2706 781 3412 
Q 1013 4119 1484 4856 
L 1984 4856 
z
" transform="scale(0.015625)"/>
       <path id="DejaVuSans-72" d="M 2631 2963 
Q 2534 3019 2420 3045 
Q 2306 3072 2169 3072 
Q 1681 3072 1420 2755 
Q 1159 2438 1159 1844 
L 1159 0 
L 581 0 
L 581 3500 
L 1159 3500 
L 1159 2956 
Q 1341 3275 1631 3429 
Q 1922 3584 2338 3584 
Q 2397 3584 2469 3576 
Q 2541 3569 2628 3553 
L 2631 2963 
z
" transform="scale(0.015625)"/>
       <path id="DejaVuSans-6c" d="M 603 4863 
L 1178 4863 
L 1178 0 
L 603 0 
L 603 4863 
z
" transform="scale(0.015625)"/>
       <path id="DejaVuSans-73" d="M 2834 3397 
L 2834 2853 
Q 2591 2978 2328 3040 
Q 2066 3103 1784 3103 
Q 1356 3103 1142 2972 
Q 928 2841 928 2578 
Q 928 2378 1081 2264 
Q 1234 2150 1697 2047 
L 1894 2003 
Q 2506 1872 2764 1633 
Q 3022 1394 3022 966 
Q 3022 478 2636 193 
Q 2250 -91 1575 -91 
Q 1294 -91 989 -36 
Q 684 19 347 128 
L 347 722 
Q 666 556 975 473 
Q 1284 391 1588 391 
Q 1994 391 2212 530 
Q 2431 669 2431 922 
Q 2431 1156 2273 1281 
Q 2116 1406 1581 1522 
L 1381 1569 
Q 847 1681 609 1914 
Q 372 2147 372 2553 
Q 372 3047 722 3315 
Q 1072 3584 1716 3584 
Q 2034 3584 2315 3537 
Q 2597 3491 2834 3397 
z
" transform="scale(0.015625)"/>
       <path id="DejaVuSans-29" d="M 513 4856 
L 1013 4856 
Q 1481 4119 1714 3412 
Q 1947 2706 1947 2009 
Q 1947 1309 1714 600 
Q 1481 -109 1013 -844 
L 513 -844 
Q 928 -128 1133 580 
Q 1338 1288 1338 2009 
Q 1338 2731 1133 3434 
Q 928 4138 513 4856 
z
" transform="scale(0.015625)"/>
      </defs>
      <use xlink:href="#DejaVuSans-45" transform="translate(0 0.015625)"/>
      <use xlink:href="#DejaVuSans-6e" transform="translate(63.183594 0.015625)"/>
      <use xlink:href="#DejaVuSans-64" transform="translate(126.5625 0.015625)"/>
      <use xlink:href="#DejaVuSans-70" transform="translate(190.039062 0.015625)"/>
      <use xlink:href="#DejaVuSans-6f" transform="translate(253.515625 0.015625)"/>
      <use xlink:href="#DejaVuSans-69" transform="translate(314.697266 0.015625)"/>
      <use xlink:href="#DejaVuSans-6e" transform="translate(342.480469 0.015625)"/>
      <use xlink:href="#DejaVuSans-74" transform="translate(405.859375 0.015625)"/>
      <use xlink:href="#DejaVuSans-20" transform="translate(445.068359 0.015625)"/>
      <use xlink:href="#DejaVuSans-Oblique-78" transform="translate(476.855469 0.015625)"/>
      <use xlink:href="#DejaVuSans-20" transform="translate(536.035156 0.015625)"/>
      <use xlink:href="#DejaVuSans-28" transform="translate(567.822266 0.015625)"/>
      <use xlink:href="#DejaVuSans-74" transform="translate(606.835938 0.015625)"/>
      <use xlink:href="#DejaVuSans-72" transform="translate(646.044922 0.015625)"/>
      <use xlink:href="#DejaVuSans-69" transform="translate(687.158203 0.015625)"/>
      <use xlink:href="#DejaVuSans-6c" transform="translate(714.941406 0.015625)"/>
      <use xlink:href="#DejaVuSans-6c" transform="translate(742.724609 0.015625)"/>
      <use xlink:href="#DejaVuSans-69" transform="translate(770.507812 0.015625)"/>
      <use xlink:href="#DejaVuSans-6f" transform="translate(798.291016 0.015625)"/>
      <use xlink:href="#DejaVuSans-6e" transform="translate(859.472656 0.015625)"/>
      <use xlink:href="#DejaVuSans-73" transform="translate(922.851562 0.015625)"/>
      <use xlink:href="#DejaVuSans-29" transform="translate(974.951172 0.015625)"/>
     </g>
    </g>
   </g>
   <g id="matplotlib.axis_2">
    <g id="ytick_1">
     <g id="line2d_16">
      <path d="M 46.965625 381.338117 
L 741.295625 381.338117 
" clip-path="url(#pc37c218825)" style="fill: none; stroke: #b0b0b0; stroke-opacity: 0.25; stroke-width: 0.8; stroke-linecap: square"/>
     </g>
     <g id="line2d_17">
      <defs>
       <path id="mca9bd3154c" d="M 0 0 
L -3.5 0 
" style="stroke: #000000; stroke-width: 0.8"/>
      </defs>
      <g>
       <use xlink:href="#mca9bd3154c" x="46.965625" y="381.338117" style="stroke: #000000; stroke-width: 0.8"/>
      </g>
     </g>
     <g id="text_9">
      <!-- 0 -->
      <g transform="translate(33.603125 385.137336) scale(0.1 -0.1)">
       <use xlink:href="#DejaVuSans-30"/>
      </g>
     </g>
    </g>
    <g id="ytick_2">
     <g id="line2d_18">
      <path d="M 46.965625 318.205777 
L 741.295625 318.205777 
" clip-path="url(#pc37c218825)" style="fill: none; stroke: #b0b0b0; stroke-opacity: 0.25; stroke-width: 0.8; stroke-linecap: square"/>
     </g>
     <g id="line2d_19">
      <g>
       <use xlink:href="#mca9bd3154c" x="46.965625" y="318.205777" style="stroke: #000000; stroke-width: 0.8"/>
      </g>
     </g>
     <g id="text_10">
      <!-- 20 -->
      <g transform="translate(27.240625 322.004996) scale(0.1 -0.1)">
       <use xlink:href="#DejaVuSans-32"/>
       <use xlink:href="#DejaVuSans-30" transform="translate(63.623047 0)"/>
      </g>
     </g>
    </g>
    <g id="ytick_3">
     <g id="line2d_20">
      <path d="M 46.965625 255.073438 
L 741.295625 255.073438 
" clip-path="url(#pc37c218825)" style="fill: none; stroke: #b0b0b0; stroke-opacity: 0.25; stroke-width: 0.8; stroke-linecap: square"/>
     </g>
     <g id="line2d_21">
      <g>
       <use xlink:href="#mca9bd3154c" x="46.965625" y="255.073438" style="stroke: #000000; stroke-width: 0.8"/>
      </g>
     </g>
     <g id="text_11">
      <!-- 40 -->
      <g transform="translate(27.240625 258.872656) scale(0.1 -0.1)">
       <defs>
        <path id="DejaVuSans-34" d="M 2419 4116 
L 825 1625 
L 2419 1625 
L 2419 4116 
z
M 2253 4666 
L 3047 4666 
L 3047 1625 
L 3713 1625 
L 3713 1100 
L 3047 1100 
L 3047 0 
L 2419 0 
L 2419 1100 
L 313 1100 
L 313 1709 
L 2253 4666 
z
" transform="scale(0.015625)"/>
       </defs>
       <use xlink:href="#DejaVuSans-34"/>
       <use xlink:href="#DejaVuSans-30" transform="translate(63.623047 0)"/>
      </g>
     </g>
    </g>
    <g id="ytick_4">
     <g id="line2d_22">
      <path d="M 46.965625 191.941098 
L 741.295625 191.941098 
" clip-path="url(#pc37c218825)" style="fill: none; stroke: #b0b0b0; stroke-opacity: 0.25; stroke-width: 0.8; stroke-linecap: square"/>
     </g>
     <g id="line2d_23">
      <g>
       <use xlink:href="#mca9bd3154c" x="46.965625" y="191.941098" style="stroke: #000000; stroke-width: 0.8"/>
      </g>
     </g>
     <g id="text_12">
      <!-- 60 -->
      <g transform="translate(27.240625 195.740317) scale(0.1 -0.1)">
       <defs>
        <path id="DejaVuSans-36" d="M 2113 2584 
Q 1688 2584 1439 2293 
Q 1191 2003 1191 1497 
Q 1191 994 1439 701 
Q 1688 409 2113 409 
Q 2538 409 2786 701 
Q 3034 994 3034 1497 
Q 3034 2003 2786 2293 
Q 2538 2584 2113 2584 
z
M 3366 4563 
L 3366 3988 
Q 3128 4100 2886 4159 
Q 2644 4219 2406 4219 
Q 1781 4219 1451 3797 
Q 1122 3375 1075 2522 
Q 1259 2794 1537 2939 
Q 1816 3084 2150 3084 
Q 2853 3084 3261 2657 
Q 3669 2231 3669 1497 
Q 3669 778 3244 343 
Q 2819 -91 2113 -91 
Q 1303 -91 875 529 
Q 447 1150 447 2328 
Q 447 3434 972 4092 
Q 1497 4750 2381 4750 
Q 2619 4750 2861 4703 
Q 3103 4656 3366 4563 
z
" transform="scale(0.015625)"/>
       </defs>
       <use xlink:href="#DejaVuSans-36"/>
       <use xlink:href="#DejaVuSans-30" transform="translate(63.623047 0)"/>
      </g>
     </g>
    </g>
    <g id="ytick_5">
     <g id="line2d_24">
      <path d="M 46.965625 128.808758 
L 741.295625 128.808758 
" clip-path="url(#pc37c218825)" style="fill: none; stroke: #b0b0b0; stroke-opacity: 0.25; stroke-width: 0.8; stroke-linecap: square"/>
     </g>
     <g id="line2d_25">
      <g>
       <use xlink:href="#mca9bd3154c" x="46.965625" y="128.808758" style="stroke: #000000; stroke-width: 0.8"/>
      </g>
     </g>
     <g id="text_13">
      <!-- 80 -->
      <g transform="translate(27.240625 132.607977) scale(0.1 -0.1)">
       <defs>
        <path id="DejaVuSans-38" d="M 2034 2216 
Q 1584 2216 1326 1975 
Q 1069 1734 1069 1313 
Q 1069 891 1326 650 
Q 1584 409 2034 409 
Q 2484 409 2743 651 
Q 3003 894 3003 1313 
Q 3003 1734 2745 1975 
Q 2488 2216 2034 2216 
z
M 1403 2484 
Q 997 2584 770 2862 
Q 544 3141 544 3541 
Q 544 4100 942 4425 
Q 1341 4750 2034 4750 
Q 2731 4750 3128 4425 
Q 3525 4100 3525 3541 
Q 3525 3141 3298 2862 
Q 3072 2584 2669 2484 
Q 3125 2378 3379 2068 
Q 3634 1759 3634 1313 
Q 3634 634 3220 271 
Q 2806 -91 2034 -91 
Q 1263 -91 848 271 
Q 434 634 434 1313 
Q 434 1759 690 2068 
Q 947 2378 1403 2484 
z
M 1172 3481 
Q 1172 3119 1398 2916 
Q 1625 2713 2034 2713 
Q 2441 2713 2670 2916 
Q 2900 3119 2900 3481 
Q 2900 3844 2670 4047 
Q 2441 4250 2034 4250 
Q 1625 4250 1398 4047 
Q 1172 3844 1172 3481 
z
" transform="scale(0.015625)"/>
       </defs>
       <use xlink:href="#DejaVuSans-38"/>
       <use xlink:href="#DejaVuSans-30" transform="translate(63.623047 0)"/>
      </g>
     </g>
    </g>
    <g id="ytick_6">
     <g id="line2d_26">
      <path d="M 46.965625 65.676418 
L 741.295625 65.676418 
" clip-path="url(#pc37c218825)" style="fill: none; stroke: #b0b0b0; stroke-opacity: 0.25; stroke-width: 0.8; stroke-linecap: square"/>
     </g>
     <g id="line2d_27">
      <g>
       <use xlink:href="#mca9bd3154c" x="46.965625" y="65.676418" style="stroke: #000000; stroke-width: 0.8"/>
      </g>
     </g>
     <g id="text_14">
      <!-- 100 -->
      <g transform="translate(20.878125 69.475637) scale(0.1 -0.1)">
       <use xlink:href="#DejaVuSans-31"/>
       <use xlink:href="#DejaVuSans-30" transform="translate(63.623047 0)"/>
       <use xlink:href="#DejaVuSans-30" transform="translate(127.246094 0)"/>
      </g>
     </g>
    </g>
    <g id="text_15">
     <!-- Prime count (billions) -->
     <g transform="translate(14.798438 262.726094) rotate(-90) scale(0.1 -0.1)">
      <defs>
       <path id="DejaVuSans-50" d="M 1259 4147 
L 1259 2394 
L 2053 2394 
Q 2494 2394 2734 2622 
Q 2975 2850 2975 3272 
Q 2975 3691 2734 3919 
Q 2494 4147 2053 4147 
L 1259 4147 
z
M 628 4666 
L 2053 4666 
Q 2838 4666 3239 4311 
Q 3641 3956 3641 3272 
Q 3641 2581 3239 2228 
Q 2838 1875 2053 1875 
L 1259 1875 
L 1259 0 
L 628 0 
L 628 4666 
z
" transform="scale(0.015625)"/>
       <path id="DejaVuSans-6d" d="M 3328 2828 
Q 3544 3216 3844 3400 
Q 4144 3584 4550 3584 
Q 5097 3584 5394 3201 
Q 5691 2819 5691 2113 
L 5691 0 
L 5113 0 
L 5113 2094 
Q 5113 2597 4934 2840 
Q 4756 3084 4391 3084 
Q 3944 3084 3684 2787 
Q 3425 2491 3425 1978 
L 3425 0 
L 2847 0 
L 2847 2094 
Q 2847 2600 2669 2842 
Q 2491 3084 2119 3084 
Q 1678 3084 1418 2786 
Q 1159 2488 1159 1978 
L 1159 0 
L 581 0 
L 581 3500 
L 1159 3500 
L 1159 2956 
Q 1356 3278 1631 3431 
Q 1906 3584 2284 3584 
Q 2666 3584 2933 3390 
Q 3200 3197 3328 2828 
z
" transform="scale(0.015625)"/>
       <path id="DejaVuSans-65" d="M 3597 1894 
L 3597 1613 
L 953 1613 
Q 991 1019 1311 708 
Q 1631 397 2203 397 
Q 2534 397 2845 478 
Q 3156 559 3463 722 
L 3463 178 
Q 3153 47 2828 -22 
Q 2503 -91 2169 -91 
Q 1331 -91 842 396 
Q 353 884 353 1716 
Q 353 2575 817 3079 
Q 1281 3584 2069 3584 
Q 2775 3584 3186 3129 
Q 3597 2675 3597 1894 
z
M 3022 2063 
Q 3016 2534 2758 2815 
Q 2500 3097 2075 3097 
Q 1594 3097 1305 2825 
Q 1016 2553 972 2059 
L 3022 2063 
z
" transform="scale(0.015625)"/>
       <path id="DejaVuSans-63" d="M 3122 3366 
L 3122 2828 
Q 2878 2963 2633 3030 
Q 2388 3097 2138 3097 
Q 1578 3097 1268 2742 
Q 959 2388 959 1747 
Q 959 1106 1268 751 
Q 1578 397 2138 397 
Q 2388 397 2633 464 
Q 2878 531 3122 666 
L 3122 134 
Q 2881 22 2623 -34 
Q 2366 -91 2075 -91 
Q 1284 -91 818 406 
Q 353 903 353 1747 
Q 353 2603 823 3093 
Q 1294 3584 2113 3584 
Q 2378 3584 2631 3529 
Q 2884 3475 3122 3366 
z
" transform="scale(0.015625)"/>
       <path id="DejaVuSans-75" d="M 544 1381 
L 544 3500 
L 1119 3500 
L 1119 1403 
Q 1119 906 1312 657 
Q 1506 409 1894 409 
Q 2359 409 2629 706 
Q 2900 1003 2900 1516 
L 2900 3500 
L 3475 3500 
L 3475 0 
L 2900 0 
L 2900 538 
Q 2691 219 2414 64 
Q 2138 -91 1772 -91 
Q 1169 -91 856 284 
Q 544 659 544 1381 
z
M 1991 3584 
L 1991 3584 
z
" transform="scale(0.015625)"/>
       <path id="DejaVuSans-62" d="M 3116 1747 
Q 3116 2381 2855 2742 
Q 2594 3103 2138 3103 
Q 1681 3103 1420 2742 
Q 1159 2381 1159 1747 
Q 1159 1113 1420 752 
Q 1681 391 2138 391 
Q 2594 391 2855 752 
Q 3116 1113 3116 1747 
z
M 1159 2969 
Q 1341 3281 1617 3432 
Q 1894 3584 2278 3584 
Q 2916 3584 3314 3078 
Q 3713 2572 3713 1747 
Q 3713 922 3314 415 
Q 2916 -91 2278 -91 
Q 1894 -91 1617 61 
Q 1341 213 1159 525 
L 1159 0 
L 581 0 
L 581 4863 
L 1159 4863 
L 1159 2969 
z
" transform="scale(0.015625)"/>
      </defs>
      <use xlink:href="#DejaVuSans-50"/>
      <use xlink:href="#DejaVuSans-72" transform="translate(58.552734 0)"/>
      <use xlink:href="#DejaVuSans-69" transform="translate(99.666016 0)"/>
      <use xlink:href="#DejaVuSans-6d" transform="translate(127.449219 0)"/>
      <use xlink:href="#DejaVuSans-65" transform="translate(224.861328 0)"/>
      <use xlink:href="#DejaVuSans-20" transform="translate(286.384766 0)"/>
      <use xlink:href="#DejaVuSans-63" transform="translate(318.171875 0)"/>
      <use xlink:href="#DejaVuSans-6f" transform="translate(373.152344 0)"/>
      <use xlink:href="#DejaVuSans-75" transform="translate(434.333984 0)"/>
      <use xlink:href="#DejaVuSans-6e" transform="translate(497.712891 0)"/>
      <use xlink:href="#DejaVuSans-74" transform="translate(561.091797 0)"/>
      <use xlink:href="#DejaVuSans-20" transform="translate(600.300781 0)"/>
      <use xlink:href="#DejaVuSans-28" transform="translate(632.087891 0)"/>
      <use xlink:href="#DejaVuSans-62" transform="translate(671.101562 0)"/>
      <use xlink:href="#DejaVuSans-69" transform="translate(734.578125 0)"/>
      <use xlink:href="#DejaVuSans-6c" transform="translate(762.361328 0)"/>
      <use xlink:href="#DejaVuSans-6c" transform="translate(790.144531 0)"/>
      <use xlink:href="#DejaVuSans-69" transform="translate(817.927734 0)"/>
      <use xlink:href="#DejaVuSans-6f" transform="translate(845.710938 0)"/>
      <use xlink:href="#DejaVuSans-6e" transform="translate(906.892578 0)"/>
      <use xlink:href="#DejaVuSans-73" transform="translate(970.271484 0)"/>
      <use xlink:href="#DejaVuSans-29" transform="translate(1022.371094 0)"/>
     </g>
    </g>
   </g>
   <g id="line2d_28">
    <path d="M 78.52608 379.901697 
L 84.859281 375.934131 
L 97.525684 368.339003 
L 114.414222 358.49376 
L 137.635961 345.227055 
L 167.190902 328.614864 
L 203.079044 308.71225 
L 245.300388 285.561995 
L 293.854933 259.198937 
L 348.74268 229.652389 
L 409.963629 196.947606 
L 479.628846 159.990367 
L 555.627265 119.930178 
L 637.958886 76.78297 
L 709.73517 39.349242 
L 709.73517 39.349242 
" clip-path="url(#pc37c218825)" style="fill: none; stroke-dasharray: 1.7,2.805; stroke-dashoffset: 0; stroke: #ff7f0e; stroke-width: 1.7"/>
   </g>
   <g id="patch_3">
    <path d="M 46.965625 396.998125 
L 46.965625 22.318125 
" style="fill: none; stroke: #000000; stroke-width: 0.8; stroke-linejoin: miter; stroke-linecap: square"/>
   </g>
   <g id="patch_4">
    <path d="M 741.295625 396.998125 
L 741.295625 22.318125 
" style="fill: none; stroke: #000000; stroke-width: 0.8; stroke-linejoin: miter; stroke-linecap: square"/>
   </g>
   <g id="patch_5">
    <path d="M 46.965625 396.998125 
L 741.295625 396.998125 
" style="fill: none; stroke: #000000; stroke-width: 0.8; stroke-linejoin: miter; stroke-linecap: square"/>
   </g>
   <g id="patch_6">
    <path d="M 46.965625 22.318125 
L 741.295625 22.318125 
" style="fill: none; stroke: #000000; stroke-width: 0.8; stroke-linejoin: miter; stroke-linecap: square"/>
   </g>
   <g id="line2d_29">
    <path d="M 78.52608 379.901681 
L 84.859281 375.934102 
L 97.525684 368.338959 
L 114.414222 358.493703 
L 137.635961 345.226983 
L 167.190902 328.614779 
L 203.079044 308.712151 
L 245.300388 285.561882 
L 293.854933 259.19881 
L 348.74268 229.652248 
L 409.963629 196.947451 
L 479.628846 159.990199 
L 555.627265 119.929996 
L 637.958886 76.782773 
L 709.73517 39.349034 
L 709.73517 39.349034 
" clip-path="url(#pc37c218825)" style="fill: none; stroke-dasharray: 7.03,3.04; stroke-dashoffset: 0; stroke: #2ca02c; stroke-width: 1.9"/>
   </g>
   <g id="text_16">
    <g id="patch_7">
     <path d="M 585.4913 380.440725 
L 730.880675 380.440725 
Q 734.930675 380.440725 734.930675 376.390725 
L 734.930675 337.446319 
Q 734.930675 333.396319 730.880675 333.396319 
L 585.4913 333.396319 
Q 581.4413 333.396319 581.4413 337.446319 
L 581.4413 376.390725 
Q 581.4413 380.440725 585.4913 380.440725 
z
" style="fill: #ffffff; opacity: 0.92; stroke: #000000; stroke-linejoin: miter"/>
    </g>
    <!-- At 3 trillion -->
    <g transform="translate(681.466456 344.284912) scale(0.09 -0.09)">
     <defs>
      <path id="DejaVuSans-41" d="M 2188 4044 
L 1331 1722 
L 3047 1722 
L 2188 4044 
z
M 1831 4666 
L 2547 4666 
L 4325 0 
L 3669 0 
L 3244 1197 
L 1141 1197 
L 716 0 
L 50 0 
L 1831 4666 
z
" transform="scale(0.015625)"/>
     </defs>
     <use xlink:href="#DejaVuSans-41"/>
     <use xlink:href="#DejaVuSans-74" transform="translate(66.658203 0)"/>
     <use xlink:href="#DejaVuSans-20" transform="translate(105.867188 0)"/>
     <use xlink:href="#DejaVuSans-33" transform="translate(137.654297 0)"/>
     <use xlink:href="#DejaVuSans-20" transform="translate(201.277344 0)"/>
     <use xlink:href="#DejaVuSans-74" transform="translate(233.064453 0)"/>
     <use xlink:href="#DejaVuSans-72" transform="translate(272.273438 0)"/>
     <use xlink:href="#DejaVuSans-69" transform="translate(313.386719 0)"/>
     <use xlink:href="#DejaVuSans-6c" transform="translate(341.169922 0)"/>
     <use xlink:href="#DejaVuSans-6c" transform="translate(368.953125 0)"/>
     <use xlink:href="#DejaVuSans-69" transform="translate(396.736328 0)"/>
     <use xlink:href="#DejaVuSans-6f" transform="translate(424.519531 0)"/>
     <use xlink:href="#DejaVuSans-6e" transform="translate(485.701172 0)"/>
    </g>
    <!-- PrimeNet π(x): 108,340,298,703 -->
    <g transform="translate(585.4913 354.362944) scale(0.09 -0.09)">
     <defs>
      <path id="DejaVuSans-4e" d="M 628 4666 
L 1478 4666 
L 3547 763 
L 3547 4666 
L 4159 4666 
L 4159 0 
L 3309 0 
L 1241 3903 
L 1241 0 
L 628 0 
L 628 4666 
z
" transform="scale(0.015625)"/>
      <path id="DejaVuSans-3c0" d="M 231 3500 
L 3584 3500 
L 3584 2925 
L 3144 2925 
L 3144 775 
Q 3144 550 3220 451 
Q 3297 353 3469 353 
Q 3516 353 3584 361 
Q 3653 369 3675 372 
L 3675 -44 
Q 3566 -84 3450 -103 
Q 3334 -122 3219 -122 
Q 2844 -122 2700 83 
Q 2556 288 2556 838 
L 2556 2925 
L 1266 2925 
L 1266 0 
L 678 0 
L 678 2925 
L 231 2925 
L 231 3500 
z
" transform="scale(0.015625)"/>
      <path id="DejaVuSans-78" d="M 3513 3500 
L 2247 1797 
L 3578 0 
L 2900 0 
L 1881 1375 
L 863 0 
L 184 0 
L 1544 1831 
L 300 3500 
L 978 3500 
L 1906 2253 
L 2834 3500 
L 3513 3500 
z
" transform="scale(0.015625)"/>
      <path id="DejaVuSans-3a" d="M 750 794 
L 1409 794 
L 1409 0 
L 750 0 
L 750 794 
z
M 750 3309 
L 1409 3309 
L 1409 2516 
L 750 2516 
L 750 3309 
z
" transform="scale(0.015625)"/>
      <path id="DejaVuSans-2c" d="M 750 794 
L 1409 794 
L 1409 256 
L 897 -744 
L 494 -744 
L 750 256 
L 750 794 
z
" transform="scale(0.015625)"/>
      <path id="DejaVuSans-39" d="M 703 97 
L 703 672 
Q 941 559 1184 500 
Q 1428 441 1663 441 
Q 2288 441 2617 861 
Q 2947 1281 2994 2138 
Q 2813 1869 2534 1725 
Q 2256 1581 1919 1581 
Q 1219 1581 811 2004 
Q 403 2428 403 3163 
Q 403 3881 828 4315 
Q 1253 4750 1959 4750 
Q 2769 4750 3195 4129 
Q 3622 3509 3622 2328 
Q 3622 1225 3098 567 
Q 2575 -91 1691 -91 
Q 1453 -91 1209 -44 
Q 966 3 703 97 
z
M 1959 2075 
Q 2384 2075 2632 2365 
Q 2881 2656 2881 3163 
Q 2881 3666 2632 3958 
Q 2384 4250 1959 4250 
Q 1534 4250 1286 3958 
Q 1038 3666 1038 3163 
Q 1038 2656 1286 2365 
Q 1534 2075 1959 2075 
z
" transform="scale(0.015625)"/>
      <path id="DejaVuSans-37" d="M 525 4666 
L 3525 4666 
L 3525 4397 
L 1831 0 
L 1172 0 
L 2766 4134 
L 525 4134 
L 525 4666 
z
" transform="scale(0.015625)"/>
     </defs>
     <use xlink:href="#DejaVuSans-50"/>
     <use xlink:href="#DejaVuSans-72" transform="translate(58.552734 0)"/>
     <use xlink:href="#DejaVuSans-69" transform="translate(99.666016 0)"/>
     <use xlink:href="#DejaVuSans-6d" transform="translate(127.449219 0)"/>
     <use xlink:href="#DejaVuSans-65" transform="translate(224.861328 0)"/>
     <use xlink:href="#DejaVuSans-4e" transform="translate(286.384766 0)"/>
     <use xlink:href="#DejaVuSans-65" transform="translate(361.189453 0)"/>
     <use xlink:href="#DejaVuSans-74" transform="translate(422.712891 0)"/>
     <use xlink:href="#DejaVuSans-20" transform="translate(461.921875 0)"/>
     <use xlink:href="#DejaVuSans-3c0" transform="translate(493.708984 0)"/>
     <use xlink:href="#DejaVuSans-28" transform="translate(553.914062 0)"/>
     <use xlink:href="#DejaVuSans-78" transform="translate(592.927734 0)"/>
     <use xlink:href="#DejaVuSans-29" transform="translate(652.107422 0)"/>
     <use xlink:href="#DejaVuSans-3a" transform="translate(691.121094 0)"/>
     <use xlink:href="#DejaVuSans-20" transform="translate(724.8125 0)"/>
     <use xlink:href="#DejaVuSans-31" transform="translate(756.599609 0)"/>
     <use xlink:href="#DejaVuSans-30" transform="translate(820.222656 0)"/>
     <use xlink:href="#DejaVuSans-38" transform="translate(883.845703 0)"/>
     <use xlink:href="#DejaVuSans-2c" transform="translate(947.46875 0)"/>
     <use xlink:href="#DejaVuSans-33" transform="translate(979.255859 0)"/>
     <use xlink:href="#DejaVuSans-34" transform="translate(1042.878906 0)"/>
     <use xlink:href="#DejaVuSans-30" transform="translate(1106.501953 0)"/>
     <use xlink:href="#DejaVuSans-2c" transform="translate(1170.125 0)"/>
     <use xlink:href="#DejaVuSans-32" transform="translate(1201.912109 0)"/>
     <use xlink:href="#DejaVuSans-39" transform="translate(1265.535156 0)"/>
     <use xlink:href="#DejaVuSans-38" transform="translate(1329.158203 0)"/>
     <use xlink:href="#DejaVuSans-2c" transform="translate(1392.78125 0)"/>
     <use xlink:href="#DejaVuSans-37" transform="translate(1424.568359 0)"/>
     <use xlink:href="#DejaVuSans-30" transform="translate(1488.191406 0)"/>
     <use xlink:href="#DejaVuSans-33" transform="translate(1551.814453 0)"/>
    </g>
    <!-- Li(x): 108,340,379,630 -->
    <g transform="translate(627.827863 364.440975) scale(0.09 -0.09)">
     <defs>
      <path id="DejaVuSans-4c" d="M 628 4666 
L 1259 4666 
L 1259 531 
L 3531 531 
L 3531 0 
L 628 0 
L 628 4666 
z
" transform="scale(0.015625)"/>
     </defs>
     <use xlink:href="#DejaVuSans-4c"/>
     <use xlink:href="#DejaVuSans-69" transform="translate(55.712891 0)"/>
     <use xlink:href="#DejaVuSans-28" transform="translate(83.496094 0)"/>
     <use xlink:href="#DejaVuSans-78" transform="translate(122.509766 0)"/>
     <use xlink:href="#DejaVuSans-29" transform="translate(181.689453 0)"/>
     <use xlink:href="#DejaVuSans-3a" transform="translate(220.703125 0)"/>
     <use xlink:href="#DejaVuSans-20" transform="translate(254.394531 0)"/>
     <use xlink:href="#DejaVuSans-31" transform="translate(286.181641 0)"/>
     <use xlink:href="#DejaVuSans-30" transform="translate(349.804688 0)"/>
     <use xlink:href="#DejaVuSans-38" transform="translate(413.427734 0)"/>
     <use xlink:href="#DejaVuSans-2c" transform="translate(477.050781 0)"/>
     <use xlink:href="#DejaVuSans-33" transform="translate(508.837891 0)"/>
     <use xlink:href="#DejaVuSans-34" transform="translate(572.460938 0)"/>
     <use xlink:href="#DejaVuSans-30" transform="translate(636.083984 0)"/>
     <use xlink:href="#DejaVuSans-2c" transform="translate(699.707031 0)"/>
     <use xlink:href="#DejaVuSans-33" transform="translate(731.494141 0)"/>
     <use xlink:href="#DejaVuSans-37" transform="translate(795.117188 0)"/>
     <use xlink:href="#DejaVuSans-39" transform="translate(858.740234 0)"/>
     <use xlink:href="#DejaVuSans-2c" transform="translate(922.363281 0)"/>
     <use xlink:href="#DejaVuSans-36" transform="translate(954.150391 0)"/>
     <use xlink:href="#DejaVuSans-33" transform="translate(1017.773438 0)"/>
     <use xlink:href="#DejaVuSans-30" transform="translate(1081.396484 0)"/>
    </g>
    <!-- R(x): 108,340,313,799 -->
    <g transform="translate(629.089269 374.519006) scale(0.09 -0.09)">
     <defs>
      <path id="DejaVuSans-52" d="M 2841 2188 
Q 3044 2119 3236 1894 
Q 3428 1669 3622 1275 
L 4263 0 
L 3584 0 
L 2988 1197 
Q 2756 1666 2539 1819 
Q 2322 1972 1947 1972 
L 1259 1972 
L 1259 0 
L 628 0 
L 628 4666 
L 2053 4666 
Q 2853 4666 3247 4331 
Q 3641 3997 3641 3322 
Q 3641 2881 3436 2590 
Q 3231 2300 2841 2188 
z
M 1259 4147 
L 1259 2491 
L 2053 2491 
Q 2509 2491 2742 2702 
Q 2975 2913 2975 3322 
Q 2975 3731 2742 3939 
Q 2509 4147 2053 4147 
L 1259 4147 
z
" transform="scale(0.015625)"/>
     </defs>
     <use xlink:href="#DejaVuSans-52"/>
     <use xlink:href="#DejaVuSans-28" transform="translate(69.482422 0)"/>
     <use xlink:href="#DejaVuSans-78" transform="translate(108.496094 0)"/>
     <use xlink:href="#DejaVuSans-29" transform="translate(167.675781 0)"/>
     <use xlink:href="#DejaVuSans-3a" transform="translate(206.689453 0)"/>
     <use xlink:href="#DejaVuSans-20" transform="translate(240.380859 0)"/>
     <use xlink:href="#DejaVuSans-31" transform="translate(272.167969 0)"/>
     <use xlink:href="#DejaVuSans-30" transform="translate(335.791016 0)"/>
     <use xlink:href="#DejaVuSans-38" transform="translate(399.414062 0)"/>
     <use xlink:href="#DejaVuSans-2c" transform="translate(463.037109 0)"/>
     <use xlink:href="#DejaVuSans-33" transform="translate(494.824219 0)"/>
     <use xlink:href="#DejaVuSans-34" transform="translate(558.447266 0)"/>
     <use xlink:href="#DejaVuSans-30" transform="translate(622.070312 0)"/>
     <use xlink:href="#DejaVuSans-2c" transform="translate(685.693359 0)"/>
     <use xlink:href="#DejaVuSans-33" transform="translate(717.480469 0)"/>
     <use xlink:href="#DejaVuSans-31" transform="translate(781.103516 0)"/>
     <use xlink:href="#DejaVuSans-33" transform="translate(844.726562 0)"/>
     <use xlink:href="#DejaVuSans-2c" transform="translate(908.349609 0)"/>
     <use xlink:href="#DejaVuSans-37" transform="translate(940.136719 0)"/>
     <use xlink:href="#DejaVuSans-39" transform="translate(1003.759766 0)"/>
     <use xlink:href="#DejaVuSans-39" transform="translate(1067.382812 0)"/>
    </g>
   </g>
   <g id="text_17">
    <!-- Exact Prime Counts versus Classical Approximations -->
    <g transform="translate(237.045938 16.318125) scale(0.12 -0.12)">
     <defs>
      <path id="DejaVuSans-61" d="M 2194 1759 
Q 1497 1759 1228 1600 
Q 959 1441 959 1056 
Q 959 750 1161 570 
Q 1363 391 1709 391 
Q 2188 391 2477 730 
Q 2766 1069 2766 1631 
L 2766 1759 
L 2194 1759 
z
M 3341 1997 
L 3341 0 
L 2766 0 
L 2766 531 
Q 2569 213 2275 61 
Q 1981 -91 1556 -91 
Q 1019 -91 701 211 
Q 384 513 384 1019 
Q 384 1609 779 1909 
Q 1175 2209 1959 2209 
L 2766 2209 
L 2766 2266 
Q 2766 2663 2505 2880 
Q 2244 3097 1772 3097 
Q 1472 3097 1187 3025 
Q 903 2953 641 2809 
L 641 3341 
Q 956 3463 1253 3523 
Q 1550 3584 1831 3584 
Q 2591 3584 2966 3190 
Q 3341 2797 3341 1997 
z
" transform="scale(0.015625)"/>
      <path id="DejaVuSans-43" d="M 4122 4306 
L 4122 3641 
Q 3803 3938 3442 4084 
Q 3081 4231 2675 4231 
Q 1875 4231 1450 3742 
Q 1025 3253 1025 2328 
Q 1025 1406 1450 917 
Q 1875 428 2675 428 
Q 3081 428 3442 575 
Q 3803 722 4122 1019 
L 4122 359 
Q 3791 134 3420 21 
Q 3050 -91 2638 -91 
Q 1578 -91 968 557 
Q 359 1206 359 2328 
Q 359 3453 968 4101 
Q 1578 4750 2638 4750 
Q 3056 4750 3426 4639 
Q 3797 4528 4122 4306 
z
" transform="scale(0.015625)"/>
      <path id="DejaVuSans-76" d="M 191 3500 
L 800 3500 
L 1894 563 
L 2988 3500 
L 3597 3500 
L 2284 0 
L 1503 0 
L 191 3500 
z
" transform="scale(0.015625)"/>
     </defs>
     <use xlink:href="#DejaVuSans-45"/>
     <use xlink:href="#DejaVuSans-78" transform="translate(63.183594 0)"/>
     <use xlink:href="#DejaVuSans-61" transform="translate(122.363281 0)"/>
     <use xlink:href="#DejaVuSans-63" transform="translate(183.642578 0)"/>
     <use xlink:href="#DejaVuSans-74" transform="translate(238.623047 0)"/>
     <use xlink:href="#DejaVuSans-20" transform="translate(277.832031 0)"/>
     <use xlink:href="#DejaVuSans-50" transform="translate(309.619141 0)"/>
     <use xlink:href="#DejaVuSans-72" transform="translate(368.171875 0)"/>
     <use xlink:href="#DejaVuSans-69" transform="translate(409.285156 0)"/>
     <use xlink:href="#DejaVuSans-6d" transform="translate(437.068359 0)"/>
     <use xlink:href="#DejaVuSans-65" transform="translate(534.480469 0)"/>
     <use xlink:href="#DejaVuSans-20" transform="translate(596.003906 0)"/>
     <use xlink:href="#DejaVuSans-43" transform="translate(627.791016 0)"/>
     <use xlink:href="#DejaVuSans-6f" transform="translate(697.615234 0)"/>
     <use xlink:href="#DejaVuSans-75" transform="translate(758.796875 0)"/>
     <use xlink:href="#DejaVuSans-6e" transform="translate(822.175781 0)"/>
     <use xlink:href="#DejaVuSans-74" transform="translate(885.554688 0)"/>
     <use xlink:href="#DejaVuSans-73" transform="translate(924.763672 0)"/>
     <use xlink:href="#DejaVuSans-20" transform="translate(976.863281 0)"/>
     <use xlink:href="#DejaVuSans-76" transform="translate(1008.650391 0)"/>
     <use xlink:href="#DejaVuSans-65" transform="translate(1067.830078 0)"/>
     <use xlink:href="#DejaVuSans-72" transform="translate(1129.353516 0)"/>
     <use xlink:href="#DejaVuSans-73" transform="translate(1170.466797 0)"/>
     <use xlink:href="#DejaVuSans-75" transform="translate(1222.566406 0)"/>
     <use xlink:href="#DejaVuSans-73" transform="translate(1285.945312 0)"/>
     <use xlink:href="#DejaVuSans-20" transform="translate(1338.044922 0)"/>
     <use xlink:href="#DejaVuSans-43" transform="translate(1369.832031 0)"/>
     <use xlink:href="#DejaVuSans-6c" transform="translate(1439.65625 0)"/>
     <use xlink:href="#DejaVuSans-61" transform="translate(1467.439453 0)"/>
     <use xlink:href="#DejaVuSans-73" transform="translate(1528.71875 0)"/>
     <use xlink:href="#DejaVuSans-73" transform="translate(1580.818359 0)"/>
     <use xlink:href="#DejaVuSans-69" transform="translate(1632.917969 0)"/>
     <use xlink:href="#DejaVuSans-63" transform="translate(1660.701172 0)"/>
     <use xlink:href="#DejaVuSans-61" transform="translate(1715.681641 0)"/>
     <use xlink:href="#DejaVuSans-6c" transform="translate(1776.960938 0)"/>
     <use xlink:href="#DejaVuSans-20" transform="translate(1804.744141 0)"/>
     <use xlink:href="#DejaVuSans-41" transform="translate(1836.53125 0)"/>
     <use xlink:href="#DejaVuSans-70" transform="translate(1904.939453 0)"/>
     <use xlink:href="#DejaVuSans-70" transform="translate(1968.416016 0)"/>
     <use xlink:href="#DejaVuSans-72" transform="translate(2031.892578 0)"/>
     <use xlink:href="#DejaVuSans-6f" transform="translate(2070.755859 0)"/>
     <use xlink:href="#DejaVuSans-78" transform="translate(2128.8125 0)"/>
     <use xlink:href="#DejaVuSans-69" transform="translate(2187.992188 0)"/>
     <use xlink:href="#DejaVuSans-6d" transform="translate(2215.775391 0)"/>
     <use xlink:href="#DejaVuSans-61" transform="translate(2313.1875 0)"/>
     <use xlink:href="#DejaVuSans-74" transform="translate(2374.466797 0)"/>
     <use xlink:href="#DejaVuSans-69" transform="translate(2413.675781 0)"/>
     <use xlink:href="#DejaVuSans-6f" transform="translate(2441.458984 0)"/>
     <use xlink:href="#DejaVuSans-6e" transform="translate(2502.640625 0)"/>
     <use xlink:href="#DejaVuSans-73" transform="translate(2566.019531 0)"/>
    </g>
   </g>
   <g id="line2d_30">
    <defs>
     <path id="m3badbdb078" d="M 0 2.3 
C 0.609967 2.3 1.195034 2.057657 1.626346 1.626346 
C 2.057657 1.195034 2.3 0.609967 2.3 0 
C 2.3 -0.609967 2.057657 -1.195034 1.626346 -1.626346 
C 1.195034 -2.057657 0.609967 -2.3 0 -2.3 
C -0.609967 -2.3 -1.195034 -2.057657 -1.626346 -1.626346 
C -2.057657 -1.195034 -2.3 -0.609967 -2.3 0 
C -2.3 0.609967 -2.057657 1.195034 -1.626346 1.626346 
C -1.195034 2.057657 -0.609967 2.3 0 2.3 
z
" style="stroke: #d62728"/>
    </defs>
    <g clip-path="url(#pc37c218825)">
     <use xlink:href="#m3badbdb078" x="78.52608" y="379.901691" style="fill: #d62728; stroke: #d62728"/>
     <use xlink:href="#m3badbdb078" x="110.192087" y="360.935216" style="fill: #d62728; stroke: #d62728"/>
     <use xlink:href="#m3badbdb078" x="141.858095" y="342.838111" style="fill: #d62728; stroke: #d62728"/>
     <use xlink:href="#m3badbdb078" x="173.524103" y="325.084121" style="fill: #d62728; stroke: #d62728"/>
     <use xlink:href="#m3badbdb078" x="205.190111" y="307.548682" style="fill: #d62728; stroke: #d62728"/>
     <use xlink:href="#m3badbdb078" x="236.856119" y="290.173131" style="fill: #d62728; stroke: #d62728"/>
     <use xlink:href="#m3badbdb078" x="268.522127" y="272.923424" style="fill: #d62728; stroke: #d62728"/>
     <use xlink:href="#m3badbdb078" x="300.188135" y="255.777157" style="fill: #d62728; stroke: #d62728"/>
     <use xlink:href="#m3badbdb078" x="331.854143" y="238.718554" style="fill: #d62728; stroke: #d62728"/>
     <use xlink:href="#m3badbdb078" x="363.520151" y="221.736095" style="fill: #d62728; stroke: #d62728"/>
     <use xlink:href="#m3badbdb078" x="395.186159" y="204.820583" style="fill: #d62728; stroke: #d62728"/>
     <use xlink:href="#m3badbdb078" x="426.852167" y="187.965125" style="fill: #d62728; stroke: #d62728"/>
     <use xlink:href="#m3badbdb078" x="458.518174" y="171.16362" style="fill: #d62728; stroke: #d62728"/>
     <use xlink:href="#m3badbdb078" x="490.184182" y="154.411556" style="fill: #d62728; stroke: #d62728"/>
     <use xlink:href="#m3badbdb078" x="521.85019" y="137.704688" style="fill: #d62728; stroke: #d62728"/>
     <use xlink:href="#m3badbdb078" x="553.516198" y="121.03979" style="fill: #d62728; stroke: #d62728"/>
     <use xlink:href="#m3badbdb078" x="585.182206" y="104.413674" style="fill: #d62728; stroke: #d62728"/>
     <use xlink:href="#m3badbdb078" x="616.848214" y="87.823828" style="fill: #d62728; stroke: #d62728"/>
     <use xlink:href="#m3badbdb078" x="648.514222" y="71.268022" style="fill: #d62728; stroke: #d62728"/>
     <use xlink:href="#m3badbdb078" x="680.18023" y="54.744243" style="fill: #d62728; stroke: #d62728"/>
    </g>
   </g>
   <g id="legend_1">
    <g id="line2d_31">
     <path d="M 55.965625 35.418125 
L 65.965625 35.418125 
L 75.965625 35.418125 
" style="fill: none; stroke-dasharray: 11.52,2.88,1.8,2.88; stroke-dashoffset: 0; stroke: #1f77b4; stroke-width: 1.8"/>
    </g>
    <g id="text_18">
     <!-- $x/\log x$ -->
     <g transform="translate(83.965625 38.918125) scale(0.1 -0.1)">
      <defs>
       <path id="DejaVuSans-2f" d="M 1625 4666 
L 2156 4666 
L 531 -594 
L 0 -594 
L 1625 4666 
z
" transform="scale(0.015625)"/>
       <path id="DejaVuSans-67" d="M 2906 1791 
Q 2906 2416 2648 2759 
Q 2391 3103 1925 3103 
Q 1463 3103 1205 2759 
Q 947 2416 947 1791 
Q 947 1169 1205 825 
Q 1463 481 1925 481 
Q 2391 481 2648 825 
Q 2906 1169 2906 1791 
z
M 3481 434 
Q 3481 -459 3084 -895 
Q 2688 -1331 1869 -1331 
Q 1566 -1331 1297 -1286 
Q 1028 -1241 775 -1147 
L 775 -588 
Q 1028 -725 1275 -790 
Q 1522 -856 1778 -856 
Q 2344 -856 2625 -561 
Q 2906 -266 2906 331 
L 2906 616 
Q 2728 306 2450 153 
Q 2172 0 1784 0 
Q 1141 0 747 490 
Q 353 981 353 1791 
Q 353 2603 747 3093 
Q 1141 3584 1784 3584 
Q 2172 3584 2450 3431 
Q 2728 3278 2906 2969 
L 2906 3500 
L 3481 3500 
L 3481 434 
z
" transform="scale(0.015625)"/>
      </defs>
      <use xlink:href="#DejaVuSans-Oblique-78" transform="translate(0 0.015625)"/>
      <use xlink:href="#DejaVuSans-2f" transform="translate(59.179688 0.015625)"/>
      <use xlink:href="#DejaVuSans-6c" transform="translate(92.871094 0.015625)"/>
      <use xlink:href="#DejaVuSans-6f" transform="translate(120.654297 0.015625)"/>
      <use xlink:href="#DejaVuSans-67" transform="translate(181.835938 0.015625)"/>
      <use xlink:href="#DejaVuSans-Oblique-78" transform="translate(261.548176 0.015625)"/>
     </g>
    </g>
    <g id="line2d_32">
     <path d="M 55.965625 50.116562 
L 65.965625 50.116562 
L 75.965625 50.116562 
" style="fill: none; stroke-dasharray: 1.7,2.805; stroke-dashoffset: 0; stroke: #ff7f0e; stroke-width: 1.7"/>
    </g>
    <g id="text_19">
     <!-- Riemann $R(x)$ -->
     <g transform="translate(83.965625 53.616562) scale(0.1 -0.1)">
      <defs>
       <path id="DejaVuSans-Oblique-52" d="M 1613 4147 
L 1294 2491 
L 2106 2491 
Q 2584 2491 2879 2755 
Q 3175 3019 3175 3444 
Q 3175 3784 2976 3965 
Q 2778 4147 2406 4147 
L 1613 4147 
z
M 2772 2241 
Q 2972 2194 3105 2009 
Q 3238 1825 3413 1275 
L 3809 0 
L 3144 0 
L 2778 1197 
Q 2638 1659 2453 1815 
Q 2269 1972 1888 1972 
L 1191 1972 
L 806 0 
L 172 0 
L 1081 4666 
L 2503 4666 
Q 3150 4666 3495 4373 
Q 3841 4081 3841 3531 
Q 3841 3044 3547 2687 
Q 3253 2331 2772 2241 
z
" transform="scale(0.015625)"/>
      </defs>
      <use xlink:href="#DejaVuSans-52" transform="translate(0 0.015625)"/>
      <use xlink:href="#DejaVuSans-69" transform="translate(69.482422 0.015625)"/>
      <use xlink:href="#DejaVuSans-65" transform="translate(97.265625 0.015625)"/>
      <use xlink:href="#DejaVuSans-6d" transform="translate(158.789062 0.015625)"/>
      <use xlink:href="#DejaVuSans-61" transform="translate(256.201172 0.015625)"/>
      <use xlink:href="#DejaVuSans-6e" transform="translate(317.480469 0.015625)"/>
      <use xlink:href="#DejaVuSans-6e" transform="translate(380.859375 0.015625)"/>
      <use xlink:href="#DejaVuSans-20" transform="translate(444.238281 0.015625)"/>
      <use xlink:href="#DejaVuSans-Oblique-52" transform="translate(476.025391 0.015625)"/>
      <use xlink:href="#DejaVuSans-28" transform="translate(545.507812 0.015625)"/>
      <use xlink:href="#DejaVuSans-Oblique-78" transform="translate(584.521484 0.015625)"/>
      <use xlink:href="#DejaVuSans-29" transform="translate(643.701172 0.015625)"/>
     </g>
    </g>
    <g id="line2d_33">
     <path d="M 172.265625 35.418125 
L 182.265625 35.418125 
L 192.265625 35.418125 
" style="fill: none; stroke-dasharray: 7.03,3.04; stroke-dashoffset: 0; stroke: #2ca02c; stroke-width: 1.9"/>
    </g>
    <g id="text_20">
     <!-- $\operatorname{Li}(x)$ -->
     <g transform="translate(200.265625 38.918125) scale(0.1 -0.1)">
      <use xlink:href="#DejaVuSans-4c" transform="translate(0 0.015625)"/>
      <use xlink:href="#DejaVuSans-69" transform="translate(55.712891 0.015625)"/>
      <use xlink:href="#DejaVuSans-28" transform="translate(83.496094 0.015625)"/>
      <use xlink:href="#DejaVuSans-Oblique-78" transform="translate(122.509766 0.015625)"/>
      <use xlink:href="#DejaVuSans-29" transform="translate(181.689453 0.015625)"/>
     </g>
    </g>
    <g id="line2d_34">
     <g>
      <use xlink:href="#m3badbdb078" x="182.265625" y="50.09625" style="fill: #d62728; stroke: #d62728"/>
     </g>
    </g>
    <g id="text_21">
     <!-- PrimeNet exact $\pi(x)$ -->
     <g transform="translate(200.265625 53.59625) scale(0.1 -0.1)">
      <defs>
       <path id="DejaVuSans-Oblique-3c0" d="M 584 3500 
L 3938 3500 
L 3825 2925 
L 3384 2925 
L 2966 775 
Q 2922 550 2981 450 
Q 3038 353 3209 353 
Q 3256 353 3325 363 
Q 3397 369 3419 372 
L 3338 -44 
Q 3222 -84 3103 -103 
Q 2981 -122 2866 -122 
Q 2491 -122 2388 81 
Q 2284 288 2391 838 
L 2797 2925 
L 1506 2925 
L 938 0 
L 350 0 
L 919 2925 
L 472 2925 
L 584 3500 
z
" transform="scale(0.015625)"/>
      </defs>
      <use xlink:href="#DejaVuSans-50" transform="translate(0 0.015625)"/>
      <use xlink:href="#DejaVuSans-72" transform="translate(60.302734 0.015625)"/>
      <use xlink:href="#DejaVuSans-69" transform="translate(101.416016 0.015625)"/>
      <use xlink:href="#DejaVuSans-6d" transform="translate(129.199219 0.015625)"/>
      <use xlink:href="#DejaVuSans-65" transform="translate(226.611328 0.015625)"/>
      <use xlink:href="#DejaVuSans-4e" transform="translate(288.134766 0.015625)"/>
      <use xlink:href="#DejaVuSans-65" transform="translate(362.939453 0.015625)"/>
      <use xlink:href="#DejaVuSans-74" transform="translate(424.462891 0.015625)"/>
      <use xlink:href="#DejaVuSans-20" transform="translate(463.671875 0.015625)"/>
      <use xlink:href="#DejaVuSans-65" transform="translate(495.458984 0.015625)"/>
      <use xlink:href="#DejaVuSans-78" transform="translate(556.982422 0.015625)"/>
      <use xlink:href="#DejaVuSans-61" transform="translate(616.162109 0.015625)"/>
      <use xlink:href="#DejaVuSans-63" transform="translate(677.441406 0.015625)"/>
      <use xlink:href="#DejaVuSans-74" transform="translate(732.421875 0.015625)"/>
      <use xlink:href="#DejaVuSans-20" transform="translate(771.630859 0.015625)"/>
      <use xlink:href="#DejaVuSans-Oblique-3c0" transform="translate(803.417969 0.015625)"/>
      <use xlink:href="#DejaVuSans-28" transform="translate(863.623047 0.015625)"/>
      <use xlink:href="#DejaVuSans-Oblique-78" transform="translate(902.636719 0.015625)"/>
      <use xlink:href="#DejaVuSans-29" transform="translate(961.816406 0.015625)"/>
     </g>
    </g>
   </g>
  </g>
 </g>
 <defs>
  <clipPath id="pc37c218825">
   <rect x="46.965625" y="22.318125" width="694.33" height="374.68"/>
  </clipPath>
 </defs>
</svg>
