<?xml version="1.0" encoding="utf-8" standalone="no"?>
<!DOCTYPE svg PUBLIC "-//W3C//DTD SVG 1.1//EN"
  "http://www.w3.org/Graphics/SVG/1.1/DTD/svg11.dtd">
<svg xmlns:xlink="http://www.w3.org/1999/xlink" width="556.667813pt" height="418.6368pt" viewBox="0 0 556.667813 418.6368" xmlns="http://www.w3.org/2000/svg" version="1.1">
 <metadata>
  <rdf:RDF xmlns:dc="http://purl.org/dc/elements/1.1/" xmlns:cc="http://creativecommons.org/ns#" xmlns:rdf="http://www.w3.org/1999/02/22-rdf-syntax-ns#">
   <cc:Work>
    <dc:type rdf:resource="http://purl.org/dc/dcmitype/StillImage"/>
    <dc:date>2026-07-18T13:32:30.518970</dc:date>
    <dc:format>image/svg+xml</dc:format>
    <dc:creator>
     <cc:Agent>
      <dc:title>Matplotlib v3.10.9, https://matplotlib.org/</dc:title>
     </cc:Agent>
    </dc:creator>
   </cc:Work>
  </rdf:RDF>
 </metadata>
 <defs>
  <style type="text/css">*{stroke-linejoin: round; stroke-linecap: butt}</style>
 </defs>
 <g id="figure_1">
  <g id="patch_1">
   <path d="M 0 418.6368 
L 556.667813 418.6368 
L 556.667813 0 
L 0 0 
z
" style="fill: #ffffff"/>
  </g>
  <g id="axes_1">
   <g id="patch_2">
    <path d="M 39.632812 370.512 
L 541.832813 370.512 
L 541.832813 48.96 
L 39.632812 48.96 
z
" style="fill: #ffffff"/>
   </g>
   <g id="matplotlib.axis_1">
    <g id="xtick_1">
     <g id="line2d_1">
      <defs>
       <path id="mb93273f605" d="M 0 0 
L 0 3.5 
" style="stroke: #52616b; stroke-width: 0.8"/>
      </defs>
      <g>
       <use xlink:href="#mb93273f605" x="121.933147" y="370.512" style="fill: #52616b; stroke: #52616b; stroke-width: 0.8"/>
      </g>
     </g>
     <g id="text_1">
      <!-- 50 -->
      <g style="fill: #52616b" transform="translate(116.843147 383.59075) scale(0.08 -0.08)">
       <defs>
        <path id="DejaVuSans-35" d="M 691 4666 
L 3169 4666 
L 3169 4134 
L 1269 4134 
L 1269 2991 
Q 1406 3038 1543 3061 
Q 1681 3084 1819 3084 
Q 2600 3084 3056 2656 
Q 3513 2228 3513 1497 
Q 3513 744 3044 326 
Q 2575 -91 1722 -91 
Q 1428 -91 1123 -41 
Q 819 9 494 109 
L 494 744 
Q 775 591 1075 516 
Q 1375 441 1709 441 
Q 2250 441 2565 725 
Q 2881 1009 2881 1497 
Q 2881 1984 2565 2268 
Q 2250 2553 1709 2553 
Q 1456 2553 1204 2497 
Q 953 2441 691 2322 
L 691 4666 
z
" transform="scale(0.015625)"/>
        <path id="DejaVuSans-30" d="M 2034 4250 
Q 1547 4250 1301 3770 
Q 1056 3291 1056 2328 
Q 1056 1369 1301 889 
Q 1547 409 2034 409 
Q 2525 409 2770 889 
Q 3016 1369 3016 2328 
Q 3016 3291 2770 3770 
Q 2525 4250 2034 4250 
z
M 2034 4750 
Q 2819 4750 3233 4129 
Q 3647 3509 3647 2328 
Q 3647 1150 3233 529 
Q 2819 -91 2034 -91 
Q 1250 -91 836 529 
Q 422 1150 422 2328 
Q 422 3509 836 4129 
Q 1250 4750 2034 4750 
z
" transform="scale(0.015625)"/>
       </defs>
       <use xlink:href="#DejaVuSans-35"/>
       <use xlink:href="#DejaVuSans-30" transform="translate(63.623047 0)"/>
      </g>
     </g>
    </g>
    <g id="xtick_2">
     <g id="line2d_2">
      <g>
       <use xlink:href="#mb93273f605" x="205.91308" y="370.512" style="fill: #52616b; stroke: #52616b; stroke-width: 0.8"/>
      </g>
     </g>
     <g id="text_2">
      <!-- 100 -->
      <g style="fill: #52616b" transform="translate(198.27808 383.59075) scale(0.08 -0.08)">
       <defs>
        <path id="DejaVuSans-31" d="M 794 531 
L 1825 531 
L 1825 4091 
L 703 3866 
L 703 4441 
L 1819 4666 
L 2450 4666 
L 2450 531 
L 3481 531 
L 3481 0 
L 794 0 
L 794 531 
z
" transform="scale(0.015625)"/>
       </defs>
       <use xlink:href="#DejaVuSans-31"/>
       <use xlink:href="#DejaVuSans-30" transform="translate(63.623047 0)"/>
       <use xlink:href="#DejaVuSans-30" transform="translate(127.246094 0)"/>
      </g>
     </g>
    </g>
    <g id="xtick_3">
     <g id="line2d_3">
      <g>
       <use xlink:href="#mb93273f605" x="289.893013" y="370.512" style="fill: #52616b; stroke: #52616b; stroke-width: 0.8"/>
      </g>
     </g>
     <g id="text_3">
      <!-- 150 -->
      <g style="fill: #52616b" transform="translate(282.258013 383.59075) scale(0.08 -0.08)">
       <use xlink:href="#DejaVuSans-31"/>
       <use xlink:href="#DejaVuSans-35" transform="translate(63.623047 0)"/>
       <use xlink:href="#DejaVuSans-30" transform="translate(127.246094 0)"/>
      </g>
     </g>
    </g>
    <g id="xtick_4">
     <g id="line2d_4">
      <g>
       <use xlink:href="#mb93273f605" x="373.872946" y="370.512" style="fill: #52616b; stroke: #52616b; stroke-width: 0.8"/>
      </g>
     </g>
     <g id="text_4">
      <!-- 200 -->
      <g style="fill: #52616b" transform="translate(366.237946 383.59075) scale(0.08 -0.08)">
       <defs>
        <path id="DejaVuSans-32" d="M 1228 531 
L 3431 531 
L 3431 0 
L 469 0 
L 469 531 
Q 828 903 1448 1529 
Q 2069 2156 2228 2338 
Q 2531 2678 2651 2914 
Q 2772 3150 2772 3378 
Q 2772 3750 2511 3984 
Q 2250 4219 1831 4219 
Q 1534 4219 1204 4116 
Q 875 4013 500 3803 
L 500 4441 
Q 881 4594 1212 4672 
Q 1544 4750 1819 4750 
Q 2544 4750 2975 4387 
Q 3406 4025 3406 3419 
Q 3406 3131 3298 2873 
Q 3191 2616 2906 2266 
Q 2828 2175 2409 1742 
Q 1991 1309 1228 531 
z
" transform="scale(0.015625)"/>
       </defs>
       <use xlink:href="#DejaVuSans-32"/>
       <use xlink:href="#DejaVuSans-30" transform="translate(63.623047 0)"/>
       <use xlink:href="#DejaVuSans-30" transform="translate(127.246094 0)"/>
      </g>
     </g>
    </g>
    <g id="xtick_5">
     <g id="line2d_5">
      <g>
       <use xlink:href="#mb93273f605" x="457.852879" y="370.512" style="fill: #52616b; stroke: #52616b; stroke-width: 0.8"/>
      </g>
     </g>
     <g id="text_5">
      <!-- 250 -->
      <g style="fill: #52616b" transform="translate(450.217879 383.59075) scale(0.08 -0.08)">
       <use xlink:href="#DejaVuSans-32"/>
       <use xlink:href="#DejaVuSans-35" transform="translate(63.623047 0)"/>
       <use xlink:href="#DejaVuSans-30" transform="translate(127.246094 0)"/>
      </g>
     </g>
    </g>
    <g id="xtick_6">
     <g id="line2d_6">
      <g>
       <use xlink:href="#mb93273f605" x="541.832813" y="370.512" style="fill: #52616b; stroke: #52616b; stroke-width: 0.8"/>
      </g>
     </g>
     <g id="text_6">
      <!-- 300 -->
      <g style="fill: #52616b" transform="translate(534.197813 383.59075) scale(0.08 -0.08)">
       <defs>
        <path id="DejaVuSans-33" d="M 2597 2516 
Q 3050 2419 3304 2112 
Q 3559 1806 3559 1356 
Q 3559 666 3084 287 
Q 2609 -91 1734 -91 
Q 1441 -91 1130 -33 
Q 819 25 488 141 
L 488 750 
Q 750 597 1062 519 
Q 1375 441 1716 441 
Q 2309 441 2620 675 
Q 2931 909 2931 1356 
Q 2931 1769 2642 2001 
Q 2353 2234 1838 2234 
L 1294 2234 
L 1294 2753 
L 1863 2753 
Q 2328 2753 2575 2939 
Q 2822 3125 2822 3475 
Q 2822 3834 2567 4026 
Q 2313 4219 1838 4219 
Q 1578 4219 1281 4162 
Q 984 4106 628 3988 
L 628 4550 
Q 988 4650 1302 4700 
Q 1616 4750 1894 4750 
Q 2613 4750 3031 4423 
Q 3450 4097 3450 3541 
Q 3450 3153 3228 2886 
Q 3006 2619 2597 2516 
z
" transform="scale(0.015625)"/>
       </defs>
       <use xlink:href="#DejaVuSans-33"/>
       <use xlink:href="#DejaVuSans-30" transform="translate(63.623047 0)"/>
       <use xlink:href="#DejaVuSans-30" transform="translate(127.246094 0)"/>
      </g>
     </g>
    </g>
    <g id="text_7">
     <!-- Canonical partition -->
     <g style="fill: #1f2933" transform="translate(248.115 396.093094) scale(0.09 -0.09)">
      <defs>
       <path id="DejaVuSans-43" d="M 4122 4306 
L 4122 3641 
Q 3803 3938 3442 4084 
Q 3081 4231 2675 4231 
Q 1875 4231 1450 3742 
Q 1025 3253 1025 2328 
Q 1025 1406 1450 917 
Q 1875 428 2675 428 
Q 3081 428 3442 575 
Q 3803 722 4122 1019 
L 4122 359 
Q 3791 134 3420 21 
Q 3050 -91 2638 -91 
Q 1578 -91 968 557 
Q 359 1206 359 2328 
Q 359 3453 968 4101 
Q 1578 4750 2638 4750 
Q 3056 4750 3426 4639 
Q 3797 4528 4122 4306 
z
" transform="scale(0.015625)"/>
       <path id="DejaVuSans-61" d="M 2194 1759 
Q 1497 1759 1228 1600 
Q 959 1441 959 1056 
Q 959 750 1161 570 
Q 1363 391 1709 391 
Q 2188 391 2477 730 
Q 2766 1069 2766 1631 
L 2766 1759 
L 2194 1759 
z
M 3341 1997 
L 3341 0 
L 2766 0 
L 2766 531 
Q 2569 213 2275 61 
Q 1981 -91 1556 -91 
Q 1019 -91 701 211 
Q 384 513 384 1019 
Q 384 1609 779 1909 
Q 1175 2209 1959 2209 
L 2766 2209 
L 2766 2266 
Q 2766 2663 2505 2880 
Q 2244 3097 1772 3097 
Q 1472 3097 1187 3025 
Q 903 2953 641 2809 
L 641 3341 
Q 956 3463 1253 3523 
Q 1550 3584 1831 3584 
Q 2591 3584 2966 3190 
Q 3341 2797 3341 1997 
z
" transform="scale(0.015625)"/>
       <path id="DejaVuSans-6e" d="M 3513 2113 
L 3513 0 
L 2938 0 
L 2938 2094 
Q 2938 2591 2744 2837 
Q 2550 3084 2163 3084 
Q 1697 3084 1428 2787 
Q 1159 2491 1159 1978 
L 1159 0 
L 581 0 
L 581 3500 
L 1159 3500 
L 1159 2956 
Q 1366 3272 1645 3428 
Q 1925 3584 2291 3584 
Q 2894 3584 3203 3211 
Q 3513 2838 3513 2113 
z
" transform="scale(0.015625)"/>
       <path id="DejaVuSans-6f" d="M 1959 3097 
Q 1497 3097 1228 2736 
Q 959 2375 959 1747 
Q 959 1119 1226 758 
Q 1494 397 1959 397 
Q 2419 397 2687 759 
Q 2956 1122 2956 1747 
Q 2956 2369 2687 2733 
Q 2419 3097 1959 3097 
z
M 1959 3584 
Q 2709 3584 3137 3096 
Q 3566 2609 3566 1747 
Q 3566 888 3137 398 
Q 2709 -91 1959 -91 
Q 1206 -91 779 398 
Q 353 888 353 1747 
Q 353 2609 779 3096 
Q 1206 3584 1959 3584 
z
" transform="scale(0.015625)"/>
       <path id="DejaVuSans-69" d="M 603 3500 
L 1178 3500 
L 1178 0 
L 603 0 
L 603 3500 
z
M 603 4863 
L 1178 4863 
L 1178 4134 
L 603 4134 
L 603 4863 
z
" transform="scale(0.015625)"/>
       <path id="DejaVuSans-63" d="M 3122 3366 
L 3122 2828 
Q 2878 2963 2633 3030 
Q 2388 3097 2138 3097 
Q 1578 3097 1268 2742 
Q 959 2388 959 1747 
Q 959 1106 1268 751 
Q 1578 397 2138 397 
Q 2388 397 2633 464 
Q 2878 531 3122 666 
L 3122 134 
Q 2881 22 2623 -34 
Q 2366 -91 2075 -91 
Q 1284 -91 818 406 
Q 353 903 353 1747 
Q 353 2603 823 3093 
Q 1294 3584 2113 3584 
Q 2378 3584 2631 3529 
Q 2884 3475 3122 3366 
z
" transform="scale(0.015625)"/>
       <path id="DejaVuSans-6c" d="M 603 4863 
L 1178 4863 
L 1178 0 
L 603 0 
L 603 4863 
z
" transform="scale(0.015625)"/>
       <path id="DejaVuSans-20" transform="scale(0.015625)"/>
       <path id="DejaVuSans-70" d="M 1159 525 
L 1159 -1331 
L 581 -1331 
L 581 3500 
L 1159 3500 
L 1159 2969 
Q 1341 3281 1617 3432 
Q 1894 3584 2278 3584 
Q 2916 3584 3314 3078 
Q 3713 2572 3713 1747 
Q 3713 922 3314 415 
Q 2916 -91 2278 -91 
Q 1894 -91 1617 61 
Q 1341 213 1159 525 
z
M 3116 1747 
Q 3116 2381 2855 2742 
Q 2594 3103 2138 3103 
Q 1681 3103 1420 2742 
Q 1159 2381 1159 1747 
Q 1159 1113 1420 752 
Q 1681 391 2138 391 
Q 2594 391 2855 752 
Q 3116 1113 3116 1747 
z
" transform="scale(0.015625)"/>
       <path id="DejaVuSans-72" d="M 2631 2963 
Q 2534 3019 2420 3045 
Q 2306 3072 2169 3072 
Q 1681 3072 1420 2755 
Q 1159 2438 1159 1844 
L 1159 0 
L 581 0 
L 581 3500 
L 1159 3500 
L 1159 2956 
Q 1341 3275 1631 3429 
Q 1922 3584 2338 3584 
Q 2397 3584 2469 3576 
Q 2541 3569 2628 3553 
L 2631 2963 
z
" transform="scale(0.015625)"/>
       <path id="DejaVuSans-74" d="M 1172 4494 
L 1172 3500 
L 2356 3500 
L 2356 3053 
L 1172 3053 
L 1172 1153 
Q 1172 725 1289 603 
Q 1406 481 1766 481 
L 2356 481 
L 2356 0 
L 1766 0 
Q 1100 0 847 248 
Q 594 497 594 1153 
L 594 3053 
L 172 3053 
L 172 3500 
L 594 3500 
L 594 4494 
L 1172 4494 
z
" transform="scale(0.015625)"/>
      </defs>
      <use xlink:href="#DejaVuSans-43"/>
      <use xlink:href="#DejaVuSans-61" transform="translate(69.824219 0)"/>
      <use xlink:href="#DejaVuSans-6e" transform="translate(131.103516 0)"/>
      <use xlink:href="#DejaVuSans-6f" transform="translate(194.482422 0)"/>
      <use xlink:href="#DejaVuSans-6e" transform="translate(255.664062 0)"/>
      <use xlink:href="#DejaVuSans-69" transform="translate(319.042969 0)"/>
      <use xlink:href="#DejaVuSans-63" transform="translate(346.826172 0)"/>
      <use xlink:href="#DejaVuSans-61" transform="translate(401.806641 0)"/>
      <use xlink:href="#DejaVuSans-6c" transform="translate(463.085938 0)"/>
      <use xlink:href="#DejaVuSans-20" transform="translate(490.869141 0)"/>
      <use xlink:href="#DejaVuSans-70" transform="translate(522.65625 0)"/>
      <use xlink:href="#DejaVuSans-61" transform="translate(586.132812 0)"/>
      <use xlink:href="#DejaVuSans-72" transform="translate(647.412109 0)"/>
      <use xlink:href="#DejaVuSans-74" transform="translate(688.525391 0)"/>
      <use xlink:href="#DejaVuSans-69" transform="translate(727.734375 0)"/>
      <use xlink:href="#DejaVuSans-74" transform="translate(755.517578 0)"/>
      <use xlink:href="#DejaVuSans-69" transform="translate(794.726562 0)"/>
      <use xlink:href="#DejaVuSans-6f" transform="translate(822.509766 0)"/>
      <use xlink:href="#DejaVuSans-6e" transform="translate(883.691406 0)"/>
     </g>
    </g>
   </g>
   <g id="matplotlib.axis_2">
    <g id="ytick_1">
     <g id="line2d_7">
      <path d="M 39.632812 355.130772 
L 541.832813 355.130772 
" clip-path="url(#p333a79e25a)" style="fill: none; stroke: #b0b0b0; stroke-opacity: 0.22; stroke-width: 0.7; stroke-linecap: square"/>
     </g>
     <g id="line2d_8">
      <defs>
       <path id="m3b9e3c68f3" d="M 0 0 
L -3.5 0 
" style="stroke: #52616b; stroke-width: 0.8"/>
      </defs>
      <g>
       <use xlink:href="#m3b9e3c68f3" x="39.632812" y="355.130772" style="fill: #52616b; stroke: #52616b; stroke-width: 0.8"/>
      </g>
     </g>
     <g id="text_8">
      <!-- 4.6 -->
      <g style="fill: #52616b" transform="translate(19.910312 358.170147) scale(0.08 -0.08)">
       <defs>
        <path id="DejaVuSans-34" d="M 2419 4116 
L 825 1625 
L 2419 1625 
L 2419 4116 
z
M 2253 4666 
L 3047 4666 
L 3047 1625 
L 3713 1625 
L 3713 1100 
L 3047 1100 
L 3047 0 
L 2419 0 
L 2419 1100 
L 313 1100 
L 313 1709 
L 2253 4666 
z
" transform="scale(0.015625)"/>
        <path id="DejaVuSans-2e" d="M 684 794 
L 1344 794 
L 1344 0 
L 684 0 
L 684 794 
z
" transform="scale(0.015625)"/>
        <path id="DejaVuSans-36" d="M 2113 2584 
Q 1688 2584 1439 2293 
Q 1191 2003 1191 1497 
Q 1191 994 1439 701 
Q 1688 409 2113 409 
Q 2538 409 2786 701 
Q 3034 994 3034 1497 
Q 3034 2003 2786 2293 
Q 2538 2584 2113 2584 
z
M 3366 4563 
L 3366 3988 
Q 3128 4100 2886 4159 
Q 2644 4219 2406 4219 
Q 1781 4219 1451 3797 
Q 1122 3375 1075 2522 
Q 1259 2794 1537 2939 
Q 1816 3084 2150 3084 
Q 2853 3084 3261 2657 
Q 3669 2231 3669 1497 
Q 3669 778 3244 343 
Q 2819 -91 2113 -91 
Q 1303 -91 875 529 
Q 447 1150 447 2328 
Q 447 3434 972 4092 
Q 1497 4750 2381 4750 
Q 2619 4750 2861 4703 
Q 3103 4656 3366 4563 
z
" transform="scale(0.015625)"/>
       </defs>
       <use xlink:href="#DejaVuSans-34"/>
       <use xlink:href="#DejaVuSans-2e" transform="translate(63.623047 0)"/>
       <use xlink:href="#DejaVuSans-36" transform="translate(95.410156 0)"/>
      </g>
     </g>
    </g>
    <g id="ytick_2">
     <g id="line2d_9">
      <path d="M 39.632812 314.184063 
L 541.832813 314.184063 
" clip-path="url(#p333a79e25a)" style="fill: none; stroke: #b0b0b0; stroke-opacity: 0.22; stroke-width: 0.7; stroke-linecap: square"/>
     </g>
     <g id="line2d_10">
      <g>
       <use xlink:href="#m3b9e3c68f3" x="39.632812" y="314.184063" style="fill: #52616b; stroke: #52616b; stroke-width: 0.8"/>
      </g>
     </g>
     <g id="text_9">
      <!-- 4.8 -->
      <g style="fill: #52616b" transform="translate(19.910312 317.223438) scale(0.08 -0.08)">
       <defs>
        <path id="DejaVuSans-38" d="M 2034 2216 
Q 1584 2216 1326 1975 
Q 1069 1734 1069 1313 
Q 1069 891 1326 650 
Q 1584 409 2034 409 
Q 2484 409 2743 651 
Q 3003 894 3003 1313 
Q 3003 1734 2745 1975 
Q 2488 2216 2034 2216 
z
M 1403 2484 
Q 997 2584 770 2862 
Q 544 3141 544 3541 
Q 544 4100 942 4425 
Q 1341 4750 2034 4750 
Q 2731 4750 3128 4425 
Q 3525 4100 3525 3541 
Q 3525 3141 3298 2862 
Q 3072 2584 2669 2484 
Q 3125 2378 3379 2068 
Q 3634 1759 3634 1313 
Q 3634 634 3220 271 
Q 2806 -91 2034 -91 
Q 1263 -91 848 271 
Q 434 634 434 1313 
Q 434 1759 690 2068 
Q 947 2378 1403 2484 
z
M 1172 3481 
Q 1172 3119 1398 2916 
Q 1625 2713 2034 2713 
Q 2441 2713 2670 2916 
Q 2900 3119 2900 3481 
Q 2900 3844 2670 4047 
Q 2441 4250 2034 4250 
Q 1625 4250 1398 4047 
Q 1172 3844 1172 3481 
z
" transform="scale(0.015625)"/>
       </defs>
       <use xlink:href="#DejaVuSans-34"/>
       <use xlink:href="#DejaVuSans-2e" transform="translate(63.623047 0)"/>
       <use xlink:href="#DejaVuSans-38" transform="translate(95.410156 0)"/>
      </g>
     </g>
    </g>
    <g id="ytick_3">
     <g id="line2d_11">
      <path d="M 39.632812 273.237354 
L 541.832813 273.237354 
" clip-path="url(#p333a79e25a)" style="fill: none; stroke: #b0b0b0; stroke-opacity: 0.22; stroke-width: 0.7; stroke-linecap: square"/>
     </g>
     <g id="line2d_12">
      <g>
       <use xlink:href="#m3b9e3c68f3" x="39.632812" y="273.237354" style="fill: #52616b; stroke: #52616b; stroke-width: 0.8"/>
      </g>
     </g>
     <g id="text_10">
      <!-- 5.0 -->
      <g style="fill: #52616b" transform="translate(19.910312 276.276729) scale(0.08 -0.08)">
       <use xlink:href="#DejaVuSans-35"/>
       <use xlink:href="#DejaVuSans-2e" transform="translate(63.623047 0)"/>
       <use xlink:href="#DejaVuSans-30" transform="translate(95.410156 0)"/>
      </g>
     </g>
    </g>
    <g id="ytick_4">
     <g id="line2d_13">
      <path d="M 39.632812 232.290645 
L 541.832813 232.290645 
" clip-path="url(#p333a79e25a)" style="fill: none; stroke: #b0b0b0; stroke-opacity: 0.22; stroke-width: 0.7; stroke-linecap: square"/>
     </g>
     <g id="line2d_14">
      <g>
       <use xlink:href="#m3b9e3c68f3" x="39.632812" y="232.290645" style="fill: #52616b; stroke: #52616b; stroke-width: 0.8"/>
      </g>
     </g>
     <g id="text_11">
      <!-- 5.2 -->
      <g style="fill: #52616b" transform="translate(19.910312 235.33002) scale(0.08 -0.08)">
       <use xlink:href="#DejaVuSans-35"/>
       <use xlink:href="#DejaVuSans-2e" transform="translate(63.623047 0)"/>
       <use xlink:href="#DejaVuSans-32" transform="translate(95.410156 0)"/>
      </g>
     </g>
    </g>
    <g id="ytick_5">
     <g id="line2d_15">
      <path d="M 39.632812 191.343937 
L 541.832813 191.343937 
" clip-path="url(#p333a79e25a)" style="fill: none; stroke: #b0b0b0; stroke-opacity: 0.22; stroke-width: 0.7; stroke-linecap: square"/>
     </g>
     <g id="line2d_16">
      <g>
       <use xlink:href="#m3b9e3c68f3" x="39.632812" y="191.343937" style="fill: #52616b; stroke: #52616b; stroke-width: 0.8"/>
      </g>
     </g>
     <g id="text_12">
      <!-- 5.4 -->
      <g style="fill: #52616b" transform="translate(19.910312 194.383312) scale(0.08 -0.08)">
       <use xlink:href="#DejaVuSans-35"/>
       <use xlink:href="#DejaVuSans-2e" transform="translate(63.623047 0)"/>
       <use xlink:href="#DejaVuSans-34" transform="translate(95.410156 0)"/>
      </g>
     </g>
    </g>
    <g id="ytick_6">
     <g id="line2d_17">
      <path d="M 39.632812 150.397228 
L 541.832813 150.397228 
" clip-path="url(#p333a79e25a)" style="fill: none; stroke: #b0b0b0; stroke-opacity: 0.22; stroke-width: 0.7; stroke-linecap: square"/>
     </g>
     <g id="line2d_18">
      <g>
       <use xlink:href="#m3b9e3c68f3" x="39.632812" y="150.397228" style="fill: #52616b; stroke: #52616b; stroke-width: 0.8"/>
      </g>
     </g>
     <g id="text_13">
      <!-- 5.6 -->
      <g style="fill: #52616b" transform="translate(19.910312 153.436603) scale(0.08 -0.08)">
       <use xlink:href="#DejaVuSans-35"/>
       <use xlink:href="#DejaVuSans-2e" transform="translate(63.623047 0)"/>
       <use xlink:href="#DejaVuSans-36" transform="translate(95.410156 0)"/>
      </g>
     </g>
    </g>
    <g id="ytick_7">
     <g id="line2d_19">
      <path d="M 39.632812 109.450519 
L 541.832813 109.450519 
" clip-path="url(#p333a79e25a)" style="fill: none; stroke: #b0b0b0; stroke-opacity: 0.22; stroke-width: 0.7; stroke-linecap: square"/>
     </g>
     <g id="line2d_20">
      <g>
       <use xlink:href="#m3b9e3c68f3" x="39.632812" y="109.450519" style="fill: #52616b; stroke: #52616b; stroke-width: 0.8"/>
      </g>
     </g>
     <g id="text_14">
      <!-- 5.8 -->
      <g style="fill: #52616b" transform="translate(19.910312 112.489894) scale(0.08 -0.08)">
       <use xlink:href="#DejaVuSans-35"/>
       <use xlink:href="#DejaVuSans-2e" transform="translate(63.623047 0)"/>
       <use xlink:href="#DejaVuSans-38" transform="translate(95.410156 0)"/>
      </g>
     </g>
    </g>
    <g id="ytick_8">
     <g id="line2d_21">
      <path d="M 39.632812 68.50381 
L 541.832813 68.50381 
" clip-path="url(#p333a79e25a)" style="fill: none; stroke: #b0b0b0; stroke-opacity: 0.22; stroke-width: 0.7; stroke-linecap: square"/>
     </g>
     <g id="line2d_22">
      <g>
       <use xlink:href="#m3b9e3c68f3" x="39.632812" y="68.50381" style="fill: #52616b; stroke: #52616b; stroke-width: 0.8"/>
      </g>
     </g>
     <g id="text_15">
      <!-- 6.0 -->
      <g style="fill: #52616b" transform="translate(19.910312 71.543185) scale(0.08 -0.08)">
       <use xlink:href="#DejaVuSans-36"/>
       <use xlink:href="#DejaVuSans-2e" transform="translate(63.623047 0)"/>
       <use xlink:href="#DejaVuSans-30" transform="translate(95.410156 0)"/>
      </g>
     </g>
    </g>
    <g id="text_16">
     <!-- Twin events per outgoing gap (%) -->
     <g style="fill: #1f2933" transform="translate(14.038594 285.508969) rotate(-90) scale(0.09 -0.09)">
      <defs>
       <path id="DejaVuSans-54" d="M -19 4666 
L 3928 4666 
L 3928 4134 
L 2272 4134 
L 2272 0 
L 1638 0 
L 1638 4134 
L -19 4134 
L -19 4666 
z
" transform="scale(0.015625)"/>
       <path id="DejaVuSans-77" d="M 269 3500 
L 844 3500 
L 1563 769 
L 2278 3500 
L 2956 3500 
L 3675 769 
L 4391 3500 
L 4966 3500 
L 4050 0 
L 3372 0 
L 2619 2869 
L 1863 0 
L 1184 0 
L 269 3500 
z
" transform="scale(0.015625)"/>
       <path id="DejaVuSans-65" d="M 3597 1894 
L 3597 1613 
L 953 1613 
Q 991 1019 1311 708 
Q 1631 397 2203 397 
Q 2534 397 2845 478 
Q 3156 559 3463 722 
L 3463 178 
Q 3153 47 2828 -22 
Q 2503 -91 2169 -91 
Q 1331 -91 842 396 
Q 353 884 353 1716 
Q 353 2575 817 3079 
Q 1281 3584 2069 3584 
Q 2775 3584 3186 3129 
Q 3597 2675 3597 1894 
z
M 3022 2063 
Q 3016 2534 2758 2815 
Q 2500 3097 2075 3097 
Q 1594 3097 1305 2825 
Q 1016 2553 972 2059 
L 3022 2063 
z
" transform="scale(0.015625)"/>
       <path id="DejaVuSans-76" d="M 191 3500 
L 800 3500 
L 1894 563 
L 2988 3500 
L 3597 3500 
L 2284 0 
L 1503 0 
L 191 3500 
z
" transform="scale(0.015625)"/>
       <path id="DejaVuSans-73" d="M 2834 3397 
L 2834 2853 
Q 2591 2978 2328 3040 
Q 2066 3103 1784 3103 
Q 1356 3103 1142 2972 
Q 928 2841 928 2578 
Q 928 2378 1081 2264 
Q 1234 2150 1697 2047 
L 1894 2003 
Q 2506 1872 2764 1633 
Q 3022 1394 3022 966 
Q 3022 478 2636 193 
Q 2250 -91 1575 -91 
Q 1294 -91 989 -36 
Q 684 19 347 128 
L 347 722 
Q 666 556 975 473 
Q 1284 391 1588 391 
Q 1994 391 2212 530 
Q 2431 669 2431 922 
Q 2431 1156 2273 1281 
Q 2116 1406 1581 1522 
L 1381 1569 
Q 847 1681 609 1914 
Q 372 2147 372 2553 
Q 372 3047 722 3315 
Q 1072 3584 1716 3584 
Q 2034 3584 2315 3537 
Q 2597 3491 2834 3397 
z
" transform="scale(0.015625)"/>
       <path id="DejaVuSans-75" d="M 544 1381 
L 544 3500 
L 1119 3500 
L 1119 1403 
Q 1119 906 1312 657 
Q 1506 409 1894 409 
Q 2359 409 2629 706 
Q 2900 1003 2900 1516 
L 2900 3500 
L 3475 3500 
L 3475 0 
L 2900 0 
L 2900 538 
Q 2691 219 2414 64 
Q 2138 -91 1772 -91 
Q 1169 -91 856 284 
Q 544 659 544 1381 
z
M 1991 3584 
L 1991 3584 
z
" transform="scale(0.015625)"/>
       <path id="DejaVuSans-67" d="M 2906 1791 
Q 2906 2416 2648 2759 
Q 2391 3103 1925 3103 
Q 1463 3103 1205 2759 
Q 947 2416 947 1791 
Q 947 1169 1205 825 
Q 1463 481 1925 481 
Q 2391 481 2648 825 
Q 2906 1169 2906 1791 
z
M 3481 434 
Q 3481 -459 3084 -895 
Q 2688 -1331 1869 -1331 
Q 1566 -1331 1297 -1286 
Q 1028 -1241 775 -1147 
L 775 -588 
Q 1028 -725 1275 -790 
Q 1522 -856 1778 -856 
Q 2344 -856 2625 -561 
Q 2906 -266 2906 331 
L 2906 616 
Q 2728 306 2450 153 
Q 2172 0 1784 0 
Q 1141 0 747 490 
Q 353 981 353 1791 
Q 353 2603 747 3093 
Q 1141 3584 1784 3584 
Q 2172 3584 2450 3431 
Q 2728 3278 2906 2969 
L 2906 3500 
L 3481 3500 
L 3481 434 
z
" transform="scale(0.015625)"/>
       <path id="DejaVuSans-28" d="M 1984 4856 
Q 1566 4138 1362 3434 
Q 1159 2731 1159 2009 
Q 1159 1288 1364 580 
Q 1569 -128 1984 -844 
L 1484 -844 
Q 1016 -109 783 600 
Q 550 1309 550 2009 
Q 550 2706 781 3412 
Q 1013 4119 1484 4856 
L 1984 4856 
z
" transform="scale(0.015625)"/>
       <path id="DejaVuSans-25" d="M 4653 2053 
Q 4381 2053 4226 1822 
Q 4072 1591 4072 1178 
Q 4072 772 4226 539 
Q 4381 306 4653 306 
Q 4919 306 5073 539 
Q 5228 772 5228 1178 
Q 5228 1588 5073 1820 
Q 4919 2053 4653 2053 
z
M 4653 2450 
Q 5147 2450 5437 2106 
Q 5728 1763 5728 1178 
Q 5728 594 5436 251 
Q 5144 -91 4653 -91 
Q 4153 -91 3862 251 
Q 3572 594 3572 1178 
Q 3572 1766 3864 2108 
Q 4156 2450 4653 2450 
z
M 1428 4353 
Q 1159 4353 1004 4120 
Q 850 3888 850 3481 
Q 850 3069 1003 2837 
Q 1156 2606 1428 2606 
Q 1700 2606 1854 2837 
Q 2009 3069 2009 3481 
Q 2009 3884 1853 4118 
Q 1697 4353 1428 4353 
z
M 4250 4750 
L 4750 4750 
L 1831 -91 
L 1331 -91 
L 4250 4750 
z
M 1428 4750 
Q 1922 4750 2215 4408 
Q 2509 4066 2509 3481 
Q 2509 2891 2217 2550 
Q 1925 2209 1428 2209 
Q 931 2209 642 2551 
Q 353 2894 353 3481 
Q 353 4063 643 4406 
Q 934 4750 1428 4750 
z
" transform="scale(0.015625)"/>
       <path id="DejaVuSans-29" d="M 513 4856 
L 1013 4856 
Q 1481 4119 1714 3412 
Q 1947 2706 1947 2009 
Q 1947 1309 1714 600 
Q 1481 -109 1013 -844 
L 513 -844 
Q 928 -128 1133 580 
Q 1338 1288 1338 2009 
Q 1338 2731 1133 3434 
Q 928 4138 513 4856 
z
" transform="scale(0.015625)"/>
      </defs>
      <use xlink:href="#DejaVuSans-54"/>
      <use xlink:href="#DejaVuSans-77" transform="translate(44.583984 0)"/>
      <use xlink:href="#DejaVuSans-69" transform="translate(126.371094 0)"/>
      <use xlink:href="#DejaVuSans-6e" transform="translate(154.154297 0)"/>
      <use xlink:href="#DejaVuSans-20" transform="translate(217.533203 0)"/>
      <use xlink:href="#DejaVuSans-65" transform="translate(249.320312 0)"/>
      <use xlink:href="#DejaVuSans-76" transform="translate(310.84375 0)"/>
      <use xlink:href="#DejaVuSans-65" transform="translate(370.023438 0)"/>
      <use xlink:href="#DejaVuSans-6e" transform="translate(431.546875 0)"/>
      <use xlink:href="#DejaVuSans-74" transform="translate(494.925781 0)"/>
      <use xlink:href="#DejaVuSans-73" transform="translate(534.134766 0)"/>
      <use xlink:href="#DejaVuSans-20" transform="translate(586.234375 0)"/>
      <use xlink:href="#DejaVuSans-70" transform="translate(618.021484 0)"/>
      <use xlink:href="#DejaVuSans-65" transform="translate(681.498047 0)"/>
      <use xlink:href="#DejaVuSans-72" transform="translate(743.021484 0)"/>
      <use xlink:href="#DejaVuSans-20" transform="translate(784.134766 0)"/>
      <use xlink:href="#DejaVuSans-6f" transform="translate(815.921875 0)"/>
      <use xlink:href="#DejaVuSans-75" transform="translate(877.103516 0)"/>
      <use xlink:href="#DejaVuSans-74" transform="translate(940.482422 0)"/>
      <use xlink:href="#DejaVuSans-67" transform="translate(979.691406 0)"/>
      <use xlink:href="#DejaVuSans-6f" transform="translate(1043.167969 0)"/>
      <use xlink:href="#DejaVuSans-69" transform="translate(1104.349609 0)"/>
      <use xlink:href="#DejaVuSans-6e" transform="translate(1132.132812 0)"/>
      <use xlink:href="#DejaVuSans-67" transform="translate(1195.511719 0)"/>
      <use xlink:href="#DejaVuSans-20" transform="translate(1258.988281 0)"/>
      <use xlink:href="#DejaVuSans-67" transform="translate(1290.775391 0)"/>
      <use xlink:href="#DejaVuSans-61" transform="translate(1354.251953 0)"/>
      <use xlink:href="#DejaVuSans-70" transform="translate(1415.53125 0)"/>
      <use xlink:href="#DejaVuSans-20" transform="translate(1479.007812 0)"/>
      <use xlink:href="#DejaVuSans-28" transform="translate(1510.794922 0)"/>
      <use xlink:href="#DejaVuSans-25" transform="translate(1549.808594 0)"/>
      <use xlink:href="#DejaVuSans-29" transform="translate(1644.828125 0)"/>
     </g>
    </g>
   </g>
   <g id="line2d_23">
    <path d="M 39.632812 63.576 
L 41.312411 141.971936 
L 42.99201 167.559829 
L 44.671608 183.600103 
L 46.351207 194.797791 
L 48.030806 203.798467 
L 49.710404 211.176136 
L 51.390003 217.209415 
L 54.7492 227.473239 
L 56.428799 231.877791 
L 58.108398 235.139922 
L 59.787996 239.106551 
L 61.467595 242.194044 
L 64.826792 247.733391 
L 66.506391 250.495788 
L 73.224786 259.222723 
L 74.904384 261.065109 
L 76.583983 262.701498 
L 79.94318 266.289753 
L 81.622779 267.544066 
L 83.302378 268.963285 
L 86.661575 272.172293 
L 88.341174 273.264581 
L 90.020772 274.731755 
L 91.700371 275.844603 
L 93.37997 277.250558 
L 95.059568 277.840915 
L 96.739167 279.37703 
L 98.418766 280.523821 
L 100.098364 281.497056 
L 101.777963 282.228176 
L 103.457562 283.707864 
L 105.13716 284.564563 
L 108.496358 286.66146 
L 110.175956 287.123492 
L 113.535154 289.082393 
L 116.894351 290.747292 
L 118.57395 291.547368 
L 120.253548 292.549286 
L 123.612746 293.708895 
L 125.292344 294.532334 
L 126.971943 295.03858 
L 128.651542 296.001112 
L 130.33114 296.827423 
L 132.010739 297.204053 
L 133.690338 297.962928 
L 135.369936 298.541097 
L 137.049535 299.265798 
L 140.408732 300.413074 
L 142.088331 300.857269 
L 143.76793 301.903736 
L 145.447528 302.221363 
L 147.127127 302.9373 
L 152.165923 304.451941 
L 153.845522 304.640294 
L 155.52512 305.54211 
L 157.204719 305.904826 
L 158.884318 306.698688 
L 160.563916 307.167533 
L 162.243515 307.383707 
L 163.923114 308.133482 
L 165.602712 308.473493 
L 167.282311 309.14798 
L 168.961909 309.615126 
L 170.641508 309.858641 
L 172.321107 310.518774 
L 174.000705 310.47286 
L 175.680304 311.556429 
L 177.359903 311.745531 
L 179.039501 312.179051 
L 180.7191 312.825949 
L 182.398699 312.991605 
L 184.078297 313.435945 
L 185.757896 314.051362 
L 187.437495 314.289419 
L 189.117093 314.794551 
L 190.796692 315.095995 
L 192.476291 315.127963 
L 194.155889 316.157194 
L 195.835488 316.500158 
L 197.515087 316.244714 
L 200.874284 317.345156 
L 202.553883 317.505716 
L 204.233481 317.800762 
L 207.592679 319.257699 
L 209.272277 319.180853 
L 215.990672 320.820348 
L 219.349869 321.095543 
L 221.029468 321.533215 
L 224.388665 322.134709 
L 226.068264 322.886826 
L 227.747863 322.460853 
L 229.427461 322.738228 
L 231.10706 323.371869 
L 232.786659 323.695621 
L 234.466257 324.332845 
L 236.145856 324.196738 
L 237.825455 324.84393 
L 239.505053 325.115196 
L 241.184652 325.261053 
L 242.864251 325.249112 
L 244.543849 325.703642 
L 246.223448 325.906403 
L 247.903047 325.86675 
L 249.582645 326.697783 
L 251.262244 326.968729 
L 252.941843 327.366062 
L 256.30104 327.547372 
L 259.660237 328.329266 
L 261.339836 328.476449 
L 263.019435 328.809821 
L 264.699033 328.964195 
L 266.378632 329.496629 
L 268.058231 329.635358 
L 269.737829 329.620985 
L 271.417428 329.870657 
L 273.097027 330.457007 
L 274.776625 330.534847 
L 286.533816 332.084205 
L 288.213415 332.259185 
L 289.893013 332.760915 
L 293.25221 333.177397 
L 294.931809 333.229986 
L 298.291006 333.616893 
L 299.970605 333.654935 
L 301.650204 334.408398 
L 303.329802 334.433671 
L 305.009401 334.30675 
L 308.368598 335.283936 
L 310.048197 335.381719 
L 313.407394 336.117958 
L 315.086993 335.942321 
L 316.766592 336.337036 
L 318.44619 336.41249 
L 320.125789 336.77728 
L 321.805388 336.71869 
L 323.484986 337.140058 
L 325.164585 337.167377 
L 326.844184 337.574836 
L 328.523782 337.435287 
L 330.203381 337.524689 
L 331.88298 337.952208 
L 335.242177 338.184311 
L 336.921776 338.689491 
L 340.280973 338.804283 
L 341.960572 339.26556 
L 343.64017 339.580871 
L 345.319769 339.4225 
L 346.999368 339.536667 
L 348.678966 339.844792 
L 353.717762 340.348605 
L 355.397361 340.822491 
L 358.756558 340.922949 
L 360.436157 341.074367 
L 362.115756 341.097704 
L 365.474953 341.671673 
L 367.154552 341.719799 
L 368.83415 342.115 
L 370.513749 342.056303 
L 373.872946 342.477421 
L 377.232144 342.725019 
L 378.911742 343.160562 
L 380.591341 343.235376 
L 382.27094 343.049613 
L 383.950538 343.730483 
L 385.630137 343.798796 
L 387.309736 343.689327 
L 388.989334 343.965969 
L 390.668933 343.879164 
L 392.348532 344.025037 
L 394.02813 344.591712 
L 397.387328 344.687027 
L 404.105722 345.323929 
L 405.785321 345.854302 
L 407.46492 345.580482 
L 410.824117 346.26524 
L 412.503716 346.024256 
L 414.183314 346.353465 
L 417.542511 346.465441 
L 419.22211 346.890205 
L 420.901709 346.793989 
L 424.260906 346.903038 
L 425.940505 347.606272 
L 427.620103 347.587845 
L 429.299702 347.297036 
L 430.979301 347.763306 
L 432.658899 347.987655 
L 436.018097 348.035566 
L 437.697695 348.614892 
L 439.377294 348.382508 
L 441.056893 348.288261 
L 442.736491 348.427057 
L 444.41609 349.1528 
L 446.095689 348.628185 
L 447.775287 349.033692 
L 449.454886 349.137228 
L 451.134485 349.387215 
L 452.814083 349.402917 
L 454.493682 349.585598 
L 456.173281 350.128718 
L 457.852879 349.594654 
L 459.532478 350.372043 
L 461.212077 350.203086 
L 462.891675 350.492677 
L 466.250873 350.075396 
L 469.61007 351.025948 
L 471.289669 351.172117 
L 472.969267 350.990781 
L 474.648866 351.076716 
L 476.328465 351.695536 
L 478.008063 351.426335 
L 483.046859 351.661761 
L 486.406057 352.424309 
L 488.085655 352.217341 
L 489.765254 352.308316 
L 491.444853 352.538628 
L 494.80405 352.757829 
L 498.163247 353.200405 
L 499.842846 353.178663 
L 501.522445 352.948201 
L 503.202043 353.041641 
L 504.881642 353.580447 
L 508.240839 353.626389 
L 511.600037 353.915371 
L 513.279635 354.027005 
L 514.959234 354.444269 
L 518.318431 354.226848 
L 519.99803 354.558606 
L 521.677629 354.455833 
L 523.357227 354.981409 
L 525.036826 354.799838 
L 526.716425 355.024547 
L 528.396023 355.478936 
L 530.075622 355.23515 
L 531.755221 355.242718 
L 533.434819 355.129936 
L 535.114418 355.648347 
L 536.794017 355.730572 
L 538.473615 355.454621 
L 540.153214 355.846528 
L 541.832813 355.896 
L 541.832813 355.896 
" clip-path="url(#p333a79e25a)" style="fill: none; stroke: #1f77b4; stroke-opacity: 0.55; stroke-width: 0.9; stroke-linecap: square"/>
   </g>
   <g id="line2d_24">
    <path d="M 39.632812 63.576 
L 41.312411 101.534398 
L 42.99201 122.753819 
L 44.671608 137.39532 
L 46.351207 148.436241 
L 48.030806 157.305986 
L 49.710404 164.701673 
L 51.390003 171.00817 
L 53.069602 176.498074 
L 54.7492 181.395311 
L 56.428799 185.804039 
L 58.108398 189.753659 
L 59.787996 193.400784 
L 61.467595 196.748911 
L 64.826792 202.717514 
L 68.18599 207.942578 
L 71.545187 212.563688 
L 74.904384 216.723697 
L 78.263582 220.481306 
L 81.622779 223.916577 
L 84.981976 227.064872 
L 88.341174 229.992087 
L 93.37997 234.012197 
L 98.418766 237.639826 
L 103.457562 240.959003 
L 108.496358 244.029673 
L 115.214752 247.759332 
L 121.933147 251.165661 
L 128.651542 254.278976 
L 135.369936 257.157675 
L 142.088331 259.824786 
L 150.486324 262.920427 
L 158.884318 265.764698 
L 167.282311 268.409942 
L 177.359903 271.349986 
L 189.117093 274.509569 
L 200.874284 277.406839 
L 214.311073 280.46262 
L 226.068264 282.94075 
L 242.864251 286.19529 
L 257.980639 288.885987 
L 274.776625 291.657367 
L 293.25221 294.468382 
L 313.407394 297.295418 
L 335.242177 300.119859 
L 357.07696 302.731548 
L 382.27094 305.510709 
L 407.46492 308.080765 
L 436.018097 310.774687 
L 462.891675 313.125164 
L 498.163247 315.979707 
L 533.434819 318.609511 
L 541.832813 319.205738 
L 541.832813 319.205738 
" clip-path="url(#p333a79e25a)" style="fill: none; stroke: #f0b429; stroke-width: 1.8; stroke-linecap: square"/>
   </g>
   <g id="line2d_25">
    <path d="M 39.632812 319.205738 
L 541.832813 319.205738 
" clip-path="url(#p333a79e25a)" style="fill: none; stroke-dasharray: 3.33,1.44; stroke-dashoffset: 0; stroke: #52616b; stroke-width: 0.9"/>
   </g>
   <g id="patch_3">
    <path d="M 39.632812 370.512 
L 39.632812 48.96 
" style="fill: none; stroke: #9fb3c8; stroke-width: 0.8; stroke-linejoin: miter; stroke-linecap: square"/>
   </g>
   <g id="patch_4">
    <path d="M 39.632812 370.512 
L 541.832813 370.512 
" style="fill: none; stroke: #9fb3c8; stroke-width: 0.8; stroke-linejoin: miter; stroke-linecap: square"/>
   </g>
   <g id="text_17">
    <!-- Partition and cumulative twin-event density from a complete scan of the accepted outgoing-gap repository -->
    <g style="fill: #52616b" transform="translate(49.513828 36.96) scale(0.09 -0.09)">
     <defs>
      <path id="DejaVuSans-50" d="M 1259 4147 
L 1259 2394 
L 2053 2394 
Q 2494 2394 2734 2622 
Q 2975 2850 2975 3272 
Q 2975 3691 2734 3919 
Q 2494 4147 2053 4147 
L 1259 4147 
z
M 628 4666 
L 2053 4666 
Q 2838 4666 3239 4311 
Q 3641 3956 3641 3272 
Q 3641 2581 3239 2228 
Q 2838 1875 2053 1875 
L 1259 1875 
L 1259 0 
L 628 0 
L 628 4666 
z
" transform="scale(0.015625)"/>
      <path id="DejaVuSans-64" d="M 2906 2969 
L 2906 4863 
L 3481 4863 
L 3481 0 
L 2906 0 
L 2906 525 
Q 2725 213 2448 61 
Q 2172 -91 1784 -91 
Q 1150 -91 751 415 
Q 353 922 353 1747 
Q 353 2572 751 3078 
Q 1150 3584 1784 3584 
Q 2172 3584 2448 3432 
Q 2725 3281 2906 2969 
z
M 947 1747 
Q 947 1113 1208 752 
Q 1469 391 1925 391 
Q 2381 391 2643 752 
Q 2906 1113 2906 1747 
Q 2906 2381 2643 2742 
Q 2381 3103 1925 3103 
Q 1469 3103 1208 2742 
Q 947 2381 947 1747 
z
" transform="scale(0.015625)"/>
      <path id="DejaVuSans-6d" d="M 3328 2828 
Q 3544 3216 3844 3400 
Q 4144 3584 4550 3584 
Q 5097 3584 5394 3201 
Q 5691 2819 5691 2113 
L 5691 0 
L 5113 0 
L 5113 2094 
Q 5113 2597 4934 2840 
Q 4756 3084 4391 3084 
Q 3944 3084 3684 2787 
Q 3425 2491 3425 1978 
L 3425 0 
L 2847 0 
L 2847 2094 
Q 2847 2600 2669 2842 
Q 2491 3084 2119 3084 
Q 1678 3084 1418 2786 
Q 1159 2488 1159 1978 
L 1159 0 
L 581 0 
L 581 3500 
L 1159 3500 
L 1159 2956 
Q 1356 3278 1631 3431 
Q 1906 3584 2284 3584 
Q 2666 3584 2933 3390 
Q 3200 3197 3328 2828 
z
" transform="scale(0.015625)"/>
      <path id="DejaVuSans-2d" d="M 313 2009 
L 1997 2009 
L 1997 1497 
L 313 1497 
L 313 2009 
z
" transform="scale(0.015625)"/>
      <path id="DejaVuSans-79" d="M 2059 -325 
Q 1816 -950 1584 -1140 
Q 1353 -1331 966 -1331 
L 506 -1331 
L 506 -850 
L 844 -850 
Q 1081 -850 1212 -737 
Q 1344 -625 1503 -206 
L 1606 56 
L 191 3500 
L 800 3500 
L 1894 763 
L 2988 3500 
L 3597 3500 
L 2059 -325 
z
" transform="scale(0.015625)"/>
      <path id="DejaVuSans-66" d="M 2375 4863 
L 2375 4384 
L 1825 4384 
Q 1516 4384 1395 4259 
Q 1275 4134 1275 3809 
L 1275 3500 
L 2222 3500 
L 2222 3053 
L 1275 3053 
L 1275 0 
L 697 0 
L 697 3053 
L 147 3053 
L 147 3500 
L 697 3500 
L 697 3744 
Q 697 4328 969 4595 
Q 1241 4863 1831 4863 
L 2375 4863 
z
" transform="scale(0.015625)"/>
      <path id="DejaVuSans-68" d="M 3513 2113 
L 3513 0 
L 2938 0 
L 2938 2094 
Q 2938 2591 2744 2837 
Q 2550 3084 2163 3084 
Q 1697 3084 1428 2787 
Q 1159 2491 1159 1978 
L 1159 0 
L 581 0 
L 581 4863 
L 1159 4863 
L 1159 2956 
Q 1366 3272 1645 3428 
Q 1925 3584 2291 3584 
Q 2894 3584 3203 3211 
Q 3513 2838 3513 2113 
z
" transform="scale(0.015625)"/>
     </defs>
     <use xlink:href="#DejaVuSans-50"/>
     <use xlink:href="#DejaVuSans-61" transform="translate(55.802734 0)"/>
     <use xlink:href="#DejaVuSans-72" transform="translate(117.082031 0)"/>
     <use xlink:href="#DejaVuSans-74" transform="translate(158.195312 0)"/>
     <use xlink:href="#DejaVuSans-69" transform="translate(197.404297 0)"/>
     <use xlink:href="#DejaVuSans-74" transform="translate(225.1875 0)"/>
     <use xlink:href="#DejaVuSans-69" transform="translate(264.396484 0)"/>
     <use xlink:href="#DejaVuSans-6f" transform="translate(292.179688 0)"/>
     <use xlink:href="#DejaVuSans-6e" transform="translate(353.361328 0)"/>
     <use xlink:href="#DejaVuSans-20" transform="translate(416.740234 0)"/>
     <use xlink:href="#DejaVuSans-61" transform="translate(448.527344 0)"/>
     <use xlink:href="#DejaVuSans-6e" transform="translate(509.806641 0)"/>
     <use xlink:href="#DejaVuSans-64" transform="translate(573.185547 0)"/>
     <use xlink:href="#DejaVuSans-20" transform="translate(636.662109 0)"/>
     <use xlink:href="#DejaVuSans-63" transform="translate(668.449219 0)"/>
     <use xlink:href="#DejaVuSans-75" transform="translate(723.429688 0)"/>
     <use xlink:href="#DejaVuSans-6d" transform="translate(786.808594 0)"/>
     <use xlink:href="#DejaVuSans-75" transform="translate(884.220703 0)"/>
     <use xlink:href="#DejaVuSans-6c" transform="translate(947.599609 0)"/>
     <use xlink:href="#DejaVuSans-61" transform="translate(975.382812 0)"/>
     <use xlink:href="#DejaVuSans-74" transform="translate(1036.662109 0)"/>
     <use xlink:href="#DejaVuSans-69" transform="translate(1075.871094 0)"/>
     <use xlink:href="#DejaVuSans-76" transform="translate(1103.654297 0)"/>
     <use xlink:href="#DejaVuSans-65" transform="translate(1162.833984 0)"/>
     <use xlink:href="#DejaVuSans-20" transform="translate(1224.357422 0)"/>
     <use xlink:href="#DejaVuSans-74" transform="translate(1256.144531 0)"/>
     <use xlink:href="#DejaVuSans-77" transform="translate(1295.353516 0)"/>
     <use xlink:href="#DejaVuSans-69" transform="translate(1377.140625 0)"/>
     <use xlink:href="#DejaVuSans-6e" transform="translate(1404.923828 0)"/>
     <use xlink:href="#DejaVuSans-2d" transform="translate(1468.302734 0)"/>
     <use xlink:href="#DejaVuSans-65" transform="translate(1504.386719 0)"/>
     <use xlink:href="#DejaVuSans-76" transform="translate(1565.910156 0)"/>
     <use xlink:href="#DejaVuSans-65" transform="translate(1625.089844 0)"/>
     <use xlink:href="#DejaVuSans-6e" transform="translate(1686.613281 0)"/>
     <use xlink:href="#DejaVuSans-74" transform="translate(1749.992188 0)"/>
     <use xlink:href="#DejaVuSans-20" transform="translate(1789.201172 0)"/>
     <use xlink:href="#DejaVuSans-64" transform="translate(1820.988281 0)"/>
     <use xlink:href="#DejaVuSans-65" transform="translate(1884.464844 0)"/>
     <use xlink:href="#DejaVuSans-6e" transform="translate(1945.988281 0)"/>
     <use xlink:href="#DejaVuSans-73" transform="translate(2009.367188 0)"/>
     <use xlink:href="#DejaVuSans-69" transform="translate(2061.466797 0)"/>
     <use xlink:href="#DejaVuSans-74" transform="translate(2089.25 0)"/>
     <use xlink:href="#DejaVuSans-79" transform="translate(2128.458984 0)"/>
     <use xlink:href="#DejaVuSans-20" transform="translate(2187.638672 0)"/>
     <use xlink:href="#DejaVuSans-66" transform="translate(2219.425781 0)"/>
     <use xlink:href="#DejaVuSans-72" transform="translate(2254.630859 0)"/>
     <use xlink:href="#DejaVuSans-6f" transform="translate(2293.494141 0)"/>
     <use xlink:href="#DejaVuSans-6d" transform="translate(2354.675781 0)"/>
     <use xlink:href="#DejaVuSans-20" transform="translate(2452.087891 0)"/>
     <use xlink:href="#DejaVuSans-61" transform="translate(2483.875 0)"/>
     <use xlink:href="#DejaVuSans-20" transform="translate(2545.154297 0)"/>
     <use xlink:href="#DejaVuSans-63" transform="translate(2576.941406 0)"/>
     <use xlink:href="#DejaVuSans-6f" transform="translate(2631.921875 0)"/>
     <use xlink:href="#DejaVuSans-6d" transform="translate(2693.103516 0)"/>
     <use xlink:href="#DejaVuSans-70" transform="translate(2790.515625 0)"/>
     <use xlink:href="#DejaVuSans-6c" transform="translate(2853.992188 0)"/>
     <use xlink:href="#DejaVuSans-65" transform="translate(2881.775391 0)"/>
     <use xlink:href="#DejaVuSans-74" transform="translate(2943.298828 0)"/>
     <use xlink:href="#DejaVuSans-65" transform="translate(2982.507812 0)"/>
     <use xlink:href="#DejaVuSans-20" transform="translate(3044.03125 0)"/>
     <use xlink:href="#DejaVuSans-73" transform="translate(3075.818359 0)"/>
     <use xlink:href="#DejaVuSans-63" transform="translate(3127.917969 0)"/>
     <use xlink:href="#DejaVuSans-61" transform="translate(3182.898438 0)"/>
     <use xlink:href="#DejaVuSans-6e" transform="translate(3244.177734 0)"/>
     <use xlink:href="#DejaVuSans-20" transform="translate(3307.556641 0)"/>
     <use xlink:href="#DejaVuSans-6f" transform="translate(3339.34375 0)"/>
     <use xlink:href="#DejaVuSans-66" transform="translate(3400.525391 0)"/>
     <use xlink:href="#DejaVuSans-20" transform="translate(3435.730469 0)"/>
     <use xlink:href="#DejaVuSans-74" transform="translate(3467.517578 0)"/>
     <use xlink:href="#DejaVuSans-68" transform="translate(3506.726562 0)"/>
     <use xlink:href="#DejaVuSans-65" transform="translate(3570.105469 0)"/>
     <use xlink:href="#DejaVuSans-20" transform="translate(3631.628906 0)"/>
     <use xlink:href="#DejaVuSans-61" transform="translate(3663.416016 0)"/>
     <use xlink:href="#DejaVuSans-63" transform="translate(3724.695312 0)"/>
     <use xlink:href="#DejaVuSans-63" transform="translate(3779.675781 0)"/>
     <use xlink:href="#DejaVuSans-65" transform="translate(3834.65625 0)"/>
     <use xlink:href="#DejaVuSans-70" transform="translate(3896.179688 0)"/>
     <use xlink:href="#DejaVuSans-74" transform="translate(3959.65625 0)"/>
     <use xlink:href="#DejaVuSans-65" transform="translate(3998.865234 0)"/>
     <use xlink:href="#DejaVuSans-64" transform="translate(4060.388672 0)"/>
     <use xlink:href="#DejaVuSans-20" transform="translate(4123.865234 0)"/>
     <use xlink:href="#DejaVuSans-6f" transform="translate(4155.652344 0)"/>
     <use xlink:href="#DejaVuSans-75" transform="translate(4216.833984 0)"/>
     <use xlink:href="#DejaVuSans-74" transform="translate(4280.212891 0)"/>
     <use xlink:href="#DejaVuSans-67" transform="translate(4319.421875 0)"/>
     <use xlink:href="#DejaVuSans-6f" transform="translate(4382.898438 0)"/>
     <use xlink:href="#DejaVuSans-69" transform="translate(4444.080078 0)"/>
     <use xlink:href="#DejaVuSans-6e" transform="translate(4471.863281 0)"/>
     <use xlink:href="#DejaVuSans-67" transform="translate(4535.242188 0)"/>
     <use xlink:href="#DejaVuSans-2d" transform="translate(4598.71875 0)"/>
     <use xlink:href="#DejaVuSans-67" transform="translate(4634.802734 0)"/>
     <use xlink:href="#DejaVuSans-61" transform="translate(4698.279297 0)"/>
     <use xlink:href="#DejaVuSans-70" transform="translate(4759.558594 0)"/>
     <use xlink:href="#DejaVuSans-20" transform="translate(4823.035156 0)"/>
     <use xlink:href="#DejaVuSans-72" transform="translate(4854.822266 0)"/>
     <use xlink:href="#DejaVuSans-65" transform="translate(4893.685547 0)"/>
     <use xlink:href="#DejaVuSans-70" transform="translate(4955.208984 0)"/>
     <use xlink:href="#DejaVuSans-6f" transform="translate(5018.685547 0)"/>
     <use xlink:href="#DejaVuSans-73" transform="translate(5079.867188 0)"/>
     <use xlink:href="#DejaVuSans-69" transform="translate(5131.966797 0)"/>
     <use xlink:href="#DejaVuSans-74" transform="translate(5159.75 0)"/>
     <use xlink:href="#DejaVuSans-6f" transform="translate(5198.958984 0)"/>
     <use xlink:href="#DejaVuSans-72" transform="translate(5260.140625 0)"/>
     <use xlink:href="#DejaVuSans-79" transform="translate(5301.253906 0)"/>
    </g>
   </g>
   <g id="legend_1">
    <g id="line2d_26">
     <path d="M 416.701563 59.43875 
L 424.701563 59.43875 
L 432.701563 59.43875 
" style="fill: none; stroke: #1f77b4; stroke-opacity: 0.55; stroke-width: 0.9; stroke-linecap: square"/>
    </g>
    <g id="text_18">
     <!-- Partition density -->
     <g transform="translate(439.101562 62.23875) scale(0.08 -0.08)">
      <use xlink:href="#DejaVuSans-50"/>
      <use xlink:href="#DejaVuSans-61" transform="translate(55.802734 0)"/>
      <use xlink:href="#DejaVuSans-72" transform="translate(117.082031 0)"/>
      <use xlink:href="#DejaVuSans-74" transform="translate(158.195312 0)"/>
      <use xlink:href="#DejaVuSans-69" transform="translate(197.404297 0)"/>
      <use xlink:href="#DejaVuSans-74" transform="translate(225.1875 0)"/>
      <use xlink:href="#DejaVuSans-69" transform="translate(264.396484 0)"/>
      <use xlink:href="#DejaVuSans-6f" transform="translate(292.179688 0)"/>
      <use xlink:href="#DejaVuSans-6e" transform="translate(353.361328 0)"/>
      <use xlink:href="#DejaVuSans-20" transform="translate(416.740234 0)"/>
      <use xlink:href="#DejaVuSans-64" transform="translate(448.527344 0)"/>
      <use xlink:href="#DejaVuSans-65" transform="translate(512.003906 0)"/>
      <use xlink:href="#DejaVuSans-6e" transform="translate(573.527344 0)"/>
      <use xlink:href="#DejaVuSans-73" transform="translate(636.90625 0)"/>
      <use xlink:href="#DejaVuSans-69" transform="translate(689.005859 0)"/>
      <use xlink:href="#DejaVuSans-74" transform="translate(716.789062 0)"/>
      <use xlink:href="#DejaVuSans-79" transform="translate(755.998047 0)"/>
     </g>
    </g>
    <g id="line2d_27">
     <path d="M 416.701563 71.18125 
L 424.701563 71.18125 
L 432.701563 71.18125 
" style="fill: none; stroke: #f0b429; stroke-width: 1.8; stroke-linecap: square"/>
    </g>
    <g id="text_19">
     <!-- Cumulative density -->
     <g transform="translate(439.101562 73.98125) scale(0.08 -0.08)">
      <use xlink:href="#DejaVuSans-43"/>
      <use xlink:href="#DejaVuSans-75" transform="translate(69.824219 0)"/>
      <use xlink:href="#DejaVuSans-6d" transform="translate(133.203125 0)"/>
      <use xlink:href="#DejaVuSans-75" transform="translate(230.615234 0)"/>
      <use xlink:href="#DejaVuSans-6c" transform="translate(293.994141 0)"/>
      <use xlink:href="#DejaVuSans-61" transform="translate(321.777344 0)"/>
      <use xlink:href="#DejaVuSans-74" transform="translate(383.056641 0)"/>
      <use xlink:href="#DejaVuSans-69" transform="translate(422.265625 0)"/>
      <use xlink:href="#DejaVuSans-76" transform="translate(450.048828 0)"/>
      <use xlink:href="#DejaVuSans-65" transform="translate(509.228516 0)"/>
      <use xlink:href="#DejaVuSans-20" transform="translate(570.751953 0)"/>
      <use xlink:href="#DejaVuSans-64" transform="translate(602.539062 0)"/>
      <use xlink:href="#DejaVuSans-65" transform="translate(666.015625 0)"/>
      <use xlink:href="#DejaVuSans-6e" transform="translate(727.539062 0)"/>
      <use xlink:href="#DejaVuSans-73" transform="translate(790.917969 0)"/>
      <use xlink:href="#DejaVuSans-69" transform="translate(843.017578 0)"/>
      <use xlink:href="#DejaVuSans-74" transform="translate(870.800781 0)"/>
      <use xlink:href="#DejaVuSans-79" transform="translate(910.009766 0)"/>
     </g>
    </g>
    <g id="line2d_28">
     <path d="M 416.701563 82.92375 
L 424.701563 82.92375 
L 432.701563 82.92375 
" style="fill: none; stroke-dasharray: 3.33,1.44; stroke-dashoffset: 0; stroke: #52616b; stroke-width: 0.9"/>
    </g>
    <g id="text_20">
     <!-- Global density 4.7755% -->
     <g transform="translate(439.101562 85.72375) scale(0.08 -0.08)">
      <defs>
       <path id="DejaVuSans-47" d="M 3809 666 
L 3809 1919 
L 2778 1919 
L 2778 2438 
L 4434 2438 
L 4434 434 
Q 4069 175 3628 42 
Q 3188 -91 2688 -91 
Q 1594 -91 976 548 
Q 359 1188 359 2328 
Q 359 3472 976 4111 
Q 1594 4750 2688 4750 
Q 3144 4750 3555 4637 
Q 3966 4525 4313 4306 
L 4313 3634 
Q 3963 3931 3569 4081 
Q 3175 4231 2741 4231 
Q 1884 4231 1454 3753 
Q 1025 3275 1025 2328 
Q 1025 1384 1454 906 
Q 1884 428 2741 428 
Q 3075 428 3337 486 
Q 3600 544 3809 666 
z
" transform="scale(0.015625)"/>
       <path id="DejaVuSans-62" d="M 3116 1747 
Q 3116 2381 2855 2742 
Q 2594 3103 2138 3103 
Q 1681 3103 1420 2742 
Q 1159 2381 1159 1747 
Q 1159 1113 1420 752 
Q 1681 391 2138 391 
Q 2594 391 2855 752 
Q 3116 1113 3116 1747 
z
M 1159 2969 
Q 1341 3281 1617 3432 
Q 1894 3584 2278 3584 
Q 2916 3584 3314 3078 
Q 3713 2572 3713 1747 
Q 3713 922 3314 415 
Q 2916 -91 2278 -91 
Q 1894 -91 1617 61 
Q 1341 213 1159 525 
L 1159 0 
L 581 0 
L 581 4863 
L 1159 4863 
L 1159 2969 
z
" transform="scale(0.015625)"/>
       <path id="DejaVuSans-37" d="M 525 4666 
L 3525 4666 
L 3525 4397 
L 1831 0 
L 1172 0 
L 2766 4134 
L 525 4134 
L 525 4666 
z
" transform="scale(0.015625)"/>
      </defs>
      <use xlink:href="#DejaVuSans-47"/>
      <use xlink:href="#DejaVuSans-6c" transform="translate(77.490234 0)"/>
      <use xlink:href="#DejaVuSans-6f" transform="translate(105.273438 0)"/>
      <use xlink:href="#DejaVuSans-62" transform="translate(166.455078 0)"/>
      <use xlink:href="#DejaVuSans-61" transform="translate(229.931641 0)"/>
      <use xlink:href="#DejaVuSans-6c" transform="translate(291.210938 0)"/>
      <use xlink:href="#DejaVuSans-20" transform="translate(318.994141 0)"/>
      <use xlink:href="#DejaVuSans-64" transform="translate(350.78125 0)"/>
      <use xlink:href="#DejaVuSans-65" transform="translate(414.257812 0)"/>
      <use xlink:href="#DejaVuSans-6e" transform="translate(475.78125 0)"/>
      <use xlink:href="#DejaVuSans-73" transform="translate(539.160156 0)"/>
      <use xlink:href="#DejaVuSans-69" transform="translate(591.259766 0)"/>
      <use xlink:href="#DejaVuSans-74" transform="translate(619.042969 0)"/>
      <use xlink:href="#DejaVuSans-79" transform="translate(658.251953 0)"/>
      <use xlink:href="#DejaVuSans-20" transform="translate(717.431641 0)"/>
      <use xlink:href="#DejaVuSans-34" transform="translate(749.21875 0)"/>
      <use xlink:href="#DejaVuSans-2e" transform="translate(812.841797 0)"/>
      <use xlink:href="#DejaVuSans-37" transform="translate(844.628906 0)"/>
      <use xlink:href="#DejaVuSans-37" transform="translate(908.251953 0)"/>
      <use xlink:href="#DejaVuSans-35" transform="translate(971.875 0)"/>
      <use xlink:href="#DejaVuSans-35" transform="translate(1035.498047 0)"/>
      <use xlink:href="#DejaVuSans-25" transform="translate(1099.121094 0)"/>
     </g>
    </g>
   </g>
  </g>
  <g id="text_21">
   <!-- Twin-Prime Observatory Output -->
   <g style="fill: #1f2933" transform="translate(139.704062 19.3575) scale(0.16 -0.16)">
    <defs>
     <path id="DejaVuSans-Bold-54" d="M 31 4666 
L 4331 4666 
L 4331 3756 
L 2784 3756 
L 2784 0 
L 1581 0 
L 1581 3756 
L 31 3756 
L 31 4666 
z
" transform="scale(0.015625)"/>
     <path id="DejaVuSans-Bold-77" d="M 225 3500 
L 1313 3500 
L 1900 1088 
L 2491 3500 
L 3425 3500 
L 4013 1113 
L 4603 3500 
L 5691 3500 
L 4769 0 
L 3547 0 
L 2956 2406 
L 2369 0 
L 1147 0 
L 225 3500 
z
" transform="scale(0.015625)"/>
     <path id="DejaVuSans-Bold-69" d="M 538 3500 
L 1656 3500 
L 1656 0 
L 538 0 
L 538 3500 
z
M 538 4863 
L 1656 4863 
L 1656 3950 
L 538 3950 
L 538 4863 
z
" transform="scale(0.015625)"/>
     <path id="DejaVuSans-Bold-6e" d="M 4056 2131 
L 4056 0 
L 2931 0 
L 2931 347 
L 2931 1631 
Q 2931 2084 2911 2256 
Q 2891 2428 2841 2509 
Q 2775 2619 2662 2680 
Q 2550 2741 2406 2741 
Q 2056 2741 1856 2470 
Q 1656 2200 1656 1722 
L 1656 0 
L 538 0 
L 538 3500 
L 1656 3500 
L 1656 2988 
Q 1909 3294 2193 3439 
Q 2478 3584 2822 3584 
Q 3428 3584 3742 3212 
Q 4056 2841 4056 2131 
z
" transform="scale(0.015625)"/>
     <path id="DejaVuSans-Bold-2d" d="M 347 2297 
L 2309 2297 
L 2309 1388 
L 347 1388 
L 347 2297 
z
" transform="scale(0.015625)"/>
     <path id="DejaVuSans-Bold-50" d="M 588 4666 
L 2584 4666 
Q 3475 4666 3951 4270 
Q 4428 3875 4428 3144 
Q 4428 2409 3951 2014 
Q 3475 1619 2584 1619 
L 1791 1619 
L 1791 0 
L 588 0 
L 588 4666 
z
M 1791 3794 
L 1791 2491 
L 2456 2491 
Q 2806 2491 2997 2661 
Q 3188 2831 3188 3144 
Q 3188 3456 2997 3625 
Q 2806 3794 2456 3794 
L 1791 3794 
z
" transform="scale(0.015625)"/>
     <path id="DejaVuSans-Bold-72" d="M 3138 2547 
Q 2991 2616 2845 2648 
Q 2700 2681 2553 2681 
Q 2122 2681 1889 2404 
Q 1656 2128 1656 1613 
L 1656 0 
L 538 0 
L 538 3500 
L 1656 3500 
L 1656 2925 
Q 1872 3269 2151 3426 
Q 2431 3584 2822 3584 
Q 2878 3584 2943 3579 
Q 3009 3575 3134 3559 
L 3138 2547 
z
" transform="scale(0.015625)"/>
     <path id="DejaVuSans-Bold-6d" d="M 3781 2919 
Q 3994 3244 4286 3414 
Q 4578 3584 4928 3584 
Q 5531 3584 5847 3212 
Q 6163 2841 6163 2131 
L 6163 0 
L 5038 0 
L 5038 1825 
Q 5041 1866 5042 1909 
Q 5044 1953 5044 2034 
Q 5044 2406 4934 2573 
Q 4825 2741 4581 2741 
Q 4263 2741 4089 2478 
Q 3916 2216 3909 1719 
L 3909 0 
L 2784 0 
L 2784 1825 
Q 2784 2406 2684 2573 
Q 2584 2741 2328 2741 
Q 2006 2741 1831 2477 
Q 1656 2213 1656 1722 
L 1656 0 
L 531 0 
L 531 3500 
L 1656 3500 
L 1656 2988 
Q 1863 3284 2130 3434 
Q 2397 3584 2719 3584 
Q 3081 3584 3359 3409 
Q 3638 3234 3781 2919 
z
" transform="scale(0.015625)"/>
     <path id="DejaVuSans-Bold-65" d="M 4031 1759 
L 4031 1441 
L 1416 1441 
Q 1456 1047 1700 850 
Q 1944 653 2381 653 
Q 2734 653 3104 758 
Q 3475 863 3866 1075 
L 3866 213 
Q 3469 63 3072 -14 
Q 2675 -91 2278 -91 
Q 1328 -91 801 392 
Q 275 875 275 1747 
Q 275 2603 792 3093 
Q 1309 3584 2216 3584 
Q 3041 3584 3536 3087 
Q 4031 2591 4031 1759 
z
M 2881 2131 
Q 2881 2450 2695 2645 
Q 2509 2841 2209 2841 
Q 1884 2841 1681 2658 
Q 1478 2475 1428 2131 
L 2881 2131 
z
" transform="scale(0.015625)"/>
     <path id="DejaVuSans-Bold-20" transform="scale(0.015625)"/>
     <path id="DejaVuSans-Bold-4f" d="M 2719 3878 
Q 2169 3878 1866 3472 
Q 1563 3066 1563 2328 
Q 1563 1594 1866 1187 
Q 2169 781 2719 781 
Q 3272 781 3575 1187 
Q 3878 1594 3878 2328 
Q 3878 3066 3575 3472 
Q 3272 3878 2719 3878 
z
M 2719 4750 
Q 3844 4750 4481 4106 
Q 5119 3463 5119 2328 
Q 5119 1197 4481 553 
Q 3844 -91 2719 -91 
Q 1597 -91 958 553 
Q 319 1197 319 2328 
Q 319 3463 958 4106 
Q 1597 4750 2719 4750 
z
" transform="scale(0.015625)"/>
     <path id="DejaVuSans-Bold-62" d="M 2400 722 
Q 2759 722 2948 984 
Q 3138 1247 3138 1747 
Q 3138 2247 2948 2509 
Q 2759 2772 2400 2772 
Q 2041 2772 1848 2508 
Q 1656 2244 1656 1747 
Q 1656 1250 1848 986 
Q 2041 722 2400 722 
z
M 1656 2988 
Q 1888 3294 2169 3439 
Q 2450 3584 2816 3584 
Q 3463 3584 3878 3070 
Q 4294 2556 4294 1747 
Q 4294 938 3878 423 
Q 3463 -91 2816 -91 
Q 2450 -91 2169 54 
Q 1888 200 1656 506 
L 1656 0 
L 538 0 
L 538 4863 
L 1656 4863 
L 1656 2988 
z
" transform="scale(0.015625)"/>
     <path id="DejaVuSans-Bold-73" d="M 3272 3391 
L 3272 2541 
Q 2913 2691 2578 2766 
Q 2244 2841 1947 2841 
Q 1628 2841 1473 2761 
Q 1319 2681 1319 2516 
Q 1319 2381 1436 2309 
Q 1553 2238 1856 2203 
L 2053 2175 
Q 2913 2066 3209 1816 
Q 3506 1566 3506 1031 
Q 3506 472 3093 190 
Q 2681 -91 1863 -91 
Q 1516 -91 1145 -36 
Q 775 19 384 128 
L 384 978 
Q 719 816 1070 734 
Q 1422 653 1784 653 
Q 2113 653 2278 743 
Q 2444 834 2444 1013 
Q 2444 1163 2330 1236 
Q 2216 1309 1875 1350 
L 1678 1375 
Q 931 1469 631 1722 
Q 331 1975 331 2491 
Q 331 3047 712 3315 
Q 1094 3584 1881 3584 
Q 2191 3584 2531 3537 
Q 2872 3491 3272 3391 
z
" transform="scale(0.015625)"/>
     <path id="DejaVuSans-Bold-76" d="M 97 3500 
L 1216 3500 
L 2088 1081 
L 2956 3500 
L 4078 3500 
L 2700 0 
L 1472 0 
L 97 3500 
z
" transform="scale(0.015625)"/>
     <path id="DejaVuSans-Bold-61" d="M 2106 1575 
Q 1756 1575 1579 1456 
Q 1403 1338 1403 1106 
Q 1403 894 1545 773 
Q 1688 653 1941 653 
Q 2256 653 2472 879 
Q 2688 1106 2688 1447 
L 2688 1575 
L 2106 1575 
z
M 3816 1997 
L 3816 0 
L 2688 0 
L 2688 519 
Q 2463 200 2181 54 
Q 1900 -91 1497 -91 
Q 953 -91 614 226 
Q 275 544 275 1050 
Q 275 1666 698 1953 
Q 1122 2241 2028 2241 
L 2688 2241 
L 2688 2328 
Q 2688 2594 2478 2717 
Q 2269 2841 1825 2841 
Q 1466 2841 1156 2769 
Q 847 2697 581 2553 
L 581 3406 
Q 941 3494 1303 3539 
Q 1666 3584 2028 3584 
Q 2975 3584 3395 3211 
Q 3816 2838 3816 1997 
z
" transform="scale(0.015625)"/>
     <path id="DejaVuSans-Bold-74" d="M 1759 4494 
L 1759 3500 
L 2913 3500 
L 2913 2700 
L 1759 2700 
L 1759 1216 
Q 1759 972 1856 886 
Q 1953 800 2241 800 
L 2816 800 
L 2816 0 
L 1856 0 
Q 1194 0 917 276 
Q 641 553 641 1216 
L 641 2700 
L 84 2700 
L 84 3500 
L 641 3500 
L 641 4494 
L 1759 4494 
z
" transform="scale(0.015625)"/>
     <path id="DejaVuSans-Bold-6f" d="M 2203 2784 
Q 1831 2784 1636 2517 
Q 1441 2250 1441 1747 
Q 1441 1244 1636 976 
Q 1831 709 2203 709 
Q 2569 709 2762 976 
Q 2956 1244 2956 1747 
Q 2956 2250 2762 2517 
Q 2569 2784 2203 2784 
z
M 2203 3584 
Q 3106 3584 3614 3096 
Q 4122 2609 4122 1747 
Q 4122 884 3614 396 
Q 3106 -91 2203 -91 
Q 1297 -91 786 396 
Q 275 884 275 1747 
Q 275 2609 786 3096 
Q 1297 3584 2203 3584 
z
" transform="scale(0.015625)"/>
     <path id="DejaVuSans-Bold-79" d="M 78 3500 
L 1197 3500 
L 2138 1125 
L 2938 3500 
L 4056 3500 
L 2584 -331 
Q 2363 -916 2067 -1148 
Q 1772 -1381 1288 -1381 
L 641 -1381 
L 641 -647 
L 991 -647 
Q 1275 -647 1404 -556 
Q 1534 -466 1606 -231 
L 1638 -134 
L 78 3500 
z
" transform="scale(0.015625)"/>
     <path id="DejaVuSans-Bold-75" d="M 500 1363 
L 500 3500 
L 1625 3500 
L 1625 3150 
Q 1625 2866 1622 2436 
Q 1619 2006 1619 1863 
Q 1619 1441 1641 1255 
Q 1663 1069 1716 984 
Q 1784 875 1895 815 
Q 2006 756 2150 756 
Q 2500 756 2700 1025 
Q 2900 1294 2900 1772 
L 2900 3500 
L 4019 3500 
L 4019 0 
L 2900 0 
L 2900 506 
Q 2647 200 2364 54 
Q 2081 -91 1741 -91 
Q 1134 -91 817 281 
Q 500 653 500 1363 
z
" transform="scale(0.015625)"/>
     <path id="DejaVuSans-Bold-70" d="M 1656 506 
L 1656 -1331 
L 538 -1331 
L 538 3500 
L 1656 3500 
L 1656 2988 
Q 1888 3294 2169 3439 
Q 2450 3584 2816 3584 
Q 3463 3584 3878 3070 
Q 4294 2556 4294 1747 
Q 4294 938 3878 423 
Q 3463 -91 2816 -91 
Q 2450 -91 2169 54 
Q 1888 200 1656 506 
z
M 2400 2772 
Q 2041 2772 1848 2508 
Q 1656 2244 1656 1747 
Q 1656 1250 1848 986 
Q 2041 722 2400 722 
Q 2759 722 2948 984 
Q 3138 1247 3138 1747 
Q 3138 2247 2948 2509 
Q 2759 2772 2400 2772 
z
" transform="scale(0.015625)"/>
    </defs>
    <use xlink:href="#DejaVuSans-Bold-54"/>
    <use xlink:href="#DejaVuSans-Bold-77" transform="translate(57.212891 0)"/>
    <use xlink:href="#DejaVuSans-Bold-69" transform="translate(149.595703 0)"/>
    <use xlink:href="#DejaVuSans-Bold-6e" transform="translate(183.873047 0)"/>
    <use xlink:href="#DejaVuSans-Bold-2d" transform="translate(255.064453 0)"/>
    <use xlink:href="#DejaVuSans-Bold-50" transform="translate(296.568359 0)"/>
    <use xlink:href="#DejaVuSans-Bold-72" transform="translate(369.859375 0)"/>
    <use xlink:href="#DejaVuSans-Bold-69" transform="translate(419.175781 0)"/>
    <use xlink:href="#DejaVuSans-Bold-6d" transform="translate(453.453125 0)"/>
    <use xlink:href="#DejaVuSans-Bold-65" transform="translate(557.652344 0)"/>
    <use xlink:href="#DejaVuSans-Bold-20" transform="translate(625.474609 0)"/>
    <use xlink:href="#DejaVuSans-Bold-4f" transform="translate(660.289062 0)"/>
    <use xlink:href="#DejaVuSans-Bold-62" transform="translate(745.298828 0)"/>
    <use xlink:href="#DejaVuSans-Bold-73" transform="translate(816.880859 0)"/>
    <use xlink:href="#DejaVuSans-Bold-65" transform="translate(876.402344 0)"/>
    <use xlink:href="#DejaVuSans-Bold-72" transform="translate(944.224609 0)"/>
    <use xlink:href="#DejaVuSans-Bold-76" transform="translate(993.541016 0)"/>
    <use xlink:href="#DejaVuSans-Bold-61" transform="translate(1058.726562 0)"/>
    <use xlink:href="#DejaVuSans-Bold-74" transform="translate(1126.207031 0)"/>
    <use xlink:href="#DejaVuSans-Bold-6f" transform="translate(1174.009766 0)"/>
    <use xlink:href="#DejaVuSans-Bold-72" transform="translate(1242.710938 0)"/>
    <use xlink:href="#DejaVuSans-Bold-79" transform="translate(1292.027344 0)"/>
    <use xlink:href="#DejaVuSans-Bold-20" transform="translate(1357.212891 0)"/>
    <use xlink:href="#DejaVuSans-Bold-4f" transform="translate(1392.027344 0)"/>
    <use xlink:href="#DejaVuSans-Bold-75" transform="translate(1477.037109 0)"/>
    <use xlink:href="#DejaVuSans-Bold-74" transform="translate(1548.228516 0)"/>
    <use xlink:href="#DejaVuSans-Bold-70" transform="translate(1596.03125 0)"/>
    <use xlink:href="#DejaVuSans-Bold-75" transform="translate(1667.613281 0)"/>
    <use xlink:href="#DejaVuSans-Bold-74" transform="translate(1738.804688 0)"/>
   </g>
  </g>
  <g id="text_22">
   <!-- Complete finite-domain observation: 108,340,298,703 gaps · 5,173,760,785 twin events · event definition g(i) = 2. -->
   <g style="fill: #52616b" transform="translate(66.448828 409.877034) scale(0.075 -0.075)">
    <defs>
     <path id="DejaVuSans-3a" d="M 750 794 
L 1409 794 
L 1409 0 
L 750 0 
L 750 794 
z
M 750 3309 
L 1409 3309 
L 1409 2516 
L 750 2516 
L 750 3309 
z
" transform="scale(0.015625)"/>
     <path id="DejaVuSans-2c" d="M 750 794 
L 1409 794 
L 1409 256 
L 897 -744 
L 494 -744 
L 750 256 
L 750 794 
z
" transform="scale(0.015625)"/>
     <path id="DejaVuSans-39" d="M 703 97 
L 703 672 
Q 941 559 1184 500 
Q 1428 441 1663 441 
Q 2288 441 2617 861 
Q 2947 1281 2994 2138 
Q 2813 1869 2534 1725 
Q 2256 1581 1919 1581 
Q 1219 1581 811 2004 
Q 403 2428 403 3163 
Q 403 3881 828 4315 
Q 1253 4750 1959 4750 
Q 2769 4750 3195 4129 
Q 3622 3509 3622 2328 
Q 3622 1225 3098 567 
Q 2575 -91 1691 -91 
Q 1453 -91 1209 -44 
Q 966 3 703 97 
z
M 1959 2075 
Q 2384 2075 2632 2365 
Q 2881 2656 2881 3163 
Q 2881 3666 2632 3958 
Q 2384 4250 1959 4250 
Q 1534 4250 1286 3958 
Q 1038 3666 1038 3163 
Q 1038 2656 1286 2365 
Q 1534 2075 1959 2075 
z
" transform="scale(0.015625)"/>
     <path id="DejaVuSans-b7" d="M 684 2619 
L 1344 2619 
L 1344 1825 
L 684 1825 
L 684 2619 
z
" transform="scale(0.015625)"/>
     <path id="DejaVuSans-3d" d="M 678 2906 
L 4684 2906 
L 4684 2381 
L 678 2381 
L 678 2906 
z
M 678 1631 
L 4684 1631 
L 4684 1100 
L 678 1100 
L 678 1631 
z
" transform="scale(0.015625)"/>
    </defs>
    <use xlink:href="#DejaVuSans-43"/>
    <use xlink:href="#DejaVuSans-6f" transform="translate(69.824219 0)"/>
    <use xlink:href="#DejaVuSans-6d" transform="translate(131.005859 0)"/>
    <use xlink:href="#DejaVuSans-70" transform="translate(228.417969 0)"/>
    <use xlink:href="#DejaVuSans-6c" transform="translate(291.894531 0)"/>
    <use xlink:href="#DejaVuSans-65" transform="translate(319.677734 0)"/>
    <use xlink:href="#DejaVuSans-74" transform="translate(381.201172 0)"/>
    <use xlink:href="#DejaVuSans-65" transform="translate(420.410156 0)"/>
    <use xlink:href="#DejaVuSans-20" transform="translate(481.933594 0)"/>
    <use xlink:href="#DejaVuSans-66" transform="translate(513.720703 0)"/>
    <use xlink:href="#DejaVuSans-69" transform="translate(548.925781 0)"/>
    <use xlink:href="#DejaVuSans-6e" transform="translate(576.708984 0)"/>
    <use xlink:href="#DejaVuSans-69" transform="translate(640.087891 0)"/>
    <use xlink:href="#DejaVuSans-74" transform="translate(667.871094 0)"/>
    <use xlink:href="#DejaVuSans-65" transform="translate(707.080078 0)"/>
    <use xlink:href="#DejaVuSans-2d" transform="translate(768.603516 0)"/>
    <use xlink:href="#DejaVuSans-64" transform="translate(804.6875 0)"/>
    <use xlink:href="#DejaVuSans-6f" transform="translate(868.164062 0)"/>
    <use xlink:href="#DejaVuSans-6d" transform="translate(929.345703 0)"/>
    <use xlink:href="#DejaVuSans-61" transform="translate(1026.757812 0)"/>
    <use xlink:href="#DejaVuSans-69" transform="translate(1088.037109 0)"/>
    <use xlink:href="#DejaVuSans-6e" transform="translate(1115.820312 0)"/>
    <use xlink:href="#DejaVuSans-20" transform="translate(1179.199219 0)"/>
    <use xlink:href="#DejaVuSans-6f" transform="translate(1210.986328 0)"/>
    <use xlink:href="#DejaVuSans-62" transform="translate(1272.167969 0)"/>
    <use xlink:href="#DejaVuSans-73" transform="translate(1335.644531 0)"/>
    <use xlink:href="#DejaVuSans-65" transform="translate(1387.744141 0)"/>
    <use xlink:href="#DejaVuSans-72" transform="translate(1449.267578 0)"/>
    <use xlink:href="#DejaVuSans-76" transform="translate(1490.380859 0)"/>
    <use xlink:href="#DejaVuSans-61" transform="translate(1549.560547 0)"/>
    <use xlink:href="#DejaVuSans-74" transform="translate(1610.839844 0)"/>
    <use xlink:href="#DejaVuSans-69" transform="translate(1650.048828 0)"/>
    <use xlink:href="#DejaVuSans-6f" transform="translate(1677.832031 0)"/>
    <use xlink:href="#DejaVuSans-6e" transform="translate(1739.013672 0)"/>
    <use xlink:href="#DejaVuSans-3a" transform="translate(1802.392578 0)"/>
    <use xlink:href="#DejaVuSans-20" transform="translate(1836.083984 0)"/>
    <use xlink:href="#DejaVuSans-31" transform="translate(1867.871094 0)"/>
    <use xlink:href="#DejaVuSans-30" transform="translate(1931.494141 0)"/>
    <use xlink:href="#DejaVuSans-38" transform="translate(1995.117188 0)"/>
    <use xlink:href="#DejaVuSans-2c" transform="translate(2058.740234 0)"/>
    <use xlink:href="#DejaVuSans-33" transform="translate(2090.527344 0)"/>
    <use xlink:href="#DejaVuSans-34" transform="translate(2154.150391 0)"/>
    <use xlink:href="#DejaVuSans-30" transform="translate(2217.773438 0)"/>
    <use xlink:href="#DejaVuSans-2c" transform="translate(2281.396484 0)"/>
    <use xlink:href="#DejaVuSans-32" transform="translate(2313.183594 0)"/>
    <use xlink:href="#DejaVuSans-39" transform="translate(2376.806641 0)"/>
    <use xlink:href="#DejaVuSans-38" transform="translate(2440.429688 0)"/>
    <use xlink:href="#DejaVuSans-2c" transform="translate(2504.052734 0)"/>
    <use xlink:href="#DejaVuSans-37" transform="translate(2535.839844 0)"/>
    <use xlink:href="#DejaVuSans-30" transform="translate(2599.462891 0)"/>
    <use xlink:href="#DejaVuSans-33" transform="translate(2663.085938 0)"/>
    <use xlink:href="#DejaVuSans-20" transform="translate(2726.708984 0)"/>
    <use xlink:href="#DejaVuSans-67" transform="translate(2758.496094 0)"/>
    <use xlink:href="#DejaVuSans-61" transform="translate(2821.972656 0)"/>
    <use xlink:href="#DejaVuSans-70" transform="translate(2883.251953 0)"/>
    <use xlink:href="#DejaVuSans-73" transform="translate(2946.728516 0)"/>
    <use xlink:href="#DejaVuSans-20" transform="translate(2998.828125 0)"/>
    <use xlink:href="#DejaVuSans-b7" transform="translate(3030.615234 0)"/>
    <use xlink:href="#DejaVuSans-20" transform="translate(3062.402344 0)"/>
    <use xlink:href="#DejaVuSans-35" transform="translate(3094.189453 0)"/>
    <use xlink:href="#DejaVuSans-2c" transform="translate(3157.8125 0)"/>
    <use xlink:href="#DejaVuSans-31" transform="translate(3189.599609 0)"/>
    <use xlink:href="#DejaVuSans-37" transform="translate(3253.222656 0)"/>
    <use xlink:href="#DejaVuSans-33" transform="translate(3316.845703 0)"/>
    <use xlink:href="#DejaVuSans-2c" transform="translate(3380.46875 0)"/>
    <use xlink:href="#DejaVuSans-37" transform="translate(3412.255859 0)"/>
    <use xlink:href="#DejaVuSans-36" transform="translate(3475.878906 0)"/>
    <use xlink:href="#DejaVuSans-30" transform="translate(3539.501953 0)"/>
    <use xlink:href="#DejaVuSans-2c" transform="translate(3603.125 0)"/>
    <use xlink:href="#DejaVuSans-37" transform="translate(3634.912109 0)"/>
    <use xlink:href="#DejaVuSans-38" transform="translate(3698.535156 0)"/>
    <use xlink:href="#DejaVuSans-35" transform="translate(3762.158203 0)"/>
    <use xlink:href="#DejaVuSans-20" transform="translate(3825.78125 0)"/>
    <use xlink:href="#DejaVuSans-74" transform="translate(3857.568359 0)"/>
    <use xlink:href="#DejaVuSans-77" transform="translate(3896.777344 0)"/>
    <use xlink:href="#DejaVuSans-69" transform="translate(3978.564453 0)"/>
    <use xlink:href="#DejaVuSans-6e" transform="translate(4006.347656 0)"/>
    <use xlink:href="#DejaVuSans-20" transform="translate(4069.726562 0)"/>
    <use xlink:href="#DejaVuSans-65" transform="translate(4101.513672 0)"/>
    <use xlink:href="#DejaVuSans-76" transform="translate(4163.037109 0)"/>
    <use xlink:href="#DejaVuSans-65" transform="translate(4222.216797 0)"/>
    <use xlink:href="#DejaVuSans-6e" transform="translate(4283.740234 0)"/>
    <use xlink:href="#DejaVuSans-74" transform="translate(4347.119141 0)"/>
    <use xlink:href="#DejaVuSans-73" transform="translate(4386.328125 0)"/>
    <use xlink:href="#DejaVuSans-20" transform="translate(4438.427734 0)"/>
    <use xlink:href="#DejaVuSans-b7" transform="translate(4470.214844 0)"/>
    <use xlink:href="#DejaVuSans-20" transform="translate(4502.001953 0)"/>
    <use xlink:href="#DejaVuSans-65" transform="translate(4533.789062 0)"/>
    <use xlink:href="#DejaVuSans-76" transform="translate(4595.3125 0)"/>
    <use xlink:href="#DejaVuSans-65" transform="translate(4654.492188 0)"/>
    <use xlink:href="#DejaVuSans-6e" transform="translate(4716.015625 0)"/>
    <use xlink:href="#DejaVuSans-74" transform="translate(4779.394531 0)"/>
    <use xlink:href="#DejaVuSans-20" transform="translate(4818.603516 0)"/>
    <use xlink:href="#DejaVuSans-64" transform="translate(4850.390625 0)"/>
    <use xlink:href="#DejaVuSans-65" transform="translate(4913.867188 0)"/>
    <use xlink:href="#DejaVuSans-66" transform="translate(4975.390625 0)"/>
    <use xlink:href="#DejaVuSans-69" transform="translate(5010.595703 0)"/>
    <use xlink:href="#DejaVuSans-6e" transform="translate(5038.378906 0)"/>
    <use xlink:href="#DejaVuSans-69" transform="translate(5101.757812 0)"/>
    <use xlink:href="#DejaVuSans-74" transform="translate(5129.541016 0)"/>
    <use xlink:href="#DejaVuSans-69" transform="translate(5168.75 0)"/>
    <use xlink:href="#DejaVuSans-6f" transform="translate(5196.533203 0)"/>
    <use xlink:href="#DejaVuSans-6e" transform="translate(5257.714844 0)"/>
    <use xlink:href="#DejaVuSans-20" transform="translate(5321.09375 0)"/>
    <use xlink:href="#DejaVuSans-67" transform="translate(5352.880859 0)"/>
    <use xlink:href="#DejaVuSans-28" transform="translate(5416.357422 0)"/>
    <use xlink:href="#DejaVuSans-69" transform="translate(5455.371094 0)"/>
    <use xlink:href="#DejaVuSans-29" transform="translate(5483.154297 0)"/>
    <use xlink:href="#DejaVuSans-20" transform="translate(5522.167969 0)"/>
    <use xlink:href="#DejaVuSans-3d" transform="translate(5553.955078 0)"/>
    <use xlink:href="#DejaVuSans-20" transform="translate(5637.744141 0)"/>
    <use xlink:href="#DejaVuSans-32" transform="translate(5669.53125 0)"/>
    <use xlink:href="#DejaVuSans-2e" transform="translate(5733.154297 0)"/>
   </g>
  </g>
 </g>
 <defs>
  <clipPath id="p333a79e25a">
   <rect x="39.632812" y="48.96" width="502.2" height="321.552"/>
  </clipPath>
 </defs>
</svg>
